<svg viewBox="0 0 330 200" xmlns="http://www.w3.org/2000/svg"><g><g><g><g><g><line x1="70" y1="178" x2="65" y2="178" style="visibility: inherit;" fill="rgb(0, 0, 0)" stroke="rgb(204, 204, 204)" stroke-width="1px"></line><line x1="70" y1="163.16666666666666" x2="65" y2="163.16666666666666" style="visibility: inherit;" fill="rgb(0, 0, 0)" stroke="rgb(204, 204, 204)" stroke-width="1px"></line><line x1="70" y1="148.33333333333331" x2="65" y2="148.33333333333331" style="visibility: inherit;" fill="rgb(0, 0, 0)" stroke="rgb(204, 204, 204)" stroke-width="1px"></line><line x1="70" y1="133.49999999999997" x2="65" y2="133.49999999999997" style="visibility: inherit;" fill="rgb(0, 0, 0)" stroke="rgb(204, 204, 204)" stroke-width="1px"></line><line x1="70" y1="118.66666666666663" x2="65" y2="118.66666666666663" style="visibility: inherit;" fill="rgb(0, 0, 0)" stroke="rgb(204, 204, 204)" stroke-width="1px"></line><line x1="70" y1="103.83333333333329" x2="65" y2="103.83333333333329" style="visibility: inherit;" fill="rgb(0, 0, 0)" stroke="rgb(204, 204, 204)" stroke-width="1px"></line><line x1="70" y1="88.99999999999994" x2="65" y2="88.99999999999994" style="visibility: inherit;" fill="rgb(0, 0, 0)" stroke="rgb(204, 204, 204)" stroke-width="1px"></line><line x1="70" y1="74.16666666666671" x2="65" y2="74.16666666666671" style="visibility: inherit;" fill="rgb(0, 0, 0)" stroke="rgb(204, 204, 204)" stroke-width="1px"></line><line x1="70" y1="59.33333333333336" x2="65" y2="59.33333333333336" style="visibility: inherit;" fill="rgb(0, 0, 0)" stroke="rgb(204, 204, 204)" stroke-width="1px"></line><line x1="70" y1="44.50000000000003" x2="65" y2="44.50000000000003" style="visibility: inherit;" fill="rgb(0, 0, 0)" stroke="rgb(204, 204, 204)" stroke-width="1px"></line><line x1="70" y1="29.666666666666686" x2="65" y2="29.666666666666686" style="visibility: inherit;" fill="rgb(0, 0, 0)" stroke="rgb(204, 204, 204)" stroke-width="1px"></line><line x1="70" y1="14.833333333333343" x2="65" y2="14.833333333333343" style="visibility: inherit;" fill="rgb(0, 0, 0)" stroke="rgb(204, 204, 204)" stroke-width="1px"></line><line x1="70" y1="0" x2="65" y2="0" style="visibility: inherit;" fill="rgb(0, 0, 0)" stroke="rgb(204, 204, 204)" stroke-width="1px"></line></g><g transform="translate(60, 0)"><text x="0" y="178" dx="0em" dy="0.3em" style="text-anchor: end; visibility: hidden; font-family: &quot;Helvetica Neue&quot;, sans-serif; font-size: 12px; font-weight: 200;" fill="rgb(50, 49, 63)" stroke="none" stroke-width="1px">0.022</text><text x="0" y="163.16666666666666" dx="0em" dy="0.3em" style="text-anchor: end; visibility: inherit; font-family: &quot;Helvetica Neue&quot;, sans-serif; font-size: 12px; font-weight: 200;" fill="rgb(50, 49, 63)" stroke="none" stroke-width="1px">0.0225</text><text x="0" y="148.33333333333331" dx="0em" dy="0.3em" style="text-anchor: end; visibility: hidden; font-family: &quot;Helvetica Neue&quot;, sans-serif; font-size: 12px; font-weight: 200;" fill="rgb(50, 49, 63)" stroke="none" stroke-width="1px">0.023</text><text x="0" y="133.49999999999997" dx="0em" dy="0.3em" style="text-anchor: end; visibility: inherit; font-family: &quot;Helvetica Neue&quot;, sans-serif; font-size: 12px; font-weight: 200;" fill="rgb(50, 49, 63)" stroke="none" stroke-width="1px">0.0235</text><text x="0" y="118.66666666666663" dx="0em" dy="0.3em" style="text-anchor: end; visibility: hidden; font-family: &quot;Helvetica Neue&quot;, sans-serif; font-size: 12px; font-weight: 200;" fill="rgb(50, 49, 63)" stroke="none" stroke-width="1px">0.024</text><text x="0" y="103.83333333333329" dx="0em" dy="0.3em" style="text-anchor: end; visibility: inherit; font-family: &quot;Helvetica Neue&quot;, sans-serif; font-size: 12px; font-weight: 200;" fill="rgb(50, 49, 63)" stroke="none" stroke-width="1px">0.0245</text><text x="0" y="88.99999999999994" dx="0em" dy="0.3em" style="text-anchor: end; visibility: hidden; font-family: &quot;Helvetica Neue&quot;, sans-serif; font-size: 12px; font-weight: 200;" fill="rgb(50, 49, 63)" stroke="none" stroke-width="1px">0.025</text><text x="0" y="74.16666666666671" dx="0em" dy="0.3em" style="text-anchor: end; visibility: inherit; font-family: &quot;Helvetica Neue&quot;, sans-serif; font-size: 12px; font-weight: 200;" fill="rgb(50, 49, 63)" stroke="none" stroke-width="1px">0.0255</text><text x="0" y="59.33333333333336" dx="0em" dy="0.3em" style="text-anchor: end; visibility: hidden; font-family: &quot;Helvetica Neue&quot;, sans-serif; font-size: 12px; font-weight: 200;" fill="rgb(50, 49, 63)" stroke="none" stroke-width="1px">0.026</text><text x="0" y="44.50000000000003" dx="0em" dy="0.3em" style="text-anchor: end; visibility: inherit; font-family: &quot;Helvetica Neue&quot;, sans-serif; font-size: 12px; font-weight: 200;" fill="rgb(50, 49, 63)" stroke="none" stroke-width="1px">0.0265</text><text x="0" y="29.666666666666686" dx="0em" dy="0.3em" style="text-anchor: end; visibility: hidden; font-family: &quot;Helvetica Neue&quot;, sans-serif; font-size: 12px; font-weight: 200;" fill="rgb(50, 49, 63)" stroke="none" stroke-width="1px">0.027</text><text x="0" y="14.833333333333343" dx="0em" dy="0.3em" style="text-anchor: end; visibility: inherit; font-family: &quot;Helvetica Neue&quot;, sans-serif; font-size: 12px; font-weight: 200;" fill="rgb(50, 49, 63)" stroke="none" stroke-width="1px">0.0275</text><text x="0" y="0" dx="0em" dy="0.3em" style="text-anchor: end; visibility: hidden; font-family: &quot;Helvetica Neue&quot;, sans-serif; font-size: 12px; font-weight: 200;" fill="rgb(50, 49, 63)" stroke="none" stroke-width="1px">0.028</text></g><line x1="70" y1="0" x2="70" y2="178" fill="rgb(0, 0, 0)" stroke="rgb(204, 204, 204)" stroke-width="1px"></line></g></g><g transform="translate(70, 0)" clip-path="url(#clip_0)"><clipPath id="clip_0"><rect width="260" height="178"></rect></clipPath><g><g><g><line x1="0" y1="0" x2="0" y2="178" fill="rgb(0, 0, 0)" stroke="rgb(60, 60, 60)" stroke-width="1px" opacity="0.25"></line><line x1="21.666666666666664" y1="0" x2="21.666666666666664" y2="178" fill="rgb(0, 0, 0)" stroke="rgb(60, 60, 60)" stroke-width="1px" opacity="0.25"></line><line x1="43.33333333333333" y1="0" x2="43.33333333333333" y2="178" fill="rgb(0, 0, 0)" stroke="rgb(60, 60, 60)" stroke-width="1px" opacity="0.25"></line><line x1="65" y1="0" x2="65" y2="178" fill="rgb(0, 0, 0)" stroke="rgb(60, 60, 60)" stroke-width="1px" opacity="0.25"></line><line x1="86.66666666666666" y1="0" x2="86.66666666666666" y2="178" fill="rgb(0, 0, 0)" stroke="rgb(60, 60, 60)" stroke-width="1px" opacity="0.25"></line><line x1="108.33333333333334" y1="0" x2="108.33333333333334" y2="178" fill="rgb(0, 0, 0)" stroke="rgb(60, 60, 60)" stroke-width="1px" opacity="0.25"></line><line x1="130" y1="0" x2="130" y2="178" fill="rgb(0, 0, 0)" stroke="rgb(60, 60, 60)" stroke-width="1px" opacity="0.25"></line><line x1="151.66666666666669" y1="0" x2="151.66666666666669" y2="178" fill="rgb(0, 0, 0)" stroke="rgb(60, 60, 60)" stroke-width="1px" opacity="0.25"></line><line x1="173.33333333333331" y1="0" x2="173.33333333333331" y2="178" fill="rgb(0, 0, 0)" stroke="rgb(60, 60, 60)" stroke-width="1px" opacity="0.25"></line><line x1="195" y1="0" x2="195" y2="178" fill="rgb(0, 0, 0)" stroke="rgb(60, 60, 60)" stroke-width="1px" opacity="0.25"></line><line x1="216.66666666666669" y1="0" x2="216.66666666666669" y2="178" fill="rgb(0, 0, 0)" stroke="rgb(60, 60, 60)" stroke-width="1px" opacity="0.25"></line><line x1="238.33333333333331" y1="0" x2="238.33333333333331" y2="178" fill="rgb(0, 0, 0)" stroke="rgb(60, 60, 60)" stroke-width="1px" opacity="0.25"></line><line x1="260" y1="0" x2="260" y2="178" fill="rgb(0, 0, 0)" stroke="rgb(60, 60, 60)" stroke-width="1px" opacity="0.25"></line></g><g><line x1="0" y1="178" x2="260" y2="178" fill="rgb(0, 0, 0)" stroke="rgb(60, 60, 60)" stroke-width="1px" opacity="0.25"></line><line x1="0" y1="163.16666666666666" x2="260" y2="163.16666666666666" fill="rgb(0, 0, 0)" stroke="rgb(60, 60, 60)" stroke-width="1px" opacity="0.25"></line><line x1="0" y1="148.33333333333331" x2="260" y2="148.33333333333331" fill="rgb(0, 0, 0)" stroke="rgb(60, 60, 60)" stroke-width="1px" opacity="0.25"></line><line x1="0" y1="133.49999999999997" x2="260" y2="133.49999999999997" fill="rgb(0, 0, 0)" stroke="rgb(60, 60, 60)" stroke-width="1px" opacity="0.25"></line><line x1="0" y1="118.66666666666663" x2="260" y2="118.66666666666663" fill="rgb(0, 0, 0)" stroke="rgb(60, 60, 60)" stroke-width="1px" opacity="0.25"></line><line x1="0" y1="103.83333333333329" x2="260" y2="103.83333333333329" fill="rgb(0, 0, 0)" stroke="rgb(60, 60, 60)" stroke-width="1px" opacity="0.25"></line><line x1="0" y1="88.99999999999994" x2="260" y2="88.99999999999994" fill="rgb(0, 0, 0)" stroke="rgb(60, 60, 60)" stroke-width="1px" opacity="0.25"></line><line x1="0" y1="74.16666666666671" x2="260" y2="74.16666666666671" fill="rgb(0, 0, 0)" stroke="rgb(60, 60, 60)" stroke-width="1px" opacity="0.25"></line><line x1="0" y1="59.33333333333336" x2="260" y2="59.33333333333336" fill="rgb(0, 0, 0)" stroke="rgb(60, 60, 60)" stroke-width="1px" opacity="0.25"></line><line x1="0" y1="44.50000000000003" x2="260" y2="44.50000000000003" fill="rgb(0, 0, 0)" stroke="rgb(60, 60, 60)" stroke-width="1px" opacity="0.25"></line><line x1="0" y1="29.666666666666686" x2="260" y2="29.666666666666686" fill="rgb(0, 0, 0)" stroke="rgb(60, 60, 60)" stroke-width="1px" opacity="0.25"></line><line x1="0" y1="14.833333333333343" x2="260" y2="14.833333333333343" fill="rgb(0, 0, 0)" stroke="rgb(60, 60, 60)" stroke-width="1px" opacity="0.25"></line><line x1="0" y1="0" x2="260" y2="0" fill="rgb(0, 0, 0)" stroke="rgb(60, 60, 60)" stroke-width="1px" opacity="0.25"></line></g></g></g><g><g><line x1="0" y1="830.6666666666664" x2="260" y2="830.6666666666664" fill="rgb(0, 0, 0)" stroke="rgb(153, 153, 153)" stroke-width="1.5px"></line></g></g><g><g><line x1="21.666666666666664" y1="0" x2="21.666666666666664" y2="178" fill="rgb(0, 0, 0)" stroke="rgb(153, 153, 153)" stroke-width="1.5px"></line></g></g><g><g><g><g><g><path stroke="rgb(204, 51, 17)" stroke-width="2px" d="M22.143333333333334,75.24317112068324L22.576666666666668,92.00106278931099L23.053333333333335,52.35466625232283L23.486666666666668,82.91156206838797L23.96333333333333,83.47406616640166L24.39666666666667,98.75206767781076L24.916666666666668,119.92892727941415L25.35,91.52173298963321L25.826666666666664,100.05948146710703L26.26,109.64099133085249L26.736666666666665,92.44138050487969L27.169999999999998,86.95506775737502L27.64666666666667,80.40754848294381L28.08,81.5847346269809L28.55666666666667,65.83748876178963L28.990000000000002,66.8194765923758L29.423333333333332,76.31430551237557L29.900000000000002,105.84320890014534L30.333333333333332,106.10948439639061L30.81,101.94541517734982L31.33,97.28599742814716L31.763333333333335,75.54926038806146L32.24,88.50948097488748L32.76,94.61580569058913L33.193333333333335,90.17132851826375L33.67,110.92117538681356L34.10333333333333,85.11615569731676L34.58,72.40735885687826L35.01333333333333,72.21660761870866L35.446666666666665,92.90719754846643L35.88,102.7606053707785L36.35666666666667,112.05307551615317L36.79,115.30679492429823L37.22333333333333,98.1257134180588L37.699999999999996,103.14382033836483L38.13333333333333,106.68940963006332L38.56666666666667,110.89448177033087L39,108.33301611314836L39.47666666666667,98.75273551537408L39.91,115.70958845295542L40.343333333333334,112.10906703070928L40.776666666666664,98.53487348775175L41.25333333333334,101.03667576516455L41.68666666666667,95.94743273808685L42.120000000000005,101.28333877472397L42.596666666666664,124.04848157675974L43.03,112.32989260696372L43.46333333333333,109.97696573615552L43.940000000000005,95.00077968466262L44.373333333333335,102.27867544673593L44.806666666666665,113.43270059620421L45.239999999999995,117.80960885006513L45.71666666666667,111.68314326792873L46.193333333333335,109.64032861584165L46.67,114.51029036836378L47.10333333333333,133.1121243063473L47.58,128.79145835581505L48.013333333333335,118.60230077749202L48.446666666666665,95.34159375495942L48.92333333333334,109.27290505727535L49.4,88.20918539699092L49.876666666666665,97.75490955831329L50.31,100.43525924675687L50.78666666666667,123.65892584955532L51.22,102.57472645343833L51.65333333333333,97.4331480588603L52.13,79.47677559213375L52.56333333333333,96.51065125598434L52.99666666666667,103.38019127965333L53.43,106.1386445640744L53.906666666666666,105.70366426781145L54.339999999999996,89.27926336015457L54.77333333333333,101.62387431831276L55.25,109.52805556160881L55.68333333333334,113.09775848171711L56.11666666666666,110.45976654677548L56.593333333333334,105.72120421323544L57.026666666666664,99.49260122096557L57.46,102.16593064377317L57.89333333333334,104.7895355334458L58.370000000000005,122.27771865788559L58.80333333333333,122.40352014778132L59.236666666666665,115.61552296724754L59.71333333333333,98.75759391971533L60.14666666666667,121.68326986822353L60.580000000000005,102.11863418813275L61.013333333333335,86.56865381039611L61.489999999999995,99.30105290117321L61.92333333333333,100.93776445966432L62.35666666666667,124.39683829177292L62.833333333333336,89.14876873550148L63.26666666666667,96.8447171623945L63.699999999999996,79.93285581919187L64.17666666666666,109.9302016483901L64.61,100.34800022167911L65.04333333333332,100.94087111149004L65.47666666666667,96.32664660529552L65.95333333333333,88.69003938187903L66.38666666666667,86.55874410797999L66.82000000000001,94.82907310444021L67.29666666666667,96.71319674244259L67.73,81.87872452611164L68.16333333333333,76.57784335260246L68.59666666666666,55.2833441403189L69.07333333333334,73.49619292855336L69.50666666666666,90.73218734844566L69.94,104.30145349771203L70.41666666666666,100.2145120958711L70.85000000000001,76.47393221022041L71.28333333333333,60.330748431054815L71.76,96.48717875212517L72.19333333333333,91.48312686441389L72.62666666666667,110.91479574377169L73.06,107.07479011457069L73.53666666666666,114.47085904543151L73.97,123.69101070442522L74.40333333333334,115.41765641617022L74.88,85.99292829104607L75.31333333333333,68.93017489990604L75.74666666666667,86.48616425363822L76.17999999999999,88.00710095863705L76.65666666666667,87.4330111338764L77.09,78.43021765911989L77.52333333333334,87.53101723331852L78,94.41908856991117L78.43333333333334,112.1930158541393L78.86666666666667,93.3514475925242L79.34333333333333,93.05215982815471L79.77666666666667,97.08012200924266L80.21,83.0274209590704L80.68666666666667,106.33447670809137L81.12,106.21338819387582L81.55333333333333,112.59320063942486L82.03,92.62225854130867L82.46333333333332,105.38598462183643L82.89666666666668,121.25032450898107L83.33,104.08569501127965L83.80666666666667,104.18868381154232L84.24000000000001,116.92040496690095L84.67333333333333,112.01801888916698L85.15,120.74131929143556L85.58333333333333,109.36119869906274L86.01666666666667,109.33999763861446L86.45,87.37615814567698L86.92666666666666,96.51529277420698L87.36,86.37147852414847L87.79333333333334,89.6890547651092L88.27000000000001,99.67377745378253L88.70333333333333,85.76324999889667L89.13666666666667,67.09166685677128L89.57,97.18752910258308L90.04666666666667,85.78341700968305L90.47999999999999,78.12564414344521L90.91333333333334,67.6055480794248L91.39,62.53028557833848L91.82333333333334,77.84643550994085L92.25666666666666,97.48755828310293L92.73333333333333,96.4598256256337L93.16666666666667,99.42212258812707L93.6,92.58947919430486L94.07666666666667,89.73946405423972L94.50999999999999,106.63756884519233L94.94333333333333,108.26207361648864L95.42,129.6517761033598L95.85333333333332,111.12873515974428L96.28666666666668,74.90855504566996L96.76333333333332,101.92281923986218L97.19666666666667,90.87208579955545L97.63,110.39130335238404L98.10666666666667,100.27195746413963L98.54,98.31093930629154L98.97333333333333,108.52239233907409L99.45,96.64432966901666L99.88333333333333,98.90555293476856L100.31666666666666,105.25749810804697L100.75,90.61127434732381L101.22666666666666,96.71804145909462L101.66,107.27862436733905L102.09333333333333,94.93951121069348L102.57000000000001,89.25856042959697L103.00333333333333,57.71642055148928L103.43666666666667,66.77007072390148L103.91333333333334,90.77894368303431L104.34666666666666,86.95655291000564L104.78,90.82642746400565L105.25666666666666,106.4313175684118L105.69,79.51587068076354L106.12333333333333,56.41829166632148L106.6,70.46810223552333L107.03333333333333,68.39534221028939L107.46666666666667,54.81943179529304L107.94333333333334,60.47537432329689L108.37666666666667,82.03405759066447L108.85333333333334,82.1843357423749L109.28666666666666,74.48880485533516L109.72,72.01748226784973L110.15333333333334,79.39138410907964L110.63,84.5216632550278L111.06333333333333,86.1002926189891L111.49666666666667,94.96746820762903L111.97333333333333,95.89923406772895L112.40666666666667,82.7226729063178L112.84,81.8817087790163L113.31666666666668,90.4756367731567L113.75,110.02019470702464L114.18333333333332,115.71902581118061L114.61666666666667,95.9016946100941L115.09333333333333,95.35216908119622L115.52666666666667,111.80568973101683L115.96000000000001,94.3158399216981L116.43666666666667,92.41961791630486L116.87,84.52308828939533L117.34666666666666,77.87791327422576L117.78,77.29753731758821L118.21333333333334,98.98451189242657L118.69,99.82334350174382L119.12333333333333,103.88992982482344L119.55666666666666,84.89279917901023L120.03333333333333,70.00901526029074L120.46666666666667,32.732408276091945L120.9,70.67673483941411L121.33333333333333,80.1094170935161L121.81,110.46810494624823L122.24333333333334,113.14211533127174L122.67666666666666,117.07593142981094L123.15333333333334,135.6160345335489L123.58666666666666,116.86369685886419L124.02,99.42853960131481L124.49666666666667,96.21479287982908L124.92999999999999,75.67683952793043L125.36333333333334,85.71975753949815L125.79666666666667,115.84496610709067L126.27333333333334,136.71141774067104L126.70666666666666,93.3217606342364L127.14,118.63219416120828L127.61666666666667,110.44000906931862L128.05,113.58953949324787L128.48333333333332,97.04591537026072L128.91666666666666,97.51529634301357L129.39333333333332,97.38752595367717L129.82666666666668,95.02499752908555L130.30333333333334,116.08706926109156L130.73666666666668,110.67640882214965L131.21333333333334,106.98515974967322L131.64666666666665,107.34302376402599L132.08,90.13912218228883L132.55666666666667,82.33214691330531L132.98999999999998,90.2989470226538L133.42333333333332,109.60570595838456L133.9,87.16241161929264L134.33333333333334,90.2814919962885L134.76666666666665,122.01099394645706L135.24333333333334,110.59349623254785L135.67666666666668,115.57122842231496L136.10999999999999,118.59831693823605L136.58666666666667,105.95378138058656L137.02,116.2984786635634L137.49666666666667,121.2017496609288L137.93,90.90149704318831L138.36333333333334,110.96717119039047L138.84,85.899074499732L139.2733333333333,66.39147520160218L139.70666666666668,71.16375441012109L140.18333333333334,74.28623996570107L140.61666666666667,103.8505919281308L141.04999999999998,144.89769108714643L141.52666666666667,147.79812016261803L141.96,142.3988061001292L142.39333333333332,115.87155107361419L142.87,106.87384619138052L143.30333333333334,110.44139674199467L143.73666666666665,97.3230071279973L144.21333333333334,111.15657311758818L144.64666666666668,117.78792893736419L145.08,120.67819472262573L145.55666666666664,122.38817308610265L145.99,93.67369641025225L146.42333333333335,86.46956046517317L146.85666666666665,91.00061350720499L147.33333333333334,105.51354744826178L147.76666666666668,97.42368253942976L148.2,103.42721356278648L148.67666666666665,101.16702711180437L149.11,100.5405039087669L149.54333333333335,106.23121878081972L149.97666666666666,129.5939121638203L150.45333333333332,149.13602716293718L150.88666666666668,153.0970607751615L151.32,136.72417168740475L151.79666666666665,125.55310404851463L152.23000000000002,139.28135542603985L152.66333333333333,131.8773071241338L153.09666666666666,94.49921483031663L153.57333333333332,94.29466479161428L154.0066666666667,108.45251450422835L154.48333333333332,112.97442748437383L154.91666666666666,142.2485106505357L155.35,122.90792641544749L155.78333333333333,113.90801821254341L156.26,101.93956494392548L156.69333333333333,90.67113426960462L157.12666666666667,75.3241911945956L157.60333333333332,89.62605203300012L158.03666666666666,73.56898487275423L158.47,84.4834033946131L158.94666666666666,96.72204155126813L159.38,75.43130061665929L159.81333333333333,83.72580655002443L160.24666666666664,71.37137533376914L160.72333333333333,45.06286080966572L161.15666666666667,86.46262362971011L161.59,94.4662414275056L162.06666666666666,102.60239890510515L162.5,93.96868877983891L162.93333333333334,111.37991674369654L163.41,108.87117196297287L163.84333333333333,111.81118188406411L164.27666666666667,100.04952725234854L164.70999999999998,93.38579797226124L165.18666666666667,79.58663033134505L165.62,82.78771846107699L166.05333333333334,87.00758797692494L166.48666666666665,63.69876903554146L166.96333333333334,82.63492850419085L167.39666666666668,95.31575444711959L167.82999999999998,81.1367625457468L168.30666666666667,80.28443415338333L168.74,94.89323619231303L169.17333333333332,93.69897342259526L169.60666666666665,88.50062206904992L170.08333333333334,79.77935256473764L170.51666666666668,90.84277865039836L170.95,69.81017617035437L171.38333333333333,92.50484579989433L171.86,108.6151087990747L172.29333333333332,90.45190613337432L172.72666666666666,101.03282027563296L173.20333333333335,96.8909234650186L173.63666666666666,108.45072088324537L174.07,103.11992568979764L174.54666666666668,79.78442117101011L174.98000000000002,95.04851401165759L175.41333333333333,85.82260844895617L175.89,97.3752615379653L176.32333333333335,114.19155530893974L176.75666666666666,118.48801118392252L177.23333333333332,112.93970632508501L177.66666666666666,92.44558508568068L178.10000000000002,93.48910445793314L178.53333333333333,116.03928038968948L179.01,104.33827887273414L179.44333333333336,107.85244055368454L179.87666666666667,119.74924659994016L180.31,119.57877831022014L180.78666666666666,105.83344565248528L181.22,123.58953503220903L181.65333333333334,86.25429954200763L182.13,112.79220575334497L182.56333333333333,107.22397897785025L182.99666666666667,86.009513071051L183.47333333333333,112.35193348380172L183.90666666666667,118.17976116608924L184.34,92.85551717164925L184.81666666666666,83.6460380630661L185.25,111.59752484025366L185.6833333333333,107.12020792680063L186.11666666666667,89.6726661569898L186.59333333333333,92.13827078026681L187.02666666666667,101.25866465061199L187.45999999999998,112.05792826387861L187.93666666666667,112.27113141401755L188.37,70.48914877444994L188.8033333333333,104.26203232330376L189.23666666666668,96.03491386168578L189.71333333333334,78.71490959163526L190.14666666666665,82.45581402283517L190.57999999999998,84.19412276090148L191.05666666666667,79.54438013995261L191.49,75.45260074236725L191.92333333333332,61.76268986959498L192.35666666666668,86.92059493918761L192.83333333333334,77.66432154889624L193.26666666666665,98.66444191167191L193.7,89.47234074371713L194.17666666666668,81.68211082278286L194.61,95.40572879110933L195.04333333333332,81.9410909020612L195.47666666666666,89.47782208941636L195.95333333333335,82.69872950368482L196.38666666666666,94.11739463321385L196.82,104.62153241462718L197.29666666666668,103.79072093820892L197.73,106.48265933904848L198.16333333333333,79.57149784910963L198.59666666666666,53.66613256224959L199.07333333333335,81.47490933511028L199.50666666666666,98.6649062890213L199.98333333333332,87.73164592733396L200.41666666666669,80.92534743875513L200.85,84.99343086757413L201.32666666666665,99.26881120887289L201.76000000000002,94.61873251569399L202.19333333333333,78.28127498053789L202.62666666666667,90.93213041994936L203.10333333333332,87.0877647779821L203.5366666666667,87.01568751429156L203.97,96.55567494965376L204.44666666666666,106.45263255002168L204.88,84.56222026365238L205.31333333333333,94.12154458850962L205.79,118.88722885980417L206.22333333333333,117.1825806617789L206.70000000000002,102.76374543230048L207.13333333333333,83.34270057392301L207.56666666666666,82.93008908616802L208.04333333333335,78.9683349986114L208.47666666666666,86.80676168159069L208.91,102.4418887016501L209.38666666666666,103.63686424199705L209.82000000000002,89.01467221600193L210.25333333333333,75.14243668490083L210.73,82.2487418880469L211.16333333333336,107.31362663490015L211.59666666666666,77.25611786315307L212.07333333333332,81.00571824870192L212.50666666666666,85.10752145307268L212.94,85.88492191746047L213.41666666666666,94.21610169359575L213.85,92.90937574951963L214.32666666666668,100.03559055874211L214.76,117.7184616562692L215.19333333333333,106.35675244353017L215.67000000000002,100.76838800602233L216.10333333333335,99.48745155509162L216.57999999999998,100.60205422943346L217.01333333333332,106.6556434876055L217.4466666666667,75.01662332691727L217.92333333333332,88.69154332008749L218.35666666666665,86.84895773088996L218.79000000000002,88.87373254908759L219.26666666666668,93.94254436421579L219.7,80.60497698979485L220.13333333333333,77.61678931393374L220.5666666666667,87.70376314686634L221.04333333333332,77.91665881455079L221.47666666666666,82.41645575908898L221.95333333333335,112.8329007964218L222.38666666666666,120.60523090208878L222.82,96.68704596228585L223.25333333333333,107.82253621856681L223.73000000000002,84.8335228354155L224.16333333333333,87.19148118836198L224.59666666666666,87.9110383026352L225.07333333333335,76.68973321512644L225.50666666666666,91.64587861773558L225.94,85.29212540871212L226.41666666666666,77.7945975213427L226.85000000000002,57.51930054123275L227.28333333333333,78.97983137028459L227.76,76.36096679721493L228.19333333333336,87.41618697576254L228.62666666666667,71.4648718182198L229.10333333333332,99.18044452730527L229.53666666666666,108.50510432837635L229.97,102.07589967361027L230.40333333333334,115.5959287741438L230.88,94.88890652211435L231.31333333333333,108.93971267552332L231.79,78.76607471234293L232.22333333333333,98.13851971145489L232.65666666666667,107.60801144271704L233.09,80.73649811047082L233.56666666666666,85.87448643623446L234,80.82542047686567L234.4333333333333,103.59735541614214L234.91,114.83287905100372L235.34333333333333,123.99104410674214L235.77666666666667,122.13340547839428L236.20999999999998,108.3524751752195L236.68666666666667,110.13532267150744L237.12,113.24802532079299L237.5533333333333,129.91669514943652L238.03,106.17610102992948" style="fill: none;" fill="none"></path></g><g><path stroke="rgb(51, 187, 238)" stroke-width="2px" d="M22.143333333333334,120.40431841214496L22.576666666666668,55.98516511047879L23.053333333333335,112.64781627900331L23.486666666666668,105.14281298072237L23.96333333333333,85.22303924139594L24.44,91.05791159913075L24.916666666666668,93.04111472129634L25.35,88.78757030931841L25.826666666666664,114.3891910143184L26.26,103.23991859080546L26.736666666666665,113.23976977137265L27.169999999999998,119.85940589654115L27.603333333333335,110.5755975606756L28.08,94.63823815491243L28.513333333333332,51.016447397820045L28.990000000000002,61.559301247904926L29.423333333333332,84.01026185217354L29.856666666666666,79.07491276927215L30.333333333333332,82.17963002270193L30.766666666666666,76.42169623904134L31.243333333333336,75.57928442902691L31.676666666666666,102.4717805456384L32.196666666666665,88.20576600825606L32.67333333333334,111.45872710526048L33.10666666666666,105.81660723604121L33.626666666666665,104.90191190526052L34.06,109.59953940945722L34.53666666666667,104.85715767407505L34.97,101.6112832487506L35.40333333333333,107.36475865248144L35.88,103.03045906472799L36.31333333333333,84.54660403953656L36.79,69.26999828322057L37.22333333333333,57.651443171031005L37.656666666666666,73.53393304681612L38.13333333333333,79.11514256791651L38.56666666666667,73.81434786255754L39,81.77800202705491L39.47666666666667,103.93343699148896L39.91,117.97133901508569L40.343333333333334,89.96369423085366L40.776666666666664,85.6151849663029L41.25333333333334,102.0988764056934L41.68666666666667,117.20940339565028L42.120000000000005,109.08058696304558L42.596666666666664,100.9219384743537L43.03,86.8333751645637L43.46333333333333,67.09460035639111L43.940000000000005,84.61708041061979L44.373333333333335,79.06328335219104L44.806666666666665,97.09072569506256L45.28333333333333,89.03589217161908L45.71666666666667,97.63208293496538L46.15,108.10798332838694L46.583333333333336,130.06701467484714L47.059999999999995,137.03555868497045L47.49333333333333,121.93141178745023L47.92666666666666,116.14725411409839L48.403333333333336,109.13599550609557L48.836666666666666,80.38366987835096L49.27,89.31555137354599L49.74666666666666,84.52018438568783L50.18,83.32618148003644L50.61333333333333,79.71158335730208L51.04666666666667,97.54037950113286L51.52333333333333,93.60934693420836L51.95666666666667,88.68275564792704L52.39,99.61327718426553L52.86666666666667,73.14187687275681L53.3,104.11251891238221L53.733333333333334,77.56659142921004L54.16666666666667,81.50213504085714L54.64333333333333,95.80618758151786L55.07666666666667,80.86718707372667L55.51,86.38696616941651L55.986666666666665,85.6677501423396L56.42,99.6213050856136L56.85333333333334,103.29178194844386L57.33,108.32781096285771L57.763333333333335,97.35384973478035L58.196666666666665,84.92608843401104L58.63,87.81501133733006L59.10666666666667,65.14480889137397L59.54,58.29169204610076L59.97333333333333,52.51417684621107L60.45,59.52146917025145L60.88333333333333,51.8803509996726L61.31666666666667,82.23559032041183L61.75,95.49896726702659L62.22666666666667,87.76878146744771L62.66,61.519700185956594L63.093333333333334,66.95568677177151L63.57,73.86338747972326L64.00333333333333,67.89429277241668L64.43666666666667,92.44740000999232L64.87,96.85421871723484L65.34666666666668,97.54238103974913L65.78,78.3621270228369L66.21333333333332,81.6627369345591L66.69,84.39751365510813L67.12333333333333,64.13856279687991L67.55666666666667,74.09071471991288L68.03333333333333,97.46168325961919L68.46666666666665,91.75866946550984L68.9,89.27716146492631L69.33333333333333,101.84223245531525L69.81,97.04243383973954L70.24333333333334,97.6734348923174L70.67666666666666,82.63386066100244L71.15333333333334,82.59737623537333L71.58666666666666,82.4021508026406L72.02000000000001,112.19797408550686L72.45333333333333,95.54283487977416L72.93,86.86925737568842L73.36333333333333,84.38044591452147L73.79666666666667,88.66507336321752L74.27333333333334,74.53859604889124L74.70666666666666,84.12261527872472L75.14,102.2867322053297L75.61666666666666,84.61798656100724L76.05,86.14124382007935L76.48333333333333,90.03102165740022L76.91666666666667,73.10034803518428L77.39333333333335,78.30768948576112L77.82666666666667,94.51341050931566L78.25999999999999,111.48383710226672L78.69333333333333,81.65540013377614L79.17,78.16612269281192L79.60333333333332,88.70466520467703L80.03666666666668,92.95334343758803L80.51333333333332,121.93964046625834L80.94666666666667,107.53469880454863L81.38,100.3807728213059L81.85666666666667,74.95640576811552L82.29,76.07067137121311L82.72333333333333,74.06770460899173L83.15666666666667,75.12436043677029L83.63333333333333,90.35468058262637L84.06666666666666,100.21912372593698L84.5,104.03562468777857L84.97666666666666,98.1451935777511L85.41,96.98751341160815L85.84333333333333,97.24788223816967L86.27666666666666,105.02630254296866L86.75333333333333,117.39247352879283L87.18666666666667,133.2592736105186L87.62,119.05430520693827L88.09666666666666,133.8757522570314L88.53,122.67467258973252L88.96333333333334,111.93498765192419L89.44,106.79892370558969L89.87333333333333,108.52472826117587L90.30666666666667,95.59878209396788L90.74,89.54004736839492L91.21666666666667,99.08930130659789L91.64999999999999,103.73941255922662L92.08333333333334,98.53921466657852L92.56,110.75968789809546L92.99333333333334,102.7706761285878L93.42666666666666,94.66441310794453L93.90333333333334,120.84331805518049L94.33666666666667,137.4379352689432L94.77,118.90792402986565L95.24666666666667,113.42349648096487L95.67999999999999,115.53249897928033L96.11333333333333,95.02601800384713L96.54666666666667,101.4316315394L97.02333333333333,117.7572697624379L97.45666666666668,110.28579457550124L97.89,119.95935656596541L98.36666666666667,103.06923685850295L98.8,111.00923892487047L99.23333333333333,88.43203304784866L99.71000000000001,71.1945761615676L100.14333333333333,76.65947336800748L100.57666666666665,106.37015276063197L101.05333333333333,106.70192685072844L101.48666666666666,100.46344553835323L101.92,103.01781123721871L102.35333333333334,119.78163295096718L102.83,133.7039741522465L103.26333333333334,128.95712011534332L103.69666666666666,119.71222057627651L104.13000000000001,110.05159700326328L104.60666666666667,92.60468118635143L105.04,102.74447180378826L105.47333333333333,100.82196815936798L105.94999999999999,89.56794656393343L106.38333333333334,77.61005285229734L106.86,89.5353193214324L107.29333333333334,81.26596066737895L107.72666666666666,83.76896942288515L108.20333333333333,84.86424914378425L108.63666666666667,93.64036755191393L109.07,98.4264834667868L109.54666666666667,114.6532196429746L109.97999999999999,113.38272402052343L110.45666666666666,104.67313099124591L110.89,95.19965637257837L111.32333333333332,118.36518030085844L111.8,123.61793618431889L112.23333333333332,118.07477954247325L112.66666666666667,123.34885008664159L113.14333333333333,122.58801785229386L113.57666666666667,119.00313743821025L114.01,133.77540381672725L114.48666666666668,90.11262343082468L114.92,87.73073806417163L115.35333333333332,78.23895360063814L115.83,74.05750090498508L116.26333333333334,71.98413236311335L116.69666666666666,74.55590771260616L117.17333333333333,37.479246274368535L117.60666666666665,49.210910693250014L118.04,58.46418265826017L118.51666666666667,77.2025415022762L118.95,102.43094578303445L119.38333333333334,110.8718329325371L119.86,98.52313845883128L120.29333333333334,71.87537503558583L120.72666666666666,83.18656865746688L121.20333333333333,94.34869491055161L121.63666666666667,96.65738696254029L122.07,99.63415672618194L122.50333333333333,116.51347362739668L122.97999999999999,102.44777712072622L123.41333333333334,119.78504424599225L123.84666666666666,117.40636290892417L124.32333333333334,118.443372544355L124.75666666666666,119.61749995154547L125.19,111.12846955896867L125.66666666666667,107.17302220806347L126.1,96.64512835191611L126.53333333333335,117.9121396437104L126.96666666666667,134.41283664672463L127.44333333333333,120.98436543883221L127.87666666666667,110.65629210397407L128.31,121.64916539584476L128.78666666666666,126.76261399424999L129.22,111.1315696253594L129.69666666666666,97.9245254942308L130.13,81.044668852202L130.56333333333333,78.49739950433084L131.04,81.59817277909146L131.47333333333336,110.66101247382663L131.90666666666667,103.09907590535782L132.34,95.40798137299721L132.81666666666666,86.64920443721121L133.25,101.75606659309568L133.68333333333334,121.5305358007937L134.16,114.58045886568556L134.59333333333333,113.04615344174103L135.02666666666667,91.87720801373759L135.50333333333333,96.69472172026106L135.93666666666667,109.90450659492166L136.41333333333333,101.30124211370077L136.84666666666666,90.0221041802116L137.28,98.42583511651841L137.7133333333333,84.0733885986484L138.19,107.9012302948759L138.62333333333333,100.34701111875327L139.05666666666667,91.45657541729425L139.53333333333333,83.12288409497778L139.96666666666667,79.58270866886632L140.4,94.18748714655145L140.87666666666667,95.99510288713084L141.31,81.3350525149368L141.74333333333334,83.16997883212548L142.22,91.66462879474159L142.65333333333334,104.05222166833393L143.08666666666667,112.09452148431801L143.52,123.35556835226774L143.99666666666664,115.64676609412368L144.43,118.1023496455482L144.86333333333334,123.79196545480877L145.34,117.28297098675883L145.77333333333334,97.30237620194458L146.20666666666668,96.58674777420188L146.64,99.93013189358608L147.11666666666665,101.65023292376456L147.55,110.37502446536529L147.98333333333335,94.22007399656952L148.45999999999998,89.0179155897612L148.89333333333332,88.75337307044946L149.32666666666668,114.39268446200532L149.76,105.17601704935298L150.23666666666665,93.29655284090879L150.67000000000002,101.59175720058303L151.10333333333335,84.3534044260328L151.57999999999998,82.60394730773838L152.01333333333332,82.70004641775658L152.4466666666667,99.70176611004888L152.92333333333332,97.07578126385981L153.35666666666665,85.26333724336928L153.79000000000002,99.42556073791043L154.26666666666668,107.37596857464072L154.7,128.16535718589483L155.13333333333333,132.66402125368194L155.61,134.39694793627464L156.04333333333332,136.89963885708136L156.47666666666666,133.67926218845537L156.91,114.65771248780538L157.38666666666666,103.81087256576332L157.82,99.82138349079521L158.25333333333333,85.02461638726851L158.73000000000002,73.60928598649139L159.16333333333333,86.48081991835538L159.59666666666666,87.1653138782428L160.03,102.24698004836912L160.50666666666666,112.46624368656717L160.94,120.90433472928834L161.37333333333333,104.45716573121601L161.85000000000002,125.17248390707842L162.28333333333333,131.50978184497438L162.71666666666667,130.02894223385698L163.14999999999998,112.85521395993418L163.62666666666667,126.83418022985575L164.06,102.31460898158143L164.49333333333334,96.15935339552468L164.97,76.73039947960166L165.40333333333334,78.3461343905134L165.83666666666667,84.79659694000898L166.26999999999998,95.30180350083994L166.74666666666667,90.21684140645795L167.18,91.85752952108778L167.61333333333334,99.59043863421672L168.09,102.45607767903402L168.52333333333334,86.65671276293362L168.95666666666668,108.11087527816791L169.4333333333333,128.8127689656335L169.86666666666667,112.87852825900218L170.3,109.86735064693475L170.77666666666667,94.02718023404393L171.20999999999998,92.48936045335671L171.64333333333335,109.9593186229484L172.07666666666668,112.74577757418253L172.5533333333333,124.12581509371657L172.98666666666668,100.77417956999977L173.42000000000002,112.64774782386648L173.89666666666665,93.39049922780538L174.32999999999998,79.91445931805977L174.76333333333335,108.08542238084755L175.19666666666666,116.58860184197596L175.67333333333332,128.71631488270546L176.10666666666668,138.6025351349531L176.54000000000002,115.74336518828184L177.01666666666665,95.36099479188985L177.45,104.53207388474824L177.88333333333335,115.5824067649501L178.36,87.13229554239452L178.79333333333332,95.53253876175603L179.22666666666666,117.74838843746652L179.70333333333335,120.86047400913839L180.13666666666666,92.51548692116458L180.57,82.25752139406983L181.00333333333336,91.73264530490385L181.48,99.74208994621364L181.91333333333333,91.17047619768572L182.34666666666666,64.08706502883788L182.78,72.7530636952469L183.25666666666666,72.31185589230945L183.69,61.01046696303426L184.12333333333333,62.95377497473238L184.6,52.45381204644168L185.03333333333333,71.32605793690269L185.46666666666667,86.55995917488485L185.94333333333333,91.11842208009573L186.37666666666667,92.84996175111294L186.81,70.90293022597402L187.2433333333333,68.53734487456816L187.72,98.61408534743029L188.15333333333334,98.561322047895L188.58666666666667,99.48545881981794L189.06333333333333,109.22672828957525L189.49666666666667,120.35663134013664L189.93,112.26626005066463L190.40666666666667,94.59940992172378L190.84,88.27683611736192L191.27333333333334,81.33059703325526L191.75,75.82953294524727L192.18333333333334,82.53321995184336L192.61666666666667,73.02722968168369L193.05,81.30464802289394L193.52666666666664,98.63880726359915L193.96,109.09155521986455L194.39333333333335,89.08684975026587L194.87,62.741026761840985L195.30333333333334,50.874655659622704L195.73666666666668,84.23544397490821L196.21333333333334,80.55765853248603L196.64666666666665,83.39836247914576L197.08,96.05424052965762L197.55666666666667,94.5314676612145L197.98999999999998,80.96542615589661L198.42333333333332,77.18052256046037L198.85666666666668,104.80896746479446L199.33333333333334,100.39981689868162L199.76666666666665,89.70928971658827L200.20000000000002,80.40480055823332L200.67666666666668,84.13643102495504L201.10999999999999,79.41377007950534L201.54333333333332,92.67409318679096L202.02,95.55444267388293L202.45333333333332,92.22444649336403L202.88666666666666,108.52803285994729L203.36333333333334,96.60620381680286L203.79666666666668,91.054076967123L204.23,85.21333678214724L204.70666666666668,94.04662871151551L205.14000000000001,97.2849544572197L205.57333333333332,73.79616615895608L206.04999999999998,82.62437292173011L206.48333333333335,64.05374797722399L206.91666666666666,73.01418436690587L207.39333333333332,93.25862243249665L207.82666666666668,97.19772220934222L208.30333333333334,119.47098663817721L208.73666666666665,82.80235471747838L209.21333333333334,84.02573697818832L209.64666666666668,83.54445569149762L210.08,74.31636905729033L210.55666666666664,99.21166212594069L210.99,89.73812028111348L211.42333333333335,94.6824982385317L211.89999999999998,103.05868635895732L212.33333333333334,119.22645243797433L212.76666666666668,112.04441086725627L213.24333333333334,112.66578893230098L213.67666666666665,82.76258695939624L214.11,104.77963676941069L214.58666666666667,108.57742574945098L215.01999999999998,96.91947023949031L215.45333333333332,106.96981385477986L215.93,118.05778382894553L216.36333333333334,118.5558992207676L216.84,107.15246064547482L217.27333333333334,107.5734827463852L217.70666666666668,120.71360964447419L218.14,109.55541713955095L218.61666666666667,122.69586198482176L219.05,98.50406638157325L219.48333333333332,89.78953721546303L219.95999999999998,87.34750449710984L220.39333333333335,93.52815660469074L220.82666666666668,78.362110258931L221.26,81.84797538029794L221.73666666666668,76.26424731040588L222.17000000000002,78.5537123017982L222.60333333333332,86.4504771789L223.07999999999998,78.45574619134773L223.51333333333335,78.26470130340563L223.94666666666666,93.88799686028345L224.38,93.49687371528414L224.85666666666668,74.04175576493903L225.29000000000002,97.44486261164596L225.72333333333333,97.39192596925568L226.2,104.51343959283788L226.63333333333335,74.24697305785799L227.11,92.13761024888673L227.54333333333332,124.46430710484377L227.97666666666666,116.16347457088908L228.45333333333335,105.03790132870998L228.88666666666666,73.92127071025409L229.32,72.06162706138156L229.79666666666668,68.2902733949113L230.23,67.80055086219033L230.66333333333333,97.20856641572941L231.14000000000001,99.5254932294819L231.57333333333335,93.06777470611725L232.04999999999998,74.21913633328596L232.48333333333332,74.40075378963503L232.91666666666669,106.21794217238322L233.39333333333332,101.92704707032136L233.82666666666665,113.40359025585074L234.26000000000002,94.40821579726989L234.73666666666668,76.72447781343728L235.17,79.18748343932316L235.60333333333332,85.29371438988653L236.08,84.50625035903025L236.51333333333332,104.85872312232554L236.94666666666666,102.49682344900388L237.42333333333335,111.17699806237313L237.85666666666668,86.96193328704884L238.29,94.34794054750479" style="fill: none;" fill="none"></path></g></g></g></g><g opacity="0.2"><g><g><g><path stroke="rgb(204, 51, 17)" stroke-width="2px" d="M22.143333333333334,75.24317112068334L22.576666666666668,102.05579779048759L23.053333333333335,14.294125576814025L23.486666666666668,118.84647154808042L23.96333333333333,84.20847151676813L24.39666666666667,119.88704384863374L24.916666666666668,150.21217533946034L25.35,50.1037710060676L25.826666666666664,112.65100209911662L26.26,123.8684168110291L26.736666666666665,66.79796347022057L27.169999999999998,78.75545490781465L27.64666666666667,70.60764835774899L28.08,83.34820761283237L28.55666666666667,42.235130260388075L28.990000000000002,68.29176576435566L29.423333333333332,90.55253099898496L29.900000000000002,150.12906659642852L30.333333333333332,106.50885707636672L30.81,95.69969196120897L31.33,90.29712633788584L31.763333333333335,42.944870084524155L32.24,107.94955597817896L32.76,103.77522042890388L33.193333333333335,83.50464434921741L33.67,142.04585720101988L34.10333333333333,46.40869219104448L34.58,53.34418310721716L35.01333333333333,71.93048093716303L35.446666666666665,123.94307100772855L35.88,117.54071383674938L36.35666666666667,125.99177888532478L36.79,120.18737364808717L37.22333333333333,72.35409238934517L37.699999999999996,110.67098050316173L38.13333333333333,112.00779347618419L38.56666666666667,117.20208991567293L39,104.4908176511526L39.47666666666667,84.38231467207271L39.91,141.14486780265963L40.343333333333334,106.70828490455943L40.776666666666664,78.1735831896464L41.25333333333334,104.78937917947768L41.68666666666667,88.31356819967428L42.120000000000005,109.28719782829283L42.596666666666664,158.19619577626383L43.03,94.75200915336607L43.46333333333333,106.44757543007532L43.940000000000005,72.53650060792762L44.373333333333335,113.19551908969878L44.806666666666665,130.16373832027114L45.239999999999995,124.37497123082477L45.71666666666667,102.4934448947509L46.193333333333335,106.57610663771628L46.67,121.81523299713928L47.10333333333333,161.01487521330512L47.58,122.31045943001905L48.013333333333335,103.31856441001096L48.446666666666665,60.45053322116533L48.92333333333334,130.16987201074755L49.4,56.613605906565994L49.876666666666665,112.07349580029646L50.31,104.45578377942243L50.78666666666667,158.49442575375235L51.22,70.94842735926309L51.65333333333333,89.72078046699363L52.13,52.54221689204374L52.56333333333333,122.06146475176016L52.99666666666667,113.68450131515661L53.43,110.27632449070612L53.906666666666666,105.05119382341701L54.339999999999996,64.6426619986693L54.77333333333333,120.14079075555006L55.25,121.38432742655274L55.68333333333334,118.45231286187965L56.11666666666666,106.50277864436308L56.593333333333334,98.61336071292558L57.026666666666664,90.14969673256078L57.46,106.1759247779846L57.89333333333334,108.72494286795455L58.370000000000005,148.50999334454534L58.80333333333333,122.59222238262493L59.236666666666665,105.43352719644705L59.71333333333333,73.47070034841695L60.14666666666667,156.0717837909857L60.580000000000005,72.7716806679964L61.013333333333335,63.24368324379125L61.489999999999995,118.39965153733888L61.92333333333333,103.3928317974011L62.35666666666667,159.58544903993604L62.833333333333336,36.27666440109414L63.26666666666667,108.38863980273405L63.699999999999996,54.565063804388046L64.17666666666666,154.92622039218742L64.61,85.97469808161259L65.04333333333332,101.83017744620639L65.47666666666667,89.40530984600383L65.95333333333333,77.23512854675451L66.38666666666667,83.36180119713146L66.82000000000001,107.23456659913062L67.29666666666667,99.53938219944635L67.73,59.627016201615334L68.16333333333333,68.62652159233886L68.59666666666666,23.34159532189372L69.07333333333334,100.81546611090499L69.50666666666666,116.58617897828418L69.94,124.65535272161165L70.41666666666666,94.08409999310969L70.85000000000001,40.863062381744385L71.28333333333333,36.11597276230654L71.76,150.72182423373062L72.19333333333333,83.97704903284708L72.62666666666667,140.06229906280834L73.06,101.31478167076904L73.53666666666666,125.56496244172253L73.97,137.5212381929159L74.40333333333334,103.00762498378752L74.88,41.85583610335988L75.31333333333333,43.33604481319588L75.74666666666667,112.82014828423658L76.17999999999999,90.2885060161352L76.65666666666667,86.57187639673549L77.09,64.92602744698524L77.52333333333334,101.18221659461656L78,104.75119557480016L78.43333333333334,138.8539067804813L78.86666666666667,65.08909520010153L79.34333333333333,92.60322818160056L79.77666666666667,103.12206528087455L80.21,61.94836938381195L80.68666666666667,141.29506033162272L81.12,106.03175542255241L81.55333333333333,122.16291930774847L82.03,62.66584539413452L82.46333333333332,124.53157374262807L82.89666666666668,145.04683433969814L83.33,78.33875076472759L83.80666666666667,104.34316701193649L84.24000000000001,136.01798669993875L84.67333333333333,104.66443977256614L85.15,133.8262698948383L85.58333333333333,92.29101781050363L86.01666666666667,109.30819604794183L86.45,54.43039890627065L86.92666666666666,110.2239947170019L87.36,71.15575714906055L87.79333333333334,94.66541912655035L88.27000000000001,114.65086148679254L88.70333333333333,64.89745881656805L89.13666666666667,39.0842921435833L89.57,142.33132247130072L90.04666666666667,68.67724887033302L90.47999999999999,66.63898484408855L90.91333333333334,51.825403983394295L91.39,54.91739182670912L91.82333333333334,100.82066040734449L92.25666666666666,126.94924244284627L92.73333333333333,94.91822663942972L93.16666666666667,103.86556803186733L93.6,82.34051410357156L94.07666666666667,85.46444134414196L94.50999999999999,131.98472603162128L94.94333333333333,110.69883077343303L95.42,161.73632983366645L95.85333333333332,83.34417374432087L96.28666666666668,20.578284874558477L96.76333333333332,142.44421553115046L97.19666666666667,74.2959856390953L97.63,139.67012968162692L98.10666666666667,85.092938631773L98.54,95.36941206951934L98.97333333333333,123.83957188824812L99.45,78.82723566393057L99.88333333333333,102.29738783339658L100.31666666666666,114.78541586796442L100.75,68.64193870623905L101.22666666666666,105.87819212675093L101.66,123.11949872970578L102.09333333333333,76.43084147572517L102.57000000000001,80.73713425795236L103.00333333333333,10.403210734327644L103.43666666666667,80.35054598251978L103.91333333333334,126.79225312173364L104.34666666666666,81.22296675046283L104.78,96.63123929500578L105.25666666666666,129.838652725021L105.69,39.142700349291175L106.12333333333333,21.771923144658416L106.6,91.5428180893262L107.03333333333333,65.2862021724383L107.46666666666667,34.455566172798484L107.94333333333334,68.95928811530271L108.37666666666667,114.37208249171573L108.85333333333334,82.40975296994048L109.28666666666666,62.945508524775505L109.72,68.31049838662148L110.15333333333334,90.45223687092462L110.63,92.21708197395006L111.06333333333333,88.46823666493097L111.49666666666667,108.26823159058887L111.97333333333333,97.29688285787898L112.40666666666667,62.95783116420111L112.84,80.62026258806387L113.31666666666668,103.36652876436709L113.75,139.33703160782653L114.18333333333332,124.26727246741453L114.61666666666667,66.17569780846438L115.09333333333333,94.52788078784941L115.52666666666667,136.48597070574758L115.96000000000001,68.0810652077198L116.43666666666667,89.5752849082152L116.87,72.67829384903112L117.34666666666666,67.91015075147152L117.78,76.42697338263193L118.21333333333334,131.5149737546841L118.69,101.08159091571966L119.12333333333333,109.98980930944282L119.55666666666666,56.39710321029028L120.03333333333333,47.68333938221136L120.46666666666667,-23.182502200206102L120.9,127.59322468439736L121.33333333333333,94.25844047466913L121.81,156.0061367253462L122.24333333333334,117.1531309088071L122.67666666666666,122.97665557761985L123.15333333333334,163.42618918915588L123.58666666666666,88.73519034683703L124.02,73.27580371499062L124.49666666666667,91.39417279760042L124.92999999999999,44.86990950008234L125.36333333333334,100.78413455684978L125.79666666666667,161.03277895847953L126.27333333333334,168.0110951910416L126.70666666666666,28.23727497458458L127.14,156.59784445166585L127.61666666666667,98.15173143148421L128.05,118.31383512914178L128.48333333333332,72.23047918577987L128.91666666666666,98.21936780214308L129.39333333333332,97.19587036967276L129.82666666666668,91.48120489219824L130.30333333333334,147.68017685910064L130.73666666666668,102.56041816373664L131.21333333333334,101.44828614095846L131.64666666666665,107.87981978555518L132.08,64.33326980968317L132.55666666666667,70.62168400983015L132.98999999999998,102.24914718667665L133.42333333333332,138.56584436198074L133.9,53.49747011065483L134.33333333333334,94.96011256178218L134.76666666666665,169.6052468717098L135.24333333333334,93.46724966168402L135.67666666666668,123.03782670696575L136.10999999999999,123.1389497121175L136.58666666666667,86.9869780441125L137.02,131.81552458802855L137.49666666666667,128.556656156977L137.93,45.451118116577476L138.36333333333334,141.06568241119382L138.84,48.29692946374416L139.2733333333333,37.130076254407584L139.70666666666668,78.32217322289944L140.18333333333334,78.96996829907098L140.61666666666667,148.19711987177527L141.04999999999998,206.4683398256699L141.52666666666667,152.14876377582547L141.96,134.29983500639594L142.39333333333332,76.08066853384176L142.87,93.3772888680299L143.30333333333334,115.79272256791589L143.73666666666665,77.64542270700136L144.21333333333334,131.90692210197446L144.64666666666668,127.73496266702809L145.08,125.01359340051808L145.55666666666664,124.95314063131806L145.99,50.60198139647642L146.42333333333335,75.66335654755432L146.85666666666665,97.79719307025272L147.33333333333334,127.28294835984704L147.76666666666668,85.2888851761818L148.2,112.43251009782153L148.67666666666665,97.77674743533133L149.11,99.60071910421053L149.54333333333335,114.76729108889896L149.97666666666666,164.63795223832128L150.45333333333332,178.44919966161248L150.88666666666668,159.03861119349796L151.32,112.1648380557696L151.79666666666665,108.79650259017943L152.23000000000002,159.87373249232766L152.66333333333333,120.77123467127481L153.09666666666666,38.43207638959092L153.57333333333332,93.98783973356086L154.0066666666667,129.68928907314933L154.48333333333332,119.75729695459205L154.91666666666666,186.15963539977864L155.35,93.89705006281534L155.78333333333333,100.40815590818721L156.26,83.98688504099846L156.69333333333333,73.7684882581234L157.12666666666667,52.30377658208212L157.60333333333332,111.07884329060713L158.03666666666666,49.483384132385254L158.47,100.85503117740153L158.94666666666666,115.07999878625074L159.38,43.495189214746176L159.81333333333333,96.16756545007227L160.24666666666664,52.83972850938639L160.72333333333333,5.600089023510634L161.15666666666667,148.5622678597768L161.59,106.4716681241989L162.06666666666666,114.80663512150446L162.5,81.0181235919396L162.93333333333334,137.496758689483L163.41,105.10805479188758L163.84333333333333,116.22119676570097L164.27666666666667,82.40704530477524L164.70999999999998,83.39020405213037L165.18666666666667,58.88787886997065L165.62,87.58935065567493L166.05333333333334,93.33739225069681L166.48666666666665,28.735540623466193L166.96333333333334,111.03916770716506L167.39666666666668,114.33699336151281L167.82999999999998,59.868274693687766L168.30666666666667,79.00594156483808L168.74,116.8064392507076L169.17333333333332,91.9075792680184L169.60666666666665,80.70309503873187L170.08333333333334,66.69744830826917L170.51666666666668,107.43791777888933L170.95,38.261272450288146L171.38333333333333,126.54685024420418L171.86,132.78050329784548L172.29333333333332,63.2071021348238L172.72666666666666,116.90419148902097L173.20333333333335,90.67807824909686L173.63666666666666,125.79041701058544L174.07,95.12373289962608L174.54666666666668,44.78116439282894L174.98000000000002,117.94465327262876L175.41333333333333,71.98375010490417L175.89,114.7042411714792L176.32333333333335,139.4159959654013L176.75666666666666,124.93269499639668L177.23333333333332,104.61724903682867L177.66666666666666,61.70440322657427L178.10000000000002,95.05438351631163L178.53333333333333,149.86454428732392L179.01,86.78677659730116L179.44333333333336,113.12368307511011L179.87666666666667,137.59445566932357L180.31,119.32307587563989L180.78666666666666,85.21544666588306L181.22,150.22366910179454L181.65333333333334,30.251446306705475L182.13,152.59906507035095L182.56333333333333,98.87163881460825L182.99666666666667,54.187814210852L183.47333333333333,151.8655641029278L183.90666666666667,126.9215026895205L184.34,54.86915117998919L184.81666666666666,69.8318194001913L185.25,153.52475500603515L185.6833333333333,100.40423255662122L186.11666666666667,63.50135350227356L186.59333333333333,95.83667771518229L187.02666666666667,114.9392554561297L187.45999999999998,128.2568236837784L187.93666666666667,112.59093613922595L188.37,7.816174815098464L188.8033333333333,154.92135764658448L189.23666666666668,83.69423616925874L189.71333333333334,52.73490318655968L190.14666666666665,88.06717066963512L190.57999999999998,86.80158586800098L191.05666666666667,72.56976620852947L191.49,69.31493164598942L191.92333333333332,41.227823560436576L192.35666666666668,124.65745254357654L192.83333333333334,63.77991146345934L193.26666666666665,130.1646224558353L193.7,75.68418899178505L194.17666666666668,69.99676594138145L194.61,115.99115574359891L195.04333333333332,61.744134068489075L195.47666666666666,100.78291887044905L195.95333333333335,72.53009062508741L196.38666666666666,111.24539232750732L196.82,120.37773908674714L197.29666666666668,102.54450372358161L197.73,110.5205669403076L198.16333333333333,39.20475561420125L198.59666666666666,14.808084631959616L199.07333333333335,123.1880744944016L199.50666666666666,124.44990171988803L199.98333333333332,71.33175538480282L200.41666666666669,70.71589970588684L200.85,91.09555601080257L201.32666666666665,120.68188172082105L201.76000000000002,87.64361447592574L202.19333333333333,53.775088677803666L202.62666666666667,109.90841357906658L203.10333333333332,81.32121631503105L203.5366666666667,86.90757161875564L203.97,110.86565610269705L204.44666666666666,121.2980689505736L204.88,51.72660183409849L205.31333333333333,108.46053107579547L205.79,156.03575526674587L206.22333333333333,114.625608364741L206.70000000000002,81.13549258808294L207.13333333333333,54.211133286356926L207.56666666666666,82.31117185453573L208.04333333333335,73.02570386727649L208.47666666666666,98.56440170605975L208.91,125.89457923173902L209.38666666666666,105.42932755251724L209.82000000000002,67.08138417700926L210.25333333333333,54.33408338824907L210.73,92.90819969276586L211.16333333333336,144.91095375518L211.59666666666666,32.1698547055324L212.07333333333332,86.63011882702509L212.50666666666666,91.26022625962892L212.94,87.05102261404195L213.41666666666666,106.71287135779856L213.85,90.94928683340548L214.32666666666668,110.724912772576L214.76,144.24276830255982L215.19333333333333,89.31418862442175L215.67000000000002,92.38584134976068L216.10333333333335,97.56604687869547L216.57999999999998,102.27395824094611L217.01333333333332,115.7360273748636L217.4466666666667,27.558093085885048L217.92333333333332,109.20392330984274L218.35666666666665,84.08507934709388L218.79000000000002,91.91089477638403L219.26666666666668,101.54576208690801L219.7,60.59862592816353L220.13333333333333,73.13450780014196L220.5666666666667,102.83422389626502L221.04333333333332,63.23600231607756L221.47666666666666,89.16615117589632L221.95333333333335,158.4575683524211L222.38666666666666,132.26372606058914L222.82,60.80976855258146L223.25333333333333,124.52577160298821L223.73000000000002,50.350002760688454L224.16333333333333,90.7284187177817L224.59666666666666,88.9903739740451L225.07333333333335,59.85777558386326L225.50666666666666,114.08009672164914L225.94,75.761495595177L226.41666666666666,66.54830569028854L226.85000000000002,27.10635507106781L227.28333333333333,111.17062761386234L227.76,72.43266993761063L228.19333333333336,103.99901724358398L228.62666666666667,47.53789908190569L229.10333333333332,140.75380359093344L229.53666666666666,122.49209402998287L229.97,92.43209269146124L230.40333333333334,135.87597242494422L230.88,63.8283731440703L231.31333333333333,130.01592190563676L231.79,33.5056177675724L232.22333333333333,127.19718721012272L232.65666666666667,121.81224903961021L233.09,40.429228112101555L233.56666666666666,93.58146892488001L234,73.25182153781253L234.4333333333333,137.75525782505667L234.91,131.6861645032962L235.34333333333333,137.72829169034955L235.77666666666667,119.34694753587243L236.20999999999998,87.68107972045738L236.68666666666667,112.80959391593932L237.12,117.91707929472128L237.5533333333333,154.91969989240167L238.03,70.56520985066891" style="fill: none;" fill="none"></path></g><g><path stroke="rgb(51, 187, 238)" stroke-width="2px" d="M22.143333333333334,120.40431841214496L22.576666666666668,17.33367312947911L23.053333333333335,167.043961400787L23.486666666666668,96.31692910194396L23.96333333333333,59.215782647331565L24.44,99.1296406239271L24.916666666666668,95.87712691724299L25.35,82.58586172262827L25.826666666666664,152.1466086953878L26.26,86.6845484226942L26.736666666666665,128.14884862800437L27.169999999999998,129.75283631682393L27.603333333333335,96.6801983018716L28.08,70.76342199246088L28.513333333333332,-14.364962960282924L28.990000000000002,77.36614638566971L29.423333333333332,117.67720226446787L29.856666666666666,71.67314222951728L30.333333333333332,86.83623293042183L30.766666666666666,67.78532186150551L31.243333333333336,74.31571291387081L31.676666666666666,142.80963981151578L32.196666666666665,66.80702585975328L32.67333333333334,146.3378932972749L33.10666666666666,97.35346753398576L33.626666666666665,103.52987280984718L34.06,116.64596864581105L34.53666666666667,97.74359235167502L34.97,96.74247460067271L35.40333333333333,115.99496857821939L35.88,96.52901112039882L36.31333333333333,56.82082517941794L36.79,46.355091472466796L37.22333333333333,40.223611334959685L37.656666666666666,97.35766717791556L38.13333333333333,87.48695670564967L38.56666666666667,65.86315588653088L39,93.72348319987455L39.47666666666667,137.16658931473887L39.91,139.028192003568L40.343333333333334,47.95222711066404L40.776666666666664,79.09242107470828L41.25333333333334,126.82441355288026L41.68666666666667,139.8751938740412L42.120000000000005,96.88736231625079L42.596666666666664,88.68396574258803L43.03,65.70053020119667L43.46333333333333,37.48643814524016L43.940000000000005,110.90080049137273L44.373333333333335,70.73258776466051L44.806666666666665,124.13188920915124L45.28333333333333,76.95364188651243L45.71666666666667,110.52636907994746L46.15,123.82183391849199L46.583333333333336,163.0055616945028L47.059999999999995,147.48837470014888L47.49333333333333,99.27519144117831L47.92666666666666,107.47101760407287L48.403333333333336,98.61910759409267L48.836666666666666,37.25518143673739L49.27,102.71337361633776L49.74666666666666,77.32713390390077L50.18,81.53517712155977L50.61333333333333,74.28968617320061L51.04666666666667,124.28357371687886L51.52333333333333,87.71279808382192L51.95666666666667,81.2928687185049L52.39,116.00905948877332L52.86666666666667,33.43477640549344L53.3,150.56848197182018L53.733333333333334,37.74770020445189L54.16666666666667,87.40545045832792L54.64333333333333,117.26226639250913L55.07666666666667,58.4586863120397L55.51,94.66663481295107L55.986666666666665,84.5889261017243L56.42,120.55163750052449L56.85333333333334,108.79749724268912L57.33,115.88185448447862L57.763333333333335,80.89290789266425L58.196666666666665,66.28444648285708L58.63,92.14839569230872L59.10666666666667,31.139505222439766L59.54,48.01201677819094L59.97333333333333,43.847904046376556L60.45,70.03240765631199L60.88333333333333,40.418673743804305L61.31666666666667,127.76844930152096L61.75,115.39403268694875L62.22666666666667,76.17350276807943L62.66,22.146078263719886L63.093333333333334,75.10966665049392L63.57,84.22493854165077L64.00333333333333,58.940650711456925L64.43666666666667,129.27706086635587L64.87,103.46444677809873L65.34666666666668,98.57462452352046L65.78,49.59174599746862L66.21333333333332,86.61365180214244L66.69,88.4996787359317L67.12333333333333,33.7501365095377L67.55666666666667,89.0189426044623L68.03333333333333,132.51813606917855L68.46666666666665,83.2041487743457L68.9,85.55489946405092L69.33333333333333,120.68983894089857L69.81,89.8427359163761L70.24333333333334,98.61993647118408L70.67666666666666,60.07449931403002L71.15333333333334,82.54264959692955L71.58666666666666,82.10931265354156L72.02000000000001,156.89170900980628L72.45333333333333,70.56012607117492L72.93,73.85889111955959L73.36333333333333,80.64722872277099L73.79666666666667,95.09201453626154L74.27333333333334,53.34888007740179L74.70666666666666,98.49864412347475L75.14,129.53290759523708L75.61666666666666,58.11486809452376L76.05,88.42612970868745L76.48333333333333,95.86568841338156L76.91666666666667,47.704337601860374L77.39333333333335,86.11870166162649L77.82666666666667,118.82199204464752L78.25999999999999,136.93947699169314L78.69333333333333,36.912744681040465L79.17,72.9322065313657L79.60333333333332,104.51247897247472L80.03666666666668,99.32636078695455L80.51333333333332,165.41908600926396L80.94666666666667,85.92728631198406L81.38,89.6498838464419L81.85666666666667,36.819855188330024L82.29,77.7420697758595L82.72333333333333,71.06325446565944L83.15666666666667,76.70934417843819L83.63333333333333,113.20016080141066L84.06666666666666,115.01578844090301L84.5,109.76037613054115L84.97666666666666,89.30954691270986L85.41,95.25099316239356L85.84333333333333,97.63843547801176L86.27666666666666,116.69393300016719L86.75333333333333,135.94173000752923L87.18666666666667,157.0594737331072L87.62,97.7468526015679L88.09666666666666,156.10792283217108L88.53,105.8730530887842L88.96333333333334,95.8254602452119L89.44,99.09482778608798L89.87333333333333,111.1134350945552L90.30666666666667,76.20986284315586L90.74,80.45194528003532L91.21666666666667,113.41318221390246L91.64999999999999,110.71457943816978L92.08333333333334,90.73891782760619L92.56,129.09039774537084L92.99333333333334,90.78715847432612L93.42666666666666,82.50501857697964L93.90333333333334,160.11167547603446L94.33666666666667,162.32986108958718L94.77,91.11290717124938L95.24666666666667,105.19685515761374L95.67999999999999,118.69600272675353L96.11333333333333,64.26629654069743L96.54666666666667,111.04005184272924L97.02333333333333,142.2457270969947L97.45666666666668,99.07858179509638L97.89,134.4696995516618L98.36666666666667,77.73405729730922L98.8,122.91924202442166L99.23333333333333,54.56622423231602L99.71000000000001,45.33839083214602L100.14333333333333,84.85681917766729L100.57666666666665,150.93617184956867L101.05333333333333,107.19958798587321L101.48666666666666,91.10572356979051L101.92,106.84935978551704L102.35333333333334,144.92736552158988L102.83,154.58748595416543L103.26333333333334,121.83683905998865L103.69666666666666,105.84487126767634L104.13000000000001,95.5606616437435L104.60666666666667,66.43430746098358L105.04,117.95415772994357L105.47333333333333,97.93821269273757L105.94999999999999,72.68691417078176L106.38333333333334,59.67321228484312L106.86,107.42321902513503L107.29333333333334,68.86192268629867L107.72666666666666,87.52348255614439L108.20333333333333,86.50716872513294L108.63666666666667,106.80454516410826L109.07,105.60565733909606L109.54666666666667,138.9933239072561L109.97999999999999,111.47698058684665L110.45666666666666,91.6087414473295L110.89,80.98944444457689L111.32333333333332,153.1134661932786L111.8,131.49707000950968L112.23333333333332,109.76004457970458L112.66666666666667,131.25995590289432L113.14333333333333,121.44676950077215L113.57666666666667,113.62581681708494L114.01,155.9338033845027L114.48666666666668,24.618452851971L114.92,84.15791001419225L115.35333333333332,64.00127690533796L115.83,67.78532186150551L116.26333333333334,68.87407955030599L116.69666666666666,78.41357073684532L117.17333333333333,-18.135745882987948L117.60666666666665,66.8084073215723L118.04,72.3440906057755L118.51666666666667,105.31007976830004L118.95,140.27355220417178L119.38333333333334,123.53316365679103L119.86,80.00009674827257L120.29333333333334,31.903729900717735L120.72666666666666,100.15335909028846L121.20333333333333,111.0918842901786L121.63666666666667,100.1204250405232L122.07,104.09931137164432L122.50333333333333,141.83244897921878L122.97999999999999,81.34923236072063L123.41333333333334,145.79094493389127L123.84666666666666,113.83834090332189L124.32333333333334,119.99888699750105L124.75666666666666,121.37869106233117L125.19,98.39492397010325L125.66666666666667,101.23985118170577L126.1,80.85328756769496L126.53333333333335,149.8126565814018L126.96666666666667,159.16388215124604L127.44333333333333,100.84165862699348L127.87666666666667,95.16418210168678L128.31,138.1384753336509L128.78666666666666,134.43278689185775L129.22,87.68500307202338L129.69666666666666,78.1139592975378L130.13,55.724883889158576L130.56333333333333,74.67649548252422L131.04,86.24933269123235L131.47333333333336,154.2552720159292L131.90666666666667,91.75617105265457L132.34,83.87133957445621L132.81666666666666,73.51103903353214L133.25,124.41635982692239L133.68333333333334,151.1922396123409L134.16,104.15534346302348L134.59333333333333,110.74469530582427L135.02666666666667,60.123789871732384L135.50333333333333,103.92099228004614L135.93666666666667,129.71918390691278L136.41333333333333,88.39634539186953L136.84666666666666,73.1033972799778L137.28,111.0314315209786L137.7133333333333,62.544718821843475L138.19,143.64299283921716L138.62333333333333,89.01568235456942L139.05666666666667,78.12092186510563L139.53333333333333,70.62234711150327L139.96666666666667,74.27244552969933L140.4,116.09465486307937L140.87666666666667,98.70652649799982L141.31,59.34497695664564L141.74333333333334,85.92236830790836L142.22,104.40660373866557L142.65333333333334,122.63361097872254L143.08666666666667,124.15797120829421L143.52,140.24713865419227L143.99666666666664,104.08356270690757L144.43,121.78572497268516L144.86333333333334,132.32638916869956L145.34,107.51947928468385L145.77333333333334,67.33148402472335L146.20666666666668,95.51330513258773L146.64,104.94520807266234L147.11666666666665,104.23038446903227L147.55,123.46221177776653L147.98333333333335,69.98764829337597L148.45999999999998,81.21467797954875L148.89333333333332,88.35655929148196L149.32666666666668,152.85165154933927L149.76,91.35101593037444L150.23666666666665,75.47735652824241L150.67000000000002,114.03456374009448L151.10333333333335,58.49587526420751L151.57999999999998,79.97976163029671L152.01333333333332,82.8441950827837L152.4466666666667,125.20434564848739L152.92333333333332,93.13680399457613L153.35666666666665,67.54467121263343L153.79000000000002,120.66889597972232L154.26666666666668,119.30158032973605L154.7,159.34944010277587L155.13333333333333,139.41201735536254L155.61,136.99633796016371L156.04333333333332,140.65367523829138L156.47666666666666,128.84869718551633L156.91,86.12538793683052L157.38666666666666,87.54061268270016L157.82,93.83714987834293L158.25333333333333,62.829465731978416L158.73000000000002,56.48629038532576L159.16333333333333,105.78812081615129L159.59666666666666,88.1920548180739L160.03,124.86947930355865L160.50666666666666,127.79513914386429L160.94,133.5614712933699L161.37333333333333,79.78641223410764L161.85000000000002,156.24546117087203L162.28333333333333,141.0157287518183L162.71666666666667,127.80768281718093L163.14999999999998,87.09462154905L163.62666666666667,147.80262963473794L164.06,65.53525210916996L164.49333333333334,86.92647001643974L164.97,47.58696860571703L165.40333333333334,80.76973675688106L165.83666666666667,94.47229076425234L166.26999999999998,111.05961334208646L166.74666666666667,82.58939826488495L167.18,94.31856169303256L167.61333333333334,111.18980230391024L168.09,106.75453624625999L168.52333333333334,62.95766538878283L168.95666666666668,140.2921190510193L169.4333333333333,159.86560949683187L169.86666666666667,88.97716719905534L170.3,105.3505842288335L170.77666666666667,70.26692461470762L171.20999999999998,90.18263078232604L171.64333333333335,136.16425587733585L172.07666666666668,116.92546600103375L172.5533333333333,141.1958713730176L172.98666666666668,65.74672628442445L173.42000000000002,130.45810020466644L173.89666666666665,64.50462633371353L174.32999999999998,59.70039945344129L174.76333333333335,150.3418669750293L175.19666666666666,129.3433710336685L175.67333333333332,146.90788444379962L176.10666666666668,153.4318655133247L176.54000000000002,81.45461026827493L177.01666666666665,64.78743919730186L177.45,118.28869252403575L177.88333333333335,132.15790608525273L178.36,44.45712870856127L178.79333333333332,108.13290359079836L179.22666666666666,151.07216295103228L179.70333333333335,125.52860236664611L180.13666666666666,49.99800628920397L180.57,66.87057310342789L181.00333333333336,105.94533117115496L181.48,111.75625690817832L181.91333333333333,78.31305557489395L182.34666666666666,23.46194827556613L182.78,85.75206169486046L183.25666666666666,71.6500441879034L183.69,44.05838356912136L184.12333333333333,65.86873699227968L184.6,36.703867654005705L185.03333333333333,99.63442677259444L185.46666666666667,109.41081103185812L185.94333333333333,97.95611643791197L186.37666666666667,95.44727125763892L186.81,37.9823829382658L187.2433333333333,64.98896684745947L187.72,143.72919605672357L188.15333333333334,98.4821770985921L188.58666666666667,100.87166397770244L189.06333333333333,123.83863249421117L189.49666666666667,137.05148591597873L189.93,100.13070311645666L190.40666666666667,68.09913472831249L190.84,78.79297541081905L191.27333333333334,70.91123840709525L191.75,67.57793681323528L192.18333333333334,92.5887504617373L192.61666666666667,58.76824427644411L193.05,93.72077553470928L193.52666666666664,124.64004612465698L193.96,124.77067715426284L194.39333333333335,59.07979154586792L194.87,23.222292279203742L195.30333333333334,33.075099006295204L195.73666666666668,134.27662644783652L196.21333333333334,75.04098036885262L196.64666666666665,87.65941839913526L197.08,115.03805760542551L197.55666666666667,92.24730835855006L197.98999999999998,60.616363897919655L198.42333333333332,71.50316716730595L198.85666666666668,146.2516348212957L199.33333333333334,93.78609104951221L199.76666666666665,73.67349894344807L200.20000000000002,66.44806682070094L200.67666666666668,89.73387672503787L201.10999999999999,72.32977866133052L201.54333333333332,112.56457784771918L202.02,99.87496690452097L202.45333333333332,87.22945222258568L202.88666666666666,132.9834124098221L203.36333333333334,78.72346025208631L203.79666666666668,82.72588669260341L204.23,76.4522265046835L204.70666666666668,107.29656660556792L205.14000000000001,102.14244307577609L205.57333333333332,38.56298371156058L206.04999999999998,95.86668306589125L206.48333333333335,36.19781056046486L206.91666666666666,86.45483895142871L207.39333333333332,123.6252795308828L207.82666666666668,103.10637187461057L208.30333333333334,152.8808832814296L208.73666666666665,27.79940683643025L209.21333333333334,85.86081036925316L209.64666666666668,82.82253376146156L210.08,60.47423910597959L210.55666666666664,136.55460172891614L210.99,75.52780751387277L211.42333333333335,102.09906517465907L211.89999999999998,115.62296853959558L212.33333333333334,143.47810155649978L212.76666666666668,101.27134851117927L213.24333333333334,113.59785602986811L213.67666666666665,37.9077840000391L214.11,137.8052114844322L214.58666666666667,114.27410921951133L215.01999999999998,79.4325369745493L215.45333333333332,122.04532927771407L215.93,134.68973879019416L216.36333333333334,119.30307230850059L216.84,90.04730278253554L217.27333333333334,108.20501589775084L217.70666666666668,140.42379999160764L218.14,92.81812838216621L218.61666666666667,142.4065292527278L219.05,62.216372976700455L219.48333333333332,76.71774346629778L219.95999999999998,83.68445541958013L220.39333333333335,102.79913476606208L220.82666666666668,55.61304074029127L221.26,87.07677306234837L221.73666666666668,67.88865520556766L222.17000000000002,81.9879097888867L222.60333333333332,98.2956244945526L223.07999999999998,66.46364971001941L223.51333333333335,77.97813397149244L223.94666666666666,117.32294019560018L224.38,92.91018899778524L224.85666666666668,44.85907883942127L225.29000000000002,132.54952288170654L225.72333333333333,97.31252100567022L226.2,115.19571002821127L226.63333333333335,28.84727325538796L227.11,118.97356603542963L227.54333333333332,172.95435238877928L227.97666666666666,103.71222576995689L228.45333333333335,88.34954146544138L228.88666666666666,27.246324782570213L229.32,69.27216158807278L229.79666666666668,62.633242895205825L230.23,67.06596706310907L230.66333333333333,141.32058974603808L231.14000000000001,103.00088345011073L231.57333333333335,83.3811969210704L232.04999999999998,45.94617877403894L232.48333333333332,74.67317997415859L232.91666666666669,153.94372474650538L233.39333333333332,95.49070441722868L233.82666666666665,130.6184050341447L234.26000000000002,65.91515410939851L234.73666666666668,50.198870837688446L235.17,82.8819918781519L235.60333333333332,94.45306081573167L236.08,83.32505431274572L236.51333333333332,135.38743226726848L236.94666666666666,98.95397393902141L237.42333333333335,124.19725998242694L237.85666666666668,50.63933612406254L238.29,105.42695143818854" style="fill: none;" fill="none"></path></g></g></g></g></g></g><g transform="translate(70, 178)" clip-path="url(#clip_1)"><clipPath id="clip_1"><rect width="260" height="22"></rect></clipPath><g><g><line x1="0" y1="0" x2="0" y2="5" style="visibility: inherit;" fill="rgb(0, 0, 0)" stroke="rgb(204, 204, 204)" stroke-width="1px"></line><line x1="21.666666666666664" y1="0" x2="21.666666666666664" y2="5" style="visibility: inherit;" fill="rgb(0, 0, 0)" stroke="rgb(204, 204, 204)" stroke-width="1px"></line><line x1="43.33333333333333" y1="0" x2="43.33333333333333" y2="5" style="visibility: inherit;" fill="rgb(0, 0, 0)" stroke="rgb(204, 204, 204)" stroke-width="1px"></line><line x1="65" y1="0" x2="65" y2="5" style="visibility: inherit;" fill="rgb(0, 0, 0)" stroke="rgb(204, 204, 204)" stroke-width="1px"></line><line x1="86.66666666666666" y1="0" x2="86.66666666666666" y2="5" style="visibility: inherit;" fill="rgb(0, 0, 0)" stroke="rgb(204, 204, 204)" stroke-width="1px"></line><line x1="108.33333333333334" y1="0" x2="108.33333333333334" y2="5" style="visibility: inherit;" fill="rgb(0, 0, 0)" stroke="rgb(204, 204, 204)" stroke-width="1px"></line><line x1="130" y1="0" x2="130" y2="5" style="visibility: inherit;" fill="rgb(0, 0, 0)" stroke="rgb(204, 204, 204)" stroke-width="1px"></line><line x1="151.66666666666669" y1="0" x2="151.66666666666669" y2="5" style="visibility: inherit;" fill="rgb(0, 0, 0)" stroke="rgb(204, 204, 204)" stroke-width="1px"></line><line x1="173.33333333333331" y1="0" x2="173.33333333333331" y2="5" style="visibility: inherit;" fill="rgb(0, 0, 0)" stroke="rgb(204, 204, 204)" stroke-width="1px"></line><line x1="195" y1="0" x2="195" y2="5" style="visibility: inherit;" fill="rgb(0, 0, 0)" stroke="rgb(204, 204, 204)" stroke-width="1px"></line><line x1="216.66666666666669" y1="0" x2="216.66666666666669" y2="5" style="visibility: inherit;" fill="rgb(0, 0, 0)" stroke="rgb(204, 204, 204)" stroke-width="1px"></line><line x1="238.33333333333331" y1="0" x2="238.33333333333331" y2="5" style="visibility: inherit;" fill="rgb(0, 0, 0)" stroke="rgb(204, 204, 204)" stroke-width="1px"></line><line x1="260" y1="0" x2="260" y2="5" style="visibility: inherit;" fill="rgb(0, 0, 0)" stroke="rgb(204, 204, 204)" stroke-width="1px"></line></g><g transform="translate(0, 8)"><text x="0" y="0" dx="0em" dy="0.95em" style="text-anchor: middle; visibility: hidden; font-family: &quot;Helvetica Neue&quot;, sans-serif; font-size: 12px; font-weight: 200;" fill="rgb(50, 49, 63)" stroke="none" stroke-width="1px">-5M</text><text x="21.666666666666664" y="0" dx="0em" dy="0.95em" style="text-anchor: middle; visibility: inherit; font-family: &quot;Helvetica Neue&quot;, sans-serif; font-size: 12px; font-weight: 200;" fill="rgb(50, 49, 63)" stroke="none" stroke-width="1px">0</text><text x="43.33333333333333" y="0" dx="0em" dy="0.95em" style="text-anchor: middle; visibility: hidden; font-family: &quot;Helvetica Neue&quot;, sans-serif; font-size: 12px; font-weight: 200;" fill="rgb(50, 49, 63)" stroke="none" stroke-width="1px">5M</text><text x="65" y="0" dx="0em" dy="0.95em" style="text-anchor: middle; visibility: inherit; font-family: &quot;Helvetica Neue&quot;, sans-serif; font-size: 12px; font-weight: 200;" fill="rgb(50, 49, 63)" stroke="none" stroke-width="1px">10M</text><text x="86.66666666666666" y="0" dx="0em" dy="0.95em" style="text-anchor: middle; visibility: hidden; font-family: &quot;Helvetica Neue&quot;, sans-serif; font-size: 12px; font-weight: 200;" fill="rgb(50, 49, 63)" stroke="none" stroke-width="1px">15M</text><text x="108.33333333333334" y="0" dx="0em" dy="0.95em" style="text-anchor: middle; visibility: inherit; font-family: &quot;Helvetica Neue&quot;, sans-serif; font-size: 12px; font-weight: 200;" fill="rgb(50, 49, 63)" stroke="none" stroke-width="1px">20M</text><text x="130" y="0" dx="0em" dy="0.95em" style="text-anchor: middle; visibility: hidden; font-family: &quot;Helvetica Neue&quot;, sans-serif; font-size: 12px; font-weight: 200;" fill="rgb(50, 49, 63)" stroke="none" stroke-width="1px">25M</text><text x="151.66666666666669" y="0" dx="0em" dy="0.95em" style="text-anchor: middle; visibility: inherit; font-family: &quot;Helvetica Neue&quot;, sans-serif; font-size: 12px; font-weight: 200;" fill="rgb(50, 49, 63)" stroke="none" stroke-width="1px">30M</text><text x="173.33333333333331" y="0" dx="0em" dy="0.95em" style="text-anchor: middle; visibility: hidden; font-family: &quot;Helvetica Neue&quot;, sans-serif; font-size: 12px; font-weight: 200;" fill="rgb(50, 49, 63)" stroke="none" stroke-width="1px">35M</text><text x="195" y="0" dx="0em" dy="0.95em" style="text-anchor: middle; visibility: inherit; font-family: &quot;Helvetica Neue&quot;, sans-serif; font-size: 12px; font-weight: 200;" fill="rgb(50, 49, 63)" stroke="none" stroke-width="1px">40M</text><text x="216.66666666666669" y="0" dx="0em" dy="0.95em" style="text-anchor: middle; visibility: hidden; font-family: &quot;Helvetica Neue&quot;, sans-serif; font-size: 12px; font-weight: 200;" fill="rgb(50, 49, 63)" stroke="none" stroke-width="1px">45M</text><text x="238.33333333333331" y="0" dx="0em" dy="0.95em" style="text-anchor: middle; visibility: inherit; font-family: &quot;Helvetica Neue&quot;, sans-serif; font-size: 12px; font-weight: 200;" fill="rgb(50, 49, 63)" stroke="none" stroke-width="1px">50M</text><text x="260" y="0" dx="0em" dy="0.95em" style="text-anchor: middle; visibility: hidden; font-family: &quot;Helvetica Neue&quot;, sans-serif; font-size: 12px; font-weight: 200;" fill="rgb(50, 49, 63)" stroke="none" stroke-width="1px">55M</text></g><line x1="0" y1="0" x2="260" y2="0" fill="rgb(0, 0, 0)" stroke="rgb(204, 204, 204)" stroke-width="1px"></line></g></g></g></g></svg>