<svg viewBox="0 0 330 200" xmlns="http://www.w3.org/2000/svg"><g><g><g><g><g><line x1="70" y1="178" x2="65" y2="178" style="visibility: inherit;" fill="rgb(0, 0, 0)" stroke="rgb(204, 204, 204)" stroke-width="1px"></line><line x1="70" y1="163.16666666666666" x2="65" y2="163.16666666666666" style="visibility: inherit;" fill="rgb(0, 0, 0)" stroke="rgb(204, 204, 204)" stroke-width="1px"></line><line x1="70" y1="148.33333333333334" x2="65" y2="148.33333333333334" style="visibility: inherit;" fill="rgb(0, 0, 0)" stroke="rgb(204, 204, 204)" stroke-width="1px"></line><line x1="70" y1="133.5" x2="65" y2="133.5" style="visibility: inherit;" fill="rgb(0, 0, 0)" stroke="rgb(204, 204, 204)" stroke-width="1px"></line><line x1="70" y1="118.66666666666667" x2="65" y2="118.66666666666667" style="visibility: inherit;" fill="rgb(0, 0, 0)" stroke="rgb(204, 204, 204)" stroke-width="1px"></line><line x1="70" y1="103.83333333333333" x2="65" y2="103.83333333333333" style="visibility: inherit;" fill="rgb(0, 0, 0)" stroke="rgb(204, 204, 204)" stroke-width="1px"></line><line x1="70" y1="89" x2="65" y2="89" style="visibility: inherit;" fill="rgb(0, 0, 0)" stroke="rgb(204, 204, 204)" stroke-width="1px"></line><line x1="70" y1="74.16666666666666" x2="65" y2="74.16666666666666" style="visibility: inherit;" fill="rgb(0, 0, 0)" stroke="rgb(204, 204, 204)" stroke-width="1px"></line><line x1="70" y1="59.33333333333334" x2="65" y2="59.33333333333334" style="visibility: inherit;" fill="rgb(0, 0, 0)" stroke="rgb(204, 204, 204)" stroke-width="1px"></line><line x1="70" y1="44.49999999999997" x2="65" y2="44.49999999999997" style="visibility: inherit;" fill="rgb(0, 0, 0)" stroke="rgb(204, 204, 204)" stroke-width="1px"></line><line x1="70" y1="29.666666666666686" x2="65" y2="29.666666666666686" style="visibility: inherit;" fill="rgb(0, 0, 0)" stroke="rgb(204, 204, 204)" stroke-width="1px"></line><line x1="70" y1="14.833333333333343" x2="65" y2="14.833333333333343" style="visibility: inherit;" fill="rgb(0, 0, 0)" stroke="rgb(204, 204, 204)" stroke-width="1px"></line><line x1="70" y1="0" x2="65" y2="0" style="visibility: inherit;" fill="rgb(0, 0, 0)" stroke="rgb(204, 204, 204)" stroke-width="1px"></line></g><g transform="translate(60, 0)"><text x="0" y="178" dx="0em" dy="0.3em" style="text-anchor: end; visibility: hidden; font-family: &quot;Helvetica Neue&quot;, sans-serif; font-size: 12px; font-weight: 200;" fill="rgb(50, 49, 63)" stroke="none" stroke-width="1px">-5e-4</text><text x="0" y="163.16666666666666" dx="0em" dy="0.3em" style="text-anchor: end; visibility: inherit; font-family: &quot;Helvetica Neue&quot;, sans-serif; font-size: 12px; font-weight: 200;" fill="rgb(50, 49, 63)" stroke="none" stroke-width="1px">0</text><text x="0" y="148.33333333333334" dx="0em" dy="0.3em" style="text-anchor: end; visibility: hidden; font-family: &quot;Helvetica Neue&quot;, sans-serif; font-size: 12px; font-weight: 200;" fill="rgb(50, 49, 63)" stroke="none" stroke-width="1px">5e-4</text><text x="0" y="133.5" dx="0em" dy="0.3em" style="text-anchor: end; visibility: inherit; font-family: &quot;Helvetica Neue&quot;, sans-serif; font-size: 12px; font-weight: 200;" fill="rgb(50, 49, 63)" stroke="none" stroke-width="1px">1e-3</text><text x="0" y="118.66666666666667" dx="0em" dy="0.3em" style="text-anchor: end; visibility: hidden; font-family: &quot;Helvetica Neue&quot;, sans-serif; font-size: 12px; font-weight: 200;" fill="rgb(50, 49, 63)" stroke="none" stroke-width="1px">1.5e-3</text><text x="0" y="103.83333333333333" dx="0em" dy="0.3em" style="text-anchor: end; visibility: inherit; font-family: &quot;Helvetica Neue&quot;, sans-serif; font-size: 12px; font-weight: 200;" fill="rgb(50, 49, 63)" stroke="none" stroke-width="1px">2e-3</text><text x="0" y="89" dx="0em" dy="0.3em" style="text-anchor: end; visibility: hidden; font-family: &quot;Helvetica Neue&quot;, sans-serif; font-size: 12px; font-weight: 200;" fill="rgb(50, 49, 63)" stroke="none" stroke-width="1px">2.5e-3</text><text x="0" y="74.16666666666666" dx="0em" dy="0.3em" style="text-anchor: end; visibility: inherit; font-family: &quot;Helvetica Neue&quot;, sans-serif; font-size: 12px; font-weight: 200;" fill="rgb(50, 49, 63)" stroke="none" stroke-width="1px">3e-3</text><text x="0" y="59.33333333333334" dx="0em" dy="0.3em" style="text-anchor: end; visibility: hidden; font-family: &quot;Helvetica Neue&quot;, sans-serif; font-size: 12px; font-weight: 200;" fill="rgb(50, 49, 63)" stroke="none" stroke-width="1px">3.5e-3</text><text x="0" y="44.49999999999997" dx="0em" dy="0.3em" style="text-anchor: end; visibility: inherit; font-family: &quot;Helvetica Neue&quot;, sans-serif; font-size: 12px; font-weight: 200;" fill="rgb(50, 49, 63)" stroke="none" stroke-width="1px">4e-3</text><text x="0" y="29.666666666666686" dx="0em" dy="0.3em" style="text-anchor: end; visibility: hidden; font-family: &quot;Helvetica Neue&quot;, sans-serif; font-size: 12px; font-weight: 200;" fill="rgb(50, 49, 63)" stroke="none" stroke-width="1px">4.5e-3</text><text x="0" y="14.833333333333343" dx="0em" dy="0.3em" style="text-anchor: end; visibility: inherit; font-family: &quot;Helvetica Neue&quot;, sans-serif; font-size: 12px; font-weight: 200;" fill="rgb(50, 49, 63)" stroke="none" stroke-width="1px">5e-3</text><text x="0" y="0" dx="0em" dy="0.3em" style="text-anchor: end; visibility: hidden; font-family: &quot;Helvetica Neue&quot;, sans-serif; font-size: 12px; font-weight: 200;" fill="rgb(50, 49, 63)" stroke="none" stroke-width="1px">5.5e-3</text></g><line x1="70" y1="0" x2="70" y2="178" fill="rgb(0, 0, 0)" stroke="rgb(204, 204, 204)" stroke-width="1px"></line></g></g><g transform="translate(70, 0)" clip-path="url(#clip_0)"><clipPath id="clip_0"><rect width="260" height="178"></rect></clipPath><g><g><g><line x1="0" y1="0" x2="0" y2="178" fill="rgb(0, 0, 0)" stroke="rgb(60, 60, 60)" stroke-width="1px" opacity="0.25"></line><line x1="21.666666666666664" y1="0" x2="21.666666666666664" y2="178" fill="rgb(0, 0, 0)" stroke="rgb(60, 60, 60)" stroke-width="1px" opacity="0.25"></line><line x1="43.33333333333333" y1="0" x2="43.33333333333333" y2="178" fill="rgb(0, 0, 0)" stroke="rgb(60, 60, 60)" stroke-width="1px" opacity="0.25"></line><line x1="65" y1="0" x2="65" y2="178" fill="rgb(0, 0, 0)" stroke="rgb(60, 60, 60)" stroke-width="1px" opacity="0.25"></line><line x1="86.66666666666666" y1="0" x2="86.66666666666666" y2="178" fill="rgb(0, 0, 0)" stroke="rgb(60, 60, 60)" stroke-width="1px" opacity="0.25"></line><line x1="108.33333333333334" y1="0" x2="108.33333333333334" y2="178" fill="rgb(0, 0, 0)" stroke="rgb(60, 60, 60)" stroke-width="1px" opacity="0.25"></line><line x1="130" y1="0" x2="130" y2="178" fill="rgb(0, 0, 0)" stroke="rgb(60, 60, 60)" stroke-width="1px" opacity="0.25"></line><line x1="151.66666666666669" y1="0" x2="151.66666666666669" y2="178" fill="rgb(0, 0, 0)" stroke="rgb(60, 60, 60)" stroke-width="1px" opacity="0.25"></line><line x1="173.33333333333331" y1="0" x2="173.33333333333331" y2="178" fill="rgb(0, 0, 0)" stroke="rgb(60, 60, 60)" stroke-width="1px" opacity="0.25"></line><line x1="195" y1="0" x2="195" y2="178" fill="rgb(0, 0, 0)" stroke="rgb(60, 60, 60)" stroke-width="1px" opacity="0.25"></line><line x1="216.66666666666669" y1="0" x2="216.66666666666669" y2="178" fill="rgb(0, 0, 0)" stroke="rgb(60, 60, 60)" stroke-width="1px" opacity="0.25"></line><line x1="238.33333333333331" y1="0" x2="238.33333333333331" y2="178" fill="rgb(0, 0, 0)" stroke="rgb(60, 60, 60)" stroke-width="1px" opacity="0.25"></line><line x1="260" y1="0" x2="260" y2="178" fill="rgb(0, 0, 0)" stroke="rgb(60, 60, 60)" stroke-width="1px" opacity="0.25"></line></g><g><line x1="0" y1="178" x2="260" y2="178" fill="rgb(0, 0, 0)" stroke="rgb(60, 60, 60)" stroke-width="1px" opacity="0.25"></line><line x1="0" y1="163.16666666666666" x2="260" y2="163.16666666666666" fill="rgb(0, 0, 0)" stroke="rgb(60, 60, 60)" stroke-width="1px" opacity="0.25"></line><line x1="0" y1="148.33333333333334" x2="260" y2="148.33333333333334" fill="rgb(0, 0, 0)" stroke="rgb(60, 60, 60)" stroke-width="1px" opacity="0.25"></line><line x1="0" y1="133.5" x2="260" y2="133.5" fill="rgb(0, 0, 0)" stroke="rgb(60, 60, 60)" stroke-width="1px" opacity="0.25"></line><line x1="0" y1="118.66666666666667" x2="260" y2="118.66666666666667" fill="rgb(0, 0, 0)" stroke="rgb(60, 60, 60)" stroke-width="1px" opacity="0.25"></line><line x1="0" y1="103.83333333333333" x2="260" y2="103.83333333333333" fill="rgb(0, 0, 0)" stroke="rgb(60, 60, 60)" stroke-width="1px" opacity="0.25"></line><line x1="0" y1="89" x2="260" y2="89" fill="rgb(0, 0, 0)" stroke="rgb(60, 60, 60)" stroke-width="1px" opacity="0.25"></line><line x1="0" y1="74.16666666666666" x2="260" y2="74.16666666666666" fill="rgb(0, 0, 0)" stroke="rgb(60, 60, 60)" stroke-width="1px" opacity="0.25"></line><line x1="0" y1="59.33333333333334" x2="260" y2="59.33333333333334" fill="rgb(0, 0, 0)" stroke="rgb(60, 60, 60)" stroke-width="1px" opacity="0.25"></line><line x1="0" y1="44.49999999999997" x2="260" y2="44.49999999999997" fill="rgb(0, 0, 0)" stroke="rgb(60, 60, 60)" stroke-width="1px" opacity="0.25"></line><line x1="0" y1="29.666666666666686" x2="260" y2="29.666666666666686" fill="rgb(0, 0, 0)" stroke="rgb(60, 60, 60)" stroke-width="1px" opacity="0.25"></line><line x1="0" y1="14.833333333333343" x2="260" y2="14.833333333333343" fill="rgb(0, 0, 0)" stroke="rgb(60, 60, 60)" stroke-width="1px" opacity="0.25"></line><line x1="0" y1="0" x2="260" y2="0" fill="rgb(0, 0, 0)" stroke="rgb(60, 60, 60)" stroke-width="1px" opacity="0.25"></line></g></g></g><g><g><line x1="0" y1="163.16666666666666" x2="260" y2="163.16666666666666" fill="rgb(0, 0, 0)" stroke="rgb(153, 153, 153)" stroke-width="1.5px"></line></g></g><g><g><line x1="21.666666666666664" y1="0" x2="21.666666666666664" y2="178" fill="rgb(0, 0, 0)" stroke="rgb(153, 153, 153)" stroke-width="1.5px"></line></g></g><g><g><g><g><g><path stroke="rgb(204, 51, 17)" stroke-width="2px" d="M22.143333333333334,140.41310119147724L22.576666666666668,153.19328630277354L23.053333333333335,157.82940723239815L23.486666666666668,159.89228202793814L23.96333333333333,161.18505884373536L24.39666666666667,161.6538254028868L24.916666666666668,161.69110714844533L25.35,162.002018563222L25.826666666666664,162.35309023688225L26.26,162.33441495725617L26.736666666666665,162.48966762029093L27.169999999999998,162.17327393877372L27.64666666666667,160.93487654005824L28.08,161.18873972414474L28.55666666666667,160.58062561627395L28.990000000000002,161.0884791155991L29.423333333333332,159.89227232558594L29.900000000000002,159.20279949850956L30.333333333333332,159.52200558348466L30.81,155.9964971631293L31.33,155.8731793729828L31.763333333333335,155.3206547370835L32.24,152.97842072329678L32.76,151.1829502909618L33.193333333333335,151.13882991896867L33.67,150.7098899465693L34.10333333333333,153.3682385864404L34.58,149.49502721916588L35.01333333333333,145.09771691776183L35.446666666666665,136.26758054200815L35.88,118.51462260000403L36.35666666666667,112.46587772625959L36.79,115.77481482667821L37.22333333333333,107.02695742662716L37.699999999999996,99.01075234862917L38.13333333333333,90.27601174059025L38.56666666666667,83.55838473976277L39,76.4693681300146L39.47666666666667,70.84065491572449L39.91,70.15254742057785L40.343333333333334,72.64421192673016L40.776666666666664,74.10209351297144L41.25333333333334,72.6648466442305L41.68666666666667,77.28495132159432L42.120000000000005,75.75844371639462L42.596666666666664,73.98779557081606L43.03,72.28235831015412L43.46333333333333,77.23937233242458L43.940000000000005,75.3536146439044L44.373333333333335,80.5957413521492L44.806666666666665,74.15684695233266L45.239999999999995,75.85296026581639L45.71666666666667,75.38476660230145L46.193333333333335,81.81499192096501L46.67,81.38632399327157L47.10333333333333,80.31513001488564L47.58,81.08917455926706L48.013333333333335,91.30858532012245L48.446666666666665,89.6777356498185L48.92333333333334,89.40826388916827L49.4,88.68919690681369L49.876666666666665,92.63546554982395L50.31,91.53455846104858L50.78666666666667,84.2915613853067L51.22,80.03927152746697L51.65333333333333,87.30231904175149L52.13,90.59092373164258L52.56333333333333,90.15201276572603L52.99666666666667,96.02385969305271L53.43,89.42042998876711L53.906666666666666,92.90786910721584L54.339999999999996,94.54184474102013L54.77333333333333,90.49308744227699L55.25,93.75623766475407L55.68333333333334,95.01120963256649L56.11666666666666,89.79682205107466L56.593333333333334,89.14563405530646L57.026666666666664,94.56495733345744L57.46,91.79341921330608L57.89333333333334,90.7420971177287L58.370000000000005,90.42930255650086L58.80333333333333,95.16138711488408L59.236666666666665,96.0305848824451L59.71333333333333,94.25909243146397L60.14666666666667,85.95271742092461L60.580000000000005,88.13830073473984L61.013333333333335,83.04371832886218L61.489999999999995,86.71144979742495L61.92333333333333,85.62250206250347L62.35666666666667,84.77876521996696L62.833333333333336,84.85556631223582L63.26666666666667,79.31462856219943L63.699999999999996,83.89886299001218L64.17666666666666,88.6835343391818L64.61,82.71446519699428L65.04333333333332,83.12862020496567L65.47666666666667,86.0495317581636L65.95333333333333,86.5601279372479L66.38666666666667,82.29492180106077L66.82000000000001,85.42988534156699L67.29666666666667,83.67032200053863L67.73,72.18189485568124L68.16333333333333,75.663533941845L68.59666666666666,75.50508070743476L69.07333333333334,76.3337370266898L69.50666666666666,79.63483413966796L69.94,87.21123888862512L70.41666666666666,85.83478807497451L70.85000000000001,77.78667664083896L71.28333333333333,70.67451034542754L71.76,75.4450404726873L72.19333333333333,79.07120470678271L72.62666666666667,79.76620273699639L73.06,77.32474983231391L73.53666666666666,75.83210794401863L73.97,79.59321233196675L74.40333333333334,75.94687203455142L74.88,76.96208102288745L75.31333333333333,78.2347943635756L75.74666666666667,79.69958884007578L76.17999999999999,79.338388035368L76.65666666666667,76.78600518882537L77.09,79.22755191835918L77.52333333333334,80.89168675038114L78,81.2775777464185L78.43333333333334,80.87204570035581L78.86666666666667,77.49431946278877L79.34333333333333,84.0213112571911L79.77666666666667,87.97878993883188L80.21,84.8854098243085L80.68666666666667,84.43013707037176L81.12,84.55787640081091L81.55333333333333,84.35975276911999L82.03,85.06910086861102L82.46333333333332,86.72984158560146L82.89666666666668,81.69840446302003L83.33,81.47319230127556L83.80666666666667,77.25579007057283L84.24000000000001,80.38090145839016L84.67333333333333,84.84686401463208L85.15,83.28604449491695L85.58333333333333,79.76724698912696L86.01666666666667,83.90336984731712L86.45,81.0405766971685L86.92666666666666,82.30645494929617L87.36,84.1977058148682L87.79333333333334,77.12991626687646L88.27000000000001,80.90429613318723L88.70333333333333,82.9102094093562L89.13666666666667,83.65482747001057L89.57,80.49610452741946L90.04666666666667,77.97386116022207L90.47999999999999,81.69877522032066L90.91333333333334,78.75799682666224L91.39,88.90891150889415L91.82333333333334,81.03978863710732L92.25666666666666,83.78635659851373L92.73333333333333,92.54893349729623L93.16666666666667,84.7761836312571L93.6,83.12509302620245L94.07666666666667,91.35441707143676L94.50999999999999,85.26809538073039L94.94333333333333,88.53637616857903L95.42,97.3724794905882L95.85333333333332,103.5491221004874L96.28666666666668,93.56261484548354L96.76333333333332,91.40762399246239L97.19666666666667,90.64049949959879L97.63,86.93071163226743L98.10666666666667,84.15218511117249L98.54,83.06223842065184L98.97333333333333,82.42881274358818L99.45,81.61001887824968L99.88333333333333,79.8475849404345L100.31666666666666,80.02841169383586L100.75,76.17460724535462L101.22666666666666,78.30002753256487L101.66,76.11251579812405L102.09333333333333,78.02526345953089L102.57000000000001,77.5590331009313L103.00333333333333,75.92436542245454L103.43666666666667,84.19118627463403L103.91333333333334,88.45242211801583L104.34666666666666,84.14947351788149L104.78,84.91084748565949L105.25666666666666,85.4846208980767L105.69,83.24470588933953L106.12333333333333,80.1250590170216L106.6,83.86597067424407L107.03333333333333,84.6026962999031L107.46666666666667,88.48096046344587L107.94333333333334,96.7682898567139L108.37666666666667,97.83292572330548L108.85333333333334,97.05785567043888L109.28666666666666,95.11918621298871L109.72,87.1583469343416L110.15333333333334,84.8202616238931L110.63,84.2381203267578L111.06333333333333,84.4018745500507L111.49666666666667,90.32051583451005L111.97333333333333,83.45082848934516L112.40666666666667,85.7826199608635L112.84,87.93250552778986L113.31666666666668,86.49766367951361L113.75,87.38076570349529L114.18333333333332,87.43953186005906L114.61666666666667,85.26149355236028L115.09333333333333,83.517379880627L115.52666666666667,86.02897710940043L115.96000000000001,86.14840348441878L116.43666666666667,82.85174594722875L116.87,82.20530655425404L117.34666666666666,86.05763551558026L117.78,87.7697354148227L118.21333333333334,95.06432982861885L118.69,90.83203883616063L119.12333333333333,89.36070276512464L119.55666666666666,87.5187494186387L120.03333333333333,83.93496966676865L120.46666666666667,78.48870521674725L120.9,79.21481897566818L121.33333333333333,79.94478556817236L121.81,83.38420959644793L122.24333333333334,79.60710975279378L122.67666666666666,78.93228833625695L123.15333333333334,83.5426185560722L123.58666666666666,80.59816021268561L124.02,84.73600774483874L124.49666666666667,84.99413724527952L124.92999999999999,86.41374047792671L125.36333333333334,80.72029933152626L125.79666666666667,83.72423031917033L126.27333333333334,82.97621975212783L126.70666666666666,81.74960067517254L127.14,79.32111194097018L127.61666666666667,79.39618971514513L128.05,76.6872811917532L128.48333333333332,80.48642826303255L128.91666666666666,84.08792849689371L129.39333333333332,85.8559547105013L129.82666666666668,89.06055880741746L130.30333333333334,93.87410195786639L130.73666666666668,94.45384382949601L131.21333333333334,95.99276046651401L131.64666666666665,95.3380804274845L132.08,92.45798355401763L132.55666666666667,92.57337294754113L132.98999999999998,90.13354036949113L133.42333333333332,87.67091576352935L133.9,86.27274742530915L134.33333333333334,90.0732566188701L134.76666666666665,89.84843308702676L135.24333333333334,88.84986837913932L135.67666666666668,87.51586370270654L136.10999999999999,84.19861705264175L136.58666666666667,83.59299942027961L137.02,87.11133762178679L137.49666666666667,87.31653107565359L137.93,87.22508402409186L138.36333333333334,87.75214553271947L138.84,78.80009154689441L139.2733333333333,87.12086432032068L139.70666666666668,93.38414023753373L140.18333333333334,93.5875824241521L140.61666666666667,91.78641250970057L141.04999999999998,97.5245605114376L141.52666666666667,94.56433924480929L141.96,95.90328131806645L142.39333333333332,89.86947704643086L142.87,95.22443035293664L143.30333333333334,90.54529331777917L143.73666666666665,83.03503877240077L144.21333333333334,79.84773448870175L144.64666666666668,81.11016116077062L145.08,86.15109648575994L145.55666666666664,87.9634332233406L145.99,78.8995968678834L146.42333333333335,80.34019300590408L146.85666666666665,84.59755906239423L147.33333333333334,84.86044298599326L147.76666666666668,86.77736273849106L148.2,88.00480185291626L148.67666666666665,86.09662797033661L149.11,84.19655306327269L149.54333333333335,86.22202012328063L149.97666666666666,88.54890190072508L150.45333333333332,90.12494426572913L150.88666666666668,91.10110827970263L151.32,93.68935440046245L151.79666666666665,89.125280314809L152.23000000000002,90.409268633997L152.66333333333333,86.2012876683328L153.09666666666666,86.8261519114983L153.57333333333332,84.4857381790367L154.0066666666667,84.63071095602635L154.48333333333332,86.57662280096763L154.91666666666666,84.20001303371284L155.35,83.271401057441L155.78333333333333,78.18516379359302L156.26,79.65914837576712L156.69333333333333,81.04268062074641L157.12666666666667,83.35586554061169L157.60333333333332,81.11180837924755L158.03666666666666,74.71930849612043L158.47,75.61474889701775L158.94666666666666,76.74653352013927L159.38,80.00716133566719L159.81333333333333,79.54203438675616L160.24666666666664,74.92053744569151L160.72333333333333,80.26197301124371L161.15666666666667,75.98196922406458L161.59,75.49445950288515L162.06666666666666,77.41370996042457L162.5,74.86116876301786L162.93333333333334,73.02421112516097L163.41,75.26597815523688L163.84333333333333,76.52311109142586L164.27666666666667,77.0030546392724L164.70999999999998,77.77869060471009L165.18666666666667,77.10483035445819L165.62,77.31239127318428L166.05333333333334,73.25532302305321L166.48666666666665,76.119333514344L166.96333333333334,76.0145168925452L167.39666666666668,77.52920658415324L167.82999999999998,82.49212180043718L168.30666666666667,75.82709889515515L168.74,80.387387734081L169.17333333333332,81.31480478903192L169.60666666666665,83.13629552767995L170.08333333333334,80.1948987320343L170.51666666666668,82.22929063912905L170.95,80.5638835051259L171.38333333333333,81.78208990058901L171.86,75.48086746406517L172.29333333333332,77.42388673547087L172.72666666666666,74.91991128627367L173.20333333333335,82.44428488624439L173.63666666666666,80.84333782302745L174.07,85.25397602512881L174.54666666666668,84.98817388466662L174.98000000000002,77.52695681553087L175.41333333333333,81.41101032982866L175.89,84.31759214172125L176.32333333333335,80.25522957430894L176.75666666666666,83.68895845449933L177.23333333333332,82.69165607121766L177.66666666666666,85.67815700989276L178.10000000000002,79.38155717892235L178.53333333333333,81.3650887876319L179.01,57.527103728228866L179.44333333333336,38.205588998600234L179.87666666666667,46.36866447585092L180.31,60.79439666946091L180.78666666666666,58.80514495171721L181.22,70.58808198852905L181.65333333333334,77.60036434725068L182.13,75.88015186361558L182.56333333333333,75.65722392269225L182.99666666666667,77.73203779743066L183.47333333333333,79.83365348395279L183.90666666666667,83.73377308075568L184.34,82.60057629639869L184.81666666666666,80.12247844906626L185.25,82.61778566214628L185.6833333333333,83.3986267783633L186.11666666666667,81.27776362131384L186.59333333333333,86.46485620169051L187.02666666666667,82.35739335325286L187.45999999999998,81.86799160683309L187.93666666666667,84.01943851338321L188.37,81.98147547389961L188.8033333333333,84.36274642013052L189.23666666666668,78.7603849958134L189.71333333333334,81.07960821409539L190.14666666666665,89.25671958756158L190.57999999999998,86.31441830619201L191.05666666666667,86.1049862728955L191.49,73.46143181382268L191.92333333333332,77.07446750258595L192.35666666666668,54.833615793318714L192.83333333333334,62.5516922487504L193.26666666666665,63.99819679316998L193.7,68.51352342793616L194.17666666666668,72.25285890969201L194.61,78.81499273268916L195.04333333333332,77.86092287513736L195.47666666666666,77.21980296773587L195.95333333333335,77.8380805926693L196.38666666666666,79.77898458553389L196.82,75.81594409592769L197.29666666666668,79.50090813218249L197.73,81.74149128071683L198.16333333333333,81.54007380791833L198.59666666666666,76.57049403292932L199.07333333333335,80.64307595562735L199.50666666666666,84.50508800161957L199.98333333333332,79.25593767000086L200.41666666666669,82.20644961952874L200.85,78.13938711008255L201.32666666666665,80.35959946441149L201.76000000000002,80.9122094163944L202.19333333333333,81.85455833870071L202.62666666666667,83.39499515517292L203.10333333333332,79.77200989235682L203.5366666666667,79.9473586398914L203.97,77.61746514003801L204.44666666666666,81.90520039694306L204.88,79.26511088508444L205.31333333333333,84.42947053461121L205.79,88.76575178259917L206.22333333333333,90.2087089137493L206.70000000000002,88.75443134727627L207.13333333333333,86.91100383315016L207.56666666666666,82.31858805003878L208.04333333333335,84.54360130761931L208.47666666666666,83.34546416849814L208.91,87.0975974116281L209.38666666666666,99.55004454857442L209.82000000000002,99.22641558645962L210.25333333333333,102.90980674904367L210.73,106.64894009020496L211.16333333333336,101.48441812253934L211.59666666666666,99.3527116377072L212.07333333333332,88.95120738787949L212.50666666666666,93.29598811175525L212.94,83.56455134345748L213.41666666666666,79.76261329075889L213.85,83.67505493464785L214.32666666666668,81.72814639132848L214.76,84.22222062953291L215.19333333333333,79.16761850297239L215.67000000000002,83.58055238513023L216.10333333333335,89.83703635114156L216.57999999999998,90.19327111951146L217.01333333333332,88.85545353066902L217.4466666666667,92.1807035129089L217.92333333333332,98.13145391295267L218.35666666666665,88.04176654929866L218.79000000000002,92.56458330411681L219.26666666666668,91.35817098920923L219.7,86.73425795468916L220.13333333333333,88.27938758780496L220.5666666666667,89.17339040880364L221.04333333333332,81.72482398179149L221.47666666666666,83.4384303111949L221.95333333333335,80.51290840421828L222.38666666666666,87.34792823750603L222.82,79.24550428932206L223.25333333333333,80.05429863748131L223.73000000000002,80.77179897815294L224.16333333333333,83.56274220838333L224.59666666666666,84.11145820788057L225.07333333333335,86.51522902119066L225.50666666666666,89.58534256945794L225.94,80.87419730323997L226.41666666666666,80.83076317721674L226.85000000000002,83.25617024668497L227.28333333333333,80.46942322796649L227.76,81.83076953845857L228.19333333333336,87.32000998456859L228.62666666666667,89.00002342516929L229.10333333333332,86.9469745763426L229.53666666666666,84.55884790991455L229.97,86.01832194298332L230.40333333333334,84.71131879217322L230.88,89.27954098682739L231.31333333333333,91.07849969601315L231.79,90.35886350479136L232.22333333333333,95.82066867648409L232.65666666666667,90.87267454404937L233.09,89.8202612403888L233.56666666666666,88.4248151396528L234,91.72745699995647L234.4333333333333,91.66727470272119L234.91,88.3308419870635L235.34333333333333,93.4627710662663L235.77666666666667,87.74226815272648L236.20999999999998,87.12408149179387L236.68666666666667,81.33606260480424L237.12,87.24164190766378L237.5533333333333,88.70514069945911L238.03,86.83479405637364" style="fill: none;" fill="none"></path></g><g><path stroke="rgb(51, 187, 238)" stroke-width="2px" d="M22.143333333333334,139.25749283842742L22.576666666666668,152.7358911478441L23.053333333333335,157.7162688606553L23.486666666666668,160.01316796940787L23.96333333333333,161.20812287167908L24.44,160.78014932825198L24.916666666666668,161.64996457902873L25.35,160.12235590749998L25.826666666666664,160.14856822502483L26.26,160.431676951013L26.736666666666665,161.3444005824983L27.169999999999998,161.68443896840733L27.603333333333335,161.73320320330012L28.08,162.18788466678498L28.513333333333332,162.4354454437197L28.990000000000002,162.44443799102288L29.423333333333332,160.29440792131174L29.856666666666666,160.13707761653666L30.333333333333332,159.5190446096436L30.766666666666666,159.84535579955224L31.243333333333336,159.41159435622166L31.676666666666666,154.85964540319333L32.196666666666665,153.8495199466807L32.67333333333334,155.1280687803022L33.10666666666666,154.81985453141513L33.626666666666665,153.21915163235732L34.06,150.9313989721088L34.53666666666667,146.6959147782274L34.97,135.59564276215687L35.40333333333333,131.15102139259994L35.88,119.27210798387884L36.31333333333333,132.8377824452291L36.79,121.97000359230356L37.22333333333333,99.0033053341121L37.656666666666666,79.65225181241016L38.13333333333333,70.23964449472776L38.56666666666667,59.571281485542215L39,58.931782880207294L39.47666666666667,55.036195021650826L39.91,53.73801381172946L40.343333333333334,54.32427118337809L40.776666666666664,54.218742403287536L41.25333333333334,49.01119563353626L41.68666666666667,48.78170869369842L42.120000000000005,48.313457582809775L42.596666666666664,51.394603700532926L43.03,55.330500589614005L43.46333333333333,55.283305317741494L43.940000000000005,55.46684913918534L44.373333333333335,52.71378253225345L44.806666666666665,55.825626306939455L45.28333333333333,56.88720771091988L45.71666666666667,52.19642471670967L46.15,52.69968191350472L46.583333333333336,56.228706174484955L47.059999999999995,60.34862976251719L47.49333333333333,57.41797961108033L47.92666666666666,53.422662995628826L48.403333333333336,59.48335973339664L48.836666666666666,62.92191928849071L49.27,61.91662386516994L49.74666666666666,58.46899462244069L50.18,57.87850938713244L50.61333333333333,59.6529210516355L51.04666666666667,67.46376830514524L51.52333333333333,62.87648202236245L51.95666666666667,57.67680367060949L52.39,56.01005135587921L52.86666666666667,61.630923738253514L53.3,63.74534712617937L53.733333333333334,59.817765147052256L54.16666666666667,59.768022348818434L54.64333333333333,57.093304470134115L55.07666666666667,58.707755004089506L55.51,58.506142047874974L55.986666666666665,56.18841789633008L56.42,60.8674348377385L56.85333333333334,62.700102120629836L57.33,62.14624741672988L57.763333333333335,61.22023756305089L58.196666666666665,50.16722931315327L58.63,58.268863860864386L59.10666666666667,63.39880967980561L59.54,59.6866491934415L59.97333333333333,63.82363422194659L60.45,63.2856374923162L60.88333333333333,69.34384751456612L61.31666666666667,66.66176859396279L61.75,58.78763333623158L62.22666666666667,59.4308055018259L62.66,56.720800369225316L63.093333333333334,55.284416738942696L63.57,59.31629901183372L64.00333333333333,58.61555158105129L64.43666666666667,57.01445335650425L64.87,59.58612598282484L65.34666666666668,58.51171253106429L65.78,66.43503433355548L66.21333333333332,67.88597707210299L66.69,64.8534875862796L67.12333333333333,65.72618392475441L67.55666666666667,68.07430387805697L68.03333333333333,66.56470237411538L68.46666666666665,65.88841333158302L68.9,71.46128615960967L69.33333333333333,66.37992457881865L69.81,64.82278799912511L70.24333333333334,68.83356467525866L70.67666666666666,58.35913700843277L71.15333333333334,66.4712300314571L71.58666666666666,66.87325588076705L72.02000000000001,67.73080229213474L72.45333333333333,60.78082223380987L72.93,70.5662122966074L73.36333333333333,69.34703276388184L73.79666666666667,65.73088909411831L74.27333333333334,66.32044631600024L74.70666666666666,64.01317297533933L75.14,65.69945322915386L75.61666666666666,66.10003228055122L76.05,64.54366981004685L76.48333333333333,68.91236972321079L76.91666666666667,72.15761255229913L77.39333333333335,77.18507550361993L77.82666666666667,74.33147057937528L78.25999999999999,73.53993035856055L78.69333333333333,67.43651909979086L79.17,68.66857160489896L79.60333333333332,72.10581185511435L80.03666666666668,71.01612154250354L80.51333333333332,75.40265921516226L80.94666666666667,73.06787845102752L81.38,73.81796538521532L81.85666666666667,75.06145461563081L82.29,78.83061486704435L82.72333333333333,77.93277967382443L83.15666666666667,76.93615711997334L83.63333333333333,74.36031154629816L84.06666666666666,76.13121604375381L84.5,73.58066692323887L84.97666666666666,72.31341751389546L85.41,78.39550904218065L85.84333333333333,79.1313411076389L86.27666666666666,75.63698378853137L86.75333333333333,78.6156529008476L87.18666666666667,75.68015583867599L87.62,75.94180121604465L88.09666666666666,73.71117206265843L88.53,74.0565699682652L88.96333333333334,77.99743860017374L89.44,78.41013105616639L89.87333333333333,78.4685083639463L90.30666666666667,78.89812721382619L90.74,74.92649514344956L91.21666666666667,78.48956518168822L91.64999999999999,82.95391047648931L92.08333333333334,86.82487945274917L92.56,82.1548160839562L92.99333333333334,78.89578496710367L93.42666666666666,80.99404220807101L93.90333333333334,81.42253078015175L94.33666666666667,78.14912141779976L94.77,79.89828492032439L95.24666666666667,87.28184900925724L95.67999999999999,83.0874080466499L96.11333333333333,80.87262603162351L96.54666666666667,78.01720559459103L97.02333333333333,82.37906982766296L97.45666666666668,85.29623911167207L97.89,78.45667740162229L98.36666666666667,81.34107327584036L98.8,77.91661195853516L99.23333333333333,74.85177989392974L99.71000000000001,75.9429556474457L100.14333333333333,72.4750143257004L100.57666666666665,71.5524118632409L101.05333333333333,74.4672534196774L101.48666666666666,70.3913793173949L101.92,73.40230577906091L102.35333333333334,71.97756720291646L102.83,72.84659223977968L103.26333333333334,74.87219262306438L103.69666666666666,74.39535330122438L104.13000000000001,74.33401078315016L104.60666666666667,75.23258201826475L105.04,77.40714070453562L105.47333333333333,78.53211181563725L105.94999999999999,83.00910120503659L106.38333333333334,87.8080804412855L106.86,86.19626101048547L107.29333333333334,80.83547700633662L107.72666666666666,83.13293739024832L108.20333333333333,89.7119763708951L108.63666666666667,85.2367237510885L109.07,84.13652608708175L109.54666666666667,80.22434413854657L109.97999999999999,81.89362968235837L110.45666666666666,72.34004527814962L110.89,78.89545321978792L111.32333333333332,73.23863424396117L111.8,77.33946226409437L112.23333333333332,74.34462161136484L112.66666666666667,74.81288634974447L113.14333333333333,74.66203062030885L113.57666666666667,77.66339174609311L114.01,81.48016460235475L114.48666666666668,75.93517919602328L114.92,72.67030676437817L115.35333333333332,72.4687298336629L115.83,71.8464843361976L116.26333333333334,71.45237642950232L116.69666666666666,72.18095670546937L117.17333333333333,73.63796077016501L117.60666666666665,78.8570595602801L118.04,79.29597515015466L118.51666666666667,77.9634653366029L118.95,79.01745295642336L119.38333333333334,78.5797016560645L119.86,77.77886098039812L120.29333333333334,81.7433343092362L120.72666666666666,81.65920619699915L121.20333333333333,80.75346355458235L121.63666666666667,82.19435525180978L122.07,80.26117589767028L122.50333333333333,81.56604483343312L122.97999999999999,76.32199088106842L123.41333333333334,75.4988098203855L123.84666666666666,78.41837729596402L124.32333333333334,86.68315491030597L124.75666666666666,82.3202155199646L125.19,77.63808375698324L125.66666666666667,81.96763850635486L126.1,72.20598780892011L126.53333333333335,76.82757592940361L126.96666666666667,79.31211825481473L127.44333333333333,74.51916510102998L127.87666666666667,78.82199930168898L128.31,80.77095991681642L128.78666666666666,79.33545187996206L129.22,83.00677578158007L129.69666666666666,77.50196638111368L130.13,81.78073108238435L130.56333333333333,82.54370682811216L131.04,78.55813914041006L131.47333333333336,76.44477074916333L131.90666666666667,77.70625880057715L132.34,74.46223374721468L132.81666666666666,74.00487154359855L133.25,74.54549182833377L133.68333333333334,74.37675120287821L134.16,72.75703162538221L134.59333333333333,71.2738462607297L135.02666666666667,78.16926535116032L135.50333333333333,84.06081859184144L135.93666666666667,80.21456964510382L136.41333333333333,78.10691396985075L136.84666666666666,78.00669947347217L137.28,80.63383451276724L137.7133333333333,78.67474199636997L138.19,82.18257467332019L138.62333333333333,85.04885207692305L139.05666666666667,86.818536260453L139.53333333333333,84.48651504564909L139.96666666666667,81.21088759431419L140.4,86.88382074010876L140.87666666666667,84.95780975335343L141.31,80.85239260547462L141.74333333333334,81.21552478489141L142.22,80.1679408595474L142.65333333333334,80.55675977218222L143.08666666666667,77.51206325713636L143.52,76.39594390674736L143.99666666666664,74.20905698747022L144.43,75.11950073511748L144.86333333333334,76.24819404952535L145.34,77.21409135156559L145.77333333333334,74.1820133150241L146.20666666666668,79.53502338750886L146.64,76.79409387533103L147.11666666666665,79.82570706352136L147.55,79.67744019107745L147.98333333333335,76.78433084598218L148.45999999999998,78.47413689585152L148.89333333333332,80.39848951513542L149.32666666666668,76.66214879635955L149.76,77.2752015242516L150.23666666666665,83.6288353867554L150.67000000000002,78.75294430308878L151.10333333333335,81.65731943822905L151.57999999999998,79.82795118944051L152.01333333333332,78.00967134181383L152.4466666666667,78.9378728942199L152.92333333333332,76.53467756466806L153.35666666666665,80.97024217147673L153.79000000000002,75.09043905053962L154.26666666666668,78.12884413424787L154.7,74.27998900199128L155.13333333333333,77.10398634866392L155.61,79.30686217131526L156.04333333333332,75.15245919972048L156.47666666666666,78.09173081496986L156.91,74.59659912047566L157.38666666666666,75.54027505407402L157.82,73.3926596551021L158.25333333333333,72.66411845960499L158.73000000000002,73.16188697662918L159.16333333333333,73.76840961613438L159.59666666666666,74.27415788479556L160.03,73.16110010355459L160.50666666666666,71.05973355691481L160.94,73.87007608371485L161.37333333333333,74.01759561116006L161.85000000000002,75.83066071523929L162.28333333333333,70.2327992617808L162.71666666666667,71.19645815042985L163.14999999999998,74.47588379973172L163.62666666666667,77.47723733585477L164.06,74.72869399409333L164.49333333333334,77.61382407478992L164.97,70.56187179952366L165.40333333333334,72.85288284060063L165.83666666666667,75.7584420306188L166.26999999999998,72.47260999929122L166.74666666666667,70.9235010204288L167.18,69.81331279794809L167.61333333333334,71.04381708455345L168.09,72.06779767191766L168.52333333333334,71.30894390314634L168.95666666666668,76.06719671082386L169.4333333333333,75.80790796513493L169.86666666666667,74.21575257212997L170.3,75.03478679327814L170.77666666666667,76.5101369290172L171.20999999999998,77.673556843268L171.64333333333335,79.4593497247202L172.07666666666668,77.03800646349009L172.5533333333333,75.54588410338292L172.98666666666668,76.53368405573883L173.42000000000002,73.92057135918728L173.89666666666665,72.66235288214082L174.32999999999998,75.22772383405604L174.76333333333335,77.07320543878578L175.19666666666666,71.96770694729669L175.67333333333332,76.66286044047465L176.10666666666668,75.02669432000035L176.54000000000002,74.80578224898802L177.01666666666665,70.17775379096325L177.45,71.31273649841461L177.88333333333335,74.25510728459506L178.36,78.06309012880494L178.79333333333332,78.18147969952565L179.22666666666666,80.6419699289084L179.70333333333335,83.3150769358981L180.13666666666666,85.2559321732983L180.57,83.38952913651853L181.00333333333336,82.1580182297726L181.48,88.9068916966736L181.91333333333333,87.02829956418591L182.34666666666666,89.66482373072496L182.78,87.41307945471281L183.25666666666666,81.32882419802512L183.69,82.12286473186472L184.12333333333333,80.94860519094264L184.6,77.19111278577444L185.03333333333333,75.49157542168376L185.46666666666667,76.27761147948668L185.94333333333333,77.11189170797209L186.37666666666667,76.98065104506138L186.81,73.22898095402157L187.2433333333333,72.43742976394117L187.72,74.58336973199341L188.15333333333334,78.75866413742757L188.58666666666667,78.77764052255228L189.06333333333333,75.58641381076936L189.49666666666667,78.47052525164862L189.93,77.9959193382095L190.40666666666667,74.9134137884337L190.84,73.45107894796482L191.27333333333334,73.47704079344881L191.75,80.67575518843537L192.18333333333334,79.68465011898878L192.61666666666667,83.36922254836085L193.05,78.19200213730645L193.52666666666664,75.58828438136167L193.96,74.6338803506187L194.39333333333335,72.6121563200429L194.87,75.96253788352658L195.30333333333334,72.46151607114464L195.73666666666668,75.39413478972548L196.21333333333334,77.5744744246326L196.64666666666665,73.42139216617478L197.08,72.26771514255245L197.55666666666667,74.02525793495838L197.98999999999998,73.61080894807814L198.42333333333332,70.29158647421899L198.85666666666668,70.12559676233275L199.33333333333334,73.35503304911659L199.76666666666665,76.19732851582572L200.20000000000002,80.14832171528224L200.67666666666668,77.17540950439583L201.10999999999999,75.6667802991204L201.54333333333332,74.51931647628939L202.02,78.94535243910788L202.45333333333332,75.64858382658502L202.88666666666666,78.68026961415812L203.36333333333334,78.55072090221329L203.79666666666668,82.8644046087139L204.23,79.29278709858096L204.70666666666668,81.92562680315636L205.14000000000001,80.0249807101786L205.57333333333332,77.29911419102349L206.04999999999998,81.13903753965377L206.48333333333335,77.90628321995902L206.91666666666666,79.17266919631103L207.39333333333332,81.54941342772051L207.82666666666668,76.74918391903839L208.30333333333334,82.4482998675144L208.73666666666665,85.36719950940426L209.21333333333334,91.5715460848682L209.64666666666668,90.65891308542328L210.08,91.06232607611757L210.55666666666664,90.71951819483681L210.99,92.75557852948255L211.42333333333335,88.38215069123834L211.89999999999998,85.39356765810884L212.33333333333334,88.88315822629671L212.76666666666668,79.84223360363767L213.24333333333334,79.75820024014983L213.67666666666665,79.44101994480575L214.11,79.89332912487318L214.58666666666667,86.03697727470117L215.01999999999998,86.28110760757438L215.45333333333332,84.46282936444348L215.93,85.85271089361387L216.36333333333334,85.7739162760652L216.84,80.00107153138578L217.27333333333334,84.40159304120775L217.70666666666668,85.05475600815993L218.14,92.99750305716503L218.61666666666667,85.84616154658382L219.05,86.21597780149729L219.48333333333332,88.82991842669179L219.95999999999998,84.58823014865474L220.39333333333335,86.60202460703347L220.82666666666668,79.0758514447039L221.26,81.14174662637863L221.73666666666668,80.58330288916719L222.17000000000002,80.51139959751501L222.60333333333332,77.16891512309869L223.07999999999998,75.99479368697818L223.51333333333335,81.54094375593196L223.94666666666666,79.45196621173261L224.38,80.43091699363971L224.85666666666668,79.27453175588758L225.29000000000002,77.3581925540426L225.72333333333333,80.30642092009934L226.2,85.71036250609488L226.63333333333335,84.79722399593393L227.11,85.87076815266012L227.54333333333332,83.49778479689519L227.97666666666666,81.70079839887715L228.45333333333335,86.10835552535949L228.88666666666666,87.35690605559448L229.32,85.1692226107031L229.79666666666668,88.34538538059253L230.23,84.10968677208221L230.66333333333333,82.04506533919013L231.14000000000001,83.47037528725409L231.57333333333335,81.52120757811431L232.04999999999998,74.77812740780809L232.48333333333332,80.29444304353733L232.91666666666669,76.51615352504496L233.39333333333332,82.28021139645404L233.82666666666665,75.62678767190671L234.26000000000002,76.59830917535005L234.73666666666668,74.3930618948804L235.17,76.05185688433448L235.60333333333332,75.14840302133003L236.08,79.56294939997854L236.51333333333332,84.1717560403033L236.94666666666666,81.4647851782531L237.42333333333335,81.68797905603986L237.85666666666668,81.47930666621491L238.29,83.81292015427925" style="fill: none;" fill="none"></path></g></g></g></g><g opacity="0.2"><g><g><g><path stroke="rgb(204, 51, 17)" stroke-width="2px" d="M22.143333333333334,140.41310119147724L22.576666666666668,160.86139736955133L23.053333333333335,162.28008332483782L23.486666666666668,162.31822278749314L23.96333333333333,162.8729082544402L24.39666666666667,162.30229831015458L24.916666666666668,161.7444206411019L25.35,162.45533039071597L25.826666666666664,162.87085276336924L26.26,162.30668434350324L26.736666666666665,162.72113848461595L27.169999999999998,161.70040521694077L27.64666666666667,159.08132402435876L28.08,161.5690371558691L28.55666666666667,159.6691692697738L28.990000000000002,161.84990118695228L29.423333333333332,158.09846833519018L29.900000000000002,158.1687653149711L30.333333333333332,160.00076608311306L30.81,150.70855677803047L31.33,155.6882094508037L31.763333333333335,154.49188596429303L32.24,149.46511594594145L32.76,148.48976591151828L33.193333333333335,151.0726496745677L33.67,150.06648181720325L34.10333333333333,157.3557547442615L34.58,143.68521611454585L35.01333333333333,138.5017555162L35.446666666666665,123.02238085865974L35.88,91.88519157407184L36.35666666666667,103.3927616191407L36.79,120.73822008228551L37.22333333333333,93.90517195314169L37.699999999999996,86.98644507614276L38.13333333333333,77.1739010537664L38.56666666666667,73.48194434245428L39,65.83584328119954L39.47666666666667,62.397585125640035L39.91,69.12038618015745L40.343333333333334,76.38170868096253L40.776666666666664,76.28891589057943L41.25333333333334,70.50897634215653L41.68666666666667,84.21510833563903L42.120000000000005,73.46868230899176L42.596666666666664,71.33182335272431L43.03,69.72420241932073L43.46333333333333,84.67489336555204L43.940000000000005,72.52497811118761L44.373333333333335,88.45893141441047L44.806666666666665,64.49850535268584L45.239999999999995,78.39713023602962L45.71666666666667,74.6824761070311L46.193333333333335,91.4603298989435L46.67,80.7433221017321L47.10333333333333,78.70833904730776L47.58,82.25024137583873L48.013333333333335,106.63770146140207L48.446666666666665,87.2314611443629L48.92333333333334,89.00405624819298L49.4,87.6105964332819L49.876666666666665,98.55486851433913L50.31,89.88319782788555L50.78666666666667,73.42706577169398L51.22,73.66083674070737L51.65333333333333,98.1968903131783L52.13,95.52383076647918L52.56333333333333,89.49364631685118L52.99666666666667,104.83163008404274L53.43,79.51528543233871L53.906666666666666,98.13902778488894L54.339999999999996,96.99280819172661L54.77333333333333,84.41995149416229L55.25,98.65096299846967L55.68333333333334,96.89366758428514L56.11666666666666,81.97524067883691L56.593333333333334,88.16885206165412L57.026666666666664,102.6939422506839L57.46,87.63611203307906L57.89333333333334,89.16511397436261L58.370000000000005,89.9601107146591L58.80333333333333,102.2595139524589L59.236666666666665,97.33438153378665L59.71333333333333,91.60185375499229L60.14666666666667,73.49315490511557L60.580000000000005,91.4166757054627L61.013333333333335,75.40184472004572L61.489999999999995,92.2130470002691L61.92333333333333,83.98908046012124L62.35666666666667,83.51315995616218L62.833333333333336,84.97076795063913L63.26666666666667,71.00322193714479L63.699999999999996,90.77521463173132L64.17666666666666,95.8605413629363L64.61,73.760861483713L65.04333333333332,83.74985271692276L65.47666666666667,90.43089908796053L65.95333333333333,87.32602220587432L66.38666666666667,75.89711259678006L66.82000000000001,90.13233065232635L67.29666666666667,81.03097698899606L67.73,54.949254138395176L68.16333333333333,80.88599257109067L68.59666666666666,75.26740085581937L69.07333333333334,77.57672150557241L69.50666666666666,84.5864798091352L69.94,98.57584601206084L70.41666666666666,83.7701118544986L70.85000000000001,65.71450948963562L71.28333333333333,60.0062609023104L71.76,82.60083566357693L72.19333333333333,84.51045105792582L72.62666666666667,80.80869978231689L73.06,73.66257047529021L73.53666666666666,73.59314511157572L73.97,85.23486891388893L74.40333333333334,70.47736158842841L74.88,78.48489450539151L75.31333333333333,80.1438643746078L75.74666666666667,81.89678055482605L76.17999999999999,78.79658682830632L76.65666666666667,72.95743091901144L77.09,82.88987201265991L77.52333333333334,83.38788899841407L78,81.85641424047449L78.43333333333334,80.26374763126174L78.86666666666667,72.42773010643819L79.34333333333333,93.8117989487946L79.77666666666667,93.91500796129306L80.21,80.2453396525234L80.68666666666667,83.74722793946663L81.12,84.74948539646962L81.55333333333333,84.06256732158363L82.03,86.13312301784754L82.46333333333332,89.22095266108711L82.89666666666668,74.15124877914786L83.33,81.13537405865887L83.80666666666667,70.92968672451875L84.24000000000001,85.06856854011616L84.67333333333333,91.54580784899493L85.15,80.94481521534422L85.58333333333333,74.48905073044202L86.01666666666667,90.10755413460235L86.45,76.74638697194555L86.92666666666666,84.20527232748768L87.36,87.03458211322626L87.79333333333334,66.52823194488883L88.27000000000001,86.56586593265334L88.70333333333333,85.91907932360968L89.13666666666667,84.77175456099212L89.57,75.75802011353275L90.04666666666667,74.19049610942602L90.47999999999999,87.28614631046852L90.91333333333334,74.34682923617461L91.39,104.13528353224198L91.82333333333334,69.23610432942709L92.25666666666666,87.9062085406234L92.73333333333333,105.69279884546995L93.16666666666667,73.11705883219838L93.6,80.64845711862048L94.07666666666667,103.69840313928823L94.50999999999999,76.1386128446708L94.94333333333333,93.438797350352L95.42,110.62663447360198L95.85333333333332,112.81408601533622L96.28666666666668,78.58285396297774L96.76333333333332,88.17513771293065L97.19666666666667,89.48981276030342L97.63,81.36602983127037L98.10666666666667,79.98439532953003L98.54,81.42731838487089L98.97333333333333,81.47867422799268L99.45,80.38182808024189L99.88333333333333,77.20393403371176L100.31666666666666,80.2996518239379L100.75,70.39390057263276L101.22666666666666,81.48815796338022L101.66,72.83124819646278L102.09333333333333,80.89438495164117L102.57000000000001,76.85968756303191L103.00333333333333,73.47236390473941L103.43666666666667,96.5914175529033L103.91333333333334,94.84427588308851L104.34666666666666,77.69505061767995L104.78,86.05290843732655L105.25666666666666,86.34528101670244L105.69,79.88483337623379L106.12333333333333,75.44558870854476L106.6,89.47733816007774L107.03333333333333,85.70778473839164L107.46666666666667,94.29835670876007L107.94333333333334,109.19928394661595L108.37666666666667,99.42987952319284L108.85333333333334,95.895250591139L109.28666666666666,92.21118202681343L109.72,75.21708801637092L110.15333333333334,81.31313365822038L110.63,83.36490838105479L111.06333333333333,84.6475058849901L111.49666666666667,99.19847776119907L111.97333333333333,73.14629747159779L112.40666666666667,89.28030716814101L112.84,91.15733387817939L113.31666666666668,84.34540090709925L113.75,88.70541873946786L114.18333333333332,87.52768109490475L114.61666666666667,81.99443609081209L115.09333333333333,80.90120937302709L115.52666666666667,89.79637295256059L115.96000000000001,86.32754304694632L116.43666666666667,77.9067596414437L116.87,81.23564746479192L117.34666666666666,91.8361289575696L117.78,90.33788526368637L118.21333333333334,106.00622144931306L118.69,84.4836023474733L119.12333333333333,87.15369865857065L119.55666666666666,84.75581939890981L120.03333333333333,78.55930003896356L120.46666666666667,70.31930854171515L120.9,80.30398961404958L121.33333333333333,81.03973545692861L121.81,88.54334563886127L122.24333333333334,73.94145998731256L122.67666666666666,77.92005621145168L123.15333333333334,90.45811388579507L123.58666666666666,76.1814726976057L124.02,90.94277904306848L124.49666666666667,85.38133149594069L124.92999999999999,88.5431453268975L125.36333333333334,72.1801376119256L125.79666666666667,88.23012680063644L126.27333333333334,81.85420390156409L126.70666666666666,79.90967205973962L127.14,75.67837883966664L127.61666666666667,79.50880637640753L128.05,72.62391840666533L128.48333333333332,86.18514886995158L128.91666666666666,89.49017884768546L129.39333333333332,88.50799403091273L129.82666666666668,93.86746495279174L130.30333333333334,101.09441668353975L130.73666666666668,95.32345663694043L131.21333333333334,98.30113542204101L131.64666666666665,94.35606036894023L132.08,88.1378382438173L132.55666666666667,92.74645703782637L132.98999999999998,86.47379150241613L133.42333333333332,83.97697885458669L133.9,84.17549491797885L134.33333333333334,95.77402040921152L134.76666666666665,89.51119778926174L135.24333333333334,87.35202131730816L135.67666666666668,85.51485668805739L136.10999999999999,79.22274707754454L136.58666666666667,82.6845729717364L137.02,92.38884492404759L137.49666666666667,87.62432125645378L137.93,87.08791344674924L138.36333333333334,88.54273779566088L138.84,65.37201056815684L139.2733333333333,99.60202348046005L139.70666666666668,102.7790541133533L140.18333333333334,93.89274570407967L140.61666666666667,89.0846576380233L141.04999999999998,106.13178251404315L141.52666666666667,90.1240073448668L141.96,97.91169442795217L142.39333333333332,80.8187706389775L142.87,103.25686031269531L143.30333333333334,83.52658776504299L143.73666666666665,71.76965695433319L144.21333333333334,75.06677806315324L144.64666666666668,83.0038011688739L145.08,93.71249947324395L145.55666666666664,90.68193832971156L145.99,65.30384233469763L146.42333333333335,82.50108721293509L146.85666666666665,90.98360814712942L147.33333333333334,85.2547688713918L147.76666666666668,89.6527423672378L148.2,89.84596052455406L148.67666666666665,83.23436714646718L149.11,81.34644070267677L149.54333333333335,89.26022071329255L149.97666666666666,92.03922456689179L150.45333333333332,92.48900781323512L150.88666666666668,92.56535430066288L151.32,97.57172358160217L151.79666666666665,82.27916918632886L152.23000000000002,92.33525111277898L152.66333333333333,79.88931621983647L153.09666666666666,87.76344827624658L153.57333333333332,80.97511758034429L154.0066666666667,84.84817012151083L154.48333333333332,89.49549056837957L154.91666666666666,80.63509838283062L155.35,81.87848309303322L155.78333333333333,70.55580789782107L156.26,81.8701252490282L156.69333333333333,83.11797898821533L157.12666666666667,86.82564292040965L157.60333333333332,77.74572263720134L158.03666666666666,65.13055867142975L158.47,76.95790949836373L158.94666666666666,78.44421045482159L159.38,84.89810305895904L159.81333333333333,78.8443439633896L160.24666666666664,67.98829203409454L160.72333333333333,88.27412635957202L161.15666666666667,69.56196354329586L161.59,74.76319492111602L162.06666666666666,80.29258564673364L162.5,71.03235696690777L162.93333333333334,70.26877466837564L163.41,78.62862870035073L163.84333333333333,78.40881049570939L164.27666666666667,77.7229699610422L164.70999999999998,78.94214455286661L165.18666666666667,76.09403997908035L165.62,77.6237326512734L166.05333333333334,67.1697206478566L166.48666666666665,80.41534925128022L166.96333333333334,75.857291959847L167.39666666666668,79.80124112156531L167.82999999999998,89.93649462486307L168.30666666666667,65.82956453723213L168.74,87.22782099246979L169.17333333333332,82.70593037145832L169.60666666666665,85.86853163565198L170.08333333333334,75.78280353856584L170.51666666666668,85.28087849977115L170.95,78.06577280412117L171.38333333333333,83.60939949378371L171.86,66.02903380927941L172.29333333333332,80.3384156425794L172.72666666666666,71.16394811247787L173.20333333333335,93.73084528620045L173.63666666666666,78.44191722820202L174.07,91.86993332828085L174.54666666666668,84.58947067397335L174.98000000000002,66.33513121182719L175.41333333333333,87.23709060127536L175.89,88.67746485956013L176.32333333333335,74.16168572319052L176.75666666666666,88.83955177478492L177.23333333333332,81.19570249629518L177.66666666666666,90.15790841790538L178.10000000000002,69.93665743246675L178.53333333333333,84.34038620069623L179.01,21.770126139124216L179.44333333333336,9.2233169041574L179.87666666666667,58.613277691726864L180.31,82.43299495987594L180.78666666666666,55.82126737510163L181.22,88.26248754374683L181.65333333333334,88.11878788533309L182.13,73.29983313816288L182.56333333333333,75.32283201130727L182.99666666666667,80.84425860953829L183.47333333333333,82.98607701373598L183.90666666666667,89.58395247596006L184.34,80.90078111986318L184.81666666666666,76.40533167806765L185.25,86.36074648176631L185.6833333333333,84.56988845268884L186.11666666666667,78.09646888573965L186.59333333333333,94.24549507225554L187.02666666666667,76.19619908059636L187.45999999999998,81.13388898720345L187.93666666666667,87.24660887320837L188.37,78.9245309146742L188.8033333333333,87.93465283947685L189.23666666666668,70.35684285933772L189.71333333333334,84.55844304151833L190.14666666666665,101.52238664776087L190.57999999999998,81.90096638413766L191.05666666666667,85.7908382229507L191.49,54.496100125213445L191.92333333333332,82.49402103573084L192.35666666666668,21.472338229417772L192.83333333333334,74.128806931898L193.26666666666665,66.16795360979935L193.7,75.28651338008544L194.17666666666668,77.86186213232577L194.61,88.6581934671849L195.04333333333332,76.42981808880964L195.47666666666666,76.25812310663363L195.95333333333335,78.76549703006944L196.38666666666666,82.69034057483077L196.82,69.87138336151838L197.29666666666668,85.02835418656468L197.73,85.10236600351831L198.16333333333333,81.23794759872058L198.59666666666666,69.11612437044582L199.07333333333335,86.75194883967438L199.50666666666666,90.2981060706079L199.98333333333332,71.38221217257282L200.41666666666669,86.63221754382053L200.85,72.03879334591329L201.32666666666665,83.68991799590489L201.76000000000002,81.74112434436879L202.19333333333333,83.26808172216019L202.62666666666667,85.70565037988126L203.10333333333332,74.33753199813268L203.5366666666667,80.21038176119328L203.97,74.12262489025792L204.44666666666666,88.33680328230062L204.88,75.30497661729655L205.31333333333333,92.17601000890136L205.79,95.27017365458111L206.22333333333333,92.37314461047451L206.70000000000002,86.57301499756673L207.13333333333333,84.14586256196102L207.56666666666666,75.42996437537172L208.04333333333335,87.88112119399011L208.47666666666666,81.54825845981637L208.91,92.72579727632304L209.38666666666666,118.22871525399387L209.82000000000002,98.74097214328746L210.25333333333333,108.4348934929197L210.73,112.25764010194689L211.16333333333336,93.73763517104089L211.59666666666666,96.155151910459L212.07333333333332,73.3489510131379L212.50666666666666,99.8131591975689L212.94,68.96739619101086L213.41666666666666,74.05970621171096L213.85,89.5437174004813L214.32666666666668,78.80778357634941L214.76,87.96333198683956L215.19333333333333,71.5857153131316L215.67000000000002,90.19995320836703L216.10333333333335,99.22176230015855L216.57999999999998,90.72762327206631L217.01333333333332,86.84872714740536L217.4466666666667,97.16857848626871L217.92333333333332,107.05757951301833L218.35666666666665,72.90723550381759L218.79000000000002,99.34880843634407L219.26666666666668,89.54855251684785L219.7,79.79838840290904L220.13333333333333,90.59708203747869L220.5666666666667,90.51439464030166L221.04333333333332,70.55197434127331L221.47666666666666,86.00883980530003L221.95333333333335,76.1246255437533L222.38666666666666,97.60045798743765L222.82,67.09186836704612L223.25333333333333,81.26749015972018L223.73000000000002,81.84804948916039L224.16333333333333,87.74915705372891L224.59666666666666,84.93453220712641L225.07333333333335,90.12088524115582L225.50666666666666,94.19051289185882L225.94,67.80747940391302L226.41666666666666,80.76561198818186L226.85000000000002,86.8942808508873L227.28333333333333,76.28930269988874L227.76,83.87278900419673L228.19333333333336,95.55387065373361L228.62666666666667,91.52004358607034L229.10333333333332,83.86740130310258L229.53666666666666,80.97665791027248L229.97,88.2075329925865L230.40333333333334,82.75081406595805L230.88,96.13187427880864L231.31333333333333,93.7769377597918L231.79,89.27940921795864L232.22333333333333,104.01337643402319L232.65666666666667,83.45068334539732L233.09,88.24164128489792L233.56666666666666,86.33164598854879L234,96.681419790412L234.4333333333333,91.57700125686824L234.91,83.32619291357696L235.34333333333333,101.16066468507051L235.77666666666667,79.16151378241679L236.20999999999998,86.19680150039494L236.68666666666667,72.6540342743198L237.12,96.1000108619531L237.5533333333333,90.90038888715208L238.03,84.0292740917454" style="fill: none;" fill="none"></path></g><g><path stroke="rgb(51, 187, 238)" stroke-width="2px" d="M22.143333333333334,139.25749283842742L22.576666666666668,160.82293013349408L23.053333333333335,162.49743146495408L23.486666666666668,162.7143213213009L23.96333333333333,162.76825599208436L24.44,160.18810784721668L24.916666666666668,162.89381430468347L25.35,157.89508779936781L25.826666666666664,160.18722630189345L26.26,160.85206041448205L26.736666666666665,162.70520769356517L27.169999999999998,162.19264607339088L27.603333333333335,161.80619033195157L28.08,162.86901609369184L28.513333333333332,162.80649561072156L28.990000000000002,162.45792046973656L29.423333333333332,157.07027263741475L29.856666666666666,159.9011221055213L30.333333333333332,158.59208925041216L30.766666666666666,160.33479275827995L31.243333333333336,158.7609759797342L31.676666666666666,148.03187175747007L32.196666666666665,152.33435170507678L32.67333333333334,157.0458768851046L33.10666666666666,154.35753534873948L33.626666666666665,150.8181041100373L34.06,147.4997758354681L34.53666666666667,140.34269498987123L34.97,118.94524496297042L35.40333333333333,124.48409179473917L35.88,101.45374180997412L36.31333333333333,153.18629143813936L36.79,105.66833661030978L37.22333333333333,64.55325959188244L37.656666666666666,50.625672361503035L38.13333333333333,56.12073376091817L38.56666666666667,43.56873713682094L39,57.97253497814137L39.47666666666667,49.1928132555137L39.91,51.790742001185805L40.343333333333334,55.20365723967551L40.776666666666664,54.06044923327862L41.25333333333334,41.19987548266846L41.68666666666667,48.43747828404108L42.120000000000005,47.61108091659841L42.596666666666664,56.01632287663716L43.03,61.23434592286745L43.46333333333333,55.212512409935385L43.940000000000005,55.742164871344954L44.373333333333335,48.58418262191114L44.806666666666665,60.49339196893075L45.28333333333333,58.47957981688279L45.71666666666667,45.16025022541481L46.15,53.45456770869592L46.583333333333336,61.52224256594974L47.059999999999995,66.52851514456174L47.49333333333333,53.02200438392657L47.92666666666666,47.42968807245293L48.403333333333336,68.57440484004715L48.836666666666666,68.07975862113139L49.27,60.40868073018888L49.74666666666666,53.2975507583469L50.18,56.99278153417009L50.61333333333333,62.31453854839006L51.04666666666667,79.18003918540975L51.52333333333333,55.99555259818831L51.95666666666667,49.87728614298004L52.39,53.50992288378376L52.86666666666667,70.06223231181502L53.3,66.91698220806816L53.733333333333334,53.926392178361596L54.16666666666667,59.69340815146762L54.64333333333333,53.08122765210766L55.07666666666667,61.12943080502251L55.51,58.2037226135532L55.986666666666665,52.711831669012696L56.42,67.88596024985114L56.85333333333334,65.44910304496685L57.33,61.315465360879884L57.763333333333335,59.831222782532365L58.196666666666665,33.58771693830687L58.63,70.42131568243107L59.10666666666667,71.09372840821743L59.54,54.11840846389531L59.97333333333333,70.0291117647042L60.45,62.47864239787063L60.88333333333333,78.431162547941L61.31666666666667,62.63865021305779L61.75,46.97643044963476L62.22666666666667,60.39556375021735L62.66,52.65579267032443L63.093333333333334,53.12984129351872L63.57,65.36412242117026L64.00333333333333,57.564430434877664L64.43666666666667,54.61280601968366L64.87,63.44363492230573L65.34666666666668,56.90009235342342L65.78,78.32001703729233L66.21333333333332,70.06239117992422L66.69,60.30475335754453L67.12333333333333,67.0352284324666L67.55666666666667,71.59648380801082L68.03333333333333,64.30030011820295L68.46666666666665,64.87397976778448L68.9,79.82059540164968L69.33333333333333,58.75788220763205L69.81,62.48708312958479L70.24333333333334,74.849729689459L70.67666666666666,42.64749550819394L71.15333333333334,78.63936956599355L71.58666666666666,67.47629465473196L72.02000000000001,69.01712190918624L72.45333333333333,50.35585214632252L72.93,85.2442973908037L73.36333333333333,67.51826346479356L73.79666666666667,60.30667358947295L74.27333333333334,67.20478214882314L74.70666666666666,60.55226296434799L75.14,68.22887360987565L75.61666666666666,66.70090085764727L76.05,62.20912610429028L76.48333333333333,75.46541959295669L76.91666666666667,77.02547679593167L77.39333333333335,84.72626993060112L77.82666666666667,70.0510631930083L78.25999999999999,72.35262002733847L78.69333333333333,58.28140221163629L79.17,70.51665036256114L79.60333333333332,77.2616722304374L80.03666666666668,69.38158607358733L80.51333333333332,81.98246572415033L80.94666666666667,69.5657073048254L81.38,74.943095786497L81.85666666666667,76.92668846125403L82.29,84.48435524416468L82.72333333333333,76.58602688399455L83.15666666666667,75.4412232891967L83.63333333333333,70.49654318578541L84.06666666666666,78.78757278993726L84.5,69.75484324246645L84.97666666666666,70.41254339988032L85.41,87.5186463346084L85.84333333333333,80.23508920582631L86.27666666666666,70.39544780987003L86.75333333333333,83.08365656932196L87.18666666666667,71.27691024541855L87.62,76.33426928209761L88.09666666666666,70.36522833257914L88.53,74.57466682667533L88.96333333333334,83.90874154803655L89.44,79.02916974015534L89.87333333333333,78.55607432561615L90.30666666666667,79.54255548864603L90.74,68.9690470378846L91.21666666666667,83.83417023904622L91.64999999999999,89.65042841869096L92.08333333333334,92.63133291713893L92.56,75.14972103076676L92.99333333333334,74.00723829182485L93.42666666666666,84.141428069522L93.90333333333334,82.06526363827288L94.33666666666667,73.23900737427175L94.77,82.52203017411134L95.24666666666667,98.35719514265656L95.67999999999999,76.79574660273889L96.11333333333333,77.55045300908387L96.54666666666667,73.73407493904233L97.02333333333333,88.9218661772708L97.45666666666668,89.67199303768575L97.89,68.19733483654758L98.36666666666667,85.6676670871675L98.8,72.77991998257735L99.23333333333333,70.25453179702163L99.71000000000001,77.57971927771965L100.14333333333333,67.27310234308243L100.57666666666665,70.1685081695517L101.05333333333333,78.83951575433215L101.48666666666666,64.2775681639711L101.92,77.91869547155997L102.35333333333334,69.84045933869979L102.83,74.15012979507446L103.26333333333334,77.91059319799146L103.69666666666666,73.6800943184644L104.13000000000001,74.24199700603882L104.60666666666667,76.58043887093663L105.04,80.66897873394191L105.47333333333333,80.2195684822897L105.94999999999999,89.72458528913558L106.38333333333334,95.00654929565887L106.86,83.77853186428547L107.29333333333334,72.79430100011328L107.72666666666666,86.57912796611586L108.20333333333333,99.5805348418653L108.63666666666667,78.52384482137859L109.07,82.4862295910716L109.54666666666667,74.35607121574381L109.97999999999999,84.39755799807608L110.45666666666666,58.00966867183644L110.89,88.72856513224542L111.32333333333332,64.75340578022102L111.8,83.49070429429412L112.23333333333332,69.85236063227057L112.66666666666667,75.51528345731398L113.14333333333333,74.43574702615538L113.57666666666667,82.16543343476951L114.01,87.20532388674715L114.48666666666668,67.61770108652613L114.92,67.77299811691046L115.35333333333332,72.16636443759003L115.83,70.91311608999968L116.26333333333334,70.86121456945935L116.69666666666666,73.27382711941996L117.17333333333333,75.82346686720848L117.60666666666665,86.68570774545273L118.04,79.9543485349665L118.51666666666667,75.96470061627528L118.95,80.59843438615403L119.38333333333334,77.92307470552623L119.86,76.57759996689856L120.29333333333334,87.69004430249333L120.72666666666666,81.53301402864358L121.20333333333333,79.39484959095716L121.63666666666667,84.3556927976509L122.07,77.36140686646104L122.50333333333333,83.52334823707739L122.97999999999999,68.45590995252132L123.41333333333334,74.26403822936118L123.84666666666666,82.79772850933173L124.32333333333334,99.0803213318189L124.75666666666666,75.77580643445253L125.19,70.61488611251116L125.66666666666667,88.46197063041231L126.1,57.563511762768016L126.53333333333335,83.75995811012885L126.96666666666667,83.0389317429314L127.44333333333333,67.32973537035286L127.87666666666667,85.27625060267746L128.31,83.69440083950758L128.78666666666666,77.18218982468048L129.22,88.5137616340071L129.69666666666666,69.2447522804141L130.13,88.19887813429037L130.56333333333333,83.68817044670382L131.04,72.57978760885695L131.47333333333336,73.27471816229323L131.90666666666667,79.59849087769786L132.34,69.596196167171L132.81666666666666,73.31882823817432L133.25,75.35642225543657L133.68333333333334,74.1236402646949L134.16,70.32745225913823L134.59333333333333,69.04906821375093L135.02666666666667,88.51239398680627L135.50333333333333,92.8981484528631L135.93666666666667,74.44519622499743L136.41333333333333,74.94543045697114L136.84666666666666,77.85637772890428L137.28,84.57453707170984L137.7133333333333,75.7361032217741L138.19,87.4443236887455L138.62333333333333,89.34826818232735L139.05666666666667,89.47306253574789L139.53333333333333,80.98848322344324L139.96666666666667,76.29744641731182L140.4,95.3932204588006L140.87666666666667,82.06879327322045L141.31,74.69426688365638L141.74333333333334,81.76022305401662L142.22,78.59656497153142L142.65333333333334,81.13998814113438L143.08666666666667,72.94501848456761L143.52,74.72176488116384L143.99666666666664,70.92872660855451L144.43,76.4851663565884L144.86333333333334,77.94123402113715L145.34,78.6629373046259L145.77333333333334,69.63389626021186L146.20666666666668,87.564538496236L146.64,72.68269960706434L147.11666666666665,84.37312684580684L147.55,79.45503988241157L147.98333333333335,72.44466682833931L148.45999999999998,81.00884597065547L148.89333333333332,83.28501844406128L149.32666666666668,71.0576377181957L149.76,78.1947806160897L150.23666666666665,93.15928618051112L150.67000000000002,71.43910767758885L151.10333333333335,86.01388214093944L151.57999999999998,77.08389881625772L152.01333333333332,75.28225157037377L152.4466666666667,80.33017522282898L152.92333333333332,72.9298845703403L153.35666666666665,87.62358908168972L153.79000000000002,66.27073436913392L154.26666666666668,82.68645175981024L154.7,68.50670630360642L155.13333333333333,81.33998236867288L155.61,82.61117590529224L156.04333333333332,68.92085474232832L156.47666666666666,82.5006382378439L156.91,69.35390157873431L157.38666666666666,76.95578895447156L157.82,70.17123655664423L158.25333333333333,71.5713066663593L158.73000000000002,73.90853975216547L159.16333333333333,74.67819357539216L159.59666666666666,75.03278028778732L160.03,71.49151343169311L160.50666666666666,67.90768373695514L160.94,78.08558987391493L161.37333333333333,74.23887490232786L161.85000000000002,78.55025837135813L162.28333333333333,61.83600708159307L162.71666666666667,72.64194648340344L163.14999999999998,79.39502227368453L163.62666666666667,81.97926764003932L164.06,70.60587898145118L164.49333333333334,81.94151919583479L164.97,59.98394338662425L165.40333333333334,76.28939940221608L165.83666666666667,80.11678081564605L166.26999999999998,67.54386195229986L166.74666666666667,68.5998375521352L167.18,68.14803046422699L167.61333333333334,72.88957351446152L168.09,73.60376855296394L168.52333333333334,70.17066324998936L168.95666666666668,83.20457592234015L169.4333333333333,75.41897484660149L169.86666666666667,71.82751948262253L170.3,76.26333812500039L170.77666666666667,78.72316213262579L171.20999999999998,79.41868671464422L171.64333333333335,82.13803904689848L172.07666666666668,73.40599157164493L172.5533333333333,73.30770056322217L172.98666666666668,78.01538398427269L173.42000000000002,70.00090231435993L173.89666666666665,70.77502516657114L174.32999999999998,79.07578026192883L174.76333333333335,79.84142784588039L175.19666666666666,64.30945921006301L175.67333333333332,83.70559068024158L176.10666666666668,72.5724451392889L176.54000000000002,74.47441414246956L177.01666666666665,63.23571110392609L177.45,73.01521055959165L177.88333333333335,78.66866346386573L178.36,83.77506439511976L178.79333333333332,78.35906405560672L179.22666666666666,84.33270527298251L179.70333333333335,87.32473744638264L180.13666666666666,88.16721502939859L180.57,80.5899245813489L181.00333333333336,80.31075186965367L181.48,99.03020189702511L181.91333333333333,84.2104113654544L182.34666666666666,93.61960998053353L182.78,84.0354630406946L183.25666666666666,72.20244131299356L183.69,83.31392553262413L184.12333333333333,79.18721587955952L184.6,71.55487417802215L185.03333333333333,72.94226937554777L185.46666666666667,77.45666556619108L185.94333333333333,78.36331205070019L186.37666666666667,76.78379005069533L186.81,67.60147581746182L187.2433333333333,71.25010297882059L187.72,77.80227968407175L188.15333333333334,85.0216057455788L188.58666666666667,78.80610510023931L189.06333333333333,70.79957374309501L189.49666666666667,82.79669241296747L189.93,77.28401046805084L190.40666666666667,70.28965546377003L190.84,71.25757668726146L191.27333333333334,73.51598356167474L191.75,91.47382678091526L192.18333333333334,78.1979925148189L192.61666666666667,88.89608119241893L193.05,70.42617152072489L193.52666666666664,71.68270774744451L193.96,73.20227430450419L194.39333333333335,69.57957027417919L194.87,80.9881102287521L195.30333333333334,67.20998335257173L195.73666666666668,79.79306286759675L196.21333333333334,80.84498387699327L196.64666666666665,67.19176877848804L197.08,70.53719960711896L197.55666666666667,76.66157212356725L197.98999999999998,72.98913546775779L198.42333333333332,65.31275276343027L198.85666666666668,69.87661219450334L199.33333333333334,78.19918747929236L199.76666666666665,80.46077171588936L200.20000000000002,86.074811514467L200.67666666666668,72.71604118806621L201.10999999999999,73.40383649120727L201.54333333333332,72.79812074204287L202.02,85.58440638333559L202.45333333333332,70.7034309078008L202.88666666666666,83.22779829551777L203.36333333333334,78.35639783429602L203.79666666666668,89.33493016846478L204.23,73.93536083338162L204.70666666666668,85.87488636001945L205.14000000000001,77.17401157071194L205.57333333333332,73.21031441229084L206.04999999999998,86.89892256259918L206.48333333333335,73.05715174041688L206.91666666666666,81.07224816083908L207.39333333333332,85.11452977483472L207.82666666666668,69.54883965601525L208.30333333333334,90.99697379022837L208.73666666666665,89.74554897223909L209.21333333333334,100.87806594806413L209.64666666666668,89.28996358625591L210.08,91.66744556215902L210.55666666666664,90.2053063729157L210.99,95.80966903145115L211.42333333333335,81.82200893387198L211.89999999999998,80.91069310841462L212.33333333333334,94.11754407857855L212.76666666666668,66.2808466696491L213.24333333333334,79.63215019491813L213.67666666666665,78.9652495017896L214.11,80.57179289497435L214.58666666666667,95.25244949944317L215.01999999999998,86.64730310688415L215.45333333333332,81.73541199974716L215.93,87.9375331873695L216.36333333333334,85.65572434974214L216.84,71.34180441436669L217.27333333333334,91.0023753059407L217.70666666666668,86.03450045858821L218.14,104.9116236306727L218.61666666666667,75.11914928071201L219.05,86.77070218386748L219.48333333333332,92.75082936448355L219.95999999999998,78.22569773159921L220.39333333333335,89.62271629460156L220.82666666666668,67.78659170120955L221.26,84.24058939889073L221.73666666666668,79.74563728335002L222.17000000000002,80.40354466003677L222.60333333333332,72.15518841147423L223.07999999999998,74.23361153279743L223.51333333333335,89.8601688593626L223.94666666666666,76.31849989543358L224.38,81.89934316650033L224.85666666666668,77.53995389925936L225.29000000000002,74.48368375127515L225.72333333333333,84.72876346918443L226.2,93.8162748850882L226.63333333333335,83.42751623069248L227.11,87.48108438774943L227.54333333333332,79.93830976324776L227.97666666666666,79.00531880185008L228.45333333333335,92.719691215083L228.88666666666666,89.22973185094695L229.32,81.88769744336605L229.79666666666668,93.10962953542669L230.23,77.7561388593167L230.66333333333333,78.94813318985203L231.14000000000001,85.60834020934999L231.57333333333335,78.59745601440468L232.04999999999998,64.66350715234876L232.48333333333332,88.5689164971312L232.91666666666669,70.84871924730638L233.39333333333332,90.92629820356767L233.82666666666665,65.64665208508572L234.26000000000002,78.05559143051505L234.73666666666668,71.08519097417593L235.17,78.54004936851561L235.60333333333332,73.79322222682336L236.08,86.18476896795133L236.51333333333332,91.0849660007904L236.94666666666666,77.40432888517776L237.42333333333335,82.02276987272003L237.85666666666668,81.16629808147749L238.29,87.31334038637578" style="fill: none;" fill="none"></path></g></g></g></g></g></g><g transform="translate(70, 178)" clip-path="url(#clip_1)"><clipPath id="clip_1"><rect width="260" height="22"></rect></clipPath><g><g><line x1="0" y1="0" x2="0" y2="5" style="visibility: inherit;" fill="rgb(0, 0, 0)" stroke="rgb(204, 204, 204)" stroke-width="1px"></line><line x1="21.666666666666664" y1="0" x2="21.666666666666664" y2="5" style="visibility: inherit;" fill="rgb(0, 0, 0)" stroke="rgb(204, 204, 204)" stroke-width="1px"></line><line x1="43.33333333333333" y1="0" x2="43.33333333333333" y2="5" style="visibility: inherit;" fill="rgb(0, 0, 0)" stroke="rgb(204, 204, 204)" stroke-width="1px"></line><line x1="65" y1="0" x2="65" y2="5" style="visibility: inherit;" fill="rgb(0, 0, 0)" stroke="rgb(204, 204, 204)" stroke-width="1px"></line><line x1="86.66666666666666" y1="0" x2="86.66666666666666" y2="5" style="visibility: inherit;" fill="rgb(0, 0, 0)" stroke="rgb(204, 204, 204)" stroke-width="1px"></line><line x1="108.33333333333334" y1="0" x2="108.33333333333334" y2="5" style="visibility: inherit;" fill="rgb(0, 0, 0)" stroke="rgb(204, 204, 204)" stroke-width="1px"></line><line x1="130" y1="0" x2="130" y2="5" style="visibility: inherit;" fill="rgb(0, 0, 0)" stroke="rgb(204, 204, 204)" stroke-width="1px"></line><line x1="151.66666666666669" y1="0" x2="151.66666666666669" y2="5" style="visibility: inherit;" fill="rgb(0, 0, 0)" stroke="rgb(204, 204, 204)" stroke-width="1px"></line><line x1="173.33333333333331" y1="0" x2="173.33333333333331" y2="5" style="visibility: inherit;" fill="rgb(0, 0, 0)" stroke="rgb(204, 204, 204)" stroke-width="1px"></line><line x1="195" y1="0" x2="195" y2="5" style="visibility: inherit;" fill="rgb(0, 0, 0)" stroke="rgb(204, 204, 204)" stroke-width="1px"></line><line x1="216.66666666666669" y1="0" x2="216.66666666666669" y2="5" style="visibility: inherit;" fill="rgb(0, 0, 0)" stroke="rgb(204, 204, 204)" stroke-width="1px"></line><line x1="238.33333333333331" y1="0" x2="238.33333333333331" y2="5" style="visibility: inherit;" fill="rgb(0, 0, 0)" stroke="rgb(204, 204, 204)" stroke-width="1px"></line><line x1="260" y1="0" x2="260" y2="5" style="visibility: inherit;" fill="rgb(0, 0, 0)" stroke="rgb(204, 204, 204)" stroke-width="1px"></line></g><g transform="translate(0, 8)"><text x="0" y="0" dx="0em" dy="0.95em" style="text-anchor: middle; visibility: hidden; font-family: &quot;Helvetica Neue&quot;, sans-serif; font-size: 12px; font-weight: 200;" fill="rgb(50, 49, 63)" stroke="none" stroke-width="1px">-5M</text><text x="21.666666666666664" y="0" dx="0em" dy="0.95em" style="text-anchor: middle; visibility: inherit; font-family: &quot;Helvetica Neue&quot;, sans-serif; font-size: 12px; font-weight: 200;" fill="rgb(50, 49, 63)" stroke="none" stroke-width="1px">0</text><text x="43.33333333333333" y="0" dx="0em" dy="0.95em" style="text-anchor: middle; visibility: hidden; font-family: &quot;Helvetica Neue&quot;, sans-serif; font-size: 12px; font-weight: 200;" fill="rgb(50, 49, 63)" stroke="none" stroke-width="1px">5M</text><text x="65" y="0" dx="0em" dy="0.95em" style="text-anchor: middle; visibility: inherit; font-family: &quot;Helvetica Neue&quot;, sans-serif; font-size: 12px; font-weight: 200;" fill="rgb(50, 49, 63)" stroke="none" stroke-width="1px">10M</text><text x="86.66666666666666" y="0" dx="0em" dy="0.95em" style="text-anchor: middle; visibility: hidden; font-family: &quot;Helvetica Neue&quot;, sans-serif; font-size: 12px; font-weight: 200;" fill="rgb(50, 49, 63)" stroke="none" stroke-width="1px">15M</text><text x="108.33333333333334" y="0" dx="0em" dy="0.95em" style="text-anchor: middle; visibility: inherit; font-family: &quot;Helvetica Neue&quot;, sans-serif; font-size: 12px; font-weight: 200;" fill="rgb(50, 49, 63)" stroke="none" stroke-width="1px">20M</text><text x="130" y="0" dx="0em" dy="0.95em" style="text-anchor: middle; visibility: hidden; font-family: &quot;Helvetica Neue&quot;, sans-serif; font-size: 12px; font-weight: 200;" fill="rgb(50, 49, 63)" stroke="none" stroke-width="1px">25M</text><text x="151.66666666666669" y="0" dx="0em" dy="0.95em" style="text-anchor: middle; visibility: inherit; font-family: &quot;Helvetica Neue&quot;, sans-serif; font-size: 12px; font-weight: 200;" fill="rgb(50, 49, 63)" stroke="none" stroke-width="1px">30M</text><text x="173.33333333333331" y="0" dx="0em" dy="0.95em" style="text-anchor: middle; visibility: hidden; font-family: &quot;Helvetica Neue&quot;, sans-serif; font-size: 12px; font-weight: 200;" fill="rgb(50, 49, 63)" stroke="none" stroke-width="1px">35M</text><text x="195" y="0" dx="0em" dy="0.95em" style="text-anchor: middle; visibility: inherit; font-family: &quot;Helvetica Neue&quot;, sans-serif; font-size: 12px; font-weight: 200;" fill="rgb(50, 49, 63)" stroke="none" stroke-width="1px">40M</text><text x="216.66666666666669" y="0" dx="0em" dy="0.95em" style="text-anchor: middle; visibility: hidden; font-family: &quot;Helvetica Neue&quot;, sans-serif; font-size: 12px; font-weight: 200;" fill="rgb(50, 49, 63)" stroke="none" stroke-width="1px">45M</text><text x="238.33333333333331" y="0" dx="0em" dy="0.95em" style="text-anchor: middle; visibility: inherit; font-family: &quot;Helvetica Neue&quot;, sans-serif; font-size: 12px; font-weight: 200;" fill="rgb(50, 49, 63)" stroke="none" stroke-width="1px">50M</text><text x="260" y="0" dx="0em" dy="0.95em" style="text-anchor: middle; visibility: hidden; font-family: &quot;Helvetica Neue&quot;, sans-serif; font-size: 12px; font-weight: 200;" fill="rgb(50, 49, 63)" stroke="none" stroke-width="1px">55M</text></g><line x1="0" y1="0" x2="260" y2="0" fill="rgb(0, 0, 0)" stroke="rgb(204, 204, 204)" stroke-width="1px"></line></g></g></g></g></svg>