<svg viewBox="0 0 330 200" xmlns="http://www.w3.org/2000/svg"><g><g><g><g><g><line x1="60" y1="178" x2="55" y2="178" style="visibility: inherit;" fill="rgb(0, 0, 0)" stroke="rgb(204, 204, 204)" stroke-width="1px"></line><line x1="60" y1="155.75" x2="55" y2="155.75" style="visibility: inherit;" fill="rgb(0, 0, 0)" stroke="rgb(204, 204, 204)" stroke-width="1px"></line><line x1="60" y1="133.5" x2="55" y2="133.5" style="visibility: inherit;" fill="rgb(0, 0, 0)" stroke="rgb(204, 204, 204)" stroke-width="1px"></line><line x1="60" y1="111.25" x2="55" y2="111.25" style="visibility: inherit;" fill="rgb(0, 0, 0)" stroke="rgb(204, 204, 204)" stroke-width="1px"></line><line x1="60" y1="89" x2="55" y2="89" style="visibility: inherit;" fill="rgb(0, 0, 0)" stroke="rgb(204, 204, 204)" stroke-width="1px"></line><line x1="60" y1="66.75" x2="55" y2="66.75" style="visibility: inherit;" fill="rgb(0, 0, 0)" stroke="rgb(204, 204, 204)" stroke-width="1px"></line><line x1="60" y1="44.5" x2="55" y2="44.5" style="visibility: inherit;" fill="rgb(0, 0, 0)" stroke="rgb(204, 204, 204)" stroke-width="1px"></line><line x1="60" y1="22.25" x2="55" y2="22.25" style="visibility: inherit;" fill="rgb(0, 0, 0)" stroke="rgb(204, 204, 204)" stroke-width="1px"></line><line x1="60" y1="0" x2="55" y2="0" style="visibility: inherit;" fill="rgb(0, 0, 0)" stroke="rgb(204, 204, 204)" stroke-width="1px"></line></g><g transform="translate(50, 0)"><text x="0" y="178" dx="0em" dy="0.3em" style="text-anchor: end; visibility: hidden; font-family: &quot;Helvetica Neue&quot;, sans-serif; font-size: 12px; font-weight: 200;" fill="rgb(50, 49, 63)" stroke="none" stroke-width="1px">-1e-3</text><text x="0" y="155.75" dx="0em" dy="0.3em" style="text-anchor: end; visibility: inherit; font-family: &quot;Helvetica Neue&quot;, sans-serif; font-size: 12px; font-weight: 200;" fill="rgb(50, 49, 63)" stroke="none" stroke-width="1px">0</text><text x="0" y="133.5" dx="0em" dy="0.3em" style="text-anchor: end; visibility: hidden; font-family: &quot;Helvetica Neue&quot;, sans-serif; font-size: 12px; font-weight: 200;" fill="rgb(50, 49, 63)" stroke="none" stroke-width="1px">1e-3</text><text x="0" y="111.25" dx="0em" dy="0.3em" style="text-anchor: end; visibility: inherit; font-family: &quot;Helvetica Neue&quot;, sans-serif; font-size: 12px; font-weight: 200;" fill="rgb(50, 49, 63)" stroke="none" stroke-width="1px">2e-3</text><text x="0" y="89" dx="0em" dy="0.3em" style="text-anchor: end; visibility: hidden; font-family: &quot;Helvetica Neue&quot;, sans-serif; font-size: 12px; font-weight: 200;" fill="rgb(50, 49, 63)" stroke="none" stroke-width="1px">3e-3</text><text x="0" y="66.75" dx="0em" dy="0.3em" style="text-anchor: end; visibility: inherit; font-family: &quot;Helvetica Neue&quot;, sans-serif; font-size: 12px; font-weight: 200;" fill="rgb(50, 49, 63)" stroke="none" stroke-width="1px">4e-3</text><text x="0" y="44.5" dx="0em" dy="0.3em" style="text-anchor: end; visibility: hidden; font-family: &quot;Helvetica Neue&quot;, sans-serif; font-size: 12px; font-weight: 200;" fill="rgb(50, 49, 63)" stroke="none" stroke-width="1px">5e-3</text><text x="0" y="22.25" dx="0em" dy="0.3em" style="text-anchor: end; visibility: inherit; font-family: &quot;Helvetica Neue&quot;, sans-serif; font-size: 12px; font-weight: 200;" fill="rgb(50, 49, 63)" stroke="none" stroke-width="1px">6e-3</text><text x="0" y="0" dx="0em" dy="0.3em" style="text-anchor: end; visibility: hidden; font-family: &quot;Helvetica Neue&quot;, sans-serif; font-size: 12px; font-weight: 200;" fill="rgb(50, 49, 63)" stroke="none" stroke-width="1px">7e-3</text></g><line x1="60" y1="0" x2="60" y2="178" fill="rgb(0, 0, 0)" stroke="rgb(204, 204, 204)" stroke-width="1px"></line></g></g><g transform="translate(60, 0)" clip-path="url(#clip_0)"><clipPath id="clip_0"><rect width="270" height="178"></rect></clipPath><g><g><g><line x1="0" y1="0" x2="0" y2="178" fill="rgb(0, 0, 0)" stroke="rgb(60, 60, 60)" stroke-width="1px" opacity="0.25"></line><line x1="22.5" y1="0" x2="22.5" y2="178" fill="rgb(0, 0, 0)" stroke="rgb(60, 60, 60)" stroke-width="1px" opacity="0.25"></line><line x1="45" y1="0" x2="45" y2="178" fill="rgb(0, 0, 0)" stroke="rgb(60, 60, 60)" stroke-width="1px" opacity="0.25"></line><line x1="67.5" y1="0" x2="67.5" y2="178" fill="rgb(0, 0, 0)" stroke="rgb(60, 60, 60)" stroke-width="1px" opacity="0.25"></line><line x1="90" y1="0" x2="90" y2="178" fill="rgb(0, 0, 0)" stroke="rgb(60, 60, 60)" stroke-width="1px" opacity="0.25"></line><line x1="112.5" y1="0" x2="112.5" y2="178" fill="rgb(0, 0, 0)" stroke="rgb(60, 60, 60)" stroke-width="1px" opacity="0.25"></line><line x1="135" y1="0" x2="135" y2="178" fill="rgb(0, 0, 0)" stroke="rgb(60, 60, 60)" stroke-width="1px" opacity="0.25"></line><line x1="157.5" y1="0" x2="157.5" y2="178" fill="rgb(0, 0, 0)" stroke="rgb(60, 60, 60)" stroke-width="1px" opacity="0.25"></line><line x1="180" y1="0" x2="180" y2="178" fill="rgb(0, 0, 0)" stroke="rgb(60, 60, 60)" stroke-width="1px" opacity="0.25"></line><line x1="202.5" y1="0" x2="202.5" y2="178" fill="rgb(0, 0, 0)" stroke="rgb(60, 60, 60)" stroke-width="1px" opacity="0.25"></line><line x1="225" y1="0" x2="225" y2="178" fill="rgb(0, 0, 0)" stroke="rgb(60, 60, 60)" stroke-width="1px" opacity="0.25"></line><line x1="247.5" y1="0" x2="247.5" y2="178" fill="rgb(0, 0, 0)" stroke="rgb(60, 60, 60)" stroke-width="1px" opacity="0.25"></line><line x1="270" y1="0" x2="270" y2="178" fill="rgb(0, 0, 0)" stroke="rgb(60, 60, 60)" stroke-width="1px" opacity="0.25"></line></g><g><line x1="0" y1="178" x2="270" y2="178" fill="rgb(0, 0, 0)" stroke="rgb(60, 60, 60)" stroke-width="1px" opacity="0.25"></line><line x1="0" y1="155.75" x2="270" y2="155.75" fill="rgb(0, 0, 0)" stroke="rgb(60, 60, 60)" stroke-width="1px" opacity="0.25"></line><line x1="0" y1="133.5" x2="270" y2="133.5" fill="rgb(0, 0, 0)" stroke="rgb(60, 60, 60)" stroke-width="1px" opacity="0.25"></line><line x1="0" y1="111.25" x2="270" y2="111.25" fill="rgb(0, 0, 0)" stroke="rgb(60, 60, 60)" stroke-width="1px" opacity="0.25"></line><line x1="0" y1="89" x2="270" y2="89" fill="rgb(0, 0, 0)" stroke="rgb(60, 60, 60)" stroke-width="1px" opacity="0.25"></line><line x1="0" y1="66.75" x2="270" y2="66.75" fill="rgb(0, 0, 0)" stroke="rgb(60, 60, 60)" stroke-width="1px" opacity="0.25"></line><line x1="0" y1="44.5" x2="270" y2="44.5" fill="rgb(0, 0, 0)" stroke="rgb(60, 60, 60)" stroke-width="1px" opacity="0.25"></line><line x1="0" y1="22.25" x2="270" y2="22.25" fill="rgb(0, 0, 0)" stroke="rgb(60, 60, 60)" stroke-width="1px" opacity="0.25"></line><line x1="0" y1="0" x2="270" y2="0" fill="rgb(0, 0, 0)" stroke="rgb(60, 60, 60)" stroke-width="1px" opacity="0.25"></line></g></g></g><g><g><line x1="0" y1="155.75" x2="270" y2="155.75" fill="rgb(0, 0, 0)" stroke="rgb(153, 153, 153)" stroke-width="1.5px"></line></g></g><g><g><line x1="22.5" y1="0" x2="22.5" y2="178" fill="rgb(0, 0, 0)" stroke="rgb(153, 153, 153)" stroke-width="1.5px"></line></g></g><g><g><g><g><g><path stroke="rgb(0, 119, 187)" stroke-width="2px" d="M22.995,130.16059819539078L23.445,141.20681776067795L23.895,146.28986807484762L24.39,149.19092539591014L24.84,150.794206215109L25.29,151.85303609706418L25.785,152.41183014182818L26.235,151.9363018071466L26.685,149.16662412777674L27.18,149.24194874605712L27.63,150.76170012332457L28.08,151.33859108787453L28.575,152.11844400024313L29.025,152.4661569077512L29.474999999999998,152.85158709704064L29.97,153.01668979176458L30.419999999999998,153.16614424682885L30.869999999999997,152.36870970296874L31.32,152.68135710861876L31.815,152.4086228836381L32.265,150.87074110740372L32.715,145.19009450343367L33.21,146.53021194751355L33.66,145.71712022477877L34.11,137.03285023786196L34.605000000000004,134.68627303334358L35.055,136.57424065844143L35.505,141.4187727451203L35.955,143.18616521513619L36.45,140.10432676709627L36.9,143.84122574769162L37.35,142.27832522552916L37.845,143.59279983022006L38.295,147.06270852939093L38.79,148.0187515770869L39.24,147.8677973826683L39.69,148.73336205442334L40.185,149.16699599857463L40.635,144.61238474377484L41.085,146.688692692637L41.58,148.5917437095958L42.03,149.1085200465435L42.48,147.00288158634388L42.975,147.82700474375807L43.425,145.7838232440256L43.875,145.31529146177581L44.37,145.17357527289965L44.82,146.14635902170392L45.269999999999996,141.8976450041332L45.765,138.61783344624286L46.214999999999996,135.53076868809958L46.665,126.47383172553126L47.114999999999995,123.4927986462964L47.61,115.72865879330288L48.059999999999995,113.17476012676497L48.51,112.81365119550833L48.96,111.95124292211489L49.455,113.73305638530803L49.904999999999994,113.53897307538733L50.355,107.8337706040886L50.849999999999994,105.34516659801726L51.3,96.64626895424277L51.75,96.34333194795428L52.199999999999996,97.33935021406073L52.695,92.46101782442275L53.145,83.61173094419325L53.595000000000006,80.42721110888681L54.09,81.3388609312228L54.540000000000006,74.02010147853206L54.99,73.40154619862741L55.440000000000005,75.41922023058L55.935,69.23355543261805L56.385000000000005,66.84261578184984L56.835,60.31767325431181L57.330000000000005,57.93908944810971L57.78,50.180963507059474L58.230000000000004,54.32487521962122L58.68,54.14238721070167L59.175000000000004,58.224828396737436L59.625,61.616220746263764L60.075,61.993641812771486L60.57,66.91976539517636L61.02,65.0965072302532L61.47,77.06764045251974L61.92,83.85585570588601L62.415,91.69287943321403L62.865,96.02818293632826L63.315,101.77939223691381L63.81,105.81600130055581L64.25999999999999,104.69482592968932L64.71,109.60359461555656L65.16,107.18514450814442L65.655,103.41972941730836L66.10499999999999,104.06111295006824L66.55499999999999,104.3803933971429L67.005,98.8981840041014L67.5,94.32067768639966L67.94999999999999,100.76236348612842L68.4,98.54552039065206L68.895,92.49280441736128L69.34500000000001,102.92510232970459L69.795,110.37661044553872L70.29,115.06806811200279L70.74000000000001,111.14244064171135L71.19,107.7277281538264L71.64,116.0866492350208L72.135,115.63162651629713L72.585,114.18208920007328L73.03500000000001,107.6179190265857L73.53,111.4646823030098L73.98,115.12971671323157L74.43,107.66029534615681L74.88,103.33822623232071L75.375,101.86059323546476L75.825,98.91463100427949L76.27499999999999,94.35331306801477L76.77,96.66613686797761L77.22,95.76521239429113L77.67,102.19964807331202L78.12,106.6509393214599L78.61500000000001,106.67224471103643L79.065,108.98032641170693L79.515,108.41239177347435L80.01,109.07905027962454L80.46,105.41934629870492L80.91000000000001,108.43898020032368L81.36,106.89837957825256L81.85499999999999,104.04386907145228L82.305,102.06112704414782L82.755,103.93321496651267L83.25,105.64498081579474L83.7,103.51594160195242L84.14999999999999,102.4122942280534L84.60000000000001,97.3989548840307L85.095,93.67617533441977L85.545,98.92855664394257L85.995,100.39123746020024L86.445,102.67867470595941L86.94,96.06502024830107L87.39,94.82355967499747L87.83999999999999,91.79414265264084L88.335,88.3681082481683L88.785,90.9738229825074L89.235,96.49497208697196L89.685,97.81025840108899L90.18,101.87436916595136L90.63,101.6106797293376L91.08,109.45285613599724L91.575,117.89315571671833L92.02499999999999,113.64611253983443L92.47500000000001,113.4533491443085L92.925,112.66794702007546L93.41999999999999,104.99311315268532L93.87,104.25781310033206L94.32,100.61464356534275L94.815,102.90404611916895L95.265,106.06892627327326L95.71499999999999,104.24137423283567L96.165,100.90863000901318L96.66,96.29327324324414L97.11,101.25377943821141L97.56,98.70625557631934L98.055,99.57783983725717L98.505,102.6384577027539L98.955,106.14834784714607L99.40499999999999,106.0023575689538L99.9,108.2264705270838L100.35,103.81471678288645L100.80000000000001,98.56495731426398L101.295,98.11642865153027L101.745,95.60856001823765L102.19500000000001,93.2367712348677L102.645,91.93578741602464L103.14,88.0562494767598L103.59,84.62932586377961L104.04,83.98695212352932L104.535,80.78429897724784L104.985,83.06657069440452L105.435,81.23714783107948L105.885,80.41319347305276L106.38000000000001,74.42759094317661L106.83,72.79300723537001L107.28,74.20365030710663L107.775,75.86060127441445L108.225,79.00448945767795L108.67500000000001,79.79842452694245L109.17,85.12291461465074L109.62,86.41973707985021L110.07000000000001,88.56165041982317L110.52,89.48347258394469L111.015,96.67610761456497L111.465,101.72038142249916L111.91499999999999,95.60194268556495L112.41,95.02663798675425L112.86,94.74058725916885L113.31,91.85691656777139L113.76,93.29136067134961L114.25500000000001,99.83350506296202L114.705,102.9104132007536L115.155,99.03874839885394L115.65,93.42128012485571L116.1,91.82060302068153L116.55,86.53745560080175L117,85.96664181712488L117.49499999999999,85.5453149023695L117.94500000000001,87.06732903137315L118.395,83.96854651735431L118.89,84.52358875694098L119.34,86.52226540999695L119.78999999999999,87.3943094694664L120.24000000000001,95.84710049850791L120.735,104.23546048703372L121.18499999999999,103.63044828781533L121.635,100.96609066249607L122.13,98.92280632188427L122.58,98.95267775967275L123.03,102.06507233401122L123.525,103.77691227101523L123.975,99.62177097590708L124.425,91.29795237152692L124.875,93.02163336362788L125.36999999999999,83.98070000372142L125.82000000000001,85.52109886601156L126.27,83.23166772939764L126.76499999999999,82.32547707724872L127.215,80.18524594265698L127.66499999999999,76.99609904271948L128.11499999999998,74.98084344566666L128.60999999999999,73.18717010695967L129.06,72.12713542359612L129.51,75.53608248008065L130.005,77.57642150221928L130.455,78.00327830865183L130.905,71.24746104950725L131.355,80.69728820566098L131.85,79.87313556306071L132.3,77.57999726668751L132.75,76.68645651808832L133.20000000000002,75.26209494461985L133.695,75.24827227232828L134.145,73.57535309504999L134.595,73.59171720262042L135.09,75.62721802989047L135.54,75.01755182545276L135.99,71.33856666520771L136.44,74.87600871900788L136.935,77.2865460400213L137.38500000000002,73.5185083324122L137.925,74.57737990278946L138.375,74.70037391481665L138.825,70.16726315921764L139.275,70.18849946372194L139.77,70.21211818605653L140.22,69.97503605112429L140.67000000000002,71.69516791272906L141.16500000000002,74.37865823056546L141.61499999999998,74.54520701737701L142.065,75.06342289706468L142.51500000000001,76.55550228013337L143.01,78.15298908716433L143.46,81.91232524560985L143.91,80.32894539235294L144.405,82.10282932738666L144.855,78.65186623831214L145.305,77.27565944626701L145.75500000000002,84.4204672146426L146.25,84.43083719368049L146.7,81.01348182029437L147.15,81.43363208806907L147.6,76.60895367349772L148.095,78.84963699753189L148.54500000000002,75.89648297622861L148.99499999999998,69.70187646788396L149.48999999999998,74.06527376278213L149.94,73.17026371347292L150.39000000000001,73.79871689580312L150.84,70.08926311352808L151.335,73.33946166671937L151.785,71.31759141564446L152.23499999999999,68.68420909079956L152.73,66.41922053386595L153.18,64.7848702855547L153.63,65.95304939710437L154.125,64.52100744471454L154.575,63.48230551667811L155.025,64.72482038244786L155.475,65.29551497894634L155.97,62.23101066118839L156.42000000000002,61.542785329022195L156.86999999999998,67.97526213725547L157.32,64.46534498378718L157.815,63.12473835405757L158.265,57.796918558967434L158.715,55.57579844095844L159.21,52.578293576976876L159.66000000000003,53.080405335957536L160.10999999999999,50.71627305043323L160.56,54.82700481469979L161.055,53.08080038774342L161.505,58.51633883251746L161.955,59.283823538848765L162.45000000000002,61.04945594200733L162.9,61.52979013661589L163.35,61.418849034399045L163.845,66.82973213429167L164.29500000000002,69.03104798196205L164.745,63.366923396354636L165.195,59.94875038091283L165.69,66.47914893321062L166.14,67.48511182638623L166.59,68.54659856705439L167.04000000000002,68.65180740117177L167.53500000000003,68.06711966646698L167.98499999999999,71.86127062445425L168.435,73.77032620120372L168.93,73.29351031464829L169.38,73.60637151335176L169.83,73.09756830731482L170.28,75.89632748137831L170.77499999999998,69.37557444726478L171.225,66.9122194350067L171.675,68.19537629989853L172.125,67.5143935970698L172.62,65.72562829731311L173.07,63.87801141673867L173.52,63.24745885139433L173.97,61.876294187714024L174.465,58.836191683342676L174.91500000000002,56.303274492147935L175.36499999999998,56.50926285928392L175.85999999999999,53.863013880749975L176.31,50.91031943212475L176.76,48.15368594944789L177.21,49.38251137305983L177.705,50.68902968098038L178.155,51.571295221399154L178.605,52.268278359845795L179.055,53.266454265699096L179.55,52.396411394661854L180,48.89581584406565L180.45,50.63911492882771L180.945,51.177369861728565L181.39499999999998,59.81887736163385L181.845,60.30860550510495L182.29500000000002,56.50539410483903L182.79000000000002,55.20030306128898L183.23999999999998,51.94682585245812L183.69,54.23028488671149L184.14000000000001,58.312790134342706L184.635,55.13655112127495L185.085,53.15880316050368L185.535,52.53850537867258L186.02999999999997,55.13805830154365L186.48,56.20197235672798L186.93,54.68630545924084L187.38,55.07834181950972L187.875,55.82899671057751L188.325,54.76724015666478L188.775,57.4060535430517L189.26999999999998,55.039282207540055L189.72,54.68128448976658L190.17000000000002,52.27673763709414L190.61999999999998,56.355404350099846L191.115,55.93553924065105L191.565,53.71078908779485L192.015,57.4962277630017L192.465,54.28556727060949L192.96,51.648272104571916L193.41000000000003,53.7628940519009L193.85999999999999,59.210115381408585L194.355,51.857619135203265L194.805,54.63800609141428L195.255,51.67066024373375L195.705,55.391485124486124L196.20000000000002,51.69190978461947L196.65,54.51344063888159L197.1,53.45815084470907L197.595,52.42301716711282L198.04500000000002,52.28484075400925L198.495,48.971635105512746L198.945,50.543079866723545L199.44,48.794064759466835L199.89,48.363470465245115L200.34,48.68670378866926L200.835,50.72933809231603L201.28500000000003,50.756532320132166L201.73499999999999,48.21752853803352L202.185,46.16083089254806L202.68,48.876950415924256L203.13,49.530130317333374L203.58,45.85617647239448L204.07500000000002,47.26049464706412L204.52499999999998,47.80437897004981L204.975,50.13637247261882L205.425,53.8329630640297L205.92000000000002,51.72044491043083L206.37,46.31330631573732L206.82,51.456583789138406L207.315,56.242539888187295L207.765,52.14087418723943L208.215,55.79845066932644L208.66500000000002,53.80374398458186L209.16,53.915592569504284L209.60999999999999,48.39815889463969L210.06,50.48993828805473L210.555,50.71743456072919L211.005,51.18791591516026L211.455,49.6649933104419L211.905,46.050095082131236L212.39999999999998,45.03736094433498L212.85,45.240055572530224L213.3,44.66740075329875L213.75,46.69009447108169L214.245,43.45354419692134L214.695,46.63079210404322L215.14499999999998,49.510826911978484L215.64,48.175226890416496L216.09,50.75000345796141L216.54000000000002,49.5868574863064L216.98999999999998,50.540366598837835L217.48499999999999,51.40846407569842L217.935,47.75418990907011L218.385,45.98015031885765L218.88,51.02829310847319L219.33,54.62263044522999L219.77999999999997,53.71390030976711L220.23,52.04043617551969L220.725,52.97351805652944L221.175,54.708072521005676L221.625,53.83494871755815L222.12,58.120869988354286L222.57000000000002,53.85452244193988L223.01999999999998,54.6328547687032L223.47,53.00096330512751L223.965,56.9236915027749L224.41500000000002,59.20920301322053L224.865,57.65742512401289L225.315,59.907621822395L225.81,55.26479269512777L226.26,53.71894614963702L226.71,56.011211283916055L227.205,56.835483141490116L227.655,58.94215003304083L228.105,56.44564255827606L228.6,59.109223264851806L229.05,59.45598278881528L229.5,57.784406356164325L229.95000000000002,59.8374847443542L230.44500000000002,57.58569812680133L230.89499999999998,57.415697268201995L231.345,58.68144341911618L231.79500000000002,55.823874557648566L232.29,49.94162732676236L232.74,51.07378842944247L233.19,51.903314919482725L233.64,53.71469739375178L234.135,54.348396349982394L234.585,53.98774880187868L235.03500000000003,56.319311874462116L235.53,53.83504343247591L235.98,53.327157603002675L236.43,51.38227727192465L236.88,56.05308483982279L237.375,58.2971507396948L237.82500000000002,54.31875122407985L238.27499999999998,52.57618417520767L238.76999999999998,50.825153498303564L239.22,50.48518944402139L239.67000000000002,57.87358840402723L240.12,53.80197582749582L240.615,56.41812591915165L241.065,55.55886211232742L241.515,55.2002558498764L242.01,52.057846333931934L242.46,49.6580533784485L242.91,50.70320914659537L243.35999999999999,50.58473180814765L243.855,57.88329523442199L244.305,56.56701157585091L244.755,56.08455999550405L245.205,58.64943092119505L245.70000000000002,60.13257004835789L246.14999999999998,61.74345226261666L246.6,62.98405394583138L247.095,64.06869801248128" style="fill: none;" fill="none"></path></g><g><path stroke="rgb(255, 112, 67)" stroke-width="2px" d="M22.995,130.6753541813232L23.445,140.6239263779862L23.895,145.1777789518332L24.39,147.40405855271328L24.84,149.85110696311136L25.29,151.20359541362276L25.785,150.93676350795675L26.235,149.81894021369368L26.685,151.0081414440201L27.18,150.5455039072694L27.63,151.71115387178367L28.08,152.25264545282656L28.575,152.27004270873084L29.025,151.35718763335439L29.474999999999998,152.03551313061516L29.925,152.65066502517118L30.419999999999998,151.15676956122965L30.869999999999997,152.03217071928282L31.32,152.55829592666595L31.815,151.29086549470335L32.265,151.45943849806545L32.715,146.5695959631106L33.165,145.13920325518114L33.66,146.5380243503204L34.11,142.87914122949937L34.56,137.9468399499081L35.055,130.1135938986685L35.505,122.17389522949527L35.955,124.89510313805727L36.45,128.18416855504893L36.9,132.4721899393553L37.35,134.31758136675086L37.800000000000004,134.59154335916884L38.295,139.9620383900238L38.745,143.27741795000048L39.195,143.7749072439466L39.645,147.58885100116262L40.14,146.3771282297097L40.59,147.76324212003138L41.04,149.3205518094752L41.535,148.42735960221498L41.985,149.06742116401668L42.435,147.66173554658022L42.93,147.96797437114304L43.38,147.46673829986983L43.83,146.99875334932318L44.28,147.8281569879738L44.775,145.721934888367L45.225,143.2672414949361L45.675,142.7297293327544L46.17,139.41126443827483L46.62,134.02447861492902L47.07,128.46196737361635L47.519999999999996,118.84921037835475L48.015,120.8966642453056L48.464999999999996,112.13108883663867L48.915,104.15279257384421L49.41,110.03788607796723L49.86,107.55240001164024L50.309999999999995,104.74988490682615L50.76,104.5437646334873L51.254999999999995,97.88989620323505L51.705,97.22393765622691L52.154999999999994,90.06828274901544L52.65,87.57793578066426L53.099999999999994,82.78205733706353L53.55,81.62480665272355L54,81.23533795826663L54.495,77.44589006224588L54.94499999999999,71.65872323256325L55.394999999999996,66.00203360314124L55.89,60.353163307949615L56.34,52.91799672680776L56.790000000000006,51.62323213361313L57.239999999999995,52.611280646503644L57.735,53.52024762128633L58.185,47.66393649977351L58.635000000000005,41.328042983051574L59.13,42.421917140654585L59.580000000000005,42.72360657165757L60.03,46.95036516903525L60.525,44.46010964516515L60.975,46.48428263197073L61.425000000000004,53.07118230271179L61.875,63.13049473122709L62.370000000000005,71.32134705114932L62.82,83.9809357178424L63.27,86.99672026051368L63.72,89.77429249037526L64.215,87.78648043550086L64.66499999999999,90.64959449266364L65.115,90.99978878763301L65.61,90.54643484118274L66.06,86.82126041691863L66.50999999999999,91.68243363818594L66.96,90.03011423559379L67.455,85.1098866246202L67.905,84.58462136616161L68.35499999999999,89.6518087592265L68.85,89.0174997573892L69.3,88.89505362105666L69.75,90.824063887811L70.2,102.92071533472689L70.695,104.88616745149406L71.14500000000001,104.71804306026735L71.595,100.51640055323503L72.09,109.64027407892712L72.54,106.26102421360116L72.99,105.29217828133345L73.44000000000001,109.93658333005318L73.935,104.01277354982084L74.385,97.03396954537384L74.83500000000001,91.50815632191123L75.285,89.94564604310287L75.78,86.44444789840632L76.23,96.52559057051751L76.67999999999999,93.82216296560952L77.175,92.33524859584057L77.625,100.0303350233238L78.075,99.0841420508594L78.525,95.90768689224396L79.02000000000001,94.3474016671808L79.47,92.24934585268386L79.92,92.34256217014097L80.37,92.86582737010005L80.865,88.72164204324055L81.31500000000001,91.76842213018847L81.765,98.3142575839556L82.25999999999999,91.7838994816331L82.71000000000001,92.35239838822264L83.16,90.83995449159936L83.655,86.13740808044761L84.105,83.5716675597795L84.55499999999999,90.64809185584593L85.00500000000001,86.06254491493976L85.5,83.51452786776201L85.95,88.73378010479526L86.4,82.76799300246189L86.89500000000001,85.70861921214463L87.345,82.17570361254899L87.795,88.20270951041307L88.24499999999999,82.71703857469544L88.74,80.84054993022522L89.19,83.43494723676318L89.64,91.83237663843437L90.13499999999999,91.21037252862426L90.58500000000001,99.8862181279461L91.035,101.51571555742773L91.485,104.5657207142362L91.98,108.64793413574542L92.42999999999999,105.00718515259054L92.88,92.5637695905836L93.375,85.93280563420186L93.82499999999999,89.66449998604435L94.275,94.09609957881081L94.725,97.72142641341573L95.22,96.48338125069967L95.67,95.1547535574885L96.11999999999999,94.07864322276127L96.615,92.89709347698069L97.065,95.81626019604788L97.515,99.08394427528403L97.965,104.96767869298785L98.46,96.62708044397907L98.91,100.9266057493423L99.36,98.83870059499203L99.855,94.91455709132737L100.30499999999999,97.26116138364783L100.755,92.46587618930437L101.25,90.10768988594144L101.69999999999999,82.71160722890335L102.15,85.43088651947728L102.6,85.41095793304625L103.09500000000001,76.97189649713206L103.545,77.17204674625945L103.995,76.56244530927869L104.445,69.59231611431679L104.94,72.16002512702964L105.39,68.7915016292311L105.84,65.79619585186404L106.335,67.35318786738912L106.78500000000001,66.21802925222278L107.235,64.9800778755734L107.685,66.69714072744189L108.18,70.12575295228594L108.63,69.28304197808406L109.08000000000001,76.22893548541695L109.575,81.08489338589268L110.02499999999999,89.65649297834221L110.47500000000001,91.62865180299154L110.925,91.05384905427975L111.42,80.91281719008256L111.87,84.90000172424568L112.32,82.49729991480412L112.77000000000001,82.75912071723313L113.265,80.78578563792152L113.715,83.1605145052829L114.165,88.07302832417986L114.66000000000001,84.89093043096841L115.11,80.55419116225379L115.56,76.25744829405271L116.055,77.18174190735918L116.505,79.81242724811943L116.955,78.59242298822647L117.405,73.05423878354458L117.89999999999999,79.87012175994442L118.35000000000001,73.82724454456464L118.8,75.76798944836942L119.295,75.70003706483448L119.745,79.80872796393723L120.195,84.84460326495642L120.64500000000001,91.06115330938472L121.14,85.14050258805736L121.58999999999999,83.85915249800912L122.04,83.66349023076134L122.49,88.07117121457152L122.985,90.56926749018041L123.435,94.1689059549478L123.88499999999999,91.13485400256707L124.38,87.32121587285216L124.83,80.03084470827919L125.28,79.69473091810667L125.77499999999999,79.79092584337874L126.22500000000001,77.35076158999551L126.675,76.00346010891586L127.125,72.58772614206667L127.62,72.62032762251522L128.07,67.35492880430655L128.51999999999998,66.55291235170863L129.015,66.26435009373488L129.465,67.57025065989501L129.915,61.98393479009691L130.41,61.987622087196854L130.86,63.81336406655393L131.31,68.17538900509345L131.76,73.70027164979203L132.255,69.41679790758145L132.70499999999998,62.34724969241351L133.155,58.17035967378814L133.605,58.21143956344724L134.1,55.187320068397526L134.55,54.54213699544576L135,54.21959253270987L135.45000000000002,54.7780397299353L135.945,54.04305258957589L136.395,53.79935377504256L136.845,51.64430112267031L137.34,47.28363685980139L138.15,48.5476098279637L138.6,49.589220910995124L139.05,48.61932028292355L139.54500000000002,49.4478386086746L139.99499999999998,48.0796363088503L140.445,52.81056684228865L140.895,50.43722475490324L141.39,51.12518589822264L141.84,48.17313188725896L142.29000000000002,53.83468902246169L142.78500000000003,55.549297059393L143.23499999999999,61.57685591660652L143.685,59.91499623102078L144.13500000000002,60.960225284127176L144.63,61.71002823674843L145.08,60.34918241390089L145.53,59.35745859183967L146.025,61.180014255497454L146.475,63.258543745266564L146.925,59.15858361122737L147.375,61.46814866772431L147.87,57.595375390938756L148.32,52.430954846496476L148.77,55.4928942022503L149.265,53.99962966242616L149.715,54.4265753539603L150.16500000000002,51.47601623272604L150.61499999999998,51.611381091539286L151.10999999999999,48.14297530672803L151.56,50.04323986953112L152.01,49.36149774960049L152.46,48.6322655460022L152.955,49.697886540340306L153.405,49.11744630975838L153.855,47.12723881911228L154.35,49.74070215321177L154.8,45.45426791479642L155.25,49.67387813036413L155.7,50.87525508414073L156.195,52.02295710286715L156.645,56.157435891128884L157.095,55.88805817267139L157.59,56.851346230586415L158.04000000000002,55.37802647267583L158.48999999999998,56.34722558574262L158.94,55.748444797345314L159.435,51.120865453331646L159.885,52.497191005378355L160.335,50.63075209985935L160.785,50.875808951740055L161.28,46.88081576115465L161.73,46.65498050003694L162.18,51.00675053119329L162.675,50.19621620532672L163.125,51.469332289810794L163.575,50.96841838672211L164.025,52.23528076910647L164.51999999999998,52.60289174067181L164.97,51.460792674107566L165.42000000000002,53.46482495724153L165.91500000000002,53.47403845457134L166.36499999999998,51.220209232824416L166.815,54.720771561925034L167.26500000000001,55.07288698642816L167.76,58.70865365551033L168.21,59.81808961517284L168.66,59.25068876347942L169.10999999999999,58.34618910298943L169.605,55.3799314347428L170.055,55.994176948667885L170.505,54.3789644253858L171,54.189698356023925L171.45,56.861323228184276L171.9,56.35185929578776L172.35,55.91953680555363L172.845,54.60321726584638L173.29500000000002,54.05045952385191L173.74499999999998,52.58338417253211L174.24,55.50588614801357L174.69,54.57044788299376L175.14,53.486619361703845L175.59,55.4813063470812L176.085,51.86747753080971L176.53500000000003,51.08793894138782L176.98499999999999,50.18343900441735L177.48,52.86429178334538L177.93,50.640216689138214L178.38,51.772219749661446L178.83,52.73466961003669L179.32500000000002,52.389122719197445L179.775,51.493868042680006L180.225,53.775369807498095L180.72,51.366000420624886L181.17000000000002,51.11259415292733L181.62,54.671064280235726L182.07,54.00992119998571L182.565,52.189116754775284L183.015,48.663092391130334L183.465,47.620533766709L183.96,47.86850657045079L184.41000000000003,50.36316161925633L184.85999999999999,49.8982678138467L185.31,50.92225586374117L185.805,48.44577016420371L186.255,49.918911939410634L186.705,49.59233805532651L187.20000000000002,48.41281086874244L187.64999999999998,51.73540165974043L188.1,50.569313961361914L188.55,53.654508927819165L189.04500000000002,54.47923154978875L189.495,55.0658052394475L189.945,53.632397930975884L190.44,52.533947772476765L190.89,53.37278291311485L191.34,47.95185490646435L191.79000000000002,45.696192724695635L192.285,47.82304310318281L192.73499999999999,48.25201607654364L193.185,51.01831135100049L193.635,53.94678436932517L194.13,50.27894636037978L194.58,53.104906510073135L195.03,51.52067397058498L195.48,56.821803144115165L195.975,54.04506746284541L196.425,52.0782638570808L196.875,47.390195634209675L197.37,50.274115051325296L197.82,46.85331055179009L198.26999999999998,46.841660015834975L198.72,44.10021660286404L199.215,45.515332690973395L199.66500000000002,43.772536834090516L200.11499999999998,45.143102351581774L200.565,42.31312323473736L201.06,43.134238298909935L201.51,48.58687469731396L201.96,42.39180983153355L202.455,44.08535730270967L202.90499999999997,44.85201035844341L203.355,48.00207305942209L203.805,49.30769016478499L204.3,47.803645618313794L204.75,46.13356266099467L205.2,45.08789737405331L205.69500000000002,44.163507395651635L206.14499999999998,41.597126541982135L206.595,40.488272673457885L207.04500000000002,39.628605251950034L207.54000000000002,36.680469118694674L207.99,40.66295421236168L208.44,41.965215476533274L208.89,44.773205734226394L209.385,46.48250978443522L209.835,49.07556096019445L210.28500000000003,48.42742820152401L210.78,49.36509173218167L211.23,46.70964499773834L211.68,48.99102923102532L212.175,48.836296644895384L212.625,47.91924243544884L213.07500000000002,46.40894229673057L213.525,45.727164108456435L214.01999999999998,46.994658599511524L214.47,44.04569822450921L214.92000000000002,46.24050957687464L215.415,43.50209449665405L215.865,43.61284990868961L216.315,47.2392846752673L216.765,47.044822294456964L217.26,44.077226254459134L217.71,45.58696255497094L218.16000000000003,41.73295691594157L218.60999999999999,45.04891909016476L219.105,46.57146559754494L219.555,44.666227032837156L220.005,47.09612022755854L220.5,45.358440705646956L220.95000000000002,43.33624117956154L221.39999999999998,44.666538038167914L221.85,43.914666259773725L222.345,45.402829624034865L222.79500000000002,44.02506443891994L223.245,42.90002615248605L223.695,44.37686757517125L224.19,45.05606398483971L224.64,42.43170277253307L225.09,45.36261325091431L225.585,44.55399870990402L226.035,38.642275277487556L226.48499999999999,34.186530829570955L226.935,40.5361863008751L227.43,44.03006551342389L227.88,38.86280217984131L228.33,40.8971636967737L228.78,40.87410440828671L229.27499999999998,42.81424296855192L229.725,43.1959075742767L230.175,40.060817485753034L230.67,40.908120133029456L231.12,43.1573259663117L231.57,41.956995591910584L232.01999999999998,48.50630226642903L232.515,47.75796091913293L232.965,47.20501077910728L233.41500000000002,42.726455638873375L233.86499999999998,40.66403478537072L234.35999999999999,38.68547497707053L234.81,46.86385035860505L235.26,46.5657512502996L235.755,44.24683888932336L236.205,42.81024307231766L236.65499999999997,43.612654204119224L237.105,41.13525833000182L237.6,46.37715599609575L238.05,46.7993380296121L238.5,36.007781263389575L238.995,35.55670732107663L239.44500000000002,38.02317674255016L239.89499999999998,36.12870804508415L240.345,36.927376091717974L240.84,41.519593523212876L241.29000000000002,41.11725039222455L241.74,39.455372975773315L242.19,40.1777727739553L242.685,41.27882341736796L243.135,38.57936842780853L243.585,41.22182702633168L244.08,43.10831718996124L244.53,41.021482611700634L244.98,38.41070311405048L245.43,39.74662314996294L245.925,39.19713037882846L246.375,41.210769718808535L246.82500000000002,37.29596241655804L247.32000000000002,41.99490804504072" style="fill: none;" fill="none"></path></g></g></g></g><g opacity="0.2"><g><g><g><path stroke="rgb(0, 119, 187)" stroke-width="2px" d="M22.995,130.16059819539078L23.445,147.83454949985025L23.895,151.1695963764505L24.39,152.60256880547968L24.84,152.88744965265505L25.29,153.31777900256566L25.785,153.2109145665454L26.235,151.24297693010885L26.685,145.0818875328987L27.18,149.3537970255711L27.63,153.02754315608763L28.08,152.2007881195459L28.575,153.28567701372958L29.025,152.98704506322974L29.474999999999998,153.42927932225575L29.97,153.26422739063855L30.419999999999998,153.3902626853087L30.869999999999997,151.17276035572286L31.32,153.15028058840835L31.815,151.9995464751555L32.265,148.56400278414367L32.715,136.66931152157485L33.21,148.54036165535217L33.66,144.49749227252323L34.11,124.00650698156096L34.605000000000004,131.16641723364592L35.055,139.40618726529647L35.505,148.68556343764067L35.955,145.83725229214178L36.45,135.48157079832163L36.9,149.4465729793883L37.35,139.93397475325037L37.845,145.5645115803345L38.295,152.26757132960483L38.79,149.45281610754319L39.24,147.6413660949329L39.69,150.0317090486642L40.185,149.8174469107762L40.635,137.78046788694337L41.085,149.80315460899146L41.58,151.44632023121812L42.03,149.88368455134332L42.48,143.8444238975644L42.975,149.0631894795224L43.425,142.7190509949578L43.875,144.61249378847424L44.37,144.9610009895987L44.82,147.60553464485565L45.269999999999996,135.52457397792023L45.765,133.69811610947363L46.214999999999996,130.9001715509221L46.665,112.88842628174461L47.114999999999995,119.02124902745709L47.61,104.08244901383296L48.059999999999995,109.3439121269621L48.51,112.27198779862374L48.96,110.65763051202521L49.455,116.40577658009715L49.904999999999994,113.24784811050631L50.355,99.27596689714119L50.849999999999994,101.61226058891043L51.3,83.59792248858139L51.75,95.8889264385216L52.199999999999996,98.83337761322036L52.695,85.14351923996583L53.145,70.33780062384903L53.595000000000006,75.65043135592714L54.09,82.7063356647268L54.540000000000006,63.041962299495935L54.99,72.47371327877045L55.440000000000005,78.4457312785089L55.935,59.9550582356751L56.385000000000005,63.25620630569756L56.835,50.53025946300477L57.330000000000005,54.371213738806546L57.78,38.54377459548414L58.230000000000004,60.54074278846383L58.68,53.86865519732237L59.175000000000004,64.34849017579108L59.625,66.70330927055329L60.075,62.559773412533104L60.57,74.30895076878369L61.02,62.36161998286843L61.47,95.0243402859196L61.92,94.03817858593538L62.415,103.44841502420604L62.865,102.53113819099963L63.315,110.40620618779212L63.81,111.8709148960188L64.25999999999999,103.01306287338957L64.71,116.96674764435738L65.16,103.5574693470262L65.655,97.77160678105429L66.10499999999999,105.02318824920803L66.55499999999999,104.8593140677549L67.005,90.67486991453916L67.5,87.45441820984706L67.94999999999999,110.42489218572155L68.4,95.22025574743748L68.895,83.41373045742512L69.34500000000001,118.57354919821955L69.795,121.5538726192899L70.29,122.10525461169891L70.74000000000001,105.25399943627417L71.19,102.60565942199901L71.64,128.62503085681237L72.135,114.94909243821166L72.585,112.00778322573751L73.03500000000001,97.77166376635432L73.53,117.23482721764594L73.98,120.62726832856424L74.43,96.45616329554468L74.88,96.85512256156653L75.375,99.64414374018088L75.825,94.49568765750155L76.27499999999999,87.51133616361767L76.77,100.13537256792188L77.22,94.41382568376139L77.67,111.85130159184337L78.12,113.32787619368173L78.61500000000001,106.70420279540122L79.065,112.44244896271266L79.515,107.56048981612548L80.01,110.07903803884983L80.46,99.92979032732546L80.91000000000001,112.96843105275184L81.36,104.5874786451459L81.85499999999999,99.76210331125185L82.305,99.08701400319114L82.755,106.74134685005993L83.25,108.21262958971784L83.7,100.32238278118894L84.14999999999999,100.75682316720486L84.60000000000001,89.87894586799666L85.095,88.09200601000339L85.545,106.80712860822678L85.995,102.58525868458673L86.445,106.10983057459816L86.94,86.14453856181353L87.39,92.96136881504208L87.83999999999999,87.2500171191059L88.335,83.22905664145947L88.785,94.88239508401603L89.235,104.77669574366882L89.685,99.78318787226453L90.18,107.97053531324491L90.63,101.21514557441697L91.08,121.2161207459867L91.575,130.55360508779995L92.02499999999999,107.2755477745086L92.47500000000001,113.16420405101962L92.925,111.4898438337259L93.41999999999999,93.48086235160008L93.87,103.15486302180216L94.32,95.14988926285878L94.815,106.33814994990826L95.265,110.81624650442973L95.71499999999999,101.50004617217928L96.165,95.90951367327943L96.66,89.3702380945906L97.11,108.69453873066232L97.56,94.88496978348121L98.055,100.88521622866392L98.505,107.229384500999L98.955,111.41318306373432L99.40499999999999,105.78337215166539L99.9,111.56263996427879L100.35,97.19708616659045L100.80000000000001,90.69031811133027L101.295,97.4436356574297L101.745,91.84675706829876L102.19500000000001,89.67908805981278L102.645,89.98431168776006L103.14,82.23694256786257L103.59,79.48894044430926L104.04,83.02339151315391L104.535,75.98031925782561L104.985,86.48997827013955L105.435,78.4930135360919L105.885,79.17726193601266L106.38000000000001,65.4491871483624L106.83,70.34113167366013L107.28,76.31961491471156L107.775,78.34602772537619L108.225,83.72032173257321L108.67500000000001,80.98932713083923L109.17,93.10964974621311L109.62,88.36497077764943L110.07000000000001,91.77452042978257L110.52,90.866205830127L111.015,107.46506016049534L111.465,109.28679213440046L111.91499999999999,86.42428458016366L112.41,94.16368093853816L112.86,94.31151116779074L113.31,87.5314105306752L113.76,95.44302682671696L114.25500000000001,109.64672165038064L114.705,107.52577540744096L115.155,93.23125119600445L115.65,84.99507771385834L116.1,89.4195873644203L116.55,78.6127344709821L117,85.11042114160955L117.49499999999999,84.91332453023642L117.94500000000001,89.35035022487864L118.395,79.32037274632603L118.89,85.35615211632103L119.34,89.52028038958088L119.78999999999999,88.70237555867061L120.24000000000001,108.52628704207018L120.735,116.81800046982244L121.18499999999999,102.72292998898774L121.635,96.9695542245172L122.13,95.85787981096655L122.58,98.99748491635546L123.03,106.73366419551894L123.525,106.34467217652127L123.975,93.38905903324485L124.425,78.81222446495667L124.875,95.60715485177934L125.36999999999999,70.4192999638617L125.82000000000001,87.83169715944678L126.27,79.79752102447674L126.76499999999999,80.96619109902531L127.215,76.97489924076945L127.66499999999999,72.21237869281322L128.11499999999998,71.95796005008742L128.60999999999999,70.49666009889916L129.06,70.53708339855075L129.51,80.6495030648075L130.005,80.63693003542721L130.455,78.64356351830065L130.905,61.113735160790384L131.355,94.8720289398916L131.85,78.63690659916028L132.3,74.14028982212767L132.75,75.34614539518952L133.20000000000002,73.12555258441716L133.695,75.22753826389089L134.145,71.06597432913259L134.595,73.61626336397603L135.09,78.68046927079558L135.54,74.10305251879618L135.99,65.82008892484009L136.44,80.18217179970816L136.935,80.90235202154145L137.38500000000002,67.86645177099854L137.925,76.16568725835532L138.375,74.88486493285745L138.825,63.36759702581912L139.275,70.22035392047837L139.77,70.24754626955837L140.22,69.61941284872591L140.67000000000002,74.27536570513621L141.16500000000002,78.4038937073201L141.61499999999998,74.79503019759431L142.065,75.84074671659619L142.51500000000001,78.79362135473639L143.01,80.5492192977108L143.46,87.5513294832781L143.91,77.95387561246753L144.405,84.76365522993729L144.855,73.47542160470039L145.305,75.21134925819933L145.75500000000002,95.13767886720598L146.25,84.44639216223732L146.7,75.8874487602152L147.15,82.06385748973116L147.6,69.37193605164066L148.095,82.21066198358312L148.54500000000002,71.46675194427371L148.99499999999998,60.40996670536697L149.48999999999998,80.61036970512941L149.94,71.82774863950908L150.39000000000001,74.74139666929841L150.84,64.52508244011551L151.335,78.2147594965063L151.785,68.28478603903204L152.23499999999999,64.7341356035322L152.73,63.021737698465586L153.18,62.333344913087785L153.63,67.70531806442887L154.125,62.37294451612979L154.575,61.92425262462348L155.025,66.58859268110245L155.475,66.15155687369406L155.97,57.63425418455154L156.42000000000002,60.51044733077288L156.86999999999998,77.62397734960541L157.32,59.20046925358474L157.815,61.11382840946317L158.265,49.80518886633217L158.715,52.24411826394498L159.21,48.08203628100455L159.66000000000003,53.833572974428535L160.10999999999999,47.170074622146785L160.56,60.993102461099625L161.055,50.46149374730885L161.505,66.66964649967849L161.955,60.4350505983457L162.45000000000002,63.69790454674512L162.9,62.250291428528726L163.35,61.25243738107383L163.845,74.94605678413063L164.29500000000002,72.33302175346762L164.745,54.87073651794344L165.195,54.82149085775018L165.69,76.2747467616573L166.14,68.99405616614968L166.59,70.1388286780566L167.04000000000002,68.8096206523478L167.53500000000003,67.19008806440979L167.98499999999999,77.55249706143513L168.435,76.63390956632793L168.93,72.57828648481518L169.38,74.07566331140697L169.83,72.33436349825934L170.28,80.09446624247357L170.77499999999998,59.5944448960945L171.225,63.21718691661954L171.675,70.12011159723625L172.125,66.49291954282671L172.62,63.042480347678065L173.07,61.10658609587699L173.52,62.301630003377795L173.97,59.81954719219357L174.465,54.27603792678565L174.91500000000002,52.50389870535582L175.36499999999998,56.81824540998787L175.85999999999999,49.893640412949026L176.31,46.48127775918692L176.76,44.018735725432634L177.21,51.22574950847775L177.705,52.64880714286119L178.155,52.894693532027304L178.605,53.31375306751579L179.055,54.763718124479055L179.55,51.09134708810598L180,43.64492251817137L180.45,53.25406355597079L180.945,51.98475226107985L181.39499999999998,72.78113861149177L181.845,61.04319772031158L182.29500000000002,50.80057700444013L182.79000000000002,53.24266649596393L183.23999999999998,47.06661003921181L183.69,57.655473438091576L184.14000000000001,64.43654800578952L184.635,50.372192601673305L185.085,50.19218121934682L185.535,51.60805870592594L186.02999999999997,59.03738768585026L186.48,57.797843439504504L186.93,52.41280511301011L187.38,55.66639635991305L187.875,56.95497904717922L188.325,53.17460532579571L188.775,61.36427362263203L189.26999999999998,51.48912520427257L189.72,54.14428791310638L190.17000000000002,48.66991735808551L190.61999999999998,62.473404419608414L191.115,55.305741576477885L191.565,50.373663858510554L192.015,63.17438577581197L192.465,49.469576532021165L192.96,47.69232935551554L193.41000000000003,56.93482697289437L193.85999999999999,67.38094737567008L194.355,40.82887476589531L194.805,58.80858652573079L195.255,47.21964147221297L195.705,60.972722445614636L196.20000000000002,46.14254677481949L196.65,58.745736920274794L197.1,51.87521615345031L197.595,50.87031665071845L198.04500000000002,52.077576134353876L198.495,44.001826632767916L198.945,52.900247008539736L199.44,46.17054209858179L199.89,47.71757902391255L200.34,49.1715537738055L200.835,53.79328954778612L201.28500000000003,50.79732366185635L201.73499999999999,44.40902286488563L202.185,43.07578442431986L202.68,52.95112970098853L203.13,50.509900169447064L203.58,40.345245704986155L204.07500000000002,49.366971909068525L204.52499999999998,48.62020545452833L204.975,53.63436272647232L205.425,59.37784895114601L205.92000000000002,48.55166768003255L206.37,38.202598423697054L206.82,59.17149999924004L207.315,63.42147403676063L207.765,45.98837563581765L208.215,61.28481539245695L208.66500000000002,50.81168395746499L209.16,54.08336544688791L209.60999999999999,40.122008382342756L210.06,53.627607378177345L210.555,51.05867896974087L211.005,51.89363794680685L211.455,47.38060940336436L211.905,40.62774773966521L212.39999999999998,43.51825973764062L212.85,45.54409751482308L213.3,43.808418524451554L213.75,49.724135047756135L214.245,38.59871878568083L214.695,51.39666396472603L215.14499999999998,53.83087912388146L215.64,46.17182685807347L216.09,54.612168309278786L216.54000000000002,47.84213852882385L216.98999999999998,51.97063026763499L217.48499999999999,52.71061029098928L217.935,42.27277865912765L218.385,43.31909093353897L218.88,58.60050729289651L219.33,60.014136450365186L219.77999999999997,52.35080510657281L220.23,49.53023997414857L220.725,54.37314087804407L221.175,57.30990421772003L221.625,52.52526301238686L222.12,64.54975189454854L222.57000000000002,47.45500112231821L223.01999999999998,55.80035325884819L223.47,50.55312610976398L223.965,62.807783799245954L224.41500000000002,62.63747027888894L224.865,55.329758290201426L225.315,63.282916869968176L225.81,48.30054900422692L226.26,51.40017633140087L226.71,59.449608985334635L227.205,58.0718909278512L227.655,62.10215037036687L228.105,52.70088134612888L228.6,63.104594324715436L229.05,59.9761220747605L229.5,55.27704170718789L229.95000000000002,62.917102326639L230.44500000000002,54.208018200472L230.89499999999998,57.16069598030299L231.345,60.58006264548749L231.79500000000002,51.53752126544714L232.29,41.11825648043305L232.74,52.772030083462596L233.19,53.1476046545431L233.64,56.43177110515535L234.135,55.29894478432834L234.585,53.446777479723096L235.03500000000003,59.81665648333728L235.53,50.10864076949656L235.98,52.56532885879278L236.43,48.464956775307655L236.88,63.05929619167L237.375,61.66324958950281L237.82500000000002,48.35115195065737L238.27499999999998,49.962333601899445L238.76999999999998,48.19860748294741L239.22,49.97524336259812L239.67000000000002,68.95618684403598L240.12,47.6945569626987L240.615,60.34235105663538L241.065,54.269966402091086L241.515,54.662346456199884L242.01,47.3442320600152L242.46,46.05836394522339L242.91,52.27094279881567L243.35999999999999,50.407015800476074L243.855,68.83114037383348L244.305,54.59258608799428L244.755,55.36088262498379L245.205,62.49673730973154L245.70000000000002,62.357278739102185L246.14999999999998,64.15977558400482L246.6,64.84495647065341L247.095,65.69566411245614" style="fill: none;" fill="none"></path></g><g><path stroke="rgb(255, 112, 67)" stroke-width="2px" d="M22.995,130.6753541813232L23.445,146.593069695984L23.895,149.54947742272634L24.39,150.02216336334823L24.84,153.04597336772713L25.29,153.07457383652218L25.785,150.55518961354392L26.235,148.1891431195545L26.685,152.76198226830456L27.18,149.85854108282365L27.63,153.4490564591688L28.08,153.06193605111912L28.575,152.29608178752824L29.025,149.98969339841278L29.474999999999998,153.05220403034764L29.925,153.57295901422913L30.419999999999998,148.91655853181146L30.869999999999997,153.34505019210337L31.32,153.34740358786075L31.815,149.3898356949212L32.265,151.7122887581645L32.715,139.23499306302983L33.165,142.99364243389573L33.66,148.63623942265986L34.11,137.39084255404305L34.56,130.5484090645332L35.055,118.36374486493878L35.505,110.26435941504315L35.955,128.97691249428317L36.45,133.11776486271992L36.9,138.90422059386037L37.35,137.08566814067308L37.800000000000004,135.0024863150902L38.295,148.01778055162868L38.745,148.25048714748118L39.195,144.52114117203746L39.645,153.30976657797873L40.14,144.55954408377875L40.59,149.8424129477935L41.04,151.65651633843663L41.535,147.08757129311562L41.985,150.02751350594917L42.435,145.5532071214402L42.93,148.42733260785462L43.38,146.71488419309026L43.83,146.2967759235762L44.28,149.07226244587218L44.775,142.56260173907503L45.225,139.58520140487235L45.675,141.92346108949278L46.17,134.43356709659565L46.62,125.94429987994954L47.07,120.1182005116716L47.519999999999996,104.43007488548756L48.015,123.96784504572861L48.464999999999996,98.98272572364658L48.915,92.18534817965701L49.41,118.86552633414976L49.86,103.8241709121503L50.309999999999995,100.54611224960536L50.76,104.23458422347903L51.254999999999995,87.90909355785698L51.705,96.2249998357147L52.154999999999994,79.33480038819835L52.65,83.84241532813758L53.099999999999994,75.58823967166245L53.55,79.88893062621355L54,80.65113491658121L54.495,71.76171821821481L54.94499999999999,62.977972988039255L55.394999999999996,57.516999159008265L55.89,51.879857865162194L56.34,41.76524685509503L56.790000000000006,49.681085243821144L57.239999999999995,54.093353415839374L57.735,54.88369808346033L58.185,38.87946981750429L58.635000000000005,31.824202707968652L59.13,44.0627283770591L59.580000000000005,43.17614071816206L60.03,53.2905030651018L60.525,40.72472635935992L60.975,49.5205421121791L61.425000000000004,62.95153180882335L61.875,78.21946337400004L62.370000000000005,83.60762553103268L62.82,102.97031871788204L63.27,91.52039707452059L63.72,93.94065083516762L64.215,84.80476235318929L64.66499999999999,94.9442655784078L65.115,91.52508023008704L65.61,89.8664039215073L66.06,81.2334987805225L66.50999999999999,98.9741934700869L66.96,87.55163513170555L67.455,77.72954520815983L67.905,83.79672347847372L68.35499999999999,97.25258984882385L68.85,88.06603625463322L69.3,88.71138441655785L69.75,93.7175792879425L70.2,121.06569250510074L70.695,107.83434562664479L71.14500000000001,104.46585647342727L71.595,94.21393679268658L72.09,123.32608436746523L72.54,101.19214941561222L72.99,103.83890938293189L73.44000000000001,116.90319090313278L73.935,95.12705887947232L74.385,86.56576353870332L74.83500000000001,83.21943648671731L75.285,87.60188062489033L75.78,81.19265068136156L76.23,111.64730457868427L76.67999999999999,89.7670215582475L77.175,90.10487704118714L77.625,111.57296466454864L78.075,97.66485259216279L78.525,91.1430041543208L79.02000000000001,92.00697382958606L79.47,89.10226213093847L79.92,92.48238664632663L80.37,93.65072517003864L80.865,82.50536405295134L81.31500000000001,96.33859226061031L81.765,108.1330107646063L82.25999999999999,81.98836232814938L82.71000000000001,93.20514674810693L83.16,88.57128864666447L83.655,79.08358846371993L84.105,79.72305677877739L84.55499999999999,101.26272829994559L85.00500000000001,79.18422450358048L85.5,79.69250229699537L85.95,96.56265846034512L86.4,73.81931234896183L86.89500000000001,90.1195585266687L87.345,76.8763302131556L87.795,97.24321835720912L88.24499999999999,74.488532171119L88.74,78.0258169635199L89.19,87.32654319657013L89.64,104.42852074094117L90.13499999999999,90.2773663639091L90.58500000000001,112.89998652692884L91.035,103.95996170165017L91.485,109.14072844944894L91.98,114.77125426800922L92.42999999999999,99.54606167785823L92.88,73.8986462475732L93.375,75.98635969962925L93.82499999999999,95.26204151380807L94.275,100.74349896796048L94.725,103.15941666532308L95.22,94.62631350662559L95.67,93.16181201767176L96.11999999999999,92.4644777206704L96.615,91.12476885830984L97.065,100.19501027464867L97.515,103.98547039413825L97.965,113.79328031954356L98.46,84.11618307046592L98.91,107.37589370738715L99.36,95.70684286346659L99.855,89.02834183583036L100.30499999999999,100.78106782212853L100.755,85.27294839778915L101.25,86.57041043089703L101.69999999999999,71.61748324334621L102.15,89.50980545533821L102.6,85.38106505339965L103.09500000000001,64.31330434326082L103.545,77.4722721199505L103.995,75.64804315380752L104.445,59.1371223218739L104.94,76.01158864609897L105.39,63.73871638253331L105.84,61.30323718581349L106.335,69.68867589067668L106.78500000000001,64.51529132947326L107.235,63.12315081059933L107.685,69.27273500524461L108.18,75.268671289552L108.63,68.01897551678121L109.08000000000001,86.6477757464163L109.575,88.3688302366063L110.02499999999999,102.51389236701652L110.47500000000001,94.58689003996551L110.925,90.19164493121207L111.42,65.70126939378679L111.87,90.88077852549031L112.32,78.89324720064178L112.77000000000001,83.15185192087665L113.265,77.8257830189541L113.715,86.72260780632496L114.165,95.44179905252531L114.66000000000001,80.11778359115124L115.11,74.04908225918189L115.56,69.81233399175107L116.055,78.56818232731894L116.505,83.75845525925979L116.955,76.76241659838706L117.405,64.74696247652173L117.89999999999999,90.0939462245442L118.35000000000001,64.76292872149497L118.8,78.67910680407658L119.295,75.59810848953202L119.745,85.9717643125914L120.195,92.3984162164852L120.64500000000001,100.3859783760272L121.14,76.25952650606632L121.58999999999999,81.93712736293674L122.04,83.36999682988971L122.49,94.68269269028679L122.985,94.31641190359369L123.435,99.56836365209892L123.88499999999999,86.58377607399598L124.38,81.60075867827982L124.83,69.09528796141967L125.28,79.19056023284793L125.77499999999999,79.93521823128685L126.22500000000001,73.6905152099207L126.675,73.98250788729638L127.125,67.46412519179285L127.62,72.66922984318808L128.07,59.456830576993525L128.51999999999998,65.34988767281175L129.015,65.83150670677423L129.465,69.52910150913522L129.915,53.60446098539978L130.41,61.99315303284675L130.86,66.55197703558952L131.31,74.71842641290277L131.76,81.98759561683983L132.255,62.99158729426563L132.70499999999998,51.74292736966163L133.155,51.90502464585006L133.605,58.27305939793587L134.1,50.65114082582295L134.55,53.57436238601804L135,53.73577583860606L135.45000000000002,55.615710525773466L135.945,52.940571879036725L136.395,53.433805553242564L136.845,48.41172214411199L137.34,40.74264046549797L138.15,50.44356928020716L138.6,51.15163753554225L139.05,47.16446934081614L139.54500000000002,50.690616097301245L139.99499999999998,46.02733285911381L140.445,59.90696264244616L140.895,46.87721162382513L141.39,52.15712761320174L141.84,43.74505087081343L142.29000000000002,62.3270247252658L142.78500000000003,58.12120911478996L143.23499999999999,70.61819420242682L143.685,57.42220670264214L144.13500000000002,62.52806886378676L144.63,62.83473266568035L145.08,58.307913679629564L145.53,57.86987285874784L146.025,63.91384775098413L146.475,66.37633797992021L146.925,53.00864341016859L147.375,64.93249625246972L147.87,51.7862154757604L148.32,44.68432402983308L148.77,60.08580323588103L149.265,51.75973285268992L149.715,55.06699389126152L150.16500000000002,47.05017755087465L150.61499999999998,51.81442837975919L151.10999999999999,42.94036662951112L151.56,52.89363671373576L152.01,48.33888456970453L152.46,47.53841724060476L152.955,51.29631803184748L153.405,48.246785963885486L153.855,44.141927583143115L154.35,53.66089715436101L154.8,39.02461655717343L155.25,56.00329345371574L155.7,52.677320514805615L156.195,53.74451013095677L156.645,62.359154073521495L157.095,55.48399159498513L157.59,58.29627831745893L158.04000000000002,53.168046835809946L158.48999999999998,57.80102425534278L158.94,54.85027361474931L159.435,44.17949643731117L159.885,54.56167933344841L160.335,47.831093741580844L160.785,51.24339422956109L161.28,40.88832597527653L161.73,46.31622760836035L162.18,57.53440557792783L162.675,48.980414716526866L163.125,53.37900641653687L163.575,50.217047532089055L164.025,54.13557434268296L164.51999999999998,53.15430819801986L164.97,49.74764407426119L165.42000000000002,56.47087338194251L165.91500000000002,53.487858700565994L166.36499999999998,47.83946540020406L166.815,59.97161505557597L167.26500000000001,55.60106012318283L167.76,64.16230365913361L168.21,61.48224355466664L168.66,58.399587485939264L169.10999999999999,56.9894396122545L169.605,50.93054493237287L170.055,56.9155452195555L170.505,51.95614564046264L171,53.90579925198108L171.45,60.868760536424816L171.9,55.587663397192955L172.35,55.27105307020247L172.845,52.62873795628548L173.29500000000002,53.22132291086018L173.74499999999998,50.3827711455524L174.24,59.88963911123574L174.69,53.16729048546404L175.14,51.860876579768956L175.59,58.47333682514727L176.085,46.446734306402504L176.53500000000003,49.91863105725497L176.98499999999999,48.82668909896165L177.48,56.88557095173746L177.93,47.30410404782742L178.38,53.47022434044629L178.83,54.1783444005996L179.32500000000002,51.870802382938564L179.775,50.150986027903855L180.225,57.197622454725206L180.72,47.751946340315044L181.17000000000002,50.73248475138098L181.62,60.00876947119832L182.07,53.018206579610705L182.565,49.4579100869596L183.015,43.37405584566295L183.465,46.05669583007693L183.96,48.2404657760635L184.41000000000003,54.10514419246465L184.85999999999999,49.20092710573226L185.31,52.4582379385829L185.805,44.73104161489755L186.255,52.12862460222095L186.705,49.102477229200304L187.20000000000002,46.64352008886635L187.64999999999998,56.71928784623742L188.1,48.8201824137941L188.55,58.282301377505064L189.04500000000002,55.716315482743084L189.495,55.945665773935616L189.945,51.482286968268454L190.44,50.88627253472805L190.89,54.631035624071956L191.34,39.82046289648861L191.79000000000002,42.31269945204258L192.285,51.01331867091358L192.73499999999999,48.895475536584854L193.185,55.167754262685776L193.635,58.3394938968122L194.13,44.77718934696168L194.58,57.34384673461318L195.03,49.144325161352754L195.48,64.77349690441042L195.975,49.8799639409408L196.425,49.128058448433876L196.875,40.358093299902976L197.37,54.599994176998734L197.82,41.722103802487254L198.26999999999998,46.82418421190232L198.72,39.98805148340762L199.215,47.6380068231374L199.66500000000002,41.158343048766255L200.11499999999998,47.198950627818704L200.565,38.06815455947071L201.06,44.36591089516878L201.51,56.76582929491997L201.96,33.09921253286302L202.455,46.6256785094738L202.90499999999997,46.00198994204402L203.355,52.72716711089015L203.805,51.266115822829306L204.3,45.54757879860699L204.75,43.628438225016L205.2,43.519399443641305L205.69500000000002,42.77692242804915L206.14499999999998,37.74755526147783L206.595,38.82499187067151L207.04500000000002,38.33910411968827L207.54000000000002,32.25826491881162L207.99,46.63668185286224L208.44,43.918607372790575L208.89,48.9851911207661L209.385,49.04646585974842L209.835,52.96513772383332L210.28500000000003,47.455229063518345L210.78,50.77158702816814L211.23,42.72647489607334L211.68,52.413105580955744L212.175,48.60419776570052L212.625,46.543661121279L213.07500000000002,44.14349208865315L213.525,44.704496826045215L214.01999999999998,48.8959003360942L214.47,39.62225766200572L214.92000000000002,49.532726605422795L215.415,39.39447187632322L215.865,43.778983026742935L216.315,52.67893682513386L216.765,46.75312872324139L217.26,39.62583219446242L217.71,47.851567005738616L218.16000000000003,35.95194845739752L218.60999999999999,50.0228623514995L219.105,48.85528535861522L219.555,41.80836918577552L220.005,50.740960019640625L220.5,42.75192142277956L220.95000000000002,40.30294189043343L221.39999999999998,46.66198332607746L221.85,42.7868585921824L222.345,47.63507467042655L222.79500000000002,41.95841666124761L223.245,41.21246872283518L223.695,46.59212970919907L224.19,46.074858599342406L224.64,38.49516095407307L225.09,49.75897896848619L225.585,43.341076898388565L226.035,29.774690128862858L226.48499999999999,27.50291415769607L226.935,50.060669507831335L227.43,49.27088433224708L227.88,31.11190717946738L228.33,43.94870597217232L228.78,40.839515475556254L229.27499999999998,45.72445080894977L229.725,43.76840448286384L230.175,35.35818235296756L230.67,42.179074103944004L231.12,46.5311347162351L231.57,40.15650003030896L232.01999999999998,58.330262278206646L232.515,46.63544889818877L232.965,46.37558556906879L233.41500000000002,36.00862292852253L233.86499999999998,37.5704035051167L234.35999999999999,35.717635264620185L234.81,59.13141343090683L235.26,46.11860258784145L235.755,40.768470347858965L236.205,40.65534934680909L236.65499999999997,44.816270901821554L237.105,37.41916451882571L237.6,54.240002495236695L238.05,47.432611079886556L238.5,19.820446114055812L238.995,34.8800964076072L239.44500000000002,41.72288087476045L239.89499999999998,33.287004998885095L240.345,38.12537816166878L240.84,48.40791967045516L241.29000000000002,40.51373569574207L241.74,36.96255685109645L242.19,41.26137247122824L242.685,42.93039938248694L243.135,34.530185943469405L243.585,45.18551492411643L244.08,45.93805243540555L244.53,37.89123074430972L244.98,34.49453386757523L245.43,41.75050320383161L245.925,38.37289122212678L246.375,44.23122872877866L246.82500000000002,31.42375146318227L247.32000000000002,49.043326487764716" style="fill: none;" fill="none"></path></g></g></g></g></g></g><g transform="translate(60, 178)" clip-path="url(#clip_1)"><clipPath id="clip_1"><rect width="270" height="22"></rect></clipPath><g><g><line x1="0" y1="0" x2="0" y2="5" style="visibility: inherit;" fill="rgb(0, 0, 0)" stroke="rgb(204, 204, 204)" stroke-width="1px"></line><line x1="22.5" y1="0" x2="22.5" y2="5" style="visibility: inherit;" fill="rgb(0, 0, 0)" stroke="rgb(204, 204, 204)" stroke-width="1px"></line><line x1="45" y1="0" x2="45" y2="5" style="visibility: inherit;" fill="rgb(0, 0, 0)" stroke="rgb(204, 204, 204)" stroke-width="1px"></line><line x1="67.5" y1="0" x2="67.5" y2="5" style="visibility: inherit;" fill="rgb(0, 0, 0)" stroke="rgb(204, 204, 204)" stroke-width="1px"></line><line x1="90" y1="0" x2="90" y2="5" style="visibility: inherit;" fill="rgb(0, 0, 0)" stroke="rgb(204, 204, 204)" stroke-width="1px"></line><line x1="112.5" y1="0" x2="112.5" y2="5" style="visibility: inherit;" fill="rgb(0, 0, 0)" stroke="rgb(204, 204, 204)" stroke-width="1px"></line><line x1="135" y1="0" x2="135" y2="5" style="visibility: inherit;" fill="rgb(0, 0, 0)" stroke="rgb(204, 204, 204)" stroke-width="1px"></line><line x1="157.5" y1="0" x2="157.5" y2="5" style="visibility: inherit;" fill="rgb(0, 0, 0)" stroke="rgb(204, 204, 204)" stroke-width="1px"></line><line x1="180" y1="0" x2="180" y2="5" style="visibility: inherit;" fill="rgb(0, 0, 0)" stroke="rgb(204, 204, 204)" stroke-width="1px"></line><line x1="202.5" y1="0" x2="202.5" y2="5" style="visibility: inherit;" fill="rgb(0, 0, 0)" stroke="rgb(204, 204, 204)" stroke-width="1px"></line><line x1="225" y1="0" x2="225" y2="5" style="visibility: inherit;" fill="rgb(0, 0, 0)" stroke="rgb(204, 204, 204)" stroke-width="1px"></line><line x1="247.5" y1="0" x2="247.5" y2="5" style="visibility: inherit;" fill="rgb(0, 0, 0)" stroke="rgb(204, 204, 204)" stroke-width="1px"></line><line x1="270" y1="0" x2="270" y2="5" style="visibility: inherit;" fill="rgb(0, 0, 0)" stroke="rgb(204, 204, 204)" stroke-width="1px"></line></g><g transform="translate(0, 8)"><text x="0" y="0" dx="0em" dy="0.95em" style="text-anchor: middle; visibility: hidden; font-family: &quot;Helvetica Neue&quot;, sans-serif; font-size: 12px; font-weight: 200;" fill="rgb(50, 49, 63)" stroke="none" stroke-width="1px">-5M</text><text x="22.5" y="0" dx="0em" dy="0.95em" style="text-anchor: middle; visibility: inherit; font-family: &quot;Helvetica Neue&quot;, sans-serif; font-size: 12px; font-weight: 200;" fill="rgb(50, 49, 63)" stroke="none" stroke-width="1px">0</text><text x="45" y="0" dx="0em" dy="0.95em" style="text-anchor: middle; visibility: hidden; font-family: &quot;Helvetica Neue&quot;, sans-serif; font-size: 12px; font-weight: 200;" fill="rgb(50, 49, 63)" stroke="none" stroke-width="1px">5M</text><text x="67.5" y="0" dx="0em" dy="0.95em" style="text-anchor: middle; visibility: inherit; font-family: &quot;Helvetica Neue&quot;, sans-serif; font-size: 12px; font-weight: 200;" fill="rgb(50, 49, 63)" stroke="none" stroke-width="1px">10M</text><text x="90" y="0" dx="0em" dy="0.95em" style="text-anchor: middle; visibility: hidden; font-family: &quot;Helvetica Neue&quot;, sans-serif; font-size: 12px; font-weight: 200;" fill="rgb(50, 49, 63)" stroke="none" stroke-width="1px">15M</text><text x="112.5" y="0" dx="0em" dy="0.95em" style="text-anchor: middle; visibility: inherit; font-family: &quot;Helvetica Neue&quot;, sans-serif; font-size: 12px; font-weight: 200;" fill="rgb(50, 49, 63)" stroke="none" stroke-width="1px">20M</text><text x="135" y="0" dx="0em" dy="0.95em" style="text-anchor: middle; visibility: hidden; font-family: &quot;Helvetica Neue&quot;, sans-serif; font-size: 12px; font-weight: 200;" fill="rgb(50, 49, 63)" stroke="none" stroke-width="1px">25M</text><text x="157.5" y="0" dx="0em" dy="0.95em" style="text-anchor: middle; visibility: inherit; font-family: &quot;Helvetica Neue&quot;, sans-serif; font-size: 12px; font-weight: 200;" fill="rgb(50, 49, 63)" stroke="none" stroke-width="1px">30M</text><text x="180" y="0" dx="0em" dy="0.95em" style="text-anchor: middle; visibility: hidden; font-family: &quot;Helvetica Neue&quot;, sans-serif; font-size: 12px; font-weight: 200;" fill="rgb(50, 49, 63)" stroke="none" stroke-width="1px">35M</text><text x="202.5" y="0" dx="0em" dy="0.95em" style="text-anchor: middle; visibility: inherit; font-family: &quot;Helvetica Neue&quot;, sans-serif; font-size: 12px; font-weight: 200;" fill="rgb(50, 49, 63)" stroke="none" stroke-width="1px">40M</text><text x="225" y="0" dx="0em" dy="0.95em" style="text-anchor: middle; visibility: hidden; font-family: &quot;Helvetica Neue&quot;, sans-serif; font-size: 12px; font-weight: 200;" fill="rgb(50, 49, 63)" stroke="none" stroke-width="1px">45M</text><text x="247.5" y="0" dx="0em" dy="0.95em" style="text-anchor: middle; visibility: inherit; font-family: &quot;Helvetica Neue&quot;, sans-serif; font-size: 12px; font-weight: 200;" fill="rgb(50, 49, 63)" stroke="none" stroke-width="1px">50M</text><text x="270" y="0" dx="0em" dy="0.95em" style="text-anchor: middle; visibility: hidden; font-family: &quot;Helvetica Neue&quot;, sans-serif; font-size: 12px; font-weight: 200;" fill="rgb(50, 49, 63)" stroke="none" stroke-width="1px">55M</text></g><line x1="0" y1="0" x2="270" y2="0" fill="rgb(0, 0, 0)" stroke="rgb(204, 204, 204)" stroke-width="1px"></line></g></g></g></g></svg>