<svg viewBox="0 0 330 200" xmlns="http://www.w3.org/2000/svg"><g><g><g><g><g><line x1="70" y1="178" x2="65" y2="178" style="visibility: inherit;" fill="rgb(0, 0, 0)" stroke="rgb(204, 204, 204)" stroke-width="1px"></line><line x1="70" y1="161.8181818181818" x2="65" y2="161.8181818181818" style="visibility: inherit;" fill="rgb(0, 0, 0)" stroke="rgb(204, 204, 204)" stroke-width="1px"></line><line x1="70" y1="145.63636363636363" x2="65" y2="145.63636363636363" style="visibility: inherit;" fill="rgb(0, 0, 0)" stroke="rgb(204, 204, 204)" stroke-width="1px"></line><line x1="70" y1="129.45454545454544" x2="65" y2="129.45454545454544" style="visibility: inherit;" fill="rgb(0, 0, 0)" stroke="rgb(204, 204, 204)" stroke-width="1px"></line><line x1="70" y1="113.27272727272724" x2="65" y2="113.27272727272724" style="visibility: inherit;" fill="rgb(0, 0, 0)" stroke="rgb(204, 204, 204)" stroke-width="1px"></line><line x1="70" y1="97.09090909090905" x2="65" y2="97.09090909090905" style="visibility: inherit;" fill="rgb(0, 0, 0)" stroke="rgb(204, 204, 204)" stroke-width="1px"></line><line x1="70" y1="80.90909090909086" x2="65" y2="80.90909090909086" style="visibility: inherit;" fill="rgb(0, 0, 0)" stroke="rgb(204, 204, 204)" stroke-width="1px"></line><line x1="70" y1="64.72727272727276" x2="65" y2="64.72727272727276" style="visibility: inherit;" fill="rgb(0, 0, 0)" stroke="rgb(204, 204, 204)" stroke-width="1px"></line><line x1="70" y1="48.54545454545459" x2="65" y2="48.54545454545459" style="visibility: inherit;" fill="rgb(0, 0, 0)" stroke="rgb(204, 204, 204)" stroke-width="1px"></line><line x1="70" y1="32.363636363636374" x2="65" y2="32.363636363636374" style="visibility: inherit;" fill="rgb(0, 0, 0)" stroke="rgb(204, 204, 204)" stroke-width="1px"></line><line x1="70" y1="16.181818181818187" x2="65" y2="16.181818181818187" style="visibility: inherit;" fill="rgb(0, 0, 0)" stroke="rgb(204, 204, 204)" stroke-width="1px"></line><line x1="70" y1="0" x2="65" y2="0" style="visibility: inherit;" fill="rgb(0, 0, 0)" stroke="rgb(204, 204, 204)" stroke-width="1px"></line></g><g transform="translate(60, 0)"><text x="0" y="178" dx="0em" dy="0.3em" style="text-anchor: end; visibility: hidden; font-family: &quot;Helvetica Neue&quot;, sans-serif; font-size: 12px; font-weight: 200;" fill="rgb(50, 49, 63)" stroke="none" stroke-width="1px">0.022</text><text x="0" y="161.8181818181818" dx="0em" dy="0.3em" style="text-anchor: end; visibility: inherit; font-family: &quot;Helvetica Neue&quot;, sans-serif; font-size: 12px; font-weight: 200;" fill="rgb(50, 49, 63)" stroke="none" stroke-width="1px">0.0225</text><text x="0" y="145.63636363636363" dx="0em" dy="0.3em" style="text-anchor: end; visibility: hidden; font-family: &quot;Helvetica Neue&quot;, sans-serif; font-size: 12px; font-weight: 200;" fill="rgb(50, 49, 63)" stroke="none" stroke-width="1px">0.023</text><text x="0" y="129.45454545454544" dx="0em" dy="0.3em" style="text-anchor: end; visibility: inherit; font-family: &quot;Helvetica Neue&quot;, sans-serif; font-size: 12px; font-weight: 200;" fill="rgb(50, 49, 63)" stroke="none" stroke-width="1px">0.0235</text><text x="0" y="113.27272727272724" dx="0em" dy="0.3em" style="text-anchor: end; visibility: hidden; font-family: &quot;Helvetica Neue&quot;, sans-serif; font-size: 12px; font-weight: 200;" fill="rgb(50, 49, 63)" stroke="none" stroke-width="1px">0.024</text><text x="0" y="97.09090909090905" dx="0em" dy="0.3em" style="text-anchor: end; visibility: inherit; font-family: &quot;Helvetica Neue&quot;, sans-serif; font-size: 12px; font-weight: 200;" fill="rgb(50, 49, 63)" stroke="none" stroke-width="1px">0.0245</text><text x="0" y="80.90909090909086" dx="0em" dy="0.3em" style="text-anchor: end; visibility: hidden; font-family: &quot;Helvetica Neue&quot;, sans-serif; font-size: 12px; font-weight: 200;" fill="rgb(50, 49, 63)" stroke="none" stroke-width="1px">0.025</text><text x="0" y="64.72727272727276" dx="0em" dy="0.3em" style="text-anchor: end; visibility: inherit; font-family: &quot;Helvetica Neue&quot;, sans-serif; font-size: 12px; font-weight: 200;" fill="rgb(50, 49, 63)" stroke="none" stroke-width="1px">0.0255</text><text x="0" y="48.54545454545459" dx="0em" dy="0.3em" style="text-anchor: end; visibility: hidden; font-family: &quot;Helvetica Neue&quot;, sans-serif; font-size: 12px; font-weight: 200;" fill="rgb(50, 49, 63)" stroke="none" stroke-width="1px">0.026</text><text x="0" y="32.363636363636374" dx="0em" dy="0.3em" style="text-anchor: end; visibility: inherit; font-family: &quot;Helvetica Neue&quot;, sans-serif; font-size: 12px; font-weight: 200;" fill="rgb(50, 49, 63)" stroke="none" stroke-width="1px">0.0265</text><text x="0" y="16.181818181818187" dx="0em" dy="0.3em" style="text-anchor: end; visibility: hidden; font-family: &quot;Helvetica Neue&quot;, sans-serif; font-size: 12px; font-weight: 200;" fill="rgb(50, 49, 63)" stroke="none" stroke-width="1px">0.027</text><text x="0" y="0" dx="0em" dy="0.3em" style="text-anchor: end; visibility: hidden; font-family: &quot;Helvetica Neue&quot;, sans-serif; font-size: 12px; font-weight: 200;" fill="rgb(50, 49, 63)" stroke="none" stroke-width="1px">0.0275</text></g><line x1="70" y1="0" x2="70" y2="178" fill="rgb(0, 0, 0)" stroke="rgb(204, 204, 204)" stroke-width="1px"></line></g></g><g transform="translate(70, 0)" clip-path="url(#clip_0)"><clipPath id="clip_0"><rect width="260" height="178"></rect></clipPath><g><g><g><line x1="0" y1="0" x2="0" y2="178" fill="rgb(0, 0, 0)" stroke="rgb(60, 60, 60)" stroke-width="1px" opacity="0.25"></line><line x1="21.666666666666664" y1="0" x2="21.666666666666664" y2="178" fill="rgb(0, 0, 0)" stroke="rgb(60, 60, 60)" stroke-width="1px" opacity="0.25"></line><line x1="43.33333333333333" y1="0" x2="43.33333333333333" y2="178" fill="rgb(0, 0, 0)" stroke="rgb(60, 60, 60)" stroke-width="1px" opacity="0.25"></line><line x1="65" y1="0" x2="65" y2="178" fill="rgb(0, 0, 0)" stroke="rgb(60, 60, 60)" stroke-width="1px" opacity="0.25"></line><line x1="86.66666666666666" y1="0" x2="86.66666666666666" y2="178" fill="rgb(0, 0, 0)" stroke="rgb(60, 60, 60)" stroke-width="1px" opacity="0.25"></line><line x1="108.33333333333334" y1="0" x2="108.33333333333334" y2="178" fill="rgb(0, 0, 0)" stroke="rgb(60, 60, 60)" stroke-width="1px" opacity="0.25"></line><line x1="130" y1="0" x2="130" y2="178" fill="rgb(0, 0, 0)" stroke="rgb(60, 60, 60)" stroke-width="1px" opacity="0.25"></line><line x1="151.66666666666669" y1="0" x2="151.66666666666669" y2="178" fill="rgb(0, 0, 0)" stroke="rgb(60, 60, 60)" stroke-width="1px" opacity="0.25"></line><line x1="173.33333333333331" y1="0" x2="173.33333333333331" y2="178" fill="rgb(0, 0, 0)" stroke="rgb(60, 60, 60)" stroke-width="1px" opacity="0.25"></line><line x1="195" y1="0" x2="195" y2="178" fill="rgb(0, 0, 0)" stroke="rgb(60, 60, 60)" stroke-width="1px" opacity="0.25"></line><line x1="216.66666666666669" y1="0" x2="216.66666666666669" y2="178" fill="rgb(0, 0, 0)" stroke="rgb(60, 60, 60)" stroke-width="1px" opacity="0.25"></line><line x1="238.33333333333331" y1="0" x2="238.33333333333331" y2="178" fill="rgb(0, 0, 0)" stroke="rgb(60, 60, 60)" stroke-width="1px" opacity="0.25"></line><line x1="260" y1="0" x2="260" y2="178" fill="rgb(0, 0, 0)" stroke="rgb(60, 60, 60)" stroke-width="1px" opacity="0.25"></line></g><g><line x1="0" y1="178" x2="260" y2="178" fill="rgb(0, 0, 0)" stroke="rgb(60, 60, 60)" stroke-width="1px" opacity="0.25"></line><line x1="0" y1="161.8181818181818" x2="260" y2="161.8181818181818" fill="rgb(0, 0, 0)" stroke="rgb(60, 60, 60)" stroke-width="1px" opacity="0.25"></line><line x1="0" y1="145.63636363636363" x2="260" y2="145.63636363636363" fill="rgb(0, 0, 0)" stroke="rgb(60, 60, 60)" stroke-width="1px" opacity="0.25"></line><line x1="0" y1="129.45454545454544" x2="260" y2="129.45454545454544" fill="rgb(0, 0, 0)" stroke="rgb(60, 60, 60)" stroke-width="1px" opacity="0.25"></line><line x1="0" y1="113.27272727272724" x2="260" y2="113.27272727272724" fill="rgb(0, 0, 0)" stroke="rgb(60, 60, 60)" stroke-width="1px" opacity="0.25"></line><line x1="0" y1="97.09090909090905" x2="260" y2="97.09090909090905" fill="rgb(0, 0, 0)" stroke="rgb(60, 60, 60)" stroke-width="1px" opacity="0.25"></line><line x1="0" y1="80.90909090909086" x2="260" y2="80.90909090909086" fill="rgb(0, 0, 0)" stroke="rgb(60, 60, 60)" stroke-width="1px" opacity="0.25"></line><line x1="0" y1="64.72727272727276" x2="260" y2="64.72727272727276" fill="rgb(0, 0, 0)" stroke="rgb(60, 60, 60)" stroke-width="1px" opacity="0.25"></line><line x1="0" y1="48.54545454545459" x2="260" y2="48.54545454545459" fill="rgb(0, 0, 0)" stroke="rgb(60, 60, 60)" stroke-width="1px" opacity="0.25"></line><line x1="0" y1="32.363636363636374" x2="260" y2="32.363636363636374" fill="rgb(0, 0, 0)" stroke="rgb(60, 60, 60)" stroke-width="1px" opacity="0.25"></line><line x1="0" y1="16.181818181818187" x2="260" y2="16.181818181818187" fill="rgb(0, 0, 0)" stroke="rgb(60, 60, 60)" stroke-width="1px" opacity="0.25"></line><line x1="0" y1="0" x2="260" y2="0" fill="rgb(0, 0, 0)" stroke="rgb(60, 60, 60)" stroke-width="1px" opacity="0.25"></line></g></g></g><g><g><line x1="0" y1="889.9999999999998" x2="260" y2="889.9999999999998" fill="rgb(0, 0, 0)" stroke="rgb(153, 153, 153)" stroke-width="1.5px"></line></g></g><g><g><line x1="21.666666666666664" y1="0" x2="21.666666666666664" y2="178" fill="rgb(0, 0, 0)" stroke="rgb(153, 153, 153)" stroke-width="1.5px"></line></g></g><g><g><g><g><g><path stroke="rgb(0, 119, 187)" stroke-width="2px" d="M22.143333333333334,111.19046070358968L22.576666666666668,121.28821819343347L23.009999999999998,89.55807267679573L23.486666666666668,52.44452932032742L23.919999999999998,73.41502820309474L24.35333333333333,91.97741687261433L24.830000000000002,111.09815078706578L25.263333333333332,125.7221686324711L25.696666666666665,134.0487423308367L26.173333333333332,106.52635824499818L26.606666666666666,106.34193606282935L27.04,105.08690066880119L27.516666666666666,90.85829361068664L27.95,110.2964826728094L28.383333333333333,99.40023852855217L28.86,81.9394517202908L29.293333333333333,80.1181323008115L29.726666666666667,89.5065023900869L30.16,114.08850060863014L30.636666666666667,111.80460481893125L31.07,85.64607195653394L31.503333333333334,89.27546579139083L31.98,92.17361554358261L32.413333333333334,99.23425652560816L32.846666666666664,77.99140801264124L33.32333333333334,84.19145273662309L33.75666666666667,107.06702886434205L34.190000000000005,102.70042707368965L34.62333333333333,111.33251153229524L35.1,105.51639869964568L35.53333333333333,115.04293713719377L35.96666666666667,94.76903333094769L36.443333333333335,91.67688791296652L36.876666666666665,86.33161215626379L37.35333333333333,114.1422457897537L37.78666666666667,94.50244475526073L38.22,86.0484920977426L38.69666666666667,98.9018807532333L39.129999999999995,103.61245049605675L39.56333333333333,128.8039338217082L40.04,142.55992350752274L40.473333333333336,118.6327831822505L40.906666666666666,110.39538422073905L41.38333333333334,87.46217661552731L41.81666666666666,81.39657040445402L42.25,61.29533389361282L42.72666666666667,90.7738849752074L43.160000000000004,76.30222414570609L43.593333333333334,89.48296778924939L44.07,81.38963730155533L44.50333333333333,62.40426855793886L44.93666666666667,76.51760144271634L45.37,72.54656128211836L45.84666666666667,88.98297968419904L46.28,85.95042083048503L46.71333333333333,87.71262317745342L47.14666666666667,74.33316019899591L47.623333333333335,64.09518368948255L48.056666666666665,72.71812882585826L48.49,82.27005484548465L48.96666666666666,66.22844786607071L49.4,79.27963187629085L49.833333333333336,55.406269763640225L50.266666666666666,71.50019712242492L50.74333333333333,68.20118651440085L51.17666666666667,67.98283351668101L51.61,65.78470473142767L52.086666666666666,72.52277802942841L52.52,84.37167901705897L52.95333333333333,94.45017188680346L53.38666666666667,80.72410619736466L53.86333333333333,67.50727112796542L54.29666666666667,69.00486032137698L54.73,97.87825077212068L55.20666666666667,96.81138920989812L55.64,68.82095655001244L56.07333333333334,66.10260935380641L56.50666666666666,72.32354468069319L56.983333333333334,65.35909436268169L57.416666666666664,74.50970820044827L57.85,78.80273189653538L58.32666666666667,84.7899992637229L58.760000000000005,112.50107954359221L59.19333333333333,104.31586164484125L59.626666666666665,98.71978304643342L60.10333333333333,92.56784954962299L60.53666666666667,100.92430645350375L60.97,92.74520615846532L61.446666666666665,83.58506999298486L61.879999999999995,104.2389453111616L62.31333333333333,105.86517584997856L62.74666666666667,123.61545748031298L63.223333333333336,122.81909303864441L63.656666666666666,122.45643704967424L64.09,106.49611046542034L64.52333333333334,100.76026182658153L65,88.46436805841788L65.43333333333332,69.8883948545522L65.86666666666667,70.55670267901378L66.34333333333333,85.93939665890672L66.77666666666667,51.58374998965384L67.21000000000001,45.760278156661826L67.68666666666667,82.25281739039328L68.12,80.16597888785823L68.55333333333333,103.58403099726571L68.98666666666666,104.44253887082243L69.46333333333334,97.13743237950366L69.89666666666666,113.97092139248281L70.33,96.01634042412935L70.80666666666666,87.55178848529933L71.24000000000001,64.15018366460153L71.67333333333333,62.58749216986011L72.10666666666667,100.23880184353227L72.58333333333333,102.07103303739655L73.01666666666667,104.88826323008622L73.44999999999999,79.35839822780925L73.92666666666666,76.95220210325185L74.36,83.21297837381252L74.79333333333334,102.16626360412712L75.22666666666666,103.53089719379983L75.70333333333333,109.9294006298973L76.13666666666667,90.25380817424671L76.57,106.15397390511126L77.04666666666667,98.41482526857818L77.47999999999999,79.07777461940087L77.91333333333334,97.86014087030799L78.34666666666666,93.71358002170903L78.82333333333332,104.54569234327555L79.25666666666667,52.843416697673746L79.69,62.3936981090534L80.16666666666667,70.84089592053084L80.6,69.01404228236962L81.03333333333333,60.440626843784955L81.46666666666667,48.78793324904879L81.94333333333333,72.92059762079577L82.37666666666668,92.2559571758127L82.81,62.52074080948057L83.24333333333333,94.0068763931687L83.72,93.42309281414782L84.15333333333334,64.48576204183229L84.58666666666666,62.1470532277648L85.06333333333333,65.63609563249719L85.49666666666666,66.05792615214374L85.93,62.666786457946756L86.36333333333333,60.03687846684235L86.84,84.55205684806083L87.27333333333334,69.01832631769871L87.70666666666666,76.72583969450758L88.18333333333334,92.53482335924258L88.61666666666666,75.00745275633486L89.05000000000001,88.17371870668718L89.48333333333333,87.11029679206926L89.96,83.51927104695656L90.39333333333333,68.23639988581928L90.82666666666667,98.8235769903045L91.30333333333334,100.05177685666727L91.73666666666666,70.99920374671706L92.17,84.27686287474675L92.60333333333334,83.18126975874063L93.08,99.45253791222767L93.51333333333334,83.33988999231718L93.94666666666667,82.02374129075604L94.42333333333335,94.72494000433069L94.85666666666667,89.39415025527913L95.28999999999999,100.59954683670783L95.72333333333333,99.20458773460341L96.2,81.84675961004051L96.63333333333333,100.73124633156705L97.06666666666668,108.05354903240524L97.54333333333332,92.1057684048169L97.97666666666667,110.16594256631724L98.41,103.944299059778L98.84333333333333,124.35769018337751L99.32000000000001,130.62657324014026L99.75333333333333,98.07469522027377L100.18666666666667,94.8608126888223L100.66333333333333,99.3596745032886L101.09666666666666,80.41368919874873L101.53,115.1489049417984L101.96333333333334,111.88534817075362L102.44,90.78199792489794L102.87333333333333,91.17624270614674L103.30666666666666,97.04153415542493L103.78333333333333,101.58301890264757L104.21666666666667,129.2446800600826L104.65,132.36528060568855L105.12666666666667,98.11174121719512L105.56,79.79496949338964L105.99333333333334,69.58804159146257L106.42666666666666,80.46803012576895L106.90333333333334,81.11759074490675L107.33666666666666,81.09403392812098L107.77,75.76322296128781L108.24666666666667,87.40160014820488L108.67999999999999,112.10993700272186L109.11333333333334,100.82158531032356L109.54666666666667,63.686185532323805L110.02333333333334,92.88893117626343L110.45666666666666,96.1631760138372L110.89,79.61211574358873L111.36666666666667,99.55688647525655L111.8,95.89338151599517L112.23333333333332,100.4481854156153L112.66666666666667,86.25475855995562L113.14333333333333,68.38846248692967L113.57666666666667,80.58174118419866L114.01,102.4996412749854L114.48666666666668,106.34682372761552L114.92,111.90884048888933L115.35333333333332,96.1760903741274L115.78666666666668,85.82519392966633L116.26333333333334,83.87316734617059L116.69666666666666,83.06904448231572L117.13000000000001,91.61878716120158L117.60666666666665,98.149826885819L118.04,90.7547546504386L118.47333333333333,103.07238567884897L118.95,108.95282860191173L119.38333333333334,107.56883716123026L119.81666666666666,108.54253699069884L120.25,100.73367405292244L120.72666666666666,103.02789926091405L121.16000000000001,123.26671111321198L121.59333333333333,105.46143313163697L122.07,75.56907893259746L122.50333333333333,82.13380235511262L122.93666666666667,81.4980305860586L123.36999999999999,60.93592410700765L123.84666666666666,78.48696745503477L124.28,97.24101872214075L124.71333333333334,96.35495138203687L125.19,104.92034254962289L125.62333333333333,105.42599154788518L126.05666666666667,103.59074543067588L126.49,108.72287405167732L126.96666666666667,98.43416617078226L127.39999999999999,74.13347781971858L127.83333333333333,88.95947797408613L128.26666666666668,87.08775366242372L128.74333333333334,58.67487822546312L129.17666666666668,70.34061282348158L129.61,66.3999128255989L130.08666666666664,80.30557249378722L130.52,55.18157580674084L130.95333333333335,49.593317427951746L131.38666666666666,40.35645629633038L131.86333333333334,52.75567662843484L132.29666666666668,56.233694755712705L132.81666666666666,87.55636904675713L133.25,89.2169937190296L133.68333333333334,70.78798585407128L134.11666666666667,72.80882692661831L134.59333333333333,82.88849593270716L135.02666666666667,90.00979866318148L135.46,72.95629009499045L135.93666666666667,107.65016725596116L136.37,112.53348655066685L136.80333333333334,104.3254196059594L137.23666666666668,91.9699103156587L137.7133333333333,109.56609921953071L138.14666666666668,90.77416090006776L138.58,109.14974595535159L139.05666666666667,71.08958639866225L139.48999999999998,95.43351228661285L139.92333333333335,107.93735325981079L140.35666666666668,96.12075724771775L140.83333333333331,85.01888984131956L141.26666666666668,75.5795662893867L141.70000000000002,86.06339007201078L142.13333333333333,110.49318024538054L142.60999999999999,83.72135398563631L143.04333333333335,57.985003360588905L143.47666666666666,69.25345886042307L143.95333333333332,59.19979283549375L144.38666666666666,54.43554007070598L144.82000000000002,59.61431117146165L145.25333333333333,70.97311460114528L145.73,83.25990174819505L146.16333333333336,85.43332925747973L146.59666666666666,95.39660144091867L147.07333333333332,69.39271291313037L147.50666666666666,63.97260739716194L147.94,66.71450095687956L148.41666666666666,91.82043952858507L148.85,69.98203287031252L149.28333333333336,66.86944747218539L149.71666666666667,75.1951674909697L150.19333333333333,97.70215017797928L150.62666666666667,102.58088201567594L151.06,88.09092378244384L151.49333333333334,107.82812029225242L151.97,111.59547537626383L152.4033333333333,106.73203041915303L152.83666666666667,79.58608499353912L153.31333333333333,86.86659796836348L153.74666666666667,124.61662550504974L154.18,118.02636597215894L154.61333333333334,113.3022165895903L155.09,114.82782541955298L155.5233333333333,96.57919067236111L155.95666666666668,86.19010166635057L156.43333333333334,78.34803594210442L156.86666666666667,62.46196189991217L157.29999999999998,75.69990272640503L157.77666666666667,87.51860500926996L158.21,62.84747325133603L158.64333333333332,73.41139906659158L159.07666666666668,70.01641061856462L159.55333333333334,78.76330743946554L159.98666666666665,98.9055530580049L160.42,107.81922484459551L160.85333333333335,105.0094688779889L161.33,103.35674626889325L161.76333333333332,101.25360962254751L162.19666666666666,98.50314877333014L162.67333333333335,84.09091391396494L163.10666666666665,84.59415907239466L163.54,94.64116891965598L163.97333333333336,110.84767204425472L164.45,104.85666708562543L164.88333333333333,107.00206509533332L165.31666666666666,106.63825307343808L165.75,98.60399849555625L166.22666666666666,99.50813511326044L166.66,84.92582251400044L167.09333333333333,86.60181591048736L167.52666666666667,90.18649165223069L168.00333333333333,122.73291328185816L168.43666666666667,127.13500717822757L168.87,107.63443058999265L169.34666666666666,102.26492126908667L169.78,99.61649721394583L170.2133333333333,77.26946687743698L170.64666666666668,96.88641262948622L171.12333333333333,78.26561766424028L171.55666666666667,76.31179715998647L171.98999999999998,64.38956577338108L172.42333333333335,77.96478524334348L172.9,67.35031244960602L173.33333333333331,70.44184715958015L173.76666666666668,69.33031634066718L174.24333333333334,76.18272969468966L174.67666666666665,83.7165298368659L175.10999999999999,100.22964266954439L175.54333333333335,103.14974493774736L176.02,101.14602253487024L176.45333333333332,122.42496128632445L176.88666666666666,110.44836008185256L177.32000000000002,121.68563044069855L177.79666666666665,106.17256438514592L178.23,112.08958739236871L178.66333333333336,102.38849792488854L179.14,107.21701598692636L179.57333333333332,103.91952744495632L180.00666666666666,84.60266168826782L180.44,91.51028183105512L180.91666666666666,102.5912591094495L181.35,103.28398681240704L181.78333333333336,86.76629741740862L182.26,89.50886934306357L182.69333333333333,106.19206345209605L183.12666666666667,126.13946271886633L183.56,128.11409200454426L184.03666666666666,122.00918792457544L184.47,118.05021277692259L184.9033333333333,83.86793824103195L185.33666666666667,96.18921961173896L185.81333333333333,90.37268963924343L186.24666666666667,89.8095818769846L186.68,86.57873724011417L187.15666666666667,86.7898131799622L187.59,85.13040041550276L188.0233333333333,69.81040630116627L188.45666666666668,69.41241599598811L188.93333333333334,55.81933282303383L189.36666666666667,70.7471613490383L189.79999999999998,81.75320432642263L190.27666666666667,79.18738783849945L190.71,96.37164670553548L191.14333333333332,75.89636859113212L191.57666666666668,85.2184059104901L192.05333333333334,89.96883813195551L192.48666666666665,82.37322063889525L192.92,90.64293713358892L193.39666666666668,111.99668861566151L193.83,84.93231971075302L194.26333333333332,76.42288380813153L194.69666666666666,66.1450292161742L195.17333333333335,63.21984679269798L195.60666666666665,90.18637143397773L196.04,62.80959681547171L196.51666666666668,83.8780495007695L196.95,104.13999190806518L197.38333333333333,126.50127936475434L197.81666666666666,95.08893060673505L198.29333333333335,67.29280753996235L198.72666666666666,64.41237460739447L199.16,71.35608619063413L199.63666666666668,78.10204388970814L200.07,67.3076669438435L200.50333333333333,87.4624337212676L200.93666666666667,100.41216582612978L201.41333333333333,97.02911720282641L201.84666666666666,75.10787750464944L202.28,73.07240698392012L202.7566666666667,91.04909963510414L203.19,99.31147082183674L203.62333333333333,67.62984957417198L204.05666666666667,94.30749702850453L204.53333333333333,86.99123232602749L204.96666666666667,42.47468353371002L205.4,79.24463484052205L205.83333333333331,87.4673361274314L206.31,91.43909778172221L206.74333333333334,87.03594813873492L207.17666666666665,67.85934083647697L207.65333333333334,83.02060100320186L208.08666666666667,60.388376074333266L208.52,78.4437893699674L208.95333333333332,85.70352214890035L209.43,86.04055575971732L209.86333333333334,115.66966084832191L210.29666666666665,113.1881139224966L210.77333333333334,139.96831928062542L211.20666666666668,134.2796425700454L211.64,112.07842720358452L212.07333333333332,110.91355729151738L212.55,85.38907321395588L212.98333333333335,76.77067281610483L213.41666666666666,83.7277621788729L213.89333333333332,78.1905662709607L214.32666666666668,78.21324703170751L214.76,85.1597884393892L215.19333333333333,98.08477865603169L215.67000000000002,86.13482645230549L216.10333333333335,97.7474873184332L216.53666666666666,98.63292238989128L216.97,96.74362119797418L217.4466666666667,84.26919341325707L217.88,97.22976978401677L218.31333333333333,97.91136173420807L218.79000000000002,85.28892226010574L219.22333333333333,46.1464176702988L219.65666666666667,82.80946914398356L220.13333333333333,98.0292917405911L220.5666666666667,111.03242109184282L221,130.36187520331305L221.43333333333334,118.86607944844411L221.91,98.56061382654619L222.34333333333333,92.62413801886619L222.77666666666667,84.13796305847053L223.21,63.401109544857405L223.68666666666667,91.14344108390073L224.12,93.43857230444384L224.55333333333334,105.76693190157192L224.98666666666665,108.85168897196243L225.46333333333334,84.70611231865149L225.89666666666668,102.6752542857464L226.33,121.34663663910464L226.80666666666664,115.73718623067734L227.24,113.85329504078284L227.67333333333335,87.9270328131167L228.10666666666665,80.23587833488705L228.58333333333334,115.25525490646584L229.01666666666668,76.81962295134247L229.45,102.00853561344643L229.92666666666665,117.8894173691555L230.36,105.63023390276172L230.79333333333335,97.36113850687438L231.22666666666666,98.90813269862232L231.70333333333332,105.1726338999572L232.13666666666668,77.20867114234045L232.57,79.7422978263816L233.04666666666665,96.85787769230343L233.48000000000002,91.82515382376222L233.91333333333333,92.37761204658646L234.34666666666666,80.42366966193677L234.82333333333332,83.18509777591618L235.2566666666667,67.67114177739943L235.69,98.47390894963506L236.12333333333333,104.3706711062604L236.6,109.3157819250332L237.03333333333333,101.5226372845074L237.46666666666667,89.04537137225593L237.94333333333333,100.33028689006706" style="fill: none;" fill="none"></path></g><g><path stroke="rgb(255, 112, 67)" stroke-width="2px" d="M22.143333333333334,85.10036368261683L22.576666666666668,54.27785319022156L23.009999999999998,78.79015160403134L23.486666666666668,136.5754417343971L23.919999999999998,102.41891713339729L24.35333333333333,74.71316754908528L24.830000000000002,64.43992632510009L25.263333333333332,72.83468424075423L25.696666666666665,78.6247840716889L26.173333333333332,99.77432855344313L26.606666666666666,107.98984421997432L27.04,97.53606749633467L27.516666666666666,109.83462369531257L27.95,121.57885987052794L28.383333333333333,122.97291813137046L28.81666666666667,140.43331437407508L29.293333333333333,146.80993162209896L29.726666666666667,134.03232845650876L30.16,98.48788696149636L30.636666666666667,96.28298812567328L31.07,103.72326566089694L31.503333333333334,120.47276206637093L31.936666666666667,130.25066199807208L32.413333333333334,121.65913571123043L32.846666666666664,111.84065072411504L33.28,101.14586798030496L33.75666666666667,99.90974428957999L34.190000000000005,61.68732292653729L34.62333333333333,73.06210318147536L35.1,79.17033643095864L35.53333333333333,101.84558317175366L35.96666666666667,108.01624975559157L36.400000000000006,93.43006324557047L36.876666666666665,93.83867968823114L37.309999999999995,97.21957301769564L37.74333333333333,85.34626665245527L38.17666666666667,74.86354029618433L38.653333333333336,73.9590617389419L39.08666666666667,88.73925576512022L39.519999999999996,112.18070728495623L39.99666666666666,94.72676418381887L40.43,94.28466714693455L40.86333333333334,75.7822079984424L41.34,67.19663671219541L41.77333333333333,85.95688495354493L42.20666666666666,69.9541538653813L42.64,71.16753471269857L43.11666666666667,89.25115238366907L43.550000000000004,102.64881493744815L43.983333333333334,106.58679172295436L44.46,101.24669940570885L44.89333333333333,109.29191071572188L45.32666666666667,98.05090243522095L45.76,77.96445067573836L46.23666666666667,95.61541128936801L46.67,91.87115213904299L47.10333333333333,68.39121301497052L47.58,89.42142761554537L48.013333333333335,86.70924851291176L48.446666666666665,84.28809984105314L48.88,72.428090160192L49.35666666666666,57.35409266494108L49.79,75.23044057009793L50.22333333333333,82.81403955573386L50.7,68.21066385198715L51.13333333333333,81.51798831472604L51.56666666666667,80.23938310013457L52,77.4501215601665L52.47666666666667,70.15411349335437L52.91,99.4178266818904L53.343333333333334,109.88841399524111L53.82,151.85525739989953L54.25333333333333,136.50345451876512L54.68666666666667,120.6321554724168L55.12,99.5879724176456L55.596666666666664,73.07326824052234L56.03,87.46527454875492L56.46333333333334,89.86951687002635L56.94,96.20440229432629L57.373333333333335,102.78659898109078L57.806666666666665,90.81118067759553L58.28333333333333,81.71214592849188L58.71666666666667,67.1031517420816L59.15,75.28477731065676L59.58333333333333,95.94220037345671L60.06,91.79557091860906L60.49333333333333,100.73958665433703L60.92666666666667,89.76777368964663L61.36,89.14558414762723L61.836666666666666,86.66893602804736L62.269999999999996,72.52959280412873L62.70333333333333,72.27572967855295L63.18,92.04520444042556L63.61333333333334,96.44554870759232L64.04666666666667,103.80101098352266L64.48,112.54627129764421L64.95666666666666,80.95395803161183L65.39,88.18341829385811L65.82333333333332,83.61542196602765L66.3,97.96856546772749L66.73333333333333,115.82001383093574L67.16666666666667,105.28368258739785L67.60000000000001,94.61757925798567L68.07666666666665,95.80194371621755L68.51,103.21116726750152L68.94333333333333,121.61834329512678L69.42,135.24609303020156L69.85333333333334,126.76697915845023L70.28666666666666,136.8964403686642L70.72,106.0128539475251L71.19666666666666,96.40720666753668L71.63000000000001,108.63890271532625L72.06333333333333,100.78790068226996L72.49666666666667,92.06907891987535L72.97333333333333,97.6005288369799L73.40666666666667,88.66665429679261L73.83999999999999,57.4438934406827L74.31666666666666,74.55134050246306L74.75,87.81363112176473L75.18333333333334,88.21825332364988L75.61666666666666,95.14296958453937L76.09333333333333,88.31399032510538L76.52666666666667,86.39729098808185L76.96,99.85217013123115L77.39333333333335,92.8143125771323L77.86999999999999,97.63992178433169L78.30333333333334,108.99287185231303L78.73666666666666,120.91038009944504L79.21333333333332,92.25271954084111L79.64666666666668,89.10485913178661L80.08,79.03985812882648L80.55666666666667,89.64417904118014L80.99,88.73081011365352L81.42333333333333,83.4689074704298L81.85666666666667,93.382898403524L82.33333333333333,65.73716366109552L82.76666666666668,59.101866192162234L83.2,64.18880804950231L83.67666666666668,84.57382396693482L84.11,80.86295300949162L84.54333333333334,93.76542063003996L84.97666666666666,87.35324917376495L85.45333333333333,81.01615625053375L85.88666666666666,98.30750229777365L86.32000000000001,111.90958960004077L86.79666666666667,102.80010572055342L87.23,86.53087358083124L87.66333333333334,58.97354207497497L88.09666666666666,74.43319608009848L88.57333333333334,89.03251339175856L89.00666666666666,81.56701857445684L89.44,89.75310831751521L89.91666666666667,96.42395884576004L90.35,84.30666039131341L90.78333333333333,109.04434375717686L91.21666666666667,94.42327273991916L91.69333333333334,80.96968691142006L92.12666666666667,86.06244256632307L92.56,84.00430408169174L93.03666666666666,63.229189112805685L93.47,49.06375865206161L93.90333333333334,73.92632707721286L94.33666666666667,87.55665516443104L94.81333333333333,77.71931995665894L95.24666666666667,86.2213679697701L95.67999999999999,106.71067888093255L96.15666666666667,111.68815616048188L96.59,111.75229317277403L97.02333333333333,115.097723706L97.5,92.84418961881306L97.93333333333332,82.35669250719427L98.36666666666667,86.86874878935355L98.8,114.3082040861822L99.27666666666667,107.23044166495234L99.71000000000001,118.75682697774505L100.14333333333333,128.1827270696905L100.57666666666665,123.18702168255402L101.05333333333333,93.37651564689276L101.48666666666666,100.4611742681426L101.92,96.15728269949705L102.39666666666666,102.45117852920113L102.83,77.26205341825276L103.26333333333334,75.31594500807374L103.69666666666666,88.59724130659859L104.17333333333333,88.80112260619354L104.60666666666667,85.65855576256999L105.04,88.95417866395877L105.51666666666667,82.10728469228555L105.94999999999999,70.20493067941561L106.38333333333334,69.14341311782947L106.81666666666666,68.21452082960919L107.29333333333334,81.428408665798L107.72666666666666,86.58116655332171L108.16,91.41981689746032L108.59333333333333,111.32500634126407L109.07,105.57504826288772L109.50333333333334,85.24144385539114L109.93666666666667,75.48484704554562L110.41333333333334,74.00528630249354L110.84666666666666,72.06119272219003L111.28,90.88315284478412L111.75666666666667,87.55679371059226L112.19,105.13971823080196L112.62333333333332,116.19526278640032L113.05666666666667,103.37798487507064L113.53333333333333,89.71304794061744L113.96666666666667,84.25021207278118L114.4,48.8050625841166L114.87666666666668,58.41541080758671L115.31,68.49260045178511L115.74333333333333,67.91501077953562L116.17666666666668,74.84535884986106L116.65333333333334,96.03421292165605L117.08666666666666,106.09728882315831L117.52000000000001,105.84680857746922L117.95333333333333,97.90107304799575L118.43,105.7161668237926L118.86333333333333,100.8766690615399L119.29666666666667,103.75193765466551L119.77333333333334,77.03748788495314L120.20666666666666,88.27408794200095L120.64,99.82908104766084L121.11666666666666,50.267454030294516L121.55000000000001,93.31295149239476L121.98333333333333,87.32193106079006L122.41666666666667,99.71178249353866L122.89333333333333,74.96633366789696L123.32666666666667,79.17192857726538L123.75999999999999,81.82057556992511L124.23666666666666,91.84784106359862L124.67,94.72690961111999L125.10333333333334,105.52126543892697L125.58,114.65949671317566L126.01333333333334,97.0067939895628L126.44666666666667,97.99854584780938L126.88,81.57838391755038L127.35666666666667,81.56512414457269L127.78999999999999,92.30148908520857L128.22333333333333,83.4474091352529L128.65666666666667,118.62332239387561L129.13333333333333,83.0590198370649L129.56666666666666,96.05514366659882L130,112.5818160509885L130.43333333333334,104.2773287225529L130.91,101.97240967109212L131.34333333333333,107.53112002074637L131.77666666666667,105.6384767523999L132.25333333333336,101.13317687808133L133.03333333333336,96.35444049102894L133.46666666666667,110.06307670457315L133.9,101.08084235343863L134.37666666666667,100.54287414728991L134.81,99.40592493294226L135.24333333333334,92.80471696770414L135.67666666666668,89.53323212400261L136.1533333333333,99.24611491424767L136.58666666666667,81.77797362321736L137.02,78.50796990841918L137.49666666666667,81.80843900862243L137.93,67.06018436142091L138.36333333333334,69.06109405109613L138.79666666666668,72.8361381390109L139.2733333333333,83.42292179997705L139.70666666666668,74.41982384903619L140.14000000000001,77.28807269454937L140.61666666666667,79.4766171889578L141.04999999999998,79.07952027585189L141.48333333333335,96.10418584548718L141.91666666666666,109.47274497023281L142.39333333333332,99.93017380865143L142.82666666666668,126.32093585607623L143.26000000000002,103.91415080582522L143.73666666666665,89.51625021626167L144.17,94.75408184291331L144.60333333333335,74.35090846656429L145.03666666666666,89.08728395550104L145.51333333333332,79.36267231872694L145.94666666666666,64.8031993262774L146.38,53.59282008670064L146.81333333333333,64.11145578215621L147.29,84.31408677008541L147.72333333333336,81.88781747415645L148.15666666666667,89.02604648261976L148.63333333333333,67.4771227710284L149.06666666666666,64.95438975096408L149.5,78.24192677953431L149.93333333333334,93.87004220767687L150.41,95.6697812660838L150.84333333333333,87.25535905809481L151.27666666666667,72.28294310838737L151.75333333333333,75.62209277617835L152.18666666666667,86.99484752630484L152.62,60.89552641845194L153.05333333333334,60.83283260210047L153.53,84.21707659536094L153.9633333333333,85.27846345322153L154.39666666666668,79.38569722348186L154.83,72.73794460053395L155.30666666666667,58.33425645682304L155.73999999999998,72.46898322277943L156.17333333333335,81.92211923746116L156.65,75.72361283693868L157.08333333333331,76.41565422856576L157.51666666666668,84.83984518434859L157.95000000000002,77.74566194807878L158.42666666666665,97.15566063758955L158.85999999999999,113.70176420060584L159.29333333333335,102.29057336933266L159.77,107.68871847930563L160.20333333333332,93.17138240856097L160.63666666666666,97.48538270177833L161.07000000000002,105.7446524990722L161.54666666666665,95.03941664058708L161.98,84.26350695357873L162.41333333333336,97.07623168941394L162.84666666666666,86.10392020847394L163.32333333333332,99.53585946222107L163.75666666666666,97.10627365126365L164.19,95.5217130119993L164.66666666666666,108.52885693034975L165.1,100.84716325832277L165.53333333333336,107.11043442604844L165.96666666666667,108.95707286406477L166.44333333333333,110.85294127848914L166.87666666666667,110.76295262264064L167.31,92.93265033990441L167.78666666666666,109.11641789649464L168.22,92.89626834875891L168.6533333333333,110.43605544293578L169.08666666666667,81.67751934277538L169.56333333333333,85.21280528611638L169.99666666666667,87.94839480604564L170.43,95.4419704187697L170.90666666666667,119.4149551445606L171.34,100.74679271848625L171.7733333333333,88.81966631043385L172.20666666666668,88.74215755934749L172.68333333333334,87.65711452463951L173.11666666666667,84.82219348435872L173.54999999999998,99.11588014848562L174.02666666666667,85.12346287129301L174.46,108.1100587385014L174.89333333333332,98.1857147200989L175.32666666666668,110.35401461463064L175.80333333333334,112.9328425783189L176.23666666666665,108.13476271326427L176.67,108.7068164651209L177.14666666666668,120.41276608462098L177.58,117.99832534795706L178.01333333333332,97.08145392594705L178.44666666666666,116.30689800828026L178.92333333333335,126.97545440172203L179.35666666666665,137.76055835752354L179.79,107.77267518572118L180.26666666666668,102.9487104807405L180.7,100.1599697824782L181.13333333333333,88.31927890192988L181.56666666666666,94.34447040380496L182.04333333333335,99.43384117020042L182.47666666666666,115.29480224710245L182.91,96.87324162205617L183.38666666666668,89.1962884852486L183.82,95.29175777262547L184.25333333333333,95.99392071056752L184.68666666666667,80.06947287731403L185.16333333333333,104.87784206701595L185.59666666666666,79.4896366477912L186.03,78.85437830518573L186.4633333333333,75.45864252965008L186.94,83.86553467182895L187.37333333333333,74.91721191707211L187.80666666666667,82.76009712746603L188.23999999999998,71.33581977293674L188.71666666666667,75.2833001793859L189.15,86.86533298706914L189.58333333333331,57.097576180791364L190.06,76.35229007312664L190.49333333333334,78.6027423333033L190.92666666666665,62.66515734900095L191.35999999999999,50.21254402626626L191.83666666666667,62.180416456417504L192.27,69.41722625966055L192.70333333333332,54.88225427498976L193.13666666666666,56.00739053137531L193.61333333333334,70.83238683165297L194.04666666666665,97.34751517243441L194.48,108.17091581027073L194.95666666666668,74.64199588775854L195.39,81.65005968206701L195.82333333333332,61.14584882049634L196.25666666666666,69.9911296524122L196.73333333333335,75.5826843745744L197.16666666666666,72.96948513464281L197.6,85.9873670078611L198.07666666666668,102.64510220348966L198.51,104.77046258160287L198.94333333333333,115.70145190628931L199.37666666666667,88.1493238262687L199.85333333333335,63.64804712304138L200.28666666666666,54.18925656029053L200.72,53.7397538882131L201.1533333333333,60.28025114470172L201.63,61.607457542022786L202.06333333333333,76.96378211431114L202.49666666666667,73.0083294038212L202.97333333333333,85.50924814054416L203.40666666666667,94.77393918655109L203.84,86.86670205140103L204.3166666666667,83.41109184383471L204.75,83.46001276512051L205.18333333333334,70.2887471266932L205.61666666666667,38.46696999523755L206.09333333333333,68.39857774181307L206.52666666666667,70.79314757977535L206.96,64.87780393553909L207.43666666666667,62.626902599402285L207.87,83.43058869686706L208.30333333333334,64.5358178073259L208.73666666666665,82.28515061245736L209.21333333333334,88.87929280106063L209.64666666666668,92.51867083773942L210.08,101.42135018041196L210.51333333333332,88.89914338872373L210.99,89.9056871890702L211.42333333333335,81.79869997369413L211.85666666666665,68.01701989311455L212.33333333333334,100.0240358612338L212.76666666666668,109.86626255466395L213.2,111.8940693397372L213.63333333333333,93.08546868697915L214.11,100.82643141805973L214.54333333333335,111.63013852458555L214.97666666666666,103.97023667261548L215.41,105.26946233783038L215.88666666666668,117.84709560752597L216.32,115.64219881550167L216.75333333333333,95.24320003336805L217.23000000000002,101.09222578265857L217.66333333333333,99.12326399838084L218.09666666666666,105.68896405691802L218.53,97.7812649232387L219.0066666666667,79.95405934964873L219.44,72.22028137871767L219.87333333333333,68.61939632779938L220.30666666666667,62.86454076265882L220.78333333333333,76.37275548504242L221.21666666666667,101.97021000438978L221.65,112.33092157482803L222.12666666666667,108.17395473222115L222.56,79.00647365597268L222.99333333333334,76.76385805770548L223.42666666666665,112.66429976084704L223.90333333333334,123.72259111298631L224.33666666666667,111.02101476735882L224.77,111.53878599362861L225.20333333333332,98.34064499331075L225.68,86.76259657129272L226.11333333333334,78.53405226589929L226.54666666666665,103.882973358056L227.02333333333334,105.28447547908434L227.45666666666668,120.82209699420164L227.89,93.17132624915969L228.32333333333332,102.30638752322253L228.8,92.13697093689952L229.23333333333335,87.49715876449756L229.66666666666666,89.72928598282859L230.14333333333332,65.61071465358917L230.57666666666668,60.25859429045349L231.01,80.33070261350655L231.44333333333333,80.90715533266568L231.92000000000002,75.64567042668902L232.35333333333335,69.83634867781005L232.78666666666666,72.62668744198277L233.22,57.92375025434376L233.6966666666667,57.74856851865697L234.13,56.613457620180924L234.56333333333333,64.05799075800779L235.04000000000002,87.16189449116564L235.47333333333333,82.46484073505327L235.90666666666667,95.55897493663743L236.34,88.30353711655816L236.8166666666667,73.22119290217589L237.25,95.32526748854094L237.68333333333334,101.56765978567164L238.16,101.5741421262546" style="fill: none;" fill="none"></path></g></g></g></g><g opacity="0.2"><g><g><g><path stroke="rgb(0, 119, 187)" stroke-width="2px" d="M22.143333333333334,111.19046070358968L22.576666666666668,127.34687268733975L23.009999999999998,59.0971329808235L23.486666666666668,8.799002333120853L23.919999999999998,100.79411154443565L24.35333333333333,117.65588286248118L24.830000000000002,138.441106216474L25.263333333333332,147.0441270416433L25.696666666666665,146.32882118225095L26.173333333333332,65.65882544625889L26.606666666666666,106.06697548519479L27.04,103.211177424951L27.516666666666666,69.56184189427982L27.95,139.41568483005867L28.383333333333333,83.06868043812837L28.86,55.76058620756322L29.293333333333333,77.38692389293148L29.726666666666667,103.5866738178513L30.16,150.95775311643425L30.636666666666667,108.37896989150478L31.07,46.409707259048105L31.503333333333334,94.71943711692634L31.98,96.52078295295887L32.413333333333334,109.82513435862279L32.846666666666664,46.12728622826663L33.32333333333334,93.49149338223715L33.75666666666667,141.3803345235911L34.190000000000005,96.1505310914733L34.62333333333333,124.28063026883382L35.1,96.79223266514863L35.53333333333333,129.33274163441223L35.96666666666667,64.35818165540694L36.443333333333335,87.03867015513505L36.876666666666665,78.31369890408081L37.35333333333333,155.85819504477757L37.78666666666667,65.04274370995434L38.22,73.36756324226205L38.69666666666667,118.18196361715141L39.129999999999995,110.6783050840551L39.56333333333333,166.59115872599858L40.04,163.1939080086621L40.473333333333336,82.74207272312856L40.906666666666666,98.03928578441791L41.38333333333334,53.06236521764235L41.81666666666666,72.2981610894203L42.25,31.14347913048485L42.72666666666667,134.99171159484166L43.160000000000004,54.594732902266756L43.593333333333334,109.25408325412054L44.07,69.24964157017793L44.50333333333333,33.926215442744166L44.93666666666667,97.68760076977988L45.37,66.59000104123895L45.84666666666667,113.63760728727685L46.28,81.40158254991877L46.71333333333333,90.3559266979044L47.14666666666667,54.26396573131734L47.623333333333335,48.73821892521599L48.056666666666665,85.65254653042011L48.49,96.59794387492265L48.96666666666666,42.16603739695114L49.4,98.85640789162026L49.833333333333336,19.59622659466484L50.266666666666666,95.64108816060151L50.74333333333333,63.25267060236496L51.17666666666667,67.65530402010137L51.61,62.48751155354758L52.086666666666666,82.62988797642966L52.52,102.14503049850462L52.95333333333333,109.5679111914201L53.38666666666667,60.13500766320662L53.86333333333333,47.682018523866475L54.29666666666667,71.25124411149456L54.73,141.18833644823593L55.20666666666667,95.21109686656429L55.64,26.835307560183793L56.07333333333334,62.025088559497476L56.50666666666666,81.65494767102327L56.983333333333334,54.91241888566451L57.416666666666664,88.23562895709817L57.85,85.24226744066584L58.32666666666667,93.77090031450443L58.760000000000005,154.06769996339622L59.19333333333333,92.03803479671477L59.626666666666665,90.32566514882173L60.10333333333333,83.33994930440728L60.53666666666667,113.45899180932476L60.97,80.4765557159077L61.446666666666665,69.84486574476415L61.879999999999995,135.21975828842682L62.31333333333333,108.3045216582038L62.74666666666667,150.2408799258145L63.223333333333336,121.62454637614161L63.656666666666666,121.91245306621894L64.09,82.55562058903952L64.52333333333334,92.15648886832322L65,70.02052740617229L65.43333333333332,42.02443504875356L65.86666666666667,71.55916441570628L66.34333333333333,109.01343762874602L66.77666666666667,0.05027998577466519L67.21000000000001,37.02507040717384L67.68666666666667,136.99162624099034L68.12,77.03572113405573L68.55333333333333,138.71110916137692L68.98666666666666,105.73030068115752L69.46333333333334,86.17977264252573L69.89666666666666,139.22115491195154L70.33,69.08446897159922L70.80666666666666,74.85496057705444L71.24000000000001,29.04777643355456L71.67333333333333,60.24345492774789L72.10666666666667,156.71576635404062L72.58333333333333,104.81937982819295L73.01666666666667,109.11410851912062L73.44999999999999,41.063600724393666L73.92666666666666,73.34290791641581L74.36,92.6041427796537L74.79333333333334,130.5961914495988L75.22666666666666,105.57784757830878L75.70333333333333,119.52715578404337L76.13666666666667,60.74041949077086L76.57,130.00422250140792L77.04666666666667,86.8061023137786L77.47999999999999,50.07219864563507L77.91333333333334,126.0336902466687L78.34666666666666,87.49373874881049L78.82333333333332,120.7938608256253L79.25666666666667,-24.709996770728708L79.69,76.7191202261231L80.16666666666667,83.51169263774698L80.6,66.27376182512802L81.03333333333333,47.58050368590787L81.46666666666667,31.30889285694468L81.94333333333333,109.11959417841649L82.37666666666668,121.2589965083382L82.81,17.917916259982377L83.24333333333333,141.23607976870102L83.72,92.54741744561626L84.15333333333334,21.079765883359045L84.58666666666666,58.638990006663576L85.06333333333333,70.86965923959558L85.49666666666666,66.69067193161356L85.93,57.580076916651294L86.36333333333333,56.09201648018576L86.84,121.32482441988856L87.27333333333334,45.71773052215576L87.70666666666666,88.28710975972086L88.18333333333334,116.24829885634506L88.61666666666666,48.71639685197309L89.05000000000001,107.92311763221565L89.48333333333333,85.51516392014241L89.96,78.13273242928763L90.39333333333333,45.31209314411336L90.82666666666667,144.70434264703226L91.30333333333334,101.89407665621148L91.73666666666666,27.420344081791967L92.17,104.19335156679152L92.60333333333334,81.53788008473134L93.08,123.85944014245811L93.51333333333334,59.170918112451375L93.94666666666667,80.04951823841441L94.42333333333335,113.77673807469279L94.85666666666667,81.39796563170171L95.28999999999999,117.40764170885083L95.72333333333333,97.11214908144689L96.2,55.81001742319626L96.63333333333333,129.0579764138568L97.06666666666668,119.03700308366254L97.54333333333332,68.18409746343438L97.97666666666667,137.2562038085677L98.41,94.61183379996905L98.84333333333333,154.9777768687768L99.32000000000001,140.02989782528442L99.75333333333333,49.246878190474064L100.18666666666667,90.0399888916449L100.66333333333333,106.10796722498804L101.09666666666666,51.994711241938845L101.53,167.25172855637285L101.96333333333334,106.99001301418649L102.44,59.12697255611418L102.87333333333333,91.76760987801983L103.30666666666666,105.83947132934222L103.78333333333333,108.39524602348152L104.21666666666667,170.73717179623515L104.65,137.04618142409754L105.12666666666667,46.73143213445488L105.56,52.31981190768154L105.99333333333334,54.27764973857184L106.42666666666666,96.78801292722873L106.90333333333334,82.09193167361344L107.33666666666666,81.05869870294224L107.77,67.76700651103799L108.24666666666667,104.85916592858052L108.67999999999999,149.17244228449732L109.11333333333334,83.88905777172607L109.54666666666667,7.983085865324199L110.02333333333334,136.6930496421727L110.45666666666666,101.07454327019776L110.89,54.785525338216246L111.36666666666667,129.47404257275838L111.8,90.39812407710333L112.23333333333332,107.2803912650455L112.66666666666667,64.96461827646601L113.14333333333333,41.58901837739077L113.57666666666667,98.87165923010217L114.01,135.37649141116572L114.48666666666668,112.1175974065607L114.92,120.25186563080004L115.35333333333332,72.57696520198475L115.78666666666668,70.29884926297446L116.26333333333334,80.94512747092678L116.69666666666666,81.86286018653347L117.13000000000001,104.44340117953038L117.60666666666665,107.94638647274535L118.04,79.66214629736812L118.47333333333333,121.54883222146466L118.95,117.77349298650566L119.38333333333334,105.49285000020805L119.81666666666666,110.00308673490174L120.25,89.0203796462579L120.72666666666666,106.46923707290127L121.16000000000001,153.62492889165875L121.59333333333333,78.75351615927434L122.07,30.73054763403806L122.50333333333333,91.98088748888534L122.93666666666667,80.54437293247742L123.36999999999999,30.092764388431192L123.84666666666666,104.81353247707538L124.28,125.37209562279958L124.71333333333334,95.02585037188095L125.19,117.76842930100179L125.62333333333333,106.1844650452787L126.05666666666667,100.83787625486198L126.49,116.4210669831796L126.96666666666667,83.00110434943979L127.39999999999999,37.68244529312307L127.83333333333333,111.19847820563747L128.26666666666668,84.28016719492997L128.74333333333334,16.055565070022254L129.17666666666668,87.83921472050925L129.61,60.48886282877487L130.08666666666664,101.1640619960698L130.52,17.495580776171238L130.95333333333335,41.21092985976824L131.38666666666666,26.50116459889844L131.86333333333334,71.3545071265914L132.29666666666668,61.4507219466296L132.81666666666666,134.54038048332384L133.25,91.70793072743847L133.68333333333334,43.14447405663404L134.11666666666667,75.84008853543888L134.59333333333333,98.00799944184041L135.02666666666667,100.69175275889309L135.46,47.376027242703856L135.93666666666667,159.69098299741742L136.37,119.85846549272534L136.80333333333334,92.01331918889825L137.23666666666668,73.43664638020773L137.7133333333333,135.9603825753385L138.14666666666668,62.586253420873106L138.58,136.71312353827733L139.05666666666667,13.999347063628107L139.48999999999998,131.94940111853856L139.92333333333335,126.69311471960758L140.35666666666668,78.39586322957818L140.83333333333331,68.3660887317224L141.26666666666668,61.42058096148749L141.70000000000002,101.78912574594669L142.13333333333333,147.13786550543523L142.60999999999999,43.563614596020074L143.04333333333335,19.38047742301768L143.47666666666666,86.15614211017434L143.95333333333332,44.11929379809985L144.38666666666666,47.28916092352432L144.82000000000002,67.38246782259506L145.25333333333333,88.01131974567066L145.73,101.69008246876975L146.16333333333336,88.69347052140667L146.59666666666666,110.34150971607725L147.07333333333332,30.38688012144783L147.50666666666666,55.842449123209164L147.94,70.82734129645605L148.41666666666666,129.4793473861434L148.85,37.224422882903696L149.28333333333336,62.2005693749948L149.71666666666667,87.68374751914631L150.19333333333333,131.46262420849365L150.62666666666667,109.89897977222094L151.06,66.35598643259567L151.49333333333334,137.43391505696553L151.97,117.24650800228116L152.4033333333333,99.43686298348685L152.83666666666667,38.867166855118484L153.31333333333333,97.78736743060024L153.74666666666667,181.241666810079L154.18,108.14097667282276L154.61333333333334,106.21599251573734L155.09,117.11623866449699L155.5233333333333,69.20623855157332L155.95666666666668,70.60646815733475L156.43333333333334,66.58493735573506L156.86666666666667,38.63285083662379L157.29999999999998,95.55681396614419L157.77666666666667,105.24665843356738L158.21,25.840775614435017L158.64333333333332,89.25728778947482L159.07666666666668,64.92392794652419L159.55333333333334,91.88365267081691L159.98666666666665,129.11892148581416L160.42,121.18973252448166L160.85333333333335,100.79483492807906L161.33,100.87766235524956L161.76333333333332,98.09890465302898L162.19666666666666,94.37745749950408L162.67333333333335,62.472561624917105L163.10666666666665,85.34902681003916L163.54,109.71168369054793L163.97333333333336,135.15742673115295L164.45,95.87015964768148L164.88333333333333,110.22016210989516L165.31666666666666,106.0925350405953L165.75,86.55261662873353L166.22666666666666,100.86434003981675L166.66,63.05235361511056L167.09333333333333,89.11580600521779L167.52666666666667,95.56350526484574L168.00333333333333,171.55254572629926L168.43666666666667,133.73814802278167L168.87,78.38356570764019L169.34666666666666,94.21065728772768L169.78,95.64386113123459L170.2133333333333,43.74892137267372L170.64666666666668,126.31183125756L171.12333333333333,50.33442521637136L171.55666666666667,73.3810664036057L171.98999999999998,46.50621869347313L172.42333333333335,98.32761444828725L172.9,51.4286032589999L173.33333333333331,75.07914922454138L173.76666666666668,67.66302011229773L174.24333333333334,86.46134972572325L174.67666666666665,95.01723005013031L175.10999999999999,124.99931191856209L175.54333333333335,107.5298983400518L176.02,98.14043893055481L176.45333333333332,154.34336941350585L176.88666666666666,92.48345827514474L177.32000000000002,138.54153597896746L177.79666666666665,82.9029653018171L178.23,120.96512190320271L178.66333333333336,87.83686372366816L179.14,114.45979307998307L179.57333333333332,98.97329463200134L180.00666666666666,55.62736305323513L180.44,101.87171204523604L180.91666666666666,119.21272502704099L181.35,104.32307836684312L181.78333333333336,61.98976332491094L182.26,93.62272723154587L182.69333333333333,131.21685461564493L183.12666666666667,156.06056161902166L183.56,131.07603593306106L184.03666666666666,112.85183180462228L184.47,112.11175005544312L184.9033333333333,32.59452643719587L185.33666666666667,114.6711416677995L185.81333333333333,81.64789468050002L186.24666666666667,88.96492023359644L186.68,81.73247028480876L187.15666666666667,87.1064270897345L187.59,82.64128126881337L188.0233333333333,46.83041512966156L188.45666666666668,68.81543053822082L188.93333333333334,35.42970806360245L189.36666666666667,93.13890413804485L189.79999999999998,98.26226879249917L190.27666666666667,75.33866310661489L190.71,122.14803500608963L191.14333333333332,45.183451419526875L191.57666666666668,99.20146188952704L192.05333333333334,97.09448646415362L192.48666666666665,70.97979439930481L192.92,103.04751187562941L193.39666666666668,144.0273158387704L193.83,44.335766353390426L194.26333333333332,63.65872995419936L194.69666666666666,50.728247328238055L195.17333333333335,58.832073157483876L195.60666666666665,130.6361583958972L196.04,21.744434887712657L196.51666666666668,115.48072852871633L196.95,134.5329055190086L197.38333333333333,160.043210549788L197.81666666666666,47.97040746970609L198.29333333333335,25.59862293980339L198.72666666666666,60.09172520854254L199.16,81.77165356549348L199.63666666666668,88.2209804383191L200.07,51.1161015250466L200.50333333333333,117.69458388740364L200.93666666666667,119.83676398342303L201.41333333333333,91.95454426787114L201.84666666666666,42.22601795738393L202.28,70.01920120282604L202.7566666666667,118.01413861188018L203.19,111.70502760193563L203.62333333333333,20.107417702674866L204.05666666666667,134.32396821000356L204.53333333333333,76.01683527231215L204.96666666666667,-24.30013965476641L205.4,134.39956180073995L205.83333333333331,99.80138805779542L206.31,97.3967402631586L206.74333333333334,80.43122367425396L207.17666666666665,39.09442988308993L207.65333333333334,105.76249125328928L208.08666666666667,26.440038681030273L208.52,105.52690931341863L208.95333333333332,96.59312131729992L209.43,86.54610617594284L209.86333333333334,160.11331848122853L210.29666666666665,109.46579353375866L210.77333333333334,180.13862731781867L211.20666666666668,125.74662750417534L211.64,78.77660415389319L212.07333333333332,109.16625242341647L212.55,47.1023470976136L212.98333333333335,63.84307221932845L213.41666666666666,94.16339622302486L213.89333333333332,69.88477240909229L214.32666666666668,78.24726817282762L214.76,95.57960055091162L215.19333333333333,117.47226398099549L215.67000000000002,68.20989814671601L216.10333333333335,115.16647861762479L216.53666666666666,99.96107499707827L216.97,93.90966941009866L217.4466666666667,65.55755173618142L217.88,116.6706343401562L218.31333333333333,98.9337496594949L218.79000000000002,66.35526304895227L219.22333333333333,-12.567339214411646L219.65666666666667,137.80404635451055L220.13333333333333,120.85902563550252L220.5666666666667,130.5371151187203L221,159.3560563705184L221.43333333333334,101.62238581614058L221.91,68.10241539369929L222.34333333333333,83.71942430734633L222.77666666666667,71.4087006178769L223.21,32.29582927443764L223.68666666666667,132.7569383924657L224.12,96.88126913525839L224.55333333333334,124.25947129726407L224.98666666666665,113.47882457754827L225.46333333333334,48.487747338685125L225.89666666666668,129.62896723638877L226.33,149.35371016914192L226.80666666666664,107.32301061803642L227.24,111.0274582559412L227.67333333333335,49.03763947161761L228.10666666666665,68.69914661754261L228.58333333333334,167.7843197638338L229.01666666666668,19.166175018657356L229.45,139.79190460660237L229.92666666666665,141.7107400027188L230.36,87.24145870317112L230.79333333333335,84.95749541304326L231.22666666666666,101.22862398624419L231.70333333333332,114.56938570195976L232.13666666666668,35.262727005915195L232.57,83.54273785244334L233.04666666666665,122.53124749118629L233.48000000000002,84.27606802095066L233.91333333333333,93.2062993808226L234.34666666666666,62.49275608496231L234.82333333333332,87.32723994688553L235.2566666666667,44.40020777962425L235.69,144.67805970798835L236.12333333333333,113.21581434119828L236.6,116.73344815319231L237.03333333333333,89.83292032371865L237.46666666666667,70.32947250387883L237.94333333333333,117.25766016678375" style="fill: none;" fill="none"></path></g><g><path stroke="rgb(255, 112, 67)" stroke-width="2px" d="M22.143333333333334,85.10036368261683L22.576666666666668,35.78434689478442L23.009999999999998,102.32195808128874L23.486666666666668,204.5309429277073L23.919999999999998,57.82415861433202L24.35333333333333,36.3861418041316L24.830000000000002,49.74902700294146L25.263333333333332,85.07432187145405L25.696666666666665,87.1640566533262L26.173333333333332,131.17893725633618L26.606666666666666,120.23860359733752L27.04,81.91229140216653L27.516666666666666,128.2423010739413L27.95,139.1722059520808L28.383333333333333,125.06236685947937L28.81666666666667,166.6115943139249L29.293333333333333,156.3721591234207L29.726666666666667,114.8691679401831L30.16,45.176639556884766L30.636666666666667,92.97584140842609L31.07,114.8832739212296L31.503333333333334,145.59645552526817L31.936666666666667,144.91731884804636L32.413333333333334,108.77194805578749L32.846666666666664,97.11299302903087L33.28,85.10373947295274L33.75666666666667,98.05556191639465L34.190000000000005,4.353749562393546L34.62333333333333,90.1242630861022L35.1,88.33268292925572L35.53333333333333,135.85844576358792L35.96666666666667,117.27224840359253L36.400000000000006,71.55078522183676L36.876666666666665,94.45160432295364L37.309999999999995,102.2909128665924L37.74333333333333,67.53630741076034L38.17666666666667,59.13945092396301L38.653333333333336,72.60234391147439L39.08666666666667,110.90954672206529L39.519999999999996,147.3428844863718L39.99666666666666,68.54584956710988L40.43,93.62152159214018L40.86333333333334,48.02851928906006L41.34,54.318279786543414L41.77333333333333,114.09725731069389L42.20666666666666,45.95005723563108L42.64,72.98760598356073L43.11666666666667,116.37657888910985L43.550000000000004,122.74530876766548L43.983333333333334,112.49375690113412L44.46,93.23656092990527L44.89333333333333,121.35972768068311L45.32666666666667,81.18939001451838L45.76,47.834773036566645L46.23666666666667,122.09185220978473L46.67,86.2547634135593L47.10333333333333,33.171304328875095L47.58,120.9667495164004L48.013333333333335,82.64097985896196L48.446666666666665,80.65637683326547L48.88,54.6380756389011L49.35666666666666,34.74309642206538L49.79,102.04496242783284L50.22333333333333,94.18943803418765L50.7,46.30560029636729L51.13333333333333,101.47897500883447L51.56666666666667,78.32147527824748L52,73.2662292502143L52.47666666666667,59.2101013931361L52.91,143.3133964646946L53.343333333333334,125.59429496526715L53.82,214.8055225068872L54.25333333333333,113.47575019706376L54.68666666666667,96.8252069028941L55.12,68.02169783548874L55.596666666666664,33.30121197483757L56.03,109.05328401110387L56.46333333333334,93.47588035193355L56.94,105.7067304307764L57.373333333333335,112.65989401123738L57.806666666666665,72.8480532223528L58.28333333333333,68.06359380483626L58.71666666666667,45.18966046246615L59.15,87.55721566351976L59.58333333333333,126.92833496765655L60.06,85.57562673633747L60.49333333333333,114.155610257929L60.92666666666667,73.31005424261092L61.36,88.21229983459818L61.836666666666666,82.95396384867753L62.269999999999996,51.32057796825062L62.70333333333333,71.89493499018927L63.18,121.69941658323458L63.61333333333334,103.04606510834257L64.04666666666667,114.83420439741826L64.48,125.66416176882655L64.95666666666666,33.5654881325635L65.39,99.0276086872274L65.82333333333332,76.76342747428198L66.3,119.49828072027725L66.73333333333333,142.59718637574798L67.16666666666667,89.47918572209096L67.60000000000001,78.61842426386745L68.07666666666665,97.57849040356548L68.51,114.32500259442762L68.94333333333333,149.22910733656445L69.42,155.68771763281384L69.85333333333334,114.0483083508231L70.28666666666666,152.09063218398524L70.72,59.6874743158167L71.19666666666666,81.99873574755406L71.63000000000001,126.98644678701051L72.06333333333333,89.01139763268556L72.49666666666667,78.99084627628325L72.97333333333333,105.89770371263675L73.40666666666667,75.26584248651157L73.83999999999999,10.609752156517715L74.31666666666666,100.21251109513368L74.75,107.70706705071707L75.18333333333334,88.82518662647766L75.61666666666666,105.5300439758734L76.09333333333333,78.07052143595433L76.52666666666667,83.5222419825467L76.96,120.03448884595521L77.39333333333335,82.25752624598415L77.86999999999999,104.8783355951309L78.30333333333334,126.02229695428498L78.73666666666666,138.78664247014302L79.21333333333332,49.26622870293531L79.64666666666668,84.3830685182051L80.08,63.942356624386505L80.55666666666667,105.5506604097106L80.99,87.36075672236353L81.42333333333333,75.57605350559407L81.85666666666667,108.25388480316506L82.33333333333333,24.268561547452748L82.76666666666668,49.14891998876223L83.2,71.81922083551233L83.67666666666668,115.15134784308344L84.11,75.29664657332678L84.54333333333334,113.11912206086244L84.97666666666666,77.73499198935247L85.45333333333333,71.51051686568691L85.88666666666666,124.24452136863358L86.32000000000001,132.31272055344147L86.79666666666667,89.13587990132244L87.23,62.12702537124807L87.66333333333334,17.63754481619054L88.09666666666666,97.6226770877838L88.57333333333334,110.93148935924874L89.00666666666666,70.36877634850414L89.44,102.03224293210287L89.91666666666667,106.43023463812739L90.35,66.1307127096436L90.78333333333333,146.15086880597198L91.21666666666667,72.49166621403259L91.69333333333334,60.789308168671326L92.12666666666667,93.7015760486776L92.56,80.91709635474463L93.03666666666666,32.06651665947655L93.47,27.815612960945458L93.90333333333334,111.22017971493979L94.33666666666667,108.00214729525824L94.81333333333333,62.9633171450008L95.24666666666667,98.97443998943673L95.67999999999999,137.44464524767614L96.15666666666667,119.15437207980588L96.59,111.84849869121201L97.02333333333333,120.1158695058389L97.5,59.463888488032595L97.93333333333332,66.62544683976607L98.36666666666667,93.63683321259236L98.8,155.4673870314251L99.27666666666667,96.61379803310739L99.71000000000001,136.04640494693405L100.14333333333333,142.32157720760864L100.57666666666665,115.69346360184926L101.05333333333333,48.66075659340078L101.48666666666666,111.08816220001738L101.92,89.70144534652881L102.39666666666666,111.89202227375722L102.83,39.47836575183001L103.26333333333334,72.39678239280526L103.69666666666666,108.51918575438584L104.17333333333333,89.10694455558603L104.60666666666667,80.9447054971348L105.04,93.89761301604183L105.51666666666667,71.83694373477589L105.94999999999999,52.351399660110474L106.38333333333334,67.55113677545027L106.81666666666666,66.82118239727886L107.29333333333334,101.24924042008138L107.72666666666666,94.31030338460747L108.16,98.67779241366817L108.59333333333333,141.18279050696975L109.07,96.95011114532295L109.50333333333334,54.74103724414651L109.93666666666667,60.84995183077724L110.41333333333334,71.78594518791544L110.84666666666666,69.14505235173483L111.28,119.1160930286754L111.75666666666667,82.56725500930439L112.19,131.51410501111633L112.62333333333332,132.77857961979777L113.05666666666667,84.15206800807606L113.53333333333333,69.21564253893764L113.96666666666667,76.0559582710266L114.4,-4.362661648880362L114.87666666666668,72.83093314279209L115.31,83.60838491808283L115.74333333333333,67.04862627116115L116.17666666666668,85.24088095534931L116.65333333333334,127.81749402934852L117.08666666666666,121.19190267541188L117.52000000000001,105.47108820893546L117.95333333333333,85.98246975378555L118.43,117.43880748748776L118.86333333333333,93.61742241816086L119.29666666666667,108.06484054435381L119.77333333333334,36.96581323038447L120.20666666666666,105.12898802757262L120.64,117.16157070615071L121.11666666666666,-24.074986495754928L121.55000000000001,157.8811976855451L121.98333333333333,78.33540041338313L122.41666666666667,118.29655964266166L122.89333333333333,37.84816042943433L123.32666666666667,85.48032094131815L123.75999999999999,85.79354605891486L124.23666666666666,106.88873930410902L124.67,99.04551243240181L125.10333333333334,121.71279918063767L125.58,128.36684362454844L126.01333333333334,70.52773990414357L126.44666666666667,99.48617363517933L126.88,56.948141022162005L127.35666666666667,81.54523448510601L127.78999999999999,108.4060364961624L128.22333333333333,70.1662892103195L128.65666666666667,171.3871922818097L129.13333333333333,29.712566001848728L129.56666666666666,115.54932941089976L130,137.3718246275728L130.43333333333334,91.82059772989965L130.91,98.51503109390083L131.34333333333333,115.86918554522771L131.77666666666667,102.7995118498802L132.25333333333336,94.37522706660356L133.03333333333336,89.18633591045031L133.46666666666667,130.62603102488947L133.9,87.6074908267368L134.37666666666667,99.73592183806677L134.81,97.7005011114207L135.24333333333334,82.90290501984681L135.67666666666668,84.62600485845043L136.1533333333333,113.81543909961525L136.58666666666667,55.575761686671854L137.02,73.60296433622186L137.49666666666667,86.7591426589272L137.93,44.93780239061874L138.36333333333334,72.06245858560908L138.79666666666668,78.49870427088302L139.2733333333333,99.3030972914262L139.70666666666668,60.91517692262475L140.14000000000001,81.59044596281917L140.61666666666667,82.75943393057041L141.04999999999998,78.48387490619312L141.48333333333335,121.64118419994004L141.91666666666666,129.52558365735138L142.39333333333332,85.61631706627931L142.82666666666668,165.90707892721346L143.26000000000002,70.30397323044862L143.73666666666665,67.91939933191645L144.17,102.61082928289065L144.60333333333335,43.74614840204063L145.03666666666666,111.19184718890621L145.51333333333332,64.77575486356561L145.94666666666666,42.96398983760312L146.38,36.77725122733548L146.81333333333333,79.88940932533956L147.29,114.61803325197911L147.72333333333336,78.24841353026302L148.15666666666667,99.73338999531484L148.63333333333333,35.153737203641384L149.06666666666666,61.1702902208675L149.5,98.17323232238941L149.93333333333334,117.31221534989095L150.41,98.3693898536942L150.84333333333333,74.63372574611141L151.27666666666667,49.82431918382645L151.75333333333333,80.63081727786495L152.18666666666667,104.05397965149443L152.62,21.74654475667259L153.05333333333334,60.73879187757318L153.53,119.29344258525151L153.9633333333333,86.87054374001241L154.39666666666668,70.54654787887226L154.83,62.76631566611202L155.30666666666667,36.728724241256714L155.73999999999998,93.67107337171379L156.17333333333335,96.10182325948367L156.65,66.42585323615508L157.08333333333331,77.45371631600638L157.51666666666668,97.4761316180229L157.95000000000002,67.10438709367405L158.42666666666665,126.2706586718559L158.85999999999999,138.52091954513025L159.29333333333335,85.17378712242298L159.77,115.78593614426524L160.20333333333332,71.3953783024441L160.63666666666666,103.95638314160432L161.07000000000002,118.1335571950132L161.54666666666665,78.98156285285948L161.98,68.09964242306621L162.41333333333336,116.29531879316676L162.84666666666666,69.645452987064L163.32333333333332,119.68376834284172L163.75666666666666,93.46189493482761L164.19,93.14487205310299L164.66666666666666,128.03957280787552L165.1,89.32462275028227L165.53333333333336,116.5053411776369L165.96666666666667,111.72703052108936L166.44333333333333,113.69674390012565L166.87666666666667,110.62796963886778L167.31,66.18719691579992L167.78666666666666,133.39206923138008L168.22,68.56604402715509L168.6533333333333,136.7457360842011L169.08666666666667,38.539715192534715L169.56333333333333,90.51573420112781L169.99666666666667,92.05177908593957L170.43,106.68233383785592L170.90666666666667,155.37443223324686L171.34,72.7445490793748L171.7733333333333,70.92897669835521L172.20666666666668,88.62589443271808L172.68333333333334,86.02954997257751L173.11666666666667,80.56981192393734L173.54999999999998,120.55641014467582L174.02666666666667,64.13483695550399L174.46,142.58995253931388L174.89333333333332,83.29919869249515L175.32666666666668,128.60646445642814L175.80333333333334,116.80108452385119L176.23666666666665,100.93764291568233L176.67,109.5648970929059L177.14666666666668,137.9716905138709L177.58,114.37666424296117L178.01333333333332,65.70614679293197L178.44666666666666,145.1450641317801L178.92333333333335,142.9782889918847L179.35666666666665,153.93821429122573L179.79,62.79085042801769L180.26666666666668,95.71276342326942L180.7,95.97685873508452L181.13333333333333,70.55824258110738L181.56666666666666,103.38225765661757L182.04333333333335,107.06789731979369L182.47666666666666,139.08624386245552L182.91,69.24090068448673L183.38666666666668,77.68085878003727L183.82,104.43496170369059L184.25333333333333,97.04716511748052L184.68666666666667,56.18280112743376L185.16333333333333,142.0903958515687L185.59666666666666,41.40732851895419L186.03,77.90149079127742L186.4633333333333,70.36503886634652L186.94,96.47587288509713L187.37333333333333,61.49472778493707L187.80666666666667,94.52442494305696L188.23999999999998,54.199403741142945L188.71666666666667,81.20452078905971L189.15,104.23838219859381L189.58333333333331,12.445940971374512L190.06,105.2343609116294L190.49333333333334,81.9784207235683L190.92666666666665,38.75877987254748L191.35999999999999,31.533624042164178L191.83666666666667,80.13222510164432L192.27,80.27244096452539L192.70333333333332,33.07979629798368L193.13666666666666,57.69509491595353L193.61333333333334,93.06988128206945L194.04666666666665,137.12020768360657L194.48,124.40601676702497L194.95666666666668,24.348616003990173L195.39,92.16215537352993L195.82333333333332,30.389532528140336L196.25666666666666,83.25905090028589L196.73333333333335,83.97001645781775L197.16666666666666,69.04968627474523L197.6,105.51418981768866L198.07666666666668,127.6317049969326L198.51,107.95850314877248L198.94333333333333,132.09793589331883L199.37666666666667,46.82113170623779L199.85333333333335,26.896132068200558L200.28666666666666,40.00107071616432L200.72,53.06549988009711L201.1533333333333,70.09099702943455L201.63,63.59826713800429L202.06333333333333,99.99826897274362L202.49666666666667,67.0751503380862L202.97333333333333,104.26062624562869L203.40666666666667,108.67097575556146L203.84,75.0058463486758L204.3166666666667,78.22767653248525L204.75,83.5333941470493L205.18333333333334,50.531848669052124L205.61666666666667,-9.265695701945901L206.09333333333333,113.29598936167628L206.52666666666667,74.3850023367188L206.96,56.00478846918452L207.43666666666667,59.2505505951968L207.87,114.63611784306437L208.30333333333334,36.193661473014146L208.73666666666665,108.90914982015434L209.21333333333334,98.77050608396529L209.64666666666668,97.97773789275774L210.08,114.77536919442088L210.51333333333332,70.11583320119162L210.99,91.4155028895898L211.42333333333335,69.6382191506299L211.85666666666665,47.34449977224523L212.33333333333334,148.03455981341273L212.76666666666668,124.62960259480909L213.2,114.93577951734713L213.63333333333333,64.87256770784204L214.11,112.43787551468067L214.54333333333335,127.83569918437433L214.97666666666666,92.48038389466024L215.41,107.21830083565276L215.88666666666668,136.71354551206932L216.32,112.33485362746497L216.75333333333333,64.64470186016774L217.23000000000002,109.86576440659434L217.66333333333333,96.16982132196425L218.09666666666666,115.53751414472404L218.53,85.91971622271969L219.0066666666667,53.2132509892637L219.44,60.619614422321305L219.87333333333333,63.218068751421825L220.30666666666667,54.23225741494785L220.78333333333333,96.63507756861772L221.21666666666667,140.36639178341082L221.65,127.87198893048543L222.12666666666667,101.93850446831094L222.56,35.25525204159996L222.99333333333334,73.39993466030467L223.42666666666665,166.51496231555936L223.90333333333334,140.3100281411951L224.33666666666667,91.96865024891765L224.77,112.31544283303346L225.20333333333332,78.5434334928339L225.68,69.3955239382657L226.11333333333334,66.19123580780895L226.54666666666665,141.90635499629104L227.02333333333334,107.38672866062682L227.45666666666668,144.1285292668776L227.89,51.69517013159664L228.32333333333332,116.00897943431679L228.8,76.882846057415L229.23333333333335,80.53744050589474L229.66666666666666,93.07747681032525L230.14333333333332,29.432857659730047L230.57666666666668,52.23041374575007L231.01,110.43886509808625L231.44333333333333,81.77183441140433L231.92000000000002,67.75344306772405L232.35333333333335,61.122366054491565L232.78666666666666,76.81219558824192L233.22,35.86934447288513L233.6966666666667,57.485795915126786L234.13,54.910791272466824L234.56333333333333,75.22479046474803L235.04000000000002,121.81775009090248L235.47333333333333,75.41926010088486L235.90666666666667,115.20017623901364L236.34,77.42038038643922L236.8166666666667,50.59767658060247L237.25,128.48137936808843L237.68333333333334,110.9312482313676L238.16,101.58386563712898" style="fill: none;" fill="none"></path></g></g></g></g></g></g><g transform="translate(70, 178)" clip-path="url(#clip_1)"><clipPath id="clip_1"><rect width="260" height="22"></rect></clipPath><g><g><line x1="0" y1="0" x2="0" y2="5" style="visibility: inherit;" fill="rgb(0, 0, 0)" stroke="rgb(204, 204, 204)" stroke-width="1px"></line><line x1="21.666666666666664" y1="0" x2="21.666666666666664" y2="5" style="visibility: inherit;" fill="rgb(0, 0, 0)" stroke="rgb(204, 204, 204)" stroke-width="1px"></line><line x1="43.33333333333333" y1="0" x2="43.33333333333333" y2="5" style="visibility: inherit;" fill="rgb(0, 0, 0)" stroke="rgb(204, 204, 204)" stroke-width="1px"></line><line x1="65" y1="0" x2="65" y2="5" style="visibility: inherit;" fill="rgb(0, 0, 0)" stroke="rgb(204, 204, 204)" stroke-width="1px"></line><line x1="86.66666666666666" y1="0" x2="86.66666666666666" y2="5" style="visibility: inherit;" fill="rgb(0, 0, 0)" stroke="rgb(204, 204, 204)" stroke-width="1px"></line><line x1="108.33333333333334" y1="0" x2="108.33333333333334" y2="5" style="visibility: inherit;" fill="rgb(0, 0, 0)" stroke="rgb(204, 204, 204)" stroke-width="1px"></line><line x1="130" y1="0" x2="130" y2="5" style="visibility: inherit;" fill="rgb(0, 0, 0)" stroke="rgb(204, 204, 204)" stroke-width="1px"></line><line x1="151.66666666666669" y1="0" x2="151.66666666666669" y2="5" style="visibility: inherit;" fill="rgb(0, 0, 0)" stroke="rgb(204, 204, 204)" stroke-width="1px"></line><line x1="173.33333333333331" y1="0" x2="173.33333333333331" y2="5" style="visibility: inherit;" fill="rgb(0, 0, 0)" stroke="rgb(204, 204, 204)" stroke-width="1px"></line><line x1="195" y1="0" x2="195" y2="5" style="visibility: inherit;" fill="rgb(0, 0, 0)" stroke="rgb(204, 204, 204)" stroke-width="1px"></line><line x1="216.66666666666669" y1="0" x2="216.66666666666669" y2="5" style="visibility: inherit;" fill="rgb(0, 0, 0)" stroke="rgb(204, 204, 204)" stroke-width="1px"></line><line x1="238.33333333333331" y1="0" x2="238.33333333333331" y2="5" style="visibility: inherit;" fill="rgb(0, 0, 0)" stroke="rgb(204, 204, 204)" stroke-width="1px"></line><line x1="260" y1="0" x2="260" y2="5" style="visibility: inherit;" fill="rgb(0, 0, 0)" stroke="rgb(204, 204, 204)" stroke-width="1px"></line></g><g transform="translate(0, 8)"><text x="0" y="0" dx="0em" dy="0.95em" style="text-anchor: middle; visibility: hidden; font-family: &quot;Helvetica Neue&quot;, sans-serif; font-size: 12px; font-weight: 200;" fill="rgb(50, 49, 63)" stroke="none" stroke-width="1px">-5M</text><text x="21.666666666666664" y="0" dx="0em" dy="0.95em" style="text-anchor: middle; visibility: inherit; font-family: &quot;Helvetica Neue&quot;, sans-serif; font-size: 12px; font-weight: 200;" fill="rgb(50, 49, 63)" stroke="none" stroke-width="1px">0</text><text x="43.33333333333333" y="0" dx="0em" dy="0.95em" style="text-anchor: middle; visibility: hidden; font-family: &quot;Helvetica Neue&quot;, sans-serif; font-size: 12px; font-weight: 200;" fill="rgb(50, 49, 63)" stroke="none" stroke-width="1px">5M</text><text x="65" y="0" dx="0em" dy="0.95em" style="text-anchor: middle; visibility: inherit; font-family: &quot;Helvetica Neue&quot;, sans-serif; font-size: 12px; font-weight: 200;" fill="rgb(50, 49, 63)" stroke="none" stroke-width="1px">10M</text><text x="86.66666666666666" y="0" dx="0em" dy="0.95em" style="text-anchor: middle; visibility: hidden; font-family: &quot;Helvetica Neue&quot;, sans-serif; font-size: 12px; font-weight: 200;" fill="rgb(50, 49, 63)" stroke="none" stroke-width="1px">15M</text><text x="108.33333333333334" y="0" dx="0em" dy="0.95em" style="text-anchor: middle; visibility: inherit; font-family: &quot;Helvetica Neue&quot;, sans-serif; font-size: 12px; font-weight: 200;" fill="rgb(50, 49, 63)" stroke="none" stroke-width="1px">20M</text><text x="130" y="0" dx="0em" dy="0.95em" style="text-anchor: middle; visibility: hidden; font-family: &quot;Helvetica Neue&quot;, sans-serif; font-size: 12px; font-weight: 200;" fill="rgb(50, 49, 63)" stroke="none" stroke-width="1px">25M</text><text x="151.66666666666669" y="0" dx="0em" dy="0.95em" style="text-anchor: middle; visibility: inherit; font-family: &quot;Helvetica Neue&quot;, sans-serif; font-size: 12px; font-weight: 200;" fill="rgb(50, 49, 63)" stroke="none" stroke-width="1px">30M</text><text x="173.33333333333331" y="0" dx="0em" dy="0.95em" style="text-anchor: middle; visibility: hidden; font-family: &quot;Helvetica Neue&quot;, sans-serif; font-size: 12px; font-weight: 200;" fill="rgb(50, 49, 63)" stroke="none" stroke-width="1px">35M</text><text x="195" y="0" dx="0em" dy="0.95em" style="text-anchor: middle; visibility: inherit; font-family: &quot;Helvetica Neue&quot;, sans-serif; font-size: 12px; font-weight: 200;" fill="rgb(50, 49, 63)" stroke="none" stroke-width="1px">40M</text><text x="216.66666666666669" y="0" dx="0em" dy="0.95em" style="text-anchor: middle; visibility: hidden; font-family: &quot;Helvetica Neue&quot;, sans-serif; font-size: 12px; font-weight: 200;" fill="rgb(50, 49, 63)" stroke="none" stroke-width="1px">45M</text><text x="238.33333333333331" y="0" dx="0em" dy="0.95em" style="text-anchor: middle; visibility: inherit; font-family: &quot;Helvetica Neue&quot;, sans-serif; font-size: 12px; font-weight: 200;" fill="rgb(50, 49, 63)" stroke="none" stroke-width="1px">50M</text><text x="260" y="0" dx="0em" dy="0.95em" style="text-anchor: middle; visibility: hidden; font-family: &quot;Helvetica Neue&quot;, sans-serif; font-size: 12px; font-weight: 200;" fill="rgb(50, 49, 63)" stroke="none" stroke-width="1px">55M</text></g><line x1="0" y1="0" x2="260" y2="0" fill="rgb(0, 0, 0)" stroke="rgb(204, 204, 204)" stroke-width="1px"></line></g></g></g></g></svg>