<svg viewBox="0 0 330 200" xmlns="http://www.w3.org/2000/svg"><g><g><g><g><g><line x1="50" y1="178" x2="45" y2="178" style="visibility: inherit;" fill="rgb(0, 0, 0)" stroke="rgb(204, 204, 204)" stroke-width="1px"></line><line x1="50" y1="163.16666666666666" x2="45" y2="163.16666666666666" style="visibility: inherit;" fill="rgb(0, 0, 0)" stroke="rgb(204, 204, 204)" stroke-width="1px"></line><line x1="50" y1="148.33333333333334" x2="45" y2="148.33333333333334" style="visibility: inherit;" fill="rgb(0, 0, 0)" stroke="rgb(204, 204, 204)" stroke-width="1px"></line><line x1="50" y1="133.5" x2="45" y2="133.5" style="visibility: inherit;" fill="rgb(0, 0, 0)" stroke="rgb(204, 204, 204)" stroke-width="1px"></line><line x1="50" y1="118.66666666666667" x2="45" y2="118.66666666666667" style="visibility: inherit;" fill="rgb(0, 0, 0)" stroke="rgb(204, 204, 204)" stroke-width="1px"></line><line x1="50" y1="103.83333333333333" x2="45" y2="103.83333333333333" style="visibility: inherit;" fill="rgb(0, 0, 0)" stroke="rgb(204, 204, 204)" stroke-width="1px"></line><line x1="50" y1="89" x2="45" y2="89" style="visibility: inherit;" fill="rgb(0, 0, 0)" stroke="rgb(204, 204, 204)" stroke-width="1px"></line><line x1="50" y1="74.16666666666666" x2="45" y2="74.16666666666666" style="visibility: inherit;" fill="rgb(0, 0, 0)" stroke="rgb(204, 204, 204)" stroke-width="1px"></line><line x1="50" y1="59.333333333333314" x2="45" y2="59.333333333333314" style="visibility: inherit;" fill="rgb(0, 0, 0)" stroke="rgb(204, 204, 204)" stroke-width="1px"></line><line x1="50" y1="44.5" x2="45" y2="44.5" style="visibility: inherit;" fill="rgb(0, 0, 0)" stroke="rgb(204, 204, 204)" stroke-width="1px"></line><line x1="50" y1="29.666666666666657" x2="45" y2="29.666666666666657" style="visibility: inherit;" fill="rgb(0, 0, 0)" stroke="rgb(204, 204, 204)" stroke-width="1px"></line><line x1="50" y1="14.833333333333314" x2="45" y2="14.833333333333314" style="visibility: inherit;" fill="rgb(0, 0, 0)" stroke="rgb(204, 204, 204)" stroke-width="1px"></line><line x1="50" y1="0" x2="45" y2="0" style="visibility: inherit;" fill="rgb(0, 0, 0)" stroke="rgb(204, 204, 204)" stroke-width="1px"></line></g><g transform="translate(40, 0)"><text x="0" y="178" dx="0em" dy="0.3em" style="text-anchor: end; visibility: hidden; font-family: &quot;Helvetica Neue&quot;, sans-serif; font-size: 12px; font-weight: 200;" fill="rgb(50, 49, 63)" stroke="none" stroke-width="1px">-1.2</text><text x="0" y="163.16666666666666" dx="0em" dy="0.3em" style="text-anchor: end; visibility: inherit; font-family: &quot;Helvetica Neue&quot;, sans-serif; font-size: 12px; font-weight: 200;" fill="rgb(50, 49, 63)" stroke="none" stroke-width="1px">-1</text><text x="0" y="148.33333333333334" dx="0em" dy="0.3em" style="text-anchor: end; visibility: hidden; font-family: &quot;Helvetica Neue&quot;, sans-serif; font-size: 12px; font-weight: 200;" fill="rgb(50, 49, 63)" stroke="none" stroke-width="1px">-0.8</text><text x="0" y="133.5" dx="0em" dy="0.3em" style="text-anchor: end; visibility: inherit; font-family: &quot;Helvetica Neue&quot;, sans-serif; font-size: 12px; font-weight: 200;" fill="rgb(50, 49, 63)" stroke="none" stroke-width="1px">-0.6</text><text x="0" y="118.66666666666667" dx="0em" dy="0.3em" style="text-anchor: end; visibility: hidden; font-family: &quot;Helvetica Neue&quot;, sans-serif; font-size: 12px; font-weight: 200;" fill="rgb(50, 49, 63)" stroke="none" stroke-width="1px">-0.4</text><text x="0" y="103.83333333333333" dx="0em" dy="0.3em" style="text-anchor: end; visibility: inherit; font-family: &quot;Helvetica Neue&quot;, sans-serif; font-size: 12px; font-weight: 200;" fill="rgb(50, 49, 63)" stroke="none" stroke-width="1px">-0.2</text><text x="0" y="89" dx="0em" dy="0.3em" style="text-anchor: end; visibility: hidden; font-family: &quot;Helvetica Neue&quot;, sans-serif; font-size: 12px; font-weight: 200;" fill="rgb(50, 49, 63)" stroke="none" stroke-width="1px">0</text><text x="0" y="74.16666666666666" dx="0em" dy="0.3em" style="text-anchor: end; visibility: inherit; font-family: &quot;Helvetica Neue&quot;, sans-serif; font-size: 12px; font-weight: 200;" fill="rgb(50, 49, 63)" stroke="none" stroke-width="1px">0.2</text><text x="0" y="59.333333333333314" dx="0em" dy="0.3em" style="text-anchor: end; visibility: hidden; font-family: &quot;Helvetica Neue&quot;, sans-serif; font-size: 12px; font-weight: 200;" fill="rgb(50, 49, 63)" stroke="none" stroke-width="1px">0.4</text><text x="0" y="44.5" dx="0em" dy="0.3em" style="text-anchor: end; visibility: inherit; font-family: &quot;Helvetica Neue&quot;, sans-serif; font-size: 12px; font-weight: 200;" fill="rgb(50, 49, 63)" stroke="none" stroke-width="1px">0.6</text><text x="0" y="29.666666666666657" dx="0em" dy="0.3em" style="text-anchor: end; visibility: hidden; font-family: &quot;Helvetica Neue&quot;, sans-serif; font-size: 12px; font-weight: 200;" fill="rgb(50, 49, 63)" stroke="none" stroke-width="1px">0.8</text><text x="0" y="14.833333333333314" dx="0em" dy="0.3em" style="text-anchor: end; visibility: inherit; font-family: &quot;Helvetica Neue&quot;, sans-serif; font-size: 12px; font-weight: 200;" fill="rgb(50, 49, 63)" stroke="none" stroke-width="1px">1</text><text x="0" y="0" dx="0em" dy="0.3em" style="text-anchor: end; visibility: hidden; font-family: &quot;Helvetica Neue&quot;, sans-serif; font-size: 12px; font-weight: 200;" fill="rgb(50, 49, 63)" stroke="none" stroke-width="1px">1.2</text></g><line x1="50" y1="0" x2="50" y2="178" fill="rgb(0, 0, 0)" stroke="rgb(204, 204, 204)" stroke-width="1px"></line></g></g><g transform="translate(50, 0)" clip-path="url(#clip_0)"><clipPath id="clip_0"><rect width="280" height="178"></rect></clipPath><g><g><g><line x1="0" y1="0" x2="0" y2="178" fill="rgb(0, 0, 0)" stroke="rgb(60, 60, 60)" stroke-width="1px" opacity="0.25"></line><line x1="23.333333333333332" y1="0" x2="23.333333333333332" y2="178" fill="rgb(0, 0, 0)" stroke="rgb(60, 60, 60)" stroke-width="1px" opacity="0.25"></line><line x1="46.666666666666664" y1="0" x2="46.666666666666664" y2="178" fill="rgb(0, 0, 0)" stroke="rgb(60, 60, 60)" stroke-width="1px" opacity="0.25"></line><line x1="70" y1="0" x2="70" y2="178" fill="rgb(0, 0, 0)" stroke="rgb(60, 60, 60)" stroke-width="1px" opacity="0.25"></line><line x1="93.33333333333333" y1="0" x2="93.33333333333333" y2="178" fill="rgb(0, 0, 0)" stroke="rgb(60, 60, 60)" stroke-width="1px" opacity="0.25"></line><line x1="116.66666666666667" y1="0" x2="116.66666666666667" y2="178" fill="rgb(0, 0, 0)" stroke="rgb(60, 60, 60)" stroke-width="1px" opacity="0.25"></line><line x1="140" y1="0" x2="140" y2="178" fill="rgb(0, 0, 0)" stroke="rgb(60, 60, 60)" stroke-width="1px" opacity="0.25"></line><line x1="163.33333333333334" y1="0" x2="163.33333333333334" y2="178" fill="rgb(0, 0, 0)" stroke="rgb(60, 60, 60)" stroke-width="1px" opacity="0.25"></line><line x1="186.66666666666666" y1="0" x2="186.66666666666666" y2="178" fill="rgb(0, 0, 0)" stroke="rgb(60, 60, 60)" stroke-width="1px" opacity="0.25"></line><line x1="210" y1="0" x2="210" y2="178" fill="rgb(0, 0, 0)" stroke="rgb(60, 60, 60)" stroke-width="1px" opacity="0.25"></line><line x1="233.33333333333334" y1="0" x2="233.33333333333334" y2="178" fill="rgb(0, 0, 0)" stroke="rgb(60, 60, 60)" stroke-width="1px" opacity="0.25"></line><line x1="256.66666666666663" y1="0" x2="256.66666666666663" y2="178" fill="rgb(0, 0, 0)" stroke="rgb(60, 60, 60)" stroke-width="1px" opacity="0.25"></line><line x1="280" y1="0" x2="280" y2="178" fill="rgb(0, 0, 0)" stroke="rgb(60, 60, 60)" stroke-width="1px" opacity="0.25"></line></g><g><line x1="0" y1="178" x2="280" y2="178" fill="rgb(0, 0, 0)" stroke="rgb(60, 60, 60)" stroke-width="1px" opacity="0.25"></line><line x1="0" y1="163.16666666666666" x2="280" y2="163.16666666666666" fill="rgb(0, 0, 0)" stroke="rgb(60, 60, 60)" stroke-width="1px" opacity="0.25"></line><line x1="0" y1="148.33333333333334" x2="280" y2="148.33333333333334" fill="rgb(0, 0, 0)" stroke="rgb(60, 60, 60)" stroke-width="1px" opacity="0.25"></line><line x1="0" y1="133.5" x2="280" y2="133.5" fill="rgb(0, 0, 0)" stroke="rgb(60, 60, 60)" stroke-width="1px" opacity="0.25"></line><line x1="0" y1="118.66666666666667" x2="280" y2="118.66666666666667" fill="rgb(0, 0, 0)" stroke="rgb(60, 60, 60)" stroke-width="1px" opacity="0.25"></line><line x1="0" y1="103.83333333333333" x2="280" y2="103.83333333333333" fill="rgb(0, 0, 0)" stroke="rgb(60, 60, 60)" stroke-width="1px" opacity="0.25"></line><line x1="0" y1="89" x2="280" y2="89" fill="rgb(0, 0, 0)" stroke="rgb(60, 60, 60)" stroke-width="1px" opacity="0.25"></line><line x1="0" y1="74.16666666666666" x2="280" y2="74.16666666666666" fill="rgb(0, 0, 0)" stroke="rgb(60, 60, 60)" stroke-width="1px" opacity="0.25"></line><line x1="0" y1="59.333333333333314" x2="280" y2="59.333333333333314" fill="rgb(0, 0, 0)" stroke="rgb(60, 60, 60)" stroke-width="1px" opacity="0.25"></line><line x1="0" y1="44.5" x2="280" y2="44.5" fill="rgb(0, 0, 0)" stroke="rgb(60, 60, 60)" stroke-width="1px" opacity="0.25"></line><line x1="0" y1="29.666666666666657" x2="280" y2="29.666666666666657" fill="rgb(0, 0, 0)" stroke="rgb(60, 60, 60)" stroke-width="1px" opacity="0.25"></line><line x1="0" y1="14.833333333333314" x2="280" y2="14.833333333333314" fill="rgb(0, 0, 0)" stroke="rgb(60, 60, 60)" stroke-width="1px" opacity="0.25"></line><line x1="0" y1="0" x2="280" y2="0" fill="rgb(0, 0, 0)" stroke="rgb(60, 60, 60)" stroke-width="1px" opacity="0.25"></line></g></g></g><g><g><line x1="0" y1="89" x2="280" y2="89" fill="rgb(0, 0, 0)" stroke="rgb(153, 153, 153)" stroke-width="1.5px"></line></g></g><g><g><line x1="23.333333333333332" y1="0" x2="23.333333333333332" y2="178" fill="rgb(0, 0, 0)" stroke="rgb(153, 153, 153)" stroke-width="1.5px"></line></g></g><g><g><g><g><g><path stroke="rgb(0, 119, 187)" stroke-width="2px" d="M23.846666666666668,88.97775000326024L24.313333333333333,88.97775000326024L24.779999999999998,88.97775000326024L25.293333333333333,88.97775000326024L25.759999999999998,88.97775000326024L26.226666666666667,88.97775000326024L26.740000000000002,88.97775000326024L27.206666666666667,88.97775000326024L27.673333333333332,88.97775000326024L28.186666666666667,88.97775000326024L28.653333333333332,88.97775000326024L29.119999999999997,88.97775000326024L29.633333333333333,88.97775000326024L30.099999999999998,88.97775000326024L30.566666666666666,88.97775000326024L31.080000000000002,88.97775000326024L31.546666666666667,88.97775000326024L32.013333333333335,88.97775000326024L32.480000000000004,88.97775000326024L32.99333333333333,88.97775000326024L33.46,88.97775000326024L33.92666666666667,88.97775000326024L34.44,88.97775000326024L34.906666666666666,88.97775000326024L35.37333333333333,88.97775000326024L35.88666666666667,88.97775000326024L36.35333333333333,88.97775000326024L36.82,88.97775000326024L37.28666666666666,88.97775000326024L37.800000000000004,88.97775000326024L38.266666666666666,88.97775000326024L38.733333333333334,88.97775000326024L39.24666666666666,88.97775000326024L39.71333333333334,88.97775000326024L40.22666666666667,88.97775000326024L40.693333333333335,88.97775000326024L41.16,88.97775000326024L41.67333333333334,88.97775000326024L42.14,88.97775000326024L42.60666666666667,88.97775000326024L43.12,88.97775000326024L43.586666666666666,88.97775000326024L44.05333333333333,88.97775000326024L44.56666666666667,88.97775000326024L45.03333333333333,88.97775000326024L45.5,88.97775000326024L46.013333333333335,88.97775000326024L46.480000000000004,88.97775000326024L46.946666666666665,88.97775000326024L47.46,88.97775000326024L47.92666666666666,88.97775000326024L48.39333333333334,88.97775000326024L48.86,88.97775000326024L49.373333333333335,88.97775000326024L49.839999999999996,88.97775000326024L50.306666666666665,88.97775000326024L50.77333333333334,88.97775000326024L51.28666666666667,88.97775000326024L51.75333333333333,88.97775000326024L52.22,88.97775000326024L52.733333333333334,88.97775000326024L53.2,88.97775000326024L53.66666666666667,88.97775000326024L54.13333333333333,88.97775000326024L54.64666666666666,88.97775000326024L55.11333333333333,88.97775000326024L55.580000000000005,88.97775000326024L56.093333333333334,88.97775000326024L56.56,88.97775000326024L57.026666666666664,88.97775000326024L57.49333333333333,88.97775000326024L58.00666666666667,88.97775000326024L58.473333333333336,88.97775000326024L58.94,88.97775000326024L59.45333333333334,88.97775000326024L59.92,88.97775000326024L60.38666666666667,88.97775000326024L60.85333333333333,88.97775000326024L61.36666666666667,88.97775000326024L61.83333333333333,88.97775000326024L62.300000000000004,88.97775000326024L62.81333333333333,88.97775000326024L63.28,88.97775000326024L63.74666666666666,88.97775000326024L64.21333333333334,88.97775000326024L64.72666666666666,88.97775000326024L65.19333333333333,88.97775000326024L65.66,88.97775000326024L66.17333333333333,88.97775000326024L66.64,88.97775000326024L67.10666666666667,88.97775000326024L67.57333333333334,88.97775000326024L68.08666666666667,88.97775000326024L68.55333333333333,88.97775000326024L69.02,88.97775000326024L69.48666666666666,88.97775000326024L70,88.97775000326024L70.46666666666667,88.97775000326024L70.93333333333334,88.97775000326024L71.44666666666666,88.97775000326024L71.91333333333334,88.97775000326024L72.38,88.97775000326024L72.89333333333335,88.97775000326024L73.36,88.97775000326024L73.82666666666667,88.97775000326024L74.29333333333332,88.97775000326024L74.80666666666667,88.97775000326024L75.27333333333333,88.97775000326024L75.74000000000001,88.97775000326024L76.25333333333333,88.97775000326024L76.72,88.97775000326024L77.18666666666667,88.97775000326024L77.65333333333334,88.97775000326024L78.16666666666667,88.97775000326024L78.63333333333333,88.97775000326024L79.1,88.97775000326024L79.61333333333333,88.97775000326024L80.08,88.97775000326024L80.54666666666667,88.97775000326024L81.01333333333334,88.97775000326024L81.52666666666667,88.97775000326024L81.99333333333334,88.97775000326024L82.46,88.97775000326024L82.97333333333333,88.97775000326024L83.44,88.97775000326024L83.90666666666668,88.97775000326024L84.37333333333333,88.97775000326024L84.88666666666666,88.97775000326024L85.35333333333334,88.97775000326024L85.82,88.97775000326024L86.33333333333334,88.97775000326024L86.8,88.97775000326024L87.26666666666667,88.97775000326024L87.73333333333333,88.97775000326024L88.24666666666666,88.97775000326024L88.71333333333334,88.97775000326024L89.18,88.97775000326024L89.64666666666666,88.97775000326024L90.16,88.97775000326024L90.62666666666667,88.97775000326024L91.09333333333332,88.97775000326024L91.60666666666667,88.97775000326024L92.07333333333332,88.97775000326024L92.54,88.97775000326024L93.00666666666666,88.97775000326024L93.52000000000001,88.97775000326024L93.98666666666666,88.97775000326024L94.45333333333333,88.97775000326024L94.96666666666667,88.97775000326024L95.43333333333334,88.97775000326024L95.9,88.97775000326024L96.36666666666667,88.97775000326024L96.88,88.97775000326024L97.34666666666666,88.97775000326024L97.81333333333333,88.97775000326024L98.32666666666667,88.97775000326024L98.79333333333334,88.97775000326024L99.25999999999999,88.97775000326024L99.72666666666667,88.97775000326024L100.24,88.97775000326024L100.70666666666668,88.97775000326024L101.17333333333333,88.97775000326024L101.68666666666667,88.97775000326024L102.15333333333334,88.97775000326024L102.62,88.97775000326024L103.08666666666666,88.97775000326024L103.6,88.97775000326024L104.06666666666666,88.97775000326024L104.53333333333333,88.97775000326024L105.04666666666667,88.97775000326024L105.51333333333334,88.97775000326024L105.98,88.97775000326024L106.44666666666666,88.97775000326024L106.96000000000001,88.97775000326024L107.42666666666666,88.97775000326024L107.89333333333335,88.97775000326024L108.40666666666667,88.97775000326024L108.87333333333332,88.97775000326024L109.34,88.97775000326024L109.80666666666667,88.97775000326024L110.32000000000001,88.97775000326024L110.78666666666666,88.97775000326024L111.25333333333333,88.97775000326024L111.76666666666667,88.97775000326024L112.23333333333333,88.97775000326024L112.7,88.97775000326024L113.21333333333332,88.97775000326024L113.68,88.97775000326024L114.14666666666668,88.97775000326024L114.61333333333333,88.97775000326024L115.12666666666667,88.97775000326024L115.59333333333333,88.97775000326024L116.05999999999999,88.97775000326024L116.57333333333334,88.97775000326024L117.03999999999999,88.97775000326024L117.50666666666667,88.97775000326024L117.97333333333333,88.97775000326024L118.48666666666668,88.97775000326024L118.95333333333333,88.97775000326024L119.42,88.97775000326024L119.93333333333334,88.97775000326024L120.39999999999999,88.97775000326024L120.86666666666666,88.97775000326024L121.33333333333334,88.97775000326024L121.84666666666666,88.97775000326024L122.31333333333333,88.97775000326024L122.78,88.97775000326024L123.29333333333334,88.97775000326024L123.76,88.97775000326024L124.22666666666666,88.97775000326024L124.69333333333334,88.97775000326024L125.20666666666666,88.97775000326024L125.67333333333333,88.97775000326024L126.14,88.97775000326024L126.65333333333332,88.97775000326024L127.12,88.97775000326024L127.58666666666667,88.97775000326024L128.1,88.97775000326024L128.56666666666666,88.97775000326024L129.03333333333333,88.97775000326024L129.5,88.97775000326024L130.01333333333332,88.97775000326024L130.48000000000002,88.97775000326024L130.94666666666666,88.97775000326024L131.45999999999998,88.97775000326024L131.92666666666668,88.97775000326024L132.39333333333335,88.97775000326024L132.85999999999999,88.97775000326024L133.37333333333333,88.97775000326024L133.84,88.97775000326024L134.30666666666667,88.97775000326024L134.82,88.97775000326024L135.28666666666666,88.97775000326024L135.75333333333333,88.97775000326024L136.22,88.97775000326024L136.73333333333335,88.97775000326024L137.2,88.97775000326024L137.66666666666666,88.97775000326024L138.13333333333333,88.97775000326024L138.64666666666665,88.97775000326024L139.11333333333334,88.97775000326024L139.58,88.97775000326024L140.09333333333333,88.97775000326024L140.56,88.97775000326024L141.02666666666667,88.97775000326024L141.4933333333333,88.97775000326024L142.00666666666666,88.97775000326024L142.47333333333333,88.97775000326024L143.03333333333333,88.97775000326024L143.5,88.97775000326024L143.96666666666667,88.97775000326024L144.43333333333334,88.97775000326024L144.9466666666667,88.97775000326024L145.41333333333333,88.97775000326024L145.88,88.97775000326024L146.39333333333335,88.97775000326024L146.85999999999999,88.97775000326024L147.32666666666665,88.97775000326024L147.79333333333335,88.97775000326024L148.30666666666664,88.97775000326024L148.77333333333334,88.97775000326024L149.24,88.97775000326024L149.75333333333336,88.97775000326024L150.22,88.97775000326024L150.68666666666667,88.97775000326024L151.15333333333334,88.97775000326024L151.66666666666666,88.97775000326024L152.13333333333333,88.97775000326024L152.60000000000002,88.97775000326024L153.06666666666666,88.97775000326024L153.57999999999998,88.97775000326024L154.04666666666668,88.97775000326024L154.51333333333332,88.97775000326024L155.02666666666667,88.97775000326024L155.49333333333334,88.97775000326024L155.96,88.97775000326024L156.42666666666665,88.97775000326024L156.94,88.97775000326024L157.40666666666667,88.97775000326024L157.87333333333333,88.97775000326024L158.38666666666666,88.97775000326024L158.85333333333335,88.97775000326024L159.32,88.97775000326024L159.83333333333331,88.97775000326024L160.3,88.97775000326024L160.76666666666668,88.97775000326024L161.23333333333332,88.97775000326024L161.74666666666667,88.97775000326024L162.21333333333334,88.97775000326024L162.67999999999998,88.97775000326024L163.14666666666668,88.97775000326024L163.66,88.97775000326024L164.12666666666667,88.97775000326024L164.59333333333333,88.97775000326024L165.10666666666665,88.97775000326024L165.57333333333335,88.97775000326024L166.04,88.97775000326024L166.50666666666666,88.97775000326024L167.02,88.97775000326024L167.48666666666665,88.97775000326024L167.95333333333332,88.97775000326024L168.46666666666667,88.97775000326024L168.93333333333334,88.97775000326024L169.4,88.97775000326024L169.91333333333333,88.97775000326024L170.38000000000002,88.97775000326024L170.84666666666666,88.97775000326024L171.31333333333333,88.97775000326024L171.82666666666668,88.97775000326024L172.29333333333332,88.97775000326024L172.76,88.97775000326024L173.2266666666667,88.97775000326024L173.74,88.97775000326024L174.20666666666665,88.97775000326024L174.67333333333335,88.97775000326024L175.18666666666667,88.97775000326024L175.65333333333334,88.97775000326024L176.12,88.97775000326024L176.58666666666667,88.97775000326024L177.1,88.97775000326024L177.56666666666666,88.97775000326024L178.03333333333333,88.97775000326024L178.5,88.97775000326024L179.01333333333332,88.97775000326024L179.48000000000002,88.97775000326024L179.9466666666667,88.97775000326024L180.41333333333333,88.97775000326024L180.92666666666668,88.97775000326024L181.39333333333335,88.97775000326024L181.85999999999999,88.97775000326024L182.37333333333333,88.97775000326024L182.84,88.97775000326024L183.30666666666664,88.97775000326024L183.77333333333334,88.97775000326024L184.28666666666666,88.97775000326024L184.75333333333336,88.97775000326024L185.22,88.97775000326024L185.68666666666667,88.97775000326024L186.20000000000002,88.97775000326024L186.66666666666666,88.97775000326024L187.13333333333333,88.97775000326024L187.64666666666668,88.97775000326024L188.11333333333332,88.97775000326024L188.57999999999998,88.97775000326024L189.04666666666668,88.97775000326024L189.56,88.97775000326024L190.02666666666667,88.97775000326024L190.49333333333334,88.97775000326024L190.96,88.97775000326024L191.47333333333333,88.97775000326024L191.94,88.97775000326024L192.40666666666667,88.97775000326024L192.92,88.97775000326024L193.38666666666666,88.97775000326024L193.85333333333335,88.97775000326024L194.32,88.97775000326024L194.83333333333331,88.97775000326024L195.3,88.97775000326024L195.76666666666668,88.97775000326024L196.28,88.97775000326024L196.74666666666667,88.97775000326024L197.21333333333334,88.97775000326024L197.67999999999998,88.97775000326024L198.19333333333333,88.97775000326024L198.66,88.97775000326024L199.12666666666667,88.97775000326024L199.59333333333333,88.97775000326024L200.10666666666665,88.97775000326024L200.57333333333335,88.97775000326024L201.04,88.97775000326024L201.55333333333334,88.97775000326024L202.02,88.97775000326024L202.48666666666665,88.97775000326024L202.95333333333332,88.97775000326024L203.46666666666667,88.97775000326024L203.93333333333334,88.97775000326024L204.4,88.97775000326024L204.91333333333333,88.97775000326024L205.38000000000002,88.97775000326024L205.84666666666666,88.97775000326024L206.31333333333333,88.97775000326024L206.82666666666668,88.97775000326024L207.29333333333332,88.97775000326024L207.76,88.97775000326024L208.27333333333334,88.97775000326024L208.74,88.97775000326024L209.20666666666665,88.97775000326024L209.67333333333335,88.97775000326024L210.18666666666667,88.97775000326024L210.65333333333334,88.97775000326024L211.12,88.97775000326024L211.63333333333333,88.97775000326024L212.1,88.97775000326024L212.56666666666666,88.97775000326024L213.03333333333333,88.97775000326024L213.54666666666668,88.97775000326024L214.01333333333332,88.97775000326024L214.48000000000002,88.97775000326024L214.99333333333334,88.97775000326024L215.45999999999998,88.97775000326024L215.92666666666668,88.97775000326024L216.39333333333335,88.97775000326024L216.90666666666664,88.97775000326024L217.37333333333333,88.97775000326024L217.84,88.97775000326024L218.35333333333335,88.97775000326024L218.82,88.97775000326024L219.28666666666666,88.97775000326024L219.75333333333336,88.97775000326024L220.26666666666665,88.97775000326024L220.73333333333332,88.97775000326024L221.20000000000002,88.97775000326024L221.66666666666666,88.97775000326024L222.18,88.97775000326024L222.64666666666668,88.97775000326024L223.11333333333332,88.97775000326024L223.62666666666667,88.97775000326024L224.09333333333333,88.97775000326024L224.56,88.97775000326024L225.02666666666667,88.97775000326024L225.54,88.97775000326024L226.0066666666667,88.97775000326024L226.47333333333333,88.97775000326024L226.98666666666665,88.97775000326024L227.45333333333335,88.97775000326024L227.92,88.97775000326024L228.38666666666666,88.97775000326024L228.9,88.97775000326024L229.36666666666667,88.97775000326024L229.83333333333331,88.97775000326024L230.34666666666666,88.97775000326024L230.81333333333333,88.97775000326024L231.28,88.97775000326024L231.74666666666667,88.97775000326024L232.26,88.97775000326024L232.7266666666667,88.97775000326024L233.19333333333333,88.97775000326024L233.66,88.97775000326024L234.17333333333335,88.97775000326024L234.64,88.97775000326024L235.10666666666665,88.97775000326024L235.62,88.97775000326024L236.08666666666664,88.97775000326024L236.55333333333334,88.97775000326024L237.06666666666666,88.97775000326024L237.53333333333336,88.97775000326024L238,88.97775000326024L238.46666666666667,88.97775000326024L238.98000000000002,88.97775000326024L239.44666666666666,88.97775000326024L239.91333333333333,88.97775000326024L240.38000000000002,88.97775000326024L240.89333333333332,88.97775000326024L241.35999999999999,88.97775000326024L241.82666666666668,88.97775000326024L242.29333333333332,88.97775000326024L242.80666666666667,88.97775000326024L243.27333333333334,88.97775000326024L243.74,88.97775000326024L244.25333333333333,88.97775000326024L244.72,88.97775000326024L245.18666666666667,88.97775000326024L245.65333333333334,88.97775000326024L246.16666666666666,88.97775000326024L246.63333333333333,88.97775000326024L247.1,88.97775000326024L247.61333333333332,88.97775000326024L248.08,88.97775000326024L248.54666666666668,88.97775000326024L249.01333333333332,88.97775000326024L249.52666666666667,88.97775000326024L249.99333333333334,88.97775000326024L250.45999999999998,88.97775000326024L250.97333333333333,88.97775000326024L251.44,88.97775000326024L251.90666666666664,88.97775000326024L252.37333333333333,88.97775000326024L252.88666666666666,88.97775000326024L253.35333333333335,88.97775000326024L253.82,88.97775000326024L254.28666666666666,88.97775000326024L254.8,88.97775000326024L255.26666666666665,88.97775000326024L255.73333333333332,88.97775000326024L256.24666666666667,88.97775000326024" style="fill: none;" fill="none"></path></g><g><path stroke="rgb(255, 112, 67)" stroke-width="2px" d="M23.846666666666668,88.97775000326024L24.313333333333333,88.97775000326024L24.779999999999998,88.97775000326024L25.293333333333333,88.97775000326024L25.759999999999998,88.97775000326024L26.226666666666667,88.97775000326024L26.740000000000002,88.97775000326024L27.206666666666667,88.97775000326024L27.673333333333332,88.97775000326024L28.186666666666667,88.97775000326024L28.653333333333332,88.97775000326024L29.119999999999997,88.97775000326024L29.633333333333333,88.97775000326024L30.099999999999998,88.97775000326024L30.566666666666666,88.97775000326024L31.033333333333335,88.97775000326024L31.546666666666667,88.97775000326024L32.013333333333335,88.97775000326024L32.480000000000004,88.97775000326024L32.99333333333333,88.97775000326024L33.46,88.97775000326024L33.92666666666667,88.97775000326024L34.39333333333333,88.97775000326024L34.906666666666666,88.97775000326024L35.37333333333333,88.97775000326024L35.84,88.97775000326024L36.35333333333333,88.97775000326024L36.82,88.97775000326024L37.28666666666666,88.97775000326024L37.800000000000004,88.97775000326024L38.266666666666666,88.97775000326024L38.733333333333334,88.97775000326024L39.2,88.97775000326024L39.71333333333334,88.97775000326024L40.18,88.97775000326024L40.64666666666667,88.97775000326024L41.11333333333334,88.97775000326024L41.626666666666665,88.97775000326024L42.093333333333334,88.97775000326024L42.56,88.97775000326024L43.07333333333333,88.97775000326024L43.54,88.97775000326024L44.00666666666667,88.97775000326024L44.52,88.97775000326024L44.98666666666667,88.97775000326024L45.45333333333333,88.97775000326024L45.92,88.97775000326024L46.43333333333333,88.97775000326024L46.900000000000006,88.97775000326024L47.36666666666667,88.97775000326024L47.88,88.97775000326024L48.346666666666664,88.97775000326024L48.81333333333333,88.97775000326024L49.279999999999994,88.97775000326024L49.79333333333334,88.97775000326024L50.26,88.97775000326024L50.72666666666667,88.97775000326024L51.24,88.97775000326024L51.70666666666667,88.97775000326024L52.17333333333333,88.97775000326024L52.64,88.97775000326024L53.15333333333333,88.97775000326024L53.620000000000005,88.97775000326024L54.086666666666666,88.97775000326024L54.6,88.97775000326024L55.06666666666666,88.97775000326024L55.53333333333333,88.97775000326024L56,88.97775000326024L56.513333333333335,88.97775000326024L56.98,88.97775000326024L57.446666666666665,88.97775000326024L57.959999999999994,88.97775000326024L58.42666666666667,88.97775000326024L58.89333333333334,88.97775000326024L59.36,88.97775000326024L59.87333333333333,88.97775000326024L60.339999999999996,88.97775000326024L60.80666666666667,88.97775000326024L61.32,88.97775000326024L61.78666666666667,88.97775000326024L62.25333333333333,88.97775000326024L62.766666666666666,88.97775000326024L63.233333333333334,88.97775000326024L63.7,88.97775000326024L64.16666666666666,88.97775000326024L64.68,88.97775000326024L65.14666666666666,88.97775000326024L65.61333333333333,88.97775000326024L66.08,88.97775000326024L66.59333333333333,88.97775000326024L67.06,88.97775000326024L67.52666666666667,88.97775000326024L68.03999999999999,88.97775000326024L68.50666666666667,88.97775000326024L68.97333333333333,88.97775000326024L69.44,88.97775000326024L69.95333333333333,88.97775000326024L70.42,88.97775000326024L70.88666666666666,88.97775000326024L71.4,88.97775000326024L71.86666666666666,88.97775000326024L72.33333333333334,88.97775000326024L72.8,88.97775000326024L73.31333333333333,88.97775000326024L73.78,88.97775000326024L74.24666666666667,88.97775000326024L74.76,88.97775000326024L75.22666666666666,88.97775000326024L75.69333333333333,88.97775000326024L76.16000000000001,88.97775000326024L76.67333333333333,88.97775000326024L77.14,88.97775000326024L77.60666666666667,88.97775000326024L78.07333333333332,88.97775000326024L78.58666666666667,88.97775000326024L79.05333333333333,88.97775000326024L79.52,88.97775000326024L80.03333333333333,88.97775000326024L80.5,88.97775000326024L80.96666666666667,88.97775000326024L81.43333333333334,88.97775000326024L81.94666666666667,88.97775000326024L82.41333333333333,88.97775000326024L82.88,88.97775000326024L83.34666666666668,88.97775000326024L83.86,88.97775000326024L84.32666666666667,88.97775000326024L84.79333333333334,88.97775000326024L85.30666666666666,88.97775000326024L85.77333333333334,88.97775000326024L86.24,88.97775000326024L86.75333333333334,88.97775000326024L87.22,88.97775000326024L87.68666666666667,88.97775000326024L88.15333333333334,88.97775000326024L88.66666666666666,88.97775000326024L89.13333333333334,88.97775000326024L89.60000000000001,88.97775000326024L90.11333333333334,88.97775000326024L90.58,88.97775000326024L91.04666666666667,88.97775000326024L91.51333333333332,88.97775000326024L92.02666666666667,88.97775000326024L92.49333333333333,88.97775000326024L92.96000000000001,88.97775000326024L93.47333333333333,88.97775000326024L93.94000000000001,88.97775000326024L94.40666666666667,88.97775000326024L94.87333333333333,88.97775000326024L95.38666666666667,88.97775000326024L95.85333333333332,88.97775000326024L96.32,88.97775000326024L96.83333333333333,88.97775000326024L97.3,88.97775000326024L97.76666666666667,88.97775000326024L98.23333333333333,88.97775000326024L98.74666666666667,88.97775000326024L99.21333333333334,88.97775000326024L99.67999999999999,88.97775000326024L100.19333333333333,88.97775000326024L100.66,88.97775000326024L101.12666666666668,88.97775000326024L101.59333333333333,88.97775000326024L102.10666666666665,88.97775000326024L102.57333333333334,88.97775000326024L103.03999999999999,88.97775000326024L103.55333333333334,88.97775000326024L104.02,88.97775000326024L104.48666666666666,88.97775000326024L105,88.97775000326024L105.46666666666667,88.97775000326024L105.93333333333334,88.97775000326024L106.4,88.97775000326024L106.91333333333334,88.97775000326024L107.38,88.97775000326024L107.84666666666666,88.97775000326024L108.31333333333333,88.97775000326024L108.82666666666667,88.97775000326024L109.29333333333332,88.97775000326024L109.76,88.97775000326024L110.27333333333333,88.97775000326024L110.74000000000001,88.97775000326024L111.20666666666666,88.97775000326024L111.67333333333333,88.97775000326024L112.18666666666667,88.97775000326024L112.65333333333334,88.97775000326024L113.12,88.97775000326024L113.63333333333333,88.97775000326024L114.1,88.97775000326024L114.56666666666666,88.97775000326024L115.03333333333333,88.97775000326024L115.54666666666667,88.97775000326024L116.01333333333334,88.97775000326024L116.47999999999999,88.97775000326024L116.94666666666667,88.97775000326024L117.46,88.97775000326024L117.92666666666668,88.97775000326024L118.39333333333333,88.97775000326024L118.90666666666668,88.97775000326024L119.37333333333333,88.97775000326024L119.84,88.97775000326024L120.35333333333334,88.97775000326024L120.82,88.97775000326024L121.28666666666666,88.97775000326024L121.75333333333334,88.97775000326024L122.26666666666667,88.97775000326024L122.73333333333333,88.97775000326024L123.2,88.97775000326024L123.71333333333334,88.97775000326024L124.18,88.97775000326024L124.64666666666666,88.97775000326024L125.11333333333334,88.97775000326024L125.62666666666667,88.97775000326024L126.09333333333332,88.97775000326024L126.56,88.97775000326024L127.02666666666667,88.97775000326024L127.54,88.97775000326024L128.00666666666666,88.97775000326024L128.47333333333333,88.97775000326024L128.98666666666668,88.97775000326024L129.45333333333332,88.97775000326024L129.92000000000002,88.97775000326024L130.43333333333334,88.97775000326024L130.9,88.97775000326024L131.36666666666667,88.97775000326024L131.83333333333334,88.97775000326024L132.34666666666666,88.97775000326024L132.81333333333333,88.97775000326024L133.28,88.97775000326024L133.79333333333332,88.97775000326024L134.26,88.97775000326024L134.72666666666666,88.97775000326024L135.24,88.97775000326024L135.70666666666668,88.97775000326024L136.17333333333335,88.97775000326024L136.64,88.97775000326024L137.15333333333334,88.97775000326024L137.62,88.97775000326024L138.08666666666667,88.97775000326024L138.55333333333334,88.97775000326024L139.06666666666666,88.97775000326024L139.53333333333333,88.97775000326024L140,88.97775000326024L140.46666666666667,88.97775000326024L140.98,88.97775000326024L141.44666666666666,88.97775000326024L141.91333333333333,88.97775000326024L142.42666666666668,88.97775000326024L143.26666666666668,88.97775000326024L143.73333333333332,88.97775000326024L144.20000000000002,88.97775000326024L144.71333333333334,88.97775000326024L145.17999999999998,88.97775000326024L145.64666666666668,88.97775000326024L146.11333333333334,88.97775000326024L146.62666666666667,88.97775000326024L147.09333333333333,88.97775000326024L147.56,88.97775000326024L148.07333333333335,88.97775000326024L148.54,88.97775000326024L149.00666666666666,88.97775000326024L149.47333333333336,88.97775000326024L149.98666666666665,88.97775000326024L150.45333333333332,88.97775000326024L150.92000000000002,88.97775000326024L151.43333333333334,88.97775000326024L151.9,88.97775000326024L152.36666666666667,88.97775000326024L152.83333333333331,88.97775000326024L153.34666666666666,88.97775000326024L153.81333333333333,88.97775000326024L154.28,88.97775000326024L154.79333333333332,88.97775000326024L155.26,88.97775000326024L155.7266666666667,88.97775000326024L156.19333333333333,88.97775000326024L156.70666666666665,88.97775000326024L157.17333333333335,88.97775000326024L157.64,88.97775000326024L158.10666666666665,88.97775000326024L158.62,88.97775000326024L159.08666666666667,88.97775000326024L159.5533333333333,88.97775000326024L160.06666666666666,88.97775000326024L160.53333333333333,88.97775000326024L161,88.97775000326024L161.46666666666667,88.97775000326024L161.98000000000002,88.97775000326024L162.4466666666667,88.97775000326024L162.91333333333333,88.97775000326024L163.42666666666668,88.97775000326024L163.89333333333335,88.97775000326024L164.35999999999999,88.97775000326024L164.82666666666665,88.97775000326024L165.34,88.97775000326024L165.80666666666664,88.97775000326024L166.27333333333334,88.97775000326024L166.74,88.97775000326024L167.25333333333336,88.97775000326024L167.72,88.97775000326024L168.18666666666667,88.97775000326024L168.70000000000002,88.97775000326024L169.16666666666666,88.97775000326024L169.63333333333333,88.97775000326024L170.10000000000002,88.97775000326024L170.61333333333332,88.97775000326024L171.07999999999998,88.97775000326024L171.54666666666668,88.97775000326024L172.06,88.97775000326024L172.52666666666667,88.97775000326024L172.99333333333334,88.97775000326024L173.46,88.97775000326024L173.97333333333333,88.97775000326024L174.44,88.97775000326024L174.90666666666667,88.97775000326024L175.37333333333333,88.97775000326024L175.88666666666666,88.97775000326024L176.35333333333335,88.97775000326024L176.82,88.97775000326024L177.33333333333331,88.97775000326024L177.8,88.97775000326024L178.26666666666668,88.97775000326024L178.73333333333332,88.97775000326024L179.24666666666667,88.97775000326024L179.71333333333334,88.97775000326024L180.17999999999998,88.97775000326024L180.69333333333333,88.97775000326024L181.16,88.97775000326024L181.62666666666667,88.97775000326024L182.09333333333333,88.97775000326024L182.60666666666665,88.97775000326024L183.07333333333335,88.97775000326024L183.54,88.97775000326024L184.05333333333334,88.97775000326024L184.52,88.97775000326024L184.98666666666665,88.97775000326024L185.45333333333332,88.97775000326024L185.96666666666667,88.97775000326024L186.43333333333334,88.97775000326024L186.9,88.97775000326024L187.41333333333333,88.97775000326024L187.88000000000002,88.97775000326024L188.34666666666666,88.97775000326024L188.81333333333333,88.97775000326024L189.32666666666668,88.97775000326024L189.79333333333332,88.97775000326024L190.26,88.97775000326024L190.77333333333334,88.97775000326024L191.24,88.97775000326024L191.70666666666665,88.97775000326024L192.17333333333335,88.97775000326024L192.68666666666667,88.97775000326024L193.15333333333334,88.97775000326024L193.62,88.97775000326024L194.13333333333333,88.97775000326024L194.6,88.97775000326024L195.06666666666666,88.97775000326024L195.53333333333333,88.97775000326024L196.04666666666668,88.97775000326024L196.51333333333332,88.97775000326024L196.98000000000002,88.97775000326024L197.49333333333334,88.97775000326024L197.95999999999998,88.97775000326024L198.42666666666668,88.97775000326024L198.89333333333335,88.97775000326024L199.40666666666664,88.97775000326024L199.87333333333333,88.97775000326024L200.34,88.97775000326024L200.80666666666664,88.97775000326024L201.32,88.97775000326024L201.78666666666666,88.97775000326024L202.25333333333336,88.97775000326024L202.72,88.97775000326024L203.23333333333332,88.97775000326024L203.70000000000002,88.97775000326024L204.16666666666666,88.97775000326024L204.68,88.97775000326024L205.14666666666668,88.97775000326024L205.61333333333332,88.97775000326024L206.07999999999998,88.97775000326024L206.59333333333333,88.97775000326024L207.06,88.97775000326024L207.52666666666667,88.97775000326024L207.99333333333334,88.97775000326024L208.5066666666667,88.97775000326024L208.97333333333333,88.97775000326024L209.44,88.97775000326024L209.95333333333335,88.97775000326024L210.42,88.97775000326024L210.88666666666666,88.97775000326024L211.35333333333335,88.97775000326024L211.86666666666667,88.97775000326024L212.33333333333331,88.97775000326024L212.8,88.97775000326024L213.31333333333333,88.97775000326024L213.78,88.97775000326024L214.24666666666667,88.97775000326024L214.71333333333334,88.97775000326024L215.2266666666667,88.97775000326024L215.69333333333333,88.97775000326024L216.16,88.97775000326024L216.62666666666667,88.97775000326024L217.14,88.97775000326024L217.60666666666665,88.97775000326024L218.07333333333335,88.97775000326024L218.58666666666664,88.97775000326024L219.05333333333334,88.97775000326024L219.52,88.97775000326024L220.03333333333336,88.97775000326024L220.5,88.97775000326024L220.96666666666667,88.97775000326024L221.43333333333334,88.97775000326024L221.94666666666666,88.97775000326024L222.41333333333333,88.97775000326024L222.88000000000002,88.97775000326024L223.39333333333332,88.97775000326024L223.85999999999999,88.97775000326024L224.32666666666668,88.97775000326024L224.79333333333332,88.97775000326024L225.30666666666667,88.97775000326024L225.77333333333334,88.97775000326024L226.24,88.97775000326024L226.70666666666665,88.97775000326024L227.22,88.97775000326024L227.68666666666667,88.97775000326024L228.15333333333334,88.97775000326024L228.66666666666666,88.97775000326024L229.13333333333333,88.97775000326024L229.6,88.97775000326024L230.06666666666666,88.97775000326024L230.58,88.97775000326024L231.04666666666668,88.97775000326024L231.51333333333332,88.97775000326024L231.98000000000002,88.97775000326024L232.49333333333334,88.97775000326024L232.95999999999998,88.97775000326024L233.42666666666668,88.97775000326024L233.94,88.97775000326024L234.40666666666664,88.97775000326024L234.87333333333333,88.97775000326024L235.34,88.97775000326024L235.85333333333335,88.97775000326024L236.32,88.97775000326024L236.78666666666666,88.97775000326024L237.25333333333336,88.97775000326024L237.76666666666665,88.97775000326024L238.23333333333332,88.97775000326024L238.70000000000002,88.97775000326024L239.2133333333333,88.97775000326024L239.68,88.97775000326024L240.14666666666668,88.97775000326024L240.61333333333332,88.97775000326024L241.12666666666667,88.97775000326024L241.59333333333333,88.97775000326024L242.06,88.97775000326024L242.52666666666667,88.97775000326024L243.04,88.97775000326024L243.5066666666667,88.97775000326024L243.97333333333333,88.97775000326024L244.48666666666665,88.97775000326024L244.95333333333335,88.97775000326024L245.42,88.97775000326024L245.88666666666666,88.97775000326024L246.4,88.97775000326024L246.86666666666667,88.97775000326024L247.33333333333331,88.97775000326024L247.84666666666666,88.97775000326024L248.31333333333333,88.97775000326024L248.78,88.97775000326024L249.24666666666667,88.97775000326024L249.76,88.97775000326024L250.2266666666667,88.97775000326024L250.69333333333333,88.97775000326024L251.16,88.97775000326024L251.67333333333335,88.97775000326024L252.14,88.97775000326024L252.60666666666665,88.97775000326024L253.12,88.97775000326024L253.58666666666664,88.97775000326024L254.05333333333334,88.97775000326024L254.52,88.97775000326024L255.03333333333336,88.97775000326024L255.5,88.97775000326024L255.96666666666667,88.97775000326024L256.48,88.97775000326024" style="fill: none;" fill="none"></path></g></g></g></g><g opacity="0.2"><g><g><g><path stroke="rgb(0, 119, 187)" stroke-width="2px" d="M23.846666666666668,88.97775000326024L24.313333333333333,88.97775000326024L24.779999999999998,88.97775000326024L25.293333333333333,88.97775000326024L25.759999999999998,88.97775000326024L26.226666666666667,88.97775000326024L26.740000000000002,88.97775000326024L27.206666666666667,88.97775000326024L27.673333333333332,88.97775000326024L28.186666666666667,88.97775000326024L28.653333333333332,88.97775000326024L29.119999999999997,88.97775000326024L29.633333333333333,88.97775000326024L30.099999999999998,88.97775000326024L30.566666666666666,88.97775000326024L31.080000000000002,88.97775000326024L31.546666666666667,88.97775000326024L32.013333333333335,88.97775000326024L32.480000000000004,88.97775000326024L32.99333333333333,88.97775000326024L33.46,88.97775000326024L33.92666666666667,88.97775000326024L34.44,88.97775000326024L34.906666666666666,88.97775000326024L35.37333333333333,88.97775000326024L35.88666666666667,88.97775000326024L36.35333333333333,88.97775000326024L36.82,88.97775000326024L37.28666666666666,88.97775000326024L37.800000000000004,88.97775000326024L38.266666666666666,88.97775000326024L38.733333333333334,88.97775000326024L39.24666666666666,88.97775000326024L39.71333333333334,88.97775000326024L40.22666666666667,88.97775000326024L40.693333333333335,88.97775000326024L41.16,88.97775000326024L41.67333333333334,88.97775000326024L42.14,88.97775000326024L42.60666666666667,88.97775000326024L43.12,88.97775000326024L43.586666666666666,88.97775000326024L44.05333333333333,88.97775000326024L44.56666666666667,88.97775000326024L45.03333333333333,88.97775000326024L45.5,88.97775000326024L46.013333333333335,88.97775000326024L46.480000000000004,88.97775000326024L46.946666666666665,88.97775000326024L47.46,88.97775000326024L47.92666666666666,88.97775000326024L48.39333333333334,88.97775000326024L48.86,88.97775000326024L49.373333333333335,88.97775000326024L49.839999999999996,88.97775000326024L50.306666666666665,88.97775000326024L50.77333333333334,88.97775000326024L51.28666666666667,88.97775000326024L51.75333333333333,88.97775000326024L52.22,88.97775000326024L52.733333333333334,88.97775000326024L53.2,88.97775000326024L53.66666666666667,88.97775000326024L54.13333333333333,88.97775000326024L54.64666666666666,88.97775000326024L55.11333333333333,88.97775000326024L55.580000000000005,88.97775000326024L56.093333333333334,88.97775000326024L56.56,88.97775000326024L57.026666666666664,88.97775000326024L57.49333333333333,88.97775000326024L58.00666666666667,88.97775000326024L58.473333333333336,88.97775000326024L58.94,88.97775000326024L59.45333333333334,88.97775000326024L59.92,88.97775000326024L60.38666666666667,88.97775000326024L60.85333333333333,88.97775000326024L61.36666666666667,88.97775000326024L61.83333333333333,88.97775000326024L62.300000000000004,88.97775000326024L62.81333333333333,88.97775000326024L63.28,88.97775000326024L63.74666666666666,88.97775000326024L64.21333333333334,88.97775000326024L64.72666666666666,88.97775000326024L65.19333333333333,88.97775000326024L65.66,88.97775000326024L66.17333333333333,88.97775000326024L66.64,88.97775000326024L67.10666666666667,88.97775000326024L67.57333333333334,88.97775000326024L68.08666666666667,88.97775000326024L68.55333333333333,88.97775000326024L69.02,88.97775000326024L69.48666666666666,88.97775000326024L70,88.97775000326024L70.46666666666667,88.97775000326024L70.93333333333334,88.97775000326024L71.44666666666666,88.97775000326024L71.91333333333334,88.97775000326024L72.38,88.97775000326024L72.89333333333335,88.97775000326024L73.36,88.97775000326024L73.82666666666667,88.97775000326024L74.29333333333332,88.97775000326024L74.80666666666667,88.97775000326024L75.27333333333333,88.97775000326024L75.74000000000001,88.97775000326024L76.25333333333333,88.97775000326024L76.72,88.97775000326024L77.18666666666667,88.97775000326024L77.65333333333334,88.97775000326024L78.16666666666667,88.97775000326024L78.63333333333333,88.97775000326024L79.1,88.97775000326024L79.61333333333333,88.97775000326024L80.08,88.97775000326024L80.54666666666667,88.97775000326024L81.01333333333334,88.97775000326024L81.52666666666667,88.97775000326024L81.99333333333334,88.97775000326024L82.46,88.97775000326024L82.97333333333333,88.97775000326024L83.44,88.97775000326024L83.90666666666668,88.97775000326024L84.37333333333333,88.97775000326024L84.88666666666666,88.97775000326024L85.35333333333334,88.97775000326024L85.82,88.97775000326024L86.33333333333334,88.97775000326024L86.8,88.97775000326024L87.26666666666667,88.97775000326024L87.73333333333333,88.97775000326024L88.24666666666666,88.97775000326024L88.71333333333334,88.97775000326024L89.18,88.97775000326024L89.64666666666666,88.97775000326024L90.16,88.97775000326024L90.62666666666667,88.97775000326024L91.09333333333332,88.97775000326024L91.60666666666667,88.97775000326024L92.07333333333332,88.97775000326024L92.54,88.97775000326024L93.00666666666666,88.97775000326024L93.52000000000001,88.97775000326024L93.98666666666666,88.97775000326024L94.45333333333333,88.97775000326024L94.96666666666667,88.97775000326024L95.43333333333334,88.97775000326024L95.9,88.97775000326024L96.36666666666667,88.97775000326024L96.88,88.97775000326024L97.34666666666666,88.97775000326024L97.81333333333333,88.97775000326024L98.32666666666667,88.97775000326024L98.79333333333334,88.97775000326024L99.25999999999999,88.97775000326024L99.72666666666667,88.97775000326024L100.24,88.97775000326024L100.70666666666668,88.97775000326024L101.17333333333333,88.97775000326024L101.68666666666667,88.97775000326024L102.15333333333334,88.97775000326024L102.62,88.97775000326024L103.08666666666666,88.97775000326024L103.6,88.97775000326024L104.06666666666666,88.97775000326024L104.53333333333333,88.97775000326024L105.04666666666667,88.97775000326024L105.51333333333334,88.97775000326024L105.98,88.97775000326024L106.44666666666666,88.97775000326024L106.96000000000001,88.97775000326024L107.42666666666666,88.97775000326024L107.89333333333335,88.97775000326024L108.40666666666667,88.97775000326024L108.87333333333332,88.97775000326024L109.34,88.97775000326024L109.80666666666667,88.97775000326024L110.32000000000001,88.97775000326024L110.78666666666666,88.97775000326024L111.25333333333333,88.97775000326024L111.76666666666667,88.97775000326024L112.23333333333333,88.97775000326024L112.7,88.97775000326024L113.21333333333332,88.97775000326024L113.68,88.97775000326024L114.14666666666668,88.97775000326024L114.61333333333333,88.97775000326024L115.12666666666667,88.97775000326024L115.59333333333333,88.97775000326024L116.05999999999999,88.97775000326024L116.57333333333334,88.97775000326024L117.03999999999999,88.97775000326024L117.50666666666667,88.97775000326024L117.97333333333333,88.97775000326024L118.48666666666668,88.97775000326024L118.95333333333333,88.97775000326024L119.42,88.97775000326024L119.93333333333334,88.97775000326024L120.39999999999999,88.97775000326024L120.86666666666666,88.97775000326024L121.33333333333334,88.97775000326024L121.84666666666666,88.97775000326024L122.31333333333333,88.97775000326024L122.78,88.97775000326024L123.29333333333334,88.97775000326024L123.76,88.97775000326024L124.22666666666666,88.97775000326024L124.69333333333334,88.97775000326024L125.20666666666666,88.97775000326024L125.67333333333333,88.97775000326024L126.14,88.97775000326024L126.65333333333332,88.97775000326024L127.12,88.97775000326024L127.58666666666667,88.97775000326024L128.1,88.97775000326024L128.56666666666666,88.97775000326024L129.03333333333333,88.97775000326024L129.5,88.97775000326024L130.01333333333332,88.97775000326024L130.48000000000002,88.97775000326024L130.94666666666666,88.97775000326024L131.45999999999998,88.97775000326024L131.92666666666668,88.97775000326024L132.39333333333335,88.97775000326024L132.85999999999999,88.97775000326024L133.37333333333333,88.97775000326024L133.84,88.97775000326024L134.30666666666667,88.97775000326024L134.82,88.97775000326024L135.28666666666666,88.97775000326024L135.75333333333333,88.97775000326024L136.22,88.97775000326024L136.73333333333335,88.97775000326024L137.2,88.97775000326024L137.66666666666666,88.97775000326024L138.13333333333333,88.97775000326024L138.64666666666665,88.97775000326024L139.11333333333334,88.97775000326024L139.58,88.97775000326024L140.09333333333333,88.97775000326024L140.56,88.97775000326024L141.02666666666667,88.97775000326024L141.4933333333333,88.97775000326024L142.00666666666666,88.97775000326024L142.47333333333333,88.97775000326024L143.03333333333333,88.97775000326024L143.5,88.97775000326024L143.96666666666667,88.97775000326024L144.43333333333334,88.97775000326024L144.9466666666667,88.97775000326024L145.41333333333333,88.97775000326024L145.88,88.97775000326024L146.39333333333335,88.97775000326024L146.85999999999999,88.97775000326024L147.32666666666665,88.97775000326024L147.79333333333335,88.97775000326024L148.30666666666664,88.97775000326024L148.77333333333334,88.97775000326024L149.24,88.97775000326024L149.75333333333336,88.97775000326024L150.22,88.97775000326024L150.68666666666667,88.97775000326024L151.15333333333334,88.97775000326024L151.66666666666666,88.97775000326024L152.13333333333333,88.97775000326024L152.60000000000002,88.97775000326024L153.06666666666666,88.97775000326024L153.57999999999998,88.97775000326024L154.04666666666668,88.97775000326024L154.51333333333332,88.97775000326024L155.02666666666667,88.97775000326024L155.49333333333334,88.97775000326024L155.96,88.97775000326024L156.42666666666665,88.97775000326024L156.94,88.97775000326024L157.40666666666667,88.97775000326024L157.87333333333333,88.97775000326024L158.38666666666666,88.97775000326024L158.85333333333335,88.97775000326024L159.32,88.97775000326024L159.83333333333331,88.97775000326024L160.3,88.97775000326024L160.76666666666668,88.97775000326024L161.23333333333332,88.97775000326024L161.74666666666667,88.97775000326024L162.21333333333334,88.97775000326024L162.67999999999998,88.97775000326024L163.14666666666668,88.97775000326024L163.66,88.97775000326024L164.12666666666667,88.97775000326024L164.59333333333333,88.97775000326024L165.10666666666665,88.97775000326024L165.57333333333335,88.97775000326024L166.04,88.97775000326024L166.50666666666666,88.97775000326024L167.02,88.97775000326024L167.48666666666665,88.97775000326024L167.95333333333332,88.97775000326024L168.46666666666667,88.97775000326024L168.93333333333334,88.97775000326024L169.4,88.97775000326024L169.91333333333333,88.97775000326024L170.38000000000002,88.97775000326024L170.84666666666666,88.97775000326024L171.31333333333333,88.97775000326024L171.82666666666668,88.97775000326024L172.29333333333332,88.97775000326024L172.76,88.97775000326024L173.2266666666667,88.97775000326024L173.74,88.97775000326024L174.20666666666665,88.97775000326024L174.67333333333335,88.97775000326024L175.18666666666667,88.97775000326024L175.65333333333334,88.97775000326024L176.12,88.97775000326024L176.58666666666667,88.97775000326024L177.1,88.97775000326024L177.56666666666666,88.97775000326024L178.03333333333333,88.97775000326024L178.5,88.97775000326024L179.01333333333332,88.97775000326024L179.48000000000002,88.97775000326024L179.9466666666667,88.97775000326024L180.41333333333333,88.97775000326024L180.92666666666668,88.97775000326024L181.39333333333335,88.97775000326024L181.85999999999999,88.97775000326024L182.37333333333333,88.97775000326024L182.84,88.97775000326024L183.30666666666664,88.97775000326024L183.77333333333334,88.97775000326024L184.28666666666666,88.97775000326024L184.75333333333336,88.97775000326024L185.22,88.97775000326024L185.68666666666667,88.97775000326024L186.20000000000002,88.97775000326024L186.66666666666666,88.97775000326024L187.13333333333333,88.97775000326024L187.64666666666668,88.97775000326024L188.11333333333332,88.97775000326024L188.57999999999998,88.97775000326024L189.04666666666668,88.97775000326024L189.56,88.97775000326024L190.02666666666667,88.97775000326024L190.49333333333334,88.97775000326024L190.96,88.97775000326024L191.47333333333333,88.97775000326024L191.94,88.97775000326024L192.40666666666667,88.97775000326024L192.92,88.97775000326024L193.38666666666666,88.97775000326024L193.85333333333335,88.97775000326024L194.32,88.97775000326024L194.83333333333331,88.97775000326024L195.3,88.97775000326024L195.76666666666668,88.97775000326024L196.28,88.97775000326024L196.74666666666667,88.97775000326024L197.21333333333334,88.97775000326024L197.67999999999998,88.97775000326024L198.19333333333333,88.97775000326024L198.66,88.97775000326024L199.12666666666667,88.97775000326024L199.59333333333333,88.97775000326024L200.10666666666665,88.97775000326024L200.57333333333335,88.97775000326024L201.04,88.97775000326024L201.55333333333334,88.97775000326024L202.02,88.97775000326024L202.48666666666665,88.97775000326024L202.95333333333332,88.97775000326024L203.46666666666667,88.97775000326024L203.93333333333334,88.97775000326024L204.4,88.97775000326024L204.91333333333333,88.97775000326024L205.38000000000002,88.97775000326024L205.84666666666666,88.97775000326024L206.31333333333333,88.97775000326024L206.82666666666668,88.97775000326024L207.29333333333332,88.97775000326024L207.76,88.97775000326024L208.27333333333334,88.97775000326024L208.74,88.97775000326024L209.20666666666665,88.97775000326024L209.67333333333335,88.97775000326024L210.18666666666667,88.97775000326024L210.65333333333334,88.97775000326024L211.12,88.97775000326024L211.63333333333333,88.97775000326024L212.1,88.97775000326024L212.56666666666666,88.97775000326024L213.03333333333333,88.97775000326024L213.54666666666668,88.97775000326024L214.01333333333332,88.97775000326024L214.48000000000002,88.97775000326024L214.99333333333334,88.97775000326024L215.45999999999998,88.97775000326024L215.92666666666668,88.97775000326024L216.39333333333335,88.97775000326024L216.90666666666664,88.97775000326024L217.37333333333333,88.97775000326024L217.84,88.97775000326024L218.35333333333335,88.97775000326024L218.82,88.97775000326024L219.28666666666666,88.97775000326024L219.75333333333336,88.97775000326024L220.26666666666665,88.97775000326024L220.73333333333332,88.97775000326024L221.20000000000002,88.97775000326024L221.66666666666666,88.97775000326024L222.18,88.97775000326024L222.64666666666668,88.97775000326024L223.11333333333332,88.97775000326024L223.62666666666667,88.97775000326024L224.09333333333333,88.97775000326024L224.56,88.97775000326024L225.02666666666667,88.97775000326024L225.54,88.97775000326024L226.0066666666667,88.97775000326024L226.47333333333333,88.97775000326024L226.98666666666665,88.97775000326024L227.45333333333335,88.97775000326024L227.92,88.97775000326024L228.38666666666666,88.97775000326024L228.9,88.97775000326024L229.36666666666667,88.97775000326024L229.83333333333331,88.97775000326024L230.34666666666666,88.97775000326024L230.81333333333333,88.97775000326024L231.28,88.97775000326024L231.74666666666667,88.97775000326024L232.26,88.97775000326024L232.7266666666667,88.97775000326024L233.19333333333333,88.97775000326024L233.66,88.97775000326024L234.17333333333335,88.97775000326024L234.64,88.97775000326024L235.10666666666665,88.97775000326024L235.62,88.97775000326024L236.08666666666664,88.97775000326024L236.55333333333334,88.97775000326024L237.06666666666666,88.97775000326024L237.53333333333336,88.97775000326024L238,88.97775000326024L238.46666666666667,88.97775000326024L238.98000000000002,88.97775000326024L239.44666666666666,88.97775000326024L239.91333333333333,88.97775000326024L240.38000000000002,88.97775000326024L240.89333333333332,88.97775000326024L241.35999999999999,88.97775000326024L241.82666666666668,88.97775000326024L242.29333333333332,88.97775000326024L242.80666666666667,88.97775000326024L243.27333333333334,88.97775000326024L243.74,88.97775000326024L244.25333333333333,88.97775000326024L244.72,88.97775000326024L245.18666666666667,88.97775000326024L245.65333333333334,88.97775000326024L246.16666666666666,88.97775000326024L246.63333333333333,88.97775000326024L247.1,88.97775000326024L247.61333333333332,88.97775000326024L248.08,88.97775000326024L248.54666666666668,88.97775000326024L249.01333333333332,88.97775000326024L249.52666666666667,88.97775000326024L249.99333333333334,88.97775000326024L250.45999999999998,88.97775000326024L250.97333333333333,88.97775000326024L251.44,88.97775000326024L251.90666666666664,88.97775000326024L252.37333333333333,88.97775000326024L252.88666666666666,88.97775000326024L253.35333333333335,88.97775000326024L253.82,88.97775000326024L254.28666666666666,88.97775000326024L254.8,88.97775000326024L255.26666666666665,88.97775000326024L255.73333333333332,88.97775000326024L256.24666666666667,88.97775000326024" style="fill: none;" fill="none"></path></g><g><path stroke="rgb(255, 112, 67)" stroke-width="2px" d="M23.846666666666668,88.97775000326024L24.313333333333333,88.97775000326024L24.779999999999998,88.97775000326024L25.293333333333333,88.97775000326024L25.759999999999998,88.97775000326024L26.226666666666667,88.97775000326024L26.740000000000002,88.97775000326024L27.206666666666667,88.97775000326024L27.673333333333332,88.97775000326024L28.186666666666667,88.97775000326024L28.653333333333332,88.97775000326024L29.119999999999997,88.97775000326024L29.633333333333333,88.97775000326024L30.099999999999998,88.97775000326024L30.566666666666666,88.97775000326024L31.033333333333335,88.97775000326024L31.546666666666667,88.97775000326024L32.013333333333335,88.97775000326024L32.480000000000004,88.97775000326024L32.99333333333333,88.97775000326024L33.46,88.97775000326024L33.92666666666667,88.97775000326024L34.39333333333333,88.97775000326024L34.906666666666666,88.97775000326024L35.37333333333333,88.97775000326024L35.84,88.97775000326024L36.35333333333333,88.97775000326024L36.82,88.97775000326024L37.28666666666666,88.97775000326024L37.800000000000004,88.97775000326024L38.266666666666666,88.97775000326024L38.733333333333334,88.97775000326024L39.2,88.97775000326024L39.71333333333334,88.97775000326024L40.18,88.97775000326024L40.64666666666667,88.97775000326024L41.11333333333334,88.97775000326024L41.626666666666665,88.97775000326024L42.093333333333334,88.97775000326024L42.56,88.97775000326024L43.07333333333333,88.97775000326024L43.54,88.97775000326024L44.00666666666667,88.97775000326024L44.52,88.97775000326024L44.98666666666667,88.97775000326024L45.45333333333333,88.97775000326024L45.92,88.97775000326024L46.43333333333333,88.97775000326024L46.900000000000006,88.97775000326024L47.36666666666667,88.97775000326024L47.88,88.97775000326024L48.346666666666664,88.97775000326024L48.81333333333333,88.97775000326024L49.279999999999994,88.97775000326024L49.79333333333334,88.97775000326024L50.26,88.97775000326024L50.72666666666667,88.97775000326024L51.24,88.97775000326024L51.70666666666667,88.97775000326024L52.17333333333333,88.97775000326024L52.64,88.97775000326024L53.15333333333333,88.97775000326024L53.620000000000005,88.97775000326024L54.086666666666666,88.97775000326024L54.6,88.97775000326024L55.06666666666666,88.97775000326024L55.53333333333333,88.97775000326024L56,88.97775000326024L56.513333333333335,88.97775000326024L56.98,88.97775000326024L57.446666666666665,88.97775000326024L57.959999999999994,88.97775000326024L58.42666666666667,88.97775000326024L58.89333333333334,88.97775000326024L59.36,88.97775000326024L59.87333333333333,88.97775000326024L60.339999999999996,88.97775000326024L60.80666666666667,88.97775000326024L61.32,88.97775000326024L61.78666666666667,88.97775000326024L62.25333333333333,88.97775000326024L62.766666666666666,88.97775000326024L63.233333333333334,88.97775000326024L63.7,88.97775000326024L64.16666666666666,88.97775000326024L64.68,88.97775000326024L65.14666666666666,88.97775000326024L65.61333333333333,88.97775000326024L66.08,88.97775000326024L66.59333333333333,88.97775000326024L67.06,88.97775000326024L67.52666666666667,88.97775000326024L68.03999999999999,88.97775000326024L68.50666666666667,88.97775000326024L68.97333333333333,88.97775000326024L69.44,88.97775000326024L69.95333333333333,88.97775000326024L70.42,88.97775000326024L70.88666666666666,88.97775000326024L71.4,88.97775000326024L71.86666666666666,88.97775000326024L72.33333333333334,88.97775000326024L72.8,88.97775000326024L73.31333333333333,88.97775000326024L73.78,88.97775000326024L74.24666666666667,88.97775000326024L74.76,88.97775000326024L75.22666666666666,88.97775000326024L75.69333333333333,88.97775000326024L76.16000000000001,88.97775000326024L76.67333333333333,88.97775000326024L77.14,88.97775000326024L77.60666666666667,88.97775000326024L78.07333333333332,88.97775000326024L78.58666666666667,88.97775000326024L79.05333333333333,88.97775000326024L79.52,88.97775000326024L80.03333333333333,88.97775000326024L80.5,88.97775000326024L80.96666666666667,88.97775000326024L81.43333333333334,88.97775000326024L81.94666666666667,88.97775000326024L82.41333333333333,88.97775000326024L82.88,88.97775000326024L83.34666666666668,88.97775000326024L83.86,88.97775000326024L84.32666666666667,88.97775000326024L84.79333333333334,88.97775000326024L85.30666666666666,88.97775000326024L85.77333333333334,88.97775000326024L86.24,88.97775000326024L86.75333333333334,88.97775000326024L87.22,88.97775000326024L87.68666666666667,88.97775000326024L88.15333333333334,88.97775000326024L88.66666666666666,88.97775000326024L89.13333333333334,88.97775000326024L89.60000000000001,88.97775000326024L90.11333333333334,88.97775000326024L90.58,88.97775000326024L91.04666666666667,88.97775000326024L91.51333333333332,88.97775000326024L92.02666666666667,88.97775000326024L92.49333333333333,88.97775000326024L92.96000000000001,88.97775000326024L93.47333333333333,88.97775000326024L93.94000000000001,88.97775000326024L94.40666666666667,88.97775000326024L94.87333333333333,88.97775000326024L95.38666666666667,88.97775000326024L95.85333333333332,88.97775000326024L96.32,88.97775000326024L96.83333333333333,88.97775000326024L97.3,88.97775000326024L97.76666666666667,88.97775000326024L98.23333333333333,88.97775000326024L98.74666666666667,88.97775000326024L99.21333333333334,88.97775000326024L99.67999999999999,88.97775000326024L100.19333333333333,88.97775000326024L100.66,88.97775000326024L101.12666666666668,88.97775000326024L101.59333333333333,88.97775000326024L102.10666666666665,88.97775000326024L102.57333333333334,88.97775000326024L103.03999999999999,88.97775000326024L103.55333333333334,88.97775000326024L104.02,88.97775000326024L104.48666666666666,88.97775000326024L105,88.97775000326024L105.46666666666667,88.97775000326024L105.93333333333334,88.97775000326024L106.4,88.97775000326024L106.91333333333334,88.97775000326024L107.38,88.97775000326024L107.84666666666666,88.97775000326024L108.31333333333333,88.97775000326024L108.82666666666667,88.97775000326024L109.29333333333332,88.97775000326024L109.76,88.97775000326024L110.27333333333333,88.97775000326024L110.74000000000001,88.97775000326024L111.20666666666666,88.97775000326024L111.67333333333333,88.97775000326024L112.18666666666667,88.97775000326024L112.65333333333334,88.97775000326024L113.12,88.97775000326024L113.63333333333333,88.97775000326024L114.1,88.97775000326024L114.56666666666666,88.97775000326024L115.03333333333333,88.97775000326024L115.54666666666667,88.97775000326024L116.01333333333334,88.97775000326024L116.47999999999999,88.97775000326024L116.94666666666667,88.97775000326024L117.46,88.97775000326024L117.92666666666668,88.97775000326024L118.39333333333333,88.97775000326024L118.90666666666668,88.97775000326024L119.37333333333333,88.97775000326024L119.84,88.97775000326024L120.35333333333334,88.97775000326024L120.82,88.97775000326024L121.28666666666666,88.97775000326024L121.75333333333334,88.97775000326024L122.26666666666667,88.97775000326024L122.73333333333333,88.97775000326024L123.2,88.97775000326024L123.71333333333334,88.97775000326024L124.18,88.97775000326024L124.64666666666666,88.97775000326024L125.11333333333334,88.97775000326024L125.62666666666667,88.97775000326024L126.09333333333332,88.97775000326024L126.56,88.97775000326024L127.02666666666667,88.97775000326024L127.54,88.97775000326024L128.00666666666666,88.97775000326024L128.47333333333333,88.97775000326024L128.98666666666668,88.97775000326024L129.45333333333332,88.97775000326024L129.92000000000002,88.97775000326024L130.43333333333334,88.97775000326024L130.9,88.97775000326024L131.36666666666667,88.97775000326024L131.83333333333334,88.97775000326024L132.34666666666666,88.97775000326024L132.81333333333333,88.97775000326024L133.28,88.97775000326024L133.79333333333332,88.97775000326024L134.26,88.97775000326024L134.72666666666666,88.97775000326024L135.24,88.97775000326024L135.70666666666668,88.97775000326024L136.17333333333335,88.97775000326024L136.64,88.97775000326024L137.15333333333334,88.97775000326024L137.62,88.97775000326024L138.08666666666667,88.97775000326024L138.55333333333334,88.97775000326024L139.06666666666666,88.97775000326024L139.53333333333333,88.97775000326024L140,88.97775000326024L140.46666666666667,88.97775000326024L140.98,88.97775000326024L141.44666666666666,88.97775000326024L141.91333333333333,88.97775000326024L142.42666666666668,88.97775000326024L143.26666666666668,88.97775000326024L143.73333333333332,88.97775000326024L144.20000000000002,88.97775000326024L144.71333333333334,88.97775000326024L145.17999999999998,88.97775000326024L145.64666666666668,88.97775000326024L146.11333333333334,88.97775000326024L146.62666666666667,88.97775000326024L147.09333333333333,88.97775000326024L147.56,88.97775000326024L148.07333333333335,88.97775000326024L148.54,88.97775000326024L149.00666666666666,88.97775000326024L149.47333333333336,88.97775000326024L149.98666666666665,88.97775000326024L150.45333333333332,88.97775000326024L150.92000000000002,88.97775000326024L151.43333333333334,88.97775000326024L151.9,88.97775000326024L152.36666666666667,88.97775000326024L152.83333333333331,88.97775000326024L153.34666666666666,88.97775000326024L153.81333333333333,88.97775000326024L154.28,88.97775000326024L154.79333333333332,88.97775000326024L155.26,88.97775000326024L155.7266666666667,88.97775000326024L156.19333333333333,88.97775000326024L156.70666666666665,88.97775000326024L157.17333333333335,88.97775000326024L157.64,88.97775000326024L158.10666666666665,88.97775000326024L158.62,88.97775000326024L159.08666666666667,88.97775000326024L159.5533333333333,88.97775000326024L160.06666666666666,88.97775000326024L160.53333333333333,88.97775000326024L161,88.97775000326024L161.46666666666667,88.97775000326024L161.98000000000002,88.97775000326024L162.4466666666667,88.97775000326024L162.91333333333333,88.97775000326024L163.42666666666668,88.97775000326024L163.89333333333335,88.97775000326024L164.35999999999999,88.97775000326024L164.82666666666665,88.97775000326024L165.34,88.97775000326024L165.80666666666664,88.97775000326024L166.27333333333334,88.97775000326024L166.74,88.97775000326024L167.25333333333336,88.97775000326024L167.72,88.97775000326024L168.18666666666667,88.97775000326024L168.70000000000002,88.97775000326024L169.16666666666666,88.97775000326024L169.63333333333333,88.97775000326024L170.10000000000002,88.97775000326024L170.61333333333332,88.97775000326024L171.07999999999998,88.97775000326024L171.54666666666668,88.97775000326024L172.06,88.97775000326024L172.52666666666667,88.97775000326024L172.99333333333334,88.97775000326024L173.46,88.97775000326024L173.97333333333333,88.97775000326024L174.44,88.97775000326024L174.90666666666667,88.97775000326024L175.37333333333333,88.97775000326024L175.88666666666666,88.97775000326024L176.35333333333335,88.97775000326024L176.82,88.97775000326024L177.33333333333331,88.97775000326024L177.8,88.97775000326024L178.26666666666668,88.97775000326024L178.73333333333332,88.97775000326024L179.24666666666667,88.97775000326024L179.71333333333334,88.97775000326024L180.17999999999998,88.97775000326024L180.69333333333333,88.97775000326024L181.16,88.97775000326024L181.62666666666667,88.97775000326024L182.09333333333333,88.97775000326024L182.60666666666665,88.97775000326024L183.07333333333335,88.97775000326024L183.54,88.97775000326024L184.05333333333334,88.97775000326024L184.52,88.97775000326024L184.98666666666665,88.97775000326024L185.45333333333332,88.97775000326024L185.96666666666667,88.97775000326024L186.43333333333334,88.97775000326024L186.9,88.97775000326024L187.41333333333333,88.97775000326024L187.88000000000002,88.97775000326024L188.34666666666666,88.97775000326024L188.81333333333333,88.97775000326024L189.32666666666668,88.97775000326024L189.79333333333332,88.97775000326024L190.26,88.97775000326024L190.77333333333334,88.97775000326024L191.24,88.97775000326024L191.70666666666665,88.97775000326024L192.17333333333335,88.97775000326024L192.68666666666667,88.97775000326024L193.15333333333334,88.97775000326024L193.62,88.97775000326024L194.13333333333333,88.97775000326024L194.6,88.97775000326024L195.06666666666666,88.97775000326024L195.53333333333333,88.97775000326024L196.04666666666668,88.97775000326024L196.51333333333332,88.97775000326024L196.98000000000002,88.97775000326024L197.49333333333334,88.97775000326024L197.95999999999998,88.97775000326024L198.42666666666668,88.97775000326024L198.89333333333335,88.97775000326024L199.40666666666664,88.97775000326024L199.87333333333333,88.97775000326024L200.34,88.97775000326024L200.80666666666664,88.97775000326024L201.32,88.97775000326024L201.78666666666666,88.97775000326024L202.25333333333336,88.97775000326024L202.72,88.97775000326024L203.23333333333332,88.97775000326024L203.70000000000002,88.97775000326024L204.16666666666666,88.97775000326024L204.68,88.97775000326024L205.14666666666668,88.97775000326024L205.61333333333332,88.97775000326024L206.07999999999998,88.97775000326024L206.59333333333333,88.97775000326024L207.06,88.97775000326024L207.52666666666667,88.97775000326024L207.99333333333334,88.97775000326024L208.5066666666667,88.97775000326024L208.97333333333333,88.97775000326024L209.44,88.97775000326024L209.95333333333335,88.97775000326024L210.42,88.97775000326024L210.88666666666666,88.97775000326024L211.35333333333335,88.97775000326024L211.86666666666667,88.97775000326024L212.33333333333331,88.97775000326024L212.8,88.97775000326024L213.31333333333333,88.97775000326024L213.78,88.97775000326024L214.24666666666667,88.97775000326024L214.71333333333334,88.97775000326024L215.2266666666667,88.97775000326024L215.69333333333333,88.97775000326024L216.16,88.97775000326024L216.62666666666667,88.97775000326024L217.14,88.97775000326024L217.60666666666665,88.97775000326024L218.07333333333335,88.97775000326024L218.58666666666664,88.97775000326024L219.05333333333334,88.97775000326024L219.52,88.97775000326024L220.03333333333336,88.97775000326024L220.5,88.97775000326024L220.96666666666667,88.97775000326024L221.43333333333334,88.97775000326024L221.94666666666666,88.97775000326024L222.41333333333333,88.97775000326024L222.88000000000002,88.97775000326024L223.39333333333332,88.97775000326024L223.85999999999999,88.97775000326024L224.32666666666668,88.97775000326024L224.79333333333332,88.97775000326024L225.30666666666667,88.97775000326024L225.77333333333334,88.97775000326024L226.24,88.97775000326024L226.70666666666665,88.97775000326024L227.22,88.97775000326024L227.68666666666667,88.97775000326024L228.15333333333334,88.97775000326024L228.66666666666666,88.97775000326024L229.13333333333333,88.97775000326024L229.6,88.97775000326024L230.06666666666666,88.97775000326024L230.58,88.97775000326024L231.04666666666668,88.97775000326024L231.51333333333332,88.97775000326024L231.98000000000002,88.97775000326024L232.49333333333334,88.97775000326024L232.95999999999998,88.97775000326024L233.42666666666668,88.97775000326024L233.94,88.97775000326024L234.40666666666664,88.97775000326024L234.87333333333333,88.97775000326024L235.34,88.97775000326024L235.85333333333335,88.97775000326024L236.32,88.97775000326024L236.78666666666666,88.97775000326024L237.25333333333336,88.97775000326024L237.76666666666665,88.97775000326024L238.23333333333332,88.97775000326024L238.70000000000002,88.97775000326024L239.2133333333333,88.97775000326024L239.68,88.97775000326024L240.14666666666668,88.97775000326024L240.61333333333332,88.97775000326024L241.12666666666667,88.97775000326024L241.59333333333333,88.97775000326024L242.06,88.97775000326024L242.52666666666667,88.97775000326024L243.04,88.97775000326024L243.5066666666667,88.97775000326024L243.97333333333333,88.97775000326024L244.48666666666665,88.97775000326024L244.95333333333335,88.97775000326024L245.42,88.97775000326024L245.88666666666666,88.97775000326024L246.4,88.97775000326024L246.86666666666667,88.97775000326024L247.33333333333331,88.97775000326024L247.84666666666666,88.97775000326024L248.31333333333333,88.97775000326024L248.78,88.97775000326024L249.24666666666667,88.97775000326024L249.76,88.97775000326024L250.2266666666667,88.97775000326024L250.69333333333333,88.97775000326024L251.16,88.97775000326024L251.67333333333335,88.97775000326024L252.14,88.97775000326024L252.60666666666665,88.97775000326024L253.12,88.97775000326024L253.58666666666664,88.97775000326024L254.05333333333334,88.97775000326024L254.52,88.97775000326024L255.03333333333336,88.97775000326024L255.5,88.97775000326024L255.96666666666667,88.97775000326024L256.48,88.97775000326024" style="fill: none;" fill="none"></path></g></g></g></g></g></g><g transform="translate(50, 178)" clip-path="url(#clip_1)"><clipPath id="clip_1"><rect width="280" height="22"></rect></clipPath><g><g><line x1="0" y1="0" x2="0" y2="5" style="visibility: inherit;" fill="rgb(0, 0, 0)" stroke="rgb(204, 204, 204)" stroke-width="1px"></line><line x1="23.333333333333332" y1="0" x2="23.333333333333332" y2="5" style="visibility: inherit;" fill="rgb(0, 0, 0)" stroke="rgb(204, 204, 204)" stroke-width="1px"></line><line x1="46.666666666666664" y1="0" x2="46.666666666666664" y2="5" style="visibility: inherit;" fill="rgb(0, 0, 0)" stroke="rgb(204, 204, 204)" stroke-width="1px"></line><line x1="70" y1="0" x2="70" y2="5" style="visibility: inherit;" fill="rgb(0, 0, 0)" stroke="rgb(204, 204, 204)" stroke-width="1px"></line><line x1="93.33333333333333" y1="0" x2="93.33333333333333" y2="5" style="visibility: inherit;" fill="rgb(0, 0, 0)" stroke="rgb(204, 204, 204)" stroke-width="1px"></line><line x1="116.66666666666667" y1="0" x2="116.66666666666667" y2="5" style="visibility: inherit;" fill="rgb(0, 0, 0)" stroke="rgb(204, 204, 204)" stroke-width="1px"></line><line x1="140" y1="0" x2="140" y2="5" style="visibility: inherit;" fill="rgb(0, 0, 0)" stroke="rgb(204, 204, 204)" stroke-width="1px"></line><line x1="163.33333333333334" y1="0" x2="163.33333333333334" y2="5" style="visibility: inherit;" fill="rgb(0, 0, 0)" stroke="rgb(204, 204, 204)" stroke-width="1px"></line><line x1="186.66666666666666" y1="0" x2="186.66666666666666" y2="5" style="visibility: inherit;" fill="rgb(0, 0, 0)" stroke="rgb(204, 204, 204)" stroke-width="1px"></line><line x1="210" y1="0" x2="210" y2="5" style="visibility: inherit;" fill="rgb(0, 0, 0)" stroke="rgb(204, 204, 204)" stroke-width="1px"></line><line x1="233.33333333333334" y1="0" x2="233.33333333333334" y2="5" style="visibility: inherit;" fill="rgb(0, 0, 0)" stroke="rgb(204, 204, 204)" stroke-width="1px"></line><line x1="256.66666666666663" y1="0" x2="256.66666666666663" y2="5" style="visibility: inherit;" fill="rgb(0, 0, 0)" stroke="rgb(204, 204, 204)" stroke-width="1px"></line><line x1="280" y1="0" x2="280" y2="5" style="visibility: inherit;" fill="rgb(0, 0, 0)" stroke="rgb(204, 204, 204)" stroke-width="1px"></line></g><g transform="translate(0, 8)"><text x="0" y="0" dx="0em" dy="0.95em" style="text-anchor: middle; visibility: hidden; font-family: &quot;Helvetica Neue&quot;, sans-serif; font-size: 12px; font-weight: 200;" fill="rgb(50, 49, 63)" stroke="none" stroke-width="1px">-5M</text><text x="23.333333333333332" y="0" dx="0em" dy="0.95em" style="text-anchor: middle; visibility: inherit; font-family: &quot;Helvetica Neue&quot;, sans-serif; font-size: 12px; font-weight: 200;" fill="rgb(50, 49, 63)" stroke="none" stroke-width="1px">0</text><text x="46.666666666666664" y="0" dx="0em" dy="0.95em" style="text-anchor: middle; visibility: hidden; font-family: &quot;Helvetica Neue&quot;, sans-serif; font-size: 12px; font-weight: 200;" fill="rgb(50, 49, 63)" stroke="none" stroke-width="1px">5M</text><text x="70" y="0" dx="0em" dy="0.95em" style="text-anchor: middle; visibility: inherit; font-family: &quot;Helvetica Neue&quot;, sans-serif; font-size: 12px; font-weight: 200;" fill="rgb(50, 49, 63)" stroke="none" stroke-width="1px">10M</text><text x="93.33333333333333" y="0" dx="0em" dy="0.95em" style="text-anchor: middle; visibility: hidden; font-family: &quot;Helvetica Neue&quot;, sans-serif; font-size: 12px; font-weight: 200;" fill="rgb(50, 49, 63)" stroke="none" stroke-width="1px">15M</text><text x="116.66666666666667" y="0" dx="0em" dy="0.95em" style="text-anchor: middle; visibility: inherit; font-family: &quot;Helvetica Neue&quot;, sans-serif; font-size: 12px; font-weight: 200;" fill="rgb(50, 49, 63)" stroke="none" stroke-width="1px">20M</text><text x="140" y="0" dx="0em" dy="0.95em" style="text-anchor: middle; visibility: hidden; font-family: &quot;Helvetica Neue&quot;, sans-serif; font-size: 12px; font-weight: 200;" fill="rgb(50, 49, 63)" stroke="none" stroke-width="1px">25M</text><text x="163.33333333333334" y="0" dx="0em" dy="0.95em" style="text-anchor: middle; visibility: inherit; font-family: &quot;Helvetica Neue&quot;, sans-serif; font-size: 12px; font-weight: 200;" fill="rgb(50, 49, 63)" stroke="none" stroke-width="1px">30M</text><text x="186.66666666666666" y="0" dx="0em" dy="0.95em" style="text-anchor: middle; visibility: hidden; font-family: &quot;Helvetica Neue&quot;, sans-serif; font-size: 12px; font-weight: 200;" fill="rgb(50, 49, 63)" stroke="none" stroke-width="1px">35M</text><text x="210" y="0" dx="0em" dy="0.95em" style="text-anchor: middle; visibility: inherit; font-family: &quot;Helvetica Neue&quot;, sans-serif; font-size: 12px; font-weight: 200;" fill="rgb(50, 49, 63)" stroke="none" stroke-width="1px">40M</text><text x="233.33333333333334" y="0" dx="0em" dy="0.95em" style="text-anchor: middle; visibility: hidden; font-family: &quot;Helvetica Neue&quot;, sans-serif; font-size: 12px; font-weight: 200;" fill="rgb(50, 49, 63)" stroke="none" stroke-width="1px">45M</text><text x="256.66666666666663" y="0" dx="0em" dy="0.95em" style="text-anchor: middle; visibility: inherit; font-family: &quot;Helvetica Neue&quot;, sans-serif; font-size: 12px; font-weight: 200;" fill="rgb(50, 49, 63)" stroke="none" stroke-width="1px">50M</text><text x="280" y="0" dx="0em" dy="0.95em" style="text-anchor: middle; visibility: hidden; font-family: &quot;Helvetica Neue&quot;, sans-serif; font-size: 12px; font-weight: 200;" fill="rgb(50, 49, 63)" stroke="none" stroke-width="1px">55M</text></g><line x1="0" y1="0" x2="280" y2="0" fill="rgb(0, 0, 0)" stroke="rgb(204, 204, 204)" stroke-width="1px"></line></g></g></g></g></svg>